G75*
%MOIN*%
%OFA0B0*%
%FSLAX24Y24*%
%IPPOS*%
%LPD*%
%AMOC8*
5,1,8,0,0,1.08239X$1,22.5*
%
%ADD10C,0.0000*%
%ADD11C,0.0040*%
%ADD12C,0.0070*%
%ADD13C,0.0050*%
%ADD14C,0.0060*%
%ADD15R,0.1000X0.0200*%
%ADD16R,0.0300X0.0750*%
%ADD17C,0.0080*%
D10*
X000135Y000200D02*
X002235Y000200D01*
X003235Y001200D01*
X003235Y005570D01*
X018535Y005570D01*
X018535Y001200D01*
X019535Y000200D01*
X021635Y000200D01*
X021635Y032070D01*
X021636Y032146D01*
X021632Y032222D01*
X021625Y032297D01*
X021614Y032372D01*
X021600Y032447D01*
X021582Y032521D01*
X021560Y032593D01*
X021535Y032665D01*
X021506Y032735D01*
X021474Y032804D01*
X021439Y032871D01*
X021400Y032936D01*
X021358Y032999D01*
X021313Y033061D01*
X021265Y033119D01*
X021215Y033176D01*
X021161Y033230D01*
X021105Y033281D01*
X021047Y033329D01*
X020986Y033375D01*
X020923Y033417D01*
X020858Y033457D01*
X020791Y033493D01*
X020723Y033525D01*
X020653Y033555D01*
X020582Y033581D01*
X020509Y033603D01*
X020436Y033622D01*
X020361Y033637D01*
X020286Y033648D01*
X020211Y033656D01*
X020135Y033660D01*
X001635Y033660D01*
X001557Y033656D01*
X001479Y033648D01*
X001402Y033636D01*
X001325Y033620D01*
X001249Y033600D01*
X001174Y033576D01*
X001101Y033549D01*
X001029Y033517D01*
X000959Y033483D01*
X000891Y033444D01*
X000824Y033403D01*
X000760Y033358D01*
X000698Y033309D01*
X000639Y033258D01*
X000583Y033204D01*
X000529Y033147D01*
X000478Y033087D01*
X000430Y033025D01*
X000386Y032961D01*
X000345Y032894D01*
X000307Y032826D01*
X000273Y032755D01*
X000242Y032683D01*
X000215Y032609D01*
X000192Y032535D01*
X000173Y032459D01*
X000157Y032382D01*
X000146Y032305D01*
X000138Y032227D01*
X000134Y032148D01*
X000135Y032070D01*
X000135Y000200D01*
D11*
X002268Y009330D02*
X002345Y009407D01*
X002345Y009484D01*
X002268Y009560D01*
X001885Y009560D01*
X001885Y009484D02*
X001885Y009637D01*
X002038Y009791D02*
X001885Y009944D01*
X002038Y010098D01*
X002345Y010098D01*
X002268Y010251D02*
X002345Y010328D01*
X002345Y010481D01*
X002268Y010558D01*
X002192Y010711D02*
X001885Y011018D01*
X001885Y010711D02*
X002345Y010711D01*
X002115Y010788D02*
X002345Y011018D01*
X002422Y011172D02*
X002422Y011479D01*
X002345Y011632D02*
X002345Y011786D01*
X002345Y011709D02*
X001885Y011709D01*
X001885Y011632D02*
X001885Y011786D01*
X001885Y011939D02*
X002345Y012246D01*
X001885Y012246D01*
X001885Y011939D02*
X002345Y011939D01*
X002422Y012400D02*
X002422Y012706D01*
X002345Y012860D02*
X002345Y013167D01*
X002345Y013013D02*
X001885Y013013D01*
X002038Y012860D01*
X003005Y011017D02*
X002929Y010940D01*
X002929Y010787D01*
X003005Y010710D01*
X003236Y010710D01*
X003389Y010710D02*
X003389Y011171D01*
X003466Y011017D02*
X003619Y011017D01*
X003696Y010940D01*
X003696Y010710D01*
X003850Y010710D02*
X003926Y010710D01*
X003926Y010787D01*
X003850Y010787D01*
X003850Y010710D01*
X003466Y011017D02*
X003389Y010940D01*
X003236Y011017D02*
X003005Y011017D01*
X002268Y010251D02*
X001961Y010251D01*
X001885Y010328D01*
X001885Y010481D01*
X001961Y010558D01*
X002115Y010098D02*
X002115Y009791D01*
X002038Y009791D02*
X002345Y009791D01*
X004540Y010940D02*
X004847Y010940D01*
X005000Y010940D02*
X005307Y010940D01*
X005461Y010787D02*
X005461Y010710D01*
X005461Y010787D02*
X005768Y011094D01*
X005768Y011171D01*
X005461Y011171D01*
X005635Y011018D02*
X005942Y010711D01*
X005865Y010788D02*
X006095Y011018D01*
X006172Y011172D02*
X006172Y011479D01*
X006095Y011632D02*
X006095Y011786D01*
X006095Y011709D02*
X005635Y011709D01*
X005635Y011632D02*
X005635Y011786D01*
X005635Y011939D02*
X006095Y012246D01*
X005635Y012246D01*
X005635Y011939D02*
X006095Y011939D01*
X006172Y012400D02*
X006172Y012706D01*
X006095Y012860D02*
X006095Y013167D01*
X006095Y012860D02*
X005788Y013167D01*
X005711Y013167D01*
X005635Y013090D01*
X005635Y012937D01*
X005711Y012860D01*
X004770Y011171D02*
X004540Y010940D01*
X004770Y010710D02*
X004770Y011171D01*
X005635Y010711D02*
X006095Y010711D01*
X006018Y010558D02*
X006095Y010481D01*
X006095Y010328D01*
X006018Y010251D01*
X005711Y010251D01*
X005635Y010328D01*
X005635Y010481D01*
X005711Y010558D01*
X005788Y010098D02*
X005635Y009944D01*
X005788Y009791D01*
X006095Y009791D01*
X005865Y009791D02*
X005865Y010098D01*
X005788Y010098D02*
X006095Y010098D01*
X006018Y009560D02*
X005635Y009560D01*
X005635Y009484D02*
X005635Y009637D01*
X006018Y009560D02*
X006095Y009484D01*
X006095Y009407D01*
X006018Y009330D01*
X008265Y014550D02*
X008265Y014901D01*
X008440Y014901D01*
X008499Y014842D01*
X008499Y014725D01*
X008440Y014667D01*
X008265Y014667D01*
X008382Y014667D02*
X008499Y014550D01*
X008624Y014550D02*
X008858Y014784D01*
X008858Y014842D01*
X008799Y014901D01*
X008682Y014901D01*
X008624Y014842D01*
X008624Y014550D02*
X008858Y014550D01*
X008841Y015550D02*
X008841Y015901D01*
X008724Y015784D01*
X008599Y015842D02*
X008599Y015725D01*
X008540Y015667D01*
X008365Y015667D01*
X008482Y015667D02*
X008599Y015550D01*
X008724Y015550D02*
X008958Y015550D01*
X008599Y015842D02*
X008540Y015901D01*
X008365Y015901D01*
X008365Y015550D01*
X009461Y013167D02*
X009538Y013167D01*
X009615Y013090D01*
X009692Y013167D01*
X009768Y013167D01*
X009845Y013090D01*
X009845Y012937D01*
X009768Y012860D01*
X009615Y013013D02*
X009615Y013090D01*
X009461Y013167D02*
X009385Y013090D01*
X009385Y012937D01*
X009461Y012860D01*
X009385Y012246D02*
X009845Y012246D01*
X009385Y011939D01*
X009845Y011939D01*
X009845Y011786D02*
X009845Y011632D01*
X009845Y011709D02*
X009385Y011709D01*
X009385Y011632D02*
X009385Y011786D01*
X009922Y011479D02*
X009922Y011172D01*
X009845Y011018D02*
X009615Y010788D01*
X009692Y010711D02*
X009385Y011018D01*
X009385Y010711D02*
X009845Y010711D01*
X009768Y010558D02*
X009845Y010481D01*
X009845Y010328D01*
X009768Y010251D01*
X009461Y010251D01*
X009385Y010328D01*
X009385Y010481D01*
X009461Y010558D01*
X009538Y010098D02*
X009845Y010098D01*
X009615Y010098D02*
X009615Y009791D01*
X009538Y009791D02*
X009385Y009944D01*
X009538Y010098D01*
X009538Y009791D02*
X009845Y009791D01*
X009768Y009560D02*
X009845Y009484D01*
X009845Y009407D01*
X009768Y009330D01*
X009768Y009560D02*
X009385Y009560D01*
X009385Y009484D02*
X009385Y009637D01*
X009922Y012400D02*
X009922Y012706D01*
X012015Y015600D02*
X012015Y015951D01*
X012190Y015951D01*
X012249Y015892D01*
X012249Y015775D01*
X012190Y015717D01*
X012015Y015717D01*
X012132Y015717D02*
X012249Y015600D01*
X012374Y015659D02*
X012432Y015600D01*
X012549Y015600D01*
X012608Y015659D01*
X012608Y015717D01*
X012549Y015775D01*
X012491Y015775D01*
X012549Y015775D02*
X012608Y015834D01*
X012608Y015892D01*
X012549Y015951D01*
X012432Y015951D01*
X012374Y015892D01*
X012440Y014901D02*
X012265Y014901D01*
X012265Y014550D01*
X012265Y014667D02*
X012440Y014667D01*
X012499Y014725D01*
X012499Y014842D01*
X012440Y014901D01*
X012382Y014667D02*
X012499Y014550D01*
X012624Y014725D02*
X012858Y014725D01*
X012799Y014550D02*
X012799Y014901D01*
X012624Y014725D01*
X013135Y013090D02*
X013365Y012860D01*
X013365Y013167D01*
X013595Y013090D02*
X013135Y013090D01*
X013672Y012706D02*
X013672Y012400D01*
X013595Y012246D02*
X013135Y012246D01*
X013135Y011939D02*
X013595Y012246D01*
X013595Y011939D02*
X013135Y011939D01*
X013135Y011786D02*
X013135Y011632D01*
X013135Y011709D02*
X013595Y011709D01*
X013595Y011632D02*
X013595Y011786D01*
X013672Y011479D02*
X013672Y011172D01*
X013595Y011018D02*
X013365Y010788D01*
X013442Y010711D02*
X013135Y011018D01*
X013135Y010711D02*
X013595Y010711D01*
X013518Y010558D02*
X013595Y010481D01*
X013595Y010328D01*
X013518Y010251D01*
X013211Y010251D01*
X013135Y010328D01*
X013135Y010481D01*
X013211Y010558D01*
X013288Y010098D02*
X013595Y010098D01*
X013365Y010098D02*
X013365Y009791D01*
X013288Y009791D02*
X013135Y009944D01*
X013288Y010098D01*
X013288Y009791D02*
X013595Y009791D01*
X013518Y009560D02*
X013135Y009560D01*
X013135Y009484D02*
X013135Y009637D01*
X013518Y009560D02*
X013595Y009484D01*
X013595Y009407D01*
X013518Y009330D01*
X015405Y014200D02*
X015405Y014375D01*
X015463Y014434D01*
X015580Y014434D01*
X015638Y014375D01*
X015638Y014200D01*
X015638Y014317D02*
X015755Y014434D01*
X015697Y014559D02*
X015755Y014618D01*
X015755Y014734D01*
X015697Y014793D01*
X015638Y014793D01*
X015580Y014734D01*
X015580Y014559D01*
X015697Y014559D01*
X015580Y014559D02*
X015463Y014676D01*
X015405Y014793D01*
X015405Y014200D02*
X015755Y014200D01*
X015655Y017200D02*
X015305Y017200D01*
X015305Y017375D01*
X015363Y017434D01*
X015480Y017434D01*
X015538Y017375D01*
X015538Y017200D01*
X015538Y017317D02*
X015655Y017434D01*
X015597Y017559D02*
X015655Y017618D01*
X015655Y017734D01*
X015597Y017793D01*
X015480Y017793D01*
X015421Y017734D01*
X015421Y017676D01*
X015480Y017559D01*
X015305Y017559D01*
X015305Y017793D01*
X013595Y019407D02*
X013595Y019484D01*
X013518Y019560D01*
X013135Y019560D01*
X013135Y019484D02*
X013135Y019637D01*
X013288Y019791D02*
X013135Y019944D01*
X013288Y020098D01*
X013595Y020098D01*
X013518Y020251D02*
X013595Y020328D01*
X013595Y020481D01*
X013518Y020558D01*
X013442Y020711D02*
X013135Y021018D01*
X013135Y020711D02*
X013595Y020711D01*
X013365Y020788D02*
X013595Y021018D01*
X013672Y021172D02*
X013672Y021479D01*
X013518Y021632D02*
X013595Y021709D01*
X013595Y021862D01*
X013518Y021939D01*
X013211Y021939D01*
X013135Y021862D01*
X013135Y021709D01*
X013211Y021632D01*
X013518Y021632D01*
X013518Y022093D02*
X013135Y022093D01*
X013135Y022400D02*
X013518Y022400D01*
X013595Y022323D01*
X013595Y022169D01*
X013518Y022093D01*
X013135Y022553D02*
X013135Y022860D01*
X013135Y022706D02*
X013595Y022706D01*
X013672Y023013D02*
X013672Y023320D01*
X013365Y023474D02*
X013365Y023781D01*
X013595Y023704D02*
X013135Y023704D01*
X013365Y023474D01*
X012963Y025259D02*
X012965Y025290D01*
X012971Y025321D01*
X012980Y025351D01*
X012993Y025380D01*
X013010Y025407D01*
X013030Y025431D01*
X013052Y025453D01*
X013078Y025472D01*
X013105Y025488D01*
X013134Y025500D01*
X013164Y025509D01*
X013195Y025514D01*
X013227Y025515D01*
X013258Y025512D01*
X013289Y025505D01*
X013319Y025495D01*
X013347Y025481D01*
X013373Y025463D01*
X013397Y025443D01*
X013418Y025419D01*
X013437Y025394D01*
X013452Y025366D01*
X013463Y025337D01*
X013471Y025306D01*
X013475Y025275D01*
X013475Y025243D01*
X013471Y025212D01*
X013463Y025181D01*
X013452Y025152D01*
X013437Y025124D01*
X013418Y025099D01*
X013397Y025075D01*
X013373Y025055D01*
X013347Y025037D01*
X013319Y025023D01*
X013289Y025013D01*
X013258Y025006D01*
X013227Y025003D01*
X013195Y025004D01*
X013164Y025009D01*
X013134Y025018D01*
X013105Y025030D01*
X013078Y025046D01*
X013052Y025065D01*
X013030Y025087D01*
X013010Y025111D01*
X012993Y025138D01*
X012980Y025167D01*
X012971Y025197D01*
X012965Y025228D01*
X012963Y025259D01*
X010995Y025259D02*
X010997Y025290D01*
X011003Y025321D01*
X011012Y025351D01*
X011025Y025380D01*
X011042Y025407D01*
X011062Y025431D01*
X011084Y025453D01*
X011110Y025472D01*
X011137Y025488D01*
X011166Y025500D01*
X011196Y025509D01*
X011227Y025514D01*
X011259Y025515D01*
X011290Y025512D01*
X011321Y025505D01*
X011351Y025495D01*
X011379Y025481D01*
X011405Y025463D01*
X011429Y025443D01*
X011450Y025419D01*
X011469Y025394D01*
X011484Y025366D01*
X011495Y025337D01*
X011503Y025306D01*
X011507Y025275D01*
X011507Y025243D01*
X011503Y025212D01*
X011495Y025181D01*
X011484Y025152D01*
X011469Y025124D01*
X011450Y025099D01*
X011429Y025075D01*
X011405Y025055D01*
X011379Y025037D01*
X011351Y025023D01*
X011321Y025013D01*
X011290Y025006D01*
X011259Y025003D01*
X011227Y025004D01*
X011196Y025009D01*
X011166Y025018D01*
X011137Y025030D01*
X011110Y025046D01*
X011084Y025065D01*
X011062Y025087D01*
X011042Y025111D01*
X011025Y025138D01*
X011012Y025167D01*
X011003Y025197D01*
X010997Y025228D01*
X010995Y025259D01*
X009768Y023781D02*
X009845Y023704D01*
X009845Y023550D01*
X009768Y023474D01*
X009615Y023627D02*
X009615Y023704D01*
X009692Y023781D01*
X009768Y023781D01*
X009615Y023704D02*
X009538Y023781D01*
X009461Y023781D01*
X009385Y023704D01*
X009385Y023550D01*
X009461Y023474D01*
X009922Y023320D02*
X009922Y023013D01*
X009845Y022706D02*
X009385Y022706D01*
X009385Y022553D02*
X009385Y022860D01*
X009385Y022400D02*
X009768Y022400D01*
X009845Y022323D01*
X009845Y022169D01*
X009768Y022093D01*
X009385Y022093D01*
X009461Y021939D02*
X009385Y021862D01*
X009385Y021709D01*
X009461Y021632D01*
X009768Y021632D01*
X009845Y021709D01*
X009845Y021862D01*
X009768Y021939D01*
X009461Y021939D01*
X009922Y021479D02*
X009922Y021172D01*
X009845Y021018D02*
X009615Y020788D01*
X009692Y020711D02*
X009385Y021018D01*
X009385Y020711D02*
X009845Y020711D01*
X009768Y020558D02*
X009845Y020481D01*
X009845Y020328D01*
X009768Y020251D01*
X009461Y020251D01*
X009385Y020328D01*
X009385Y020481D01*
X009461Y020558D01*
X009538Y020098D02*
X009845Y020098D01*
X009615Y020098D02*
X009615Y019791D01*
X009538Y019791D02*
X009385Y019944D01*
X009538Y020098D01*
X009538Y019791D02*
X009845Y019791D01*
X009768Y019560D02*
X009385Y019560D01*
X009385Y019484D02*
X009385Y019637D01*
X009768Y019560D02*
X009845Y019484D01*
X009845Y019407D01*
X009768Y019330D01*
X013135Y020328D02*
X013211Y020251D01*
X013518Y020251D01*
X013365Y020098D02*
X013365Y019791D01*
X013288Y019791D02*
X013595Y019791D01*
X013595Y019407D02*
X013518Y019330D01*
X013135Y020328D02*
X013135Y020481D01*
X013211Y020558D01*
X015745Y025259D02*
X015747Y025290D01*
X015753Y025321D01*
X015762Y025351D01*
X015775Y025380D01*
X015792Y025407D01*
X015812Y025431D01*
X015834Y025453D01*
X015860Y025472D01*
X015887Y025488D01*
X015916Y025500D01*
X015946Y025509D01*
X015977Y025514D01*
X016009Y025515D01*
X016040Y025512D01*
X016071Y025505D01*
X016101Y025495D01*
X016129Y025481D01*
X016155Y025463D01*
X016179Y025443D01*
X016200Y025419D01*
X016219Y025394D01*
X016234Y025366D01*
X016245Y025337D01*
X016253Y025306D01*
X016257Y025275D01*
X016257Y025243D01*
X016253Y025212D01*
X016245Y025181D01*
X016234Y025152D01*
X016219Y025124D01*
X016200Y025099D01*
X016179Y025075D01*
X016155Y025055D01*
X016129Y025037D01*
X016101Y025023D01*
X016071Y025013D01*
X016040Y025006D01*
X016009Y025003D01*
X015977Y025004D01*
X015946Y025009D01*
X015916Y025018D01*
X015887Y025030D01*
X015860Y025046D01*
X015834Y025065D01*
X015812Y025087D01*
X015792Y025111D01*
X015775Y025138D01*
X015762Y025167D01*
X015753Y025197D01*
X015747Y025228D01*
X015745Y025259D01*
X017713Y025259D02*
X017715Y025290D01*
X017721Y025321D01*
X017730Y025351D01*
X017743Y025380D01*
X017760Y025407D01*
X017780Y025431D01*
X017802Y025453D01*
X017828Y025472D01*
X017855Y025488D01*
X017884Y025500D01*
X017914Y025509D01*
X017945Y025514D01*
X017977Y025515D01*
X018008Y025512D01*
X018039Y025505D01*
X018069Y025495D01*
X018097Y025481D01*
X018123Y025463D01*
X018147Y025443D01*
X018168Y025419D01*
X018187Y025394D01*
X018202Y025366D01*
X018213Y025337D01*
X018221Y025306D01*
X018225Y025275D01*
X018225Y025243D01*
X018221Y025212D01*
X018213Y025181D01*
X018202Y025152D01*
X018187Y025124D01*
X018168Y025099D01*
X018147Y025075D01*
X018123Y025055D01*
X018097Y025037D01*
X018069Y025023D01*
X018039Y025013D01*
X018008Y025006D01*
X017977Y025003D01*
X017945Y025004D01*
X017914Y025009D01*
X017884Y025018D01*
X017855Y025030D01*
X017828Y025046D01*
X017802Y025065D01*
X017780Y025087D01*
X017760Y025111D01*
X017743Y025138D01*
X017730Y025167D01*
X017721Y025197D01*
X017715Y025228D01*
X017713Y025259D01*
X017713Y028763D02*
X017715Y028794D01*
X017721Y028825D01*
X017730Y028855D01*
X017743Y028884D01*
X017760Y028911D01*
X017780Y028935D01*
X017802Y028957D01*
X017828Y028976D01*
X017855Y028992D01*
X017884Y029004D01*
X017914Y029013D01*
X017945Y029018D01*
X017977Y029019D01*
X018008Y029016D01*
X018039Y029009D01*
X018069Y028999D01*
X018097Y028985D01*
X018123Y028967D01*
X018147Y028947D01*
X018168Y028923D01*
X018187Y028898D01*
X018202Y028870D01*
X018213Y028841D01*
X018221Y028810D01*
X018225Y028779D01*
X018225Y028747D01*
X018221Y028716D01*
X018213Y028685D01*
X018202Y028656D01*
X018187Y028628D01*
X018168Y028603D01*
X018147Y028579D01*
X018123Y028559D01*
X018097Y028541D01*
X018069Y028527D01*
X018039Y028517D01*
X018008Y028510D01*
X017977Y028507D01*
X017945Y028508D01*
X017914Y028513D01*
X017884Y028522D01*
X017855Y028534D01*
X017828Y028550D01*
X017802Y028569D01*
X017780Y028591D01*
X017760Y028615D01*
X017743Y028642D01*
X017730Y028671D01*
X017721Y028701D01*
X017715Y028732D01*
X017713Y028763D01*
X016591Y029836D02*
X016284Y029529D01*
X016284Y029452D01*
X016131Y029452D02*
X015977Y029606D01*
X016054Y029606D02*
X015824Y029606D01*
X015824Y029452D02*
X015824Y029913D01*
X016054Y029913D01*
X016131Y029836D01*
X016131Y029683D01*
X016054Y029606D01*
X016284Y029913D02*
X016591Y029913D01*
X016591Y029836D01*
X015745Y028763D02*
X015747Y028794D01*
X015753Y028825D01*
X015762Y028855D01*
X015775Y028884D01*
X015792Y028911D01*
X015812Y028935D01*
X015834Y028957D01*
X015860Y028976D01*
X015887Y028992D01*
X015916Y029004D01*
X015946Y029013D01*
X015977Y029018D01*
X016009Y029019D01*
X016040Y029016D01*
X016071Y029009D01*
X016101Y028999D01*
X016129Y028985D01*
X016155Y028967D01*
X016179Y028947D01*
X016200Y028923D01*
X016219Y028898D01*
X016234Y028870D01*
X016245Y028841D01*
X016253Y028810D01*
X016257Y028779D01*
X016257Y028747D01*
X016253Y028716D01*
X016245Y028685D01*
X016234Y028656D01*
X016219Y028628D01*
X016200Y028603D01*
X016179Y028579D01*
X016155Y028559D01*
X016129Y028541D01*
X016101Y028527D01*
X016071Y028517D01*
X016040Y028510D01*
X016009Y028507D01*
X015977Y028508D01*
X015946Y028513D01*
X015916Y028522D01*
X015887Y028534D01*
X015860Y028550D01*
X015834Y028569D01*
X015812Y028591D01*
X015792Y028615D01*
X015775Y028642D01*
X015762Y028671D01*
X015753Y028701D01*
X015747Y028732D01*
X015745Y028763D01*
X012963Y028763D02*
X012965Y028794D01*
X012971Y028825D01*
X012980Y028855D01*
X012993Y028884D01*
X013010Y028911D01*
X013030Y028935D01*
X013052Y028957D01*
X013078Y028976D01*
X013105Y028992D01*
X013134Y029004D01*
X013164Y029013D01*
X013195Y029018D01*
X013227Y029019D01*
X013258Y029016D01*
X013289Y029009D01*
X013319Y028999D01*
X013347Y028985D01*
X013373Y028967D01*
X013397Y028947D01*
X013418Y028923D01*
X013437Y028898D01*
X013452Y028870D01*
X013463Y028841D01*
X013471Y028810D01*
X013475Y028779D01*
X013475Y028747D01*
X013471Y028716D01*
X013463Y028685D01*
X013452Y028656D01*
X013437Y028628D01*
X013418Y028603D01*
X013397Y028579D01*
X013373Y028559D01*
X013347Y028541D01*
X013319Y028527D01*
X013289Y028517D01*
X013258Y028510D01*
X013227Y028507D01*
X013195Y028508D01*
X013164Y028513D01*
X013134Y028522D01*
X013105Y028534D01*
X013078Y028550D01*
X013052Y028569D01*
X013030Y028591D01*
X013010Y028615D01*
X012993Y028642D01*
X012980Y028671D01*
X012971Y028701D01*
X012965Y028732D01*
X012963Y028763D01*
X011841Y029529D02*
X011764Y029452D01*
X011611Y029452D01*
X011534Y029529D01*
X011534Y029606D01*
X011611Y029683D01*
X011764Y029683D01*
X011841Y029606D01*
X011841Y029529D01*
X011764Y029683D02*
X011841Y029759D01*
X011841Y029836D01*
X011764Y029913D01*
X011611Y029913D01*
X011534Y029836D01*
X011534Y029759D01*
X011611Y029683D01*
X011381Y029683D02*
X011381Y029836D01*
X011304Y029913D01*
X011074Y029913D01*
X011074Y029452D01*
X011074Y029606D02*
X011304Y029606D01*
X011381Y029683D01*
X011227Y029606D02*
X011381Y029452D01*
X010995Y028763D02*
X010997Y028794D01*
X011003Y028825D01*
X011012Y028855D01*
X011025Y028884D01*
X011042Y028911D01*
X011062Y028935D01*
X011084Y028957D01*
X011110Y028976D01*
X011137Y028992D01*
X011166Y029004D01*
X011196Y029013D01*
X011227Y029018D01*
X011259Y029019D01*
X011290Y029016D01*
X011321Y029009D01*
X011351Y028999D01*
X011379Y028985D01*
X011405Y028967D01*
X011429Y028947D01*
X011450Y028923D01*
X011469Y028898D01*
X011484Y028870D01*
X011495Y028841D01*
X011503Y028810D01*
X011507Y028779D01*
X011507Y028747D01*
X011503Y028716D01*
X011495Y028685D01*
X011484Y028656D01*
X011469Y028628D01*
X011450Y028603D01*
X011429Y028579D01*
X011405Y028559D01*
X011379Y028541D01*
X011351Y028527D01*
X011321Y028517D01*
X011290Y028510D01*
X011259Y028507D01*
X011227Y028508D01*
X011196Y028513D01*
X011166Y028522D01*
X011137Y028534D01*
X011110Y028550D01*
X011084Y028569D01*
X011062Y028591D01*
X011042Y028615D01*
X011025Y028642D01*
X011012Y028671D01*
X011003Y028701D01*
X010997Y028732D01*
X010995Y028763D01*
X008213Y028763D02*
X008215Y028794D01*
X008221Y028825D01*
X008230Y028855D01*
X008243Y028884D01*
X008260Y028911D01*
X008280Y028935D01*
X008302Y028957D01*
X008328Y028976D01*
X008355Y028992D01*
X008384Y029004D01*
X008414Y029013D01*
X008445Y029018D01*
X008477Y029019D01*
X008508Y029016D01*
X008539Y029009D01*
X008569Y028999D01*
X008597Y028985D01*
X008623Y028967D01*
X008647Y028947D01*
X008668Y028923D01*
X008687Y028898D01*
X008702Y028870D01*
X008713Y028841D01*
X008721Y028810D01*
X008725Y028779D01*
X008725Y028747D01*
X008721Y028716D01*
X008713Y028685D01*
X008702Y028656D01*
X008687Y028628D01*
X008668Y028603D01*
X008647Y028579D01*
X008623Y028559D01*
X008597Y028541D01*
X008569Y028527D01*
X008539Y028517D01*
X008508Y028510D01*
X008477Y028507D01*
X008445Y028508D01*
X008414Y028513D01*
X008384Y028522D01*
X008355Y028534D01*
X008328Y028550D01*
X008302Y028569D01*
X008280Y028591D01*
X008260Y028615D01*
X008243Y028642D01*
X008230Y028671D01*
X008221Y028701D01*
X008215Y028732D01*
X008213Y028763D01*
X007091Y029529D02*
X007014Y029452D01*
X006861Y029452D01*
X006784Y029529D01*
X006631Y029452D02*
X006477Y029606D01*
X006554Y029606D02*
X006324Y029606D01*
X006324Y029452D02*
X006324Y029913D01*
X006554Y029913D01*
X006631Y029836D01*
X006631Y029683D01*
X006554Y029606D01*
X006784Y029759D02*
X006784Y029836D01*
X006861Y029913D01*
X007014Y029913D01*
X007091Y029836D01*
X007091Y029529D01*
X007091Y029683D02*
X006861Y029683D01*
X006784Y029759D01*
X006245Y028763D02*
X006247Y028794D01*
X006253Y028825D01*
X006262Y028855D01*
X006275Y028884D01*
X006292Y028911D01*
X006312Y028935D01*
X006334Y028957D01*
X006360Y028976D01*
X006387Y028992D01*
X006416Y029004D01*
X006446Y029013D01*
X006477Y029018D01*
X006509Y029019D01*
X006540Y029016D01*
X006571Y029009D01*
X006601Y028999D01*
X006629Y028985D01*
X006655Y028967D01*
X006679Y028947D01*
X006700Y028923D01*
X006719Y028898D01*
X006734Y028870D01*
X006745Y028841D01*
X006753Y028810D01*
X006757Y028779D01*
X006757Y028747D01*
X006753Y028716D01*
X006745Y028685D01*
X006734Y028656D01*
X006719Y028628D01*
X006700Y028603D01*
X006679Y028579D01*
X006655Y028559D01*
X006629Y028541D01*
X006601Y028527D01*
X006571Y028517D01*
X006540Y028510D01*
X006509Y028507D01*
X006477Y028508D01*
X006446Y028513D01*
X006416Y028522D01*
X006387Y028534D01*
X006360Y028550D01*
X006334Y028569D01*
X006312Y028591D01*
X006292Y028615D01*
X006275Y028642D01*
X006262Y028671D01*
X006253Y028701D01*
X006247Y028732D01*
X006245Y028763D01*
X006245Y025259D02*
X006247Y025290D01*
X006253Y025321D01*
X006262Y025351D01*
X006275Y025380D01*
X006292Y025407D01*
X006312Y025431D01*
X006334Y025453D01*
X006360Y025472D01*
X006387Y025488D01*
X006416Y025500D01*
X006446Y025509D01*
X006477Y025514D01*
X006509Y025515D01*
X006540Y025512D01*
X006571Y025505D01*
X006601Y025495D01*
X006629Y025481D01*
X006655Y025463D01*
X006679Y025443D01*
X006700Y025419D01*
X006719Y025394D01*
X006734Y025366D01*
X006745Y025337D01*
X006753Y025306D01*
X006757Y025275D01*
X006757Y025243D01*
X006753Y025212D01*
X006745Y025181D01*
X006734Y025152D01*
X006719Y025124D01*
X006700Y025099D01*
X006679Y025075D01*
X006655Y025055D01*
X006629Y025037D01*
X006601Y025023D01*
X006571Y025013D01*
X006540Y025006D01*
X006509Y025003D01*
X006477Y025004D01*
X006446Y025009D01*
X006416Y025018D01*
X006387Y025030D01*
X006360Y025046D01*
X006334Y025065D01*
X006312Y025087D01*
X006292Y025111D01*
X006275Y025138D01*
X006262Y025167D01*
X006253Y025197D01*
X006247Y025228D01*
X006245Y025259D01*
X006095Y023781D02*
X006095Y023474D01*
X005788Y023781D01*
X005711Y023781D01*
X005635Y023704D01*
X005635Y023550D01*
X005711Y023474D01*
X006172Y023320D02*
X006172Y023013D01*
X006095Y022706D02*
X005635Y022706D01*
X005635Y022553D02*
X005635Y022860D01*
X005635Y022400D02*
X006018Y022400D01*
X006095Y022323D01*
X006095Y022169D01*
X006018Y022093D01*
X005635Y022093D01*
X005711Y021939D02*
X005635Y021862D01*
X005635Y021709D01*
X005711Y021632D01*
X006018Y021632D01*
X006095Y021709D01*
X006095Y021862D01*
X006018Y021939D01*
X005711Y021939D01*
X006172Y021479D02*
X006172Y021172D01*
X006095Y021018D02*
X005865Y020788D01*
X005942Y020711D02*
X005635Y021018D01*
X005635Y020711D02*
X006095Y020711D01*
X006018Y020558D02*
X006095Y020481D01*
X006095Y020328D01*
X006018Y020251D01*
X005711Y020251D01*
X005635Y020328D01*
X005635Y020481D01*
X005711Y020558D01*
X005788Y020098D02*
X006095Y020098D01*
X005865Y020098D02*
X005865Y019791D01*
X005788Y019791D02*
X005635Y019944D01*
X005788Y020098D01*
X005788Y019791D02*
X006095Y019791D01*
X006018Y019560D02*
X005635Y019560D01*
X005635Y019484D02*
X005635Y019637D01*
X006018Y019560D02*
X006095Y019484D01*
X006095Y019407D01*
X006018Y019330D01*
X005258Y015901D02*
X005142Y015901D01*
X005083Y015842D01*
X005258Y015901D02*
X005317Y015842D01*
X005317Y015784D01*
X005083Y015550D01*
X005317Y015550D01*
X005258Y015001D02*
X005142Y015001D01*
X005083Y014942D01*
X005200Y014825D02*
X005258Y014825D01*
X005317Y014767D01*
X005317Y014709D01*
X005258Y014650D01*
X005142Y014650D01*
X005083Y014709D01*
X004958Y014650D02*
X004724Y014650D01*
X004841Y014650D02*
X004841Y015001D01*
X004724Y014884D01*
X004599Y014942D02*
X004599Y014825D01*
X004540Y014767D01*
X004365Y014767D01*
X004482Y014767D02*
X004599Y014650D01*
X004365Y014650D02*
X004365Y015001D01*
X004540Y015001D01*
X004599Y014942D01*
X004599Y015550D02*
X004482Y015667D01*
X004540Y015667D02*
X004365Y015667D01*
X004365Y015550D02*
X004365Y015901D01*
X004540Y015901D01*
X004599Y015842D01*
X004599Y015725D01*
X004540Y015667D01*
X004724Y015784D02*
X004841Y015901D01*
X004841Y015550D01*
X004724Y015550D02*
X004958Y015550D01*
X005258Y015001D02*
X005317Y014942D01*
X005317Y014884D01*
X005258Y014825D01*
X002268Y019330D02*
X002345Y019407D01*
X002345Y019484D01*
X002268Y019560D01*
X001885Y019560D01*
X001885Y019484D02*
X001885Y019637D01*
X002038Y019791D02*
X001885Y019944D01*
X002038Y020098D01*
X002345Y020098D01*
X002268Y020251D02*
X002345Y020328D01*
X002345Y020481D01*
X002268Y020558D01*
X002192Y020711D02*
X001885Y021018D01*
X001885Y020711D02*
X002345Y020711D01*
X002115Y020788D02*
X002345Y021018D01*
X002422Y021172D02*
X002422Y021479D01*
X002268Y021632D02*
X002345Y021709D01*
X002345Y021862D01*
X002268Y021939D01*
X001961Y021939D01*
X001885Y021862D01*
X001885Y021709D01*
X001961Y021632D01*
X002268Y021632D01*
X002268Y022093D02*
X001885Y022093D01*
X001885Y022400D02*
X002268Y022400D01*
X002345Y022323D01*
X002345Y022169D01*
X002268Y022093D01*
X001885Y022553D02*
X001885Y022860D01*
X001885Y022706D02*
X002345Y022706D01*
X002422Y023013D02*
X002422Y023320D01*
X002345Y023474D02*
X002345Y023781D01*
X002345Y023627D02*
X001885Y023627D01*
X002038Y023474D01*
X001495Y025259D02*
X001497Y025290D01*
X001503Y025321D01*
X001512Y025351D01*
X001525Y025380D01*
X001542Y025407D01*
X001562Y025431D01*
X001584Y025453D01*
X001610Y025472D01*
X001637Y025488D01*
X001666Y025500D01*
X001696Y025509D01*
X001727Y025514D01*
X001759Y025515D01*
X001790Y025512D01*
X001821Y025505D01*
X001851Y025495D01*
X001879Y025481D01*
X001905Y025463D01*
X001929Y025443D01*
X001950Y025419D01*
X001969Y025394D01*
X001984Y025366D01*
X001995Y025337D01*
X002003Y025306D01*
X002007Y025275D01*
X002007Y025243D01*
X002003Y025212D01*
X001995Y025181D01*
X001984Y025152D01*
X001969Y025124D01*
X001950Y025099D01*
X001929Y025075D01*
X001905Y025055D01*
X001879Y025037D01*
X001851Y025023D01*
X001821Y025013D01*
X001790Y025006D01*
X001759Y025003D01*
X001727Y025004D01*
X001696Y025009D01*
X001666Y025018D01*
X001637Y025030D01*
X001610Y025046D01*
X001584Y025065D01*
X001562Y025087D01*
X001542Y025111D01*
X001525Y025138D01*
X001512Y025167D01*
X001503Y025197D01*
X001497Y025228D01*
X001495Y025259D01*
X001495Y028763D02*
X001497Y028794D01*
X001503Y028825D01*
X001512Y028855D01*
X001525Y028884D01*
X001542Y028911D01*
X001562Y028935D01*
X001584Y028957D01*
X001610Y028976D01*
X001637Y028992D01*
X001666Y029004D01*
X001696Y029013D01*
X001727Y029018D01*
X001759Y029019D01*
X001790Y029016D01*
X001821Y029009D01*
X001851Y028999D01*
X001879Y028985D01*
X001905Y028967D01*
X001929Y028947D01*
X001950Y028923D01*
X001969Y028898D01*
X001984Y028870D01*
X001995Y028841D01*
X002003Y028810D01*
X002007Y028779D01*
X002007Y028747D01*
X002003Y028716D01*
X001995Y028685D01*
X001984Y028656D01*
X001969Y028628D01*
X001950Y028603D01*
X001929Y028579D01*
X001905Y028559D01*
X001879Y028541D01*
X001851Y028527D01*
X001821Y028517D01*
X001790Y028510D01*
X001759Y028507D01*
X001727Y028508D01*
X001696Y028513D01*
X001666Y028522D01*
X001637Y028534D01*
X001610Y028550D01*
X001584Y028569D01*
X001562Y028591D01*
X001542Y028615D01*
X001525Y028642D01*
X001512Y028671D01*
X001503Y028701D01*
X001497Y028732D01*
X001495Y028763D01*
X001574Y029452D02*
X001574Y029913D01*
X001804Y029913D01*
X001881Y029836D01*
X001881Y029683D01*
X001804Y029606D01*
X001574Y029606D01*
X001727Y029606D02*
X001881Y029452D01*
X002034Y029452D02*
X002341Y029452D01*
X002188Y029452D02*
X002188Y029913D01*
X002034Y029759D01*
X002495Y029836D02*
X002495Y029529D01*
X002802Y029836D01*
X002802Y029529D01*
X002725Y029452D01*
X002571Y029452D01*
X002495Y029529D01*
X002495Y029836D02*
X002571Y029913D01*
X002725Y029913D01*
X002802Y029836D01*
X003463Y028763D02*
X003465Y028794D01*
X003471Y028825D01*
X003480Y028855D01*
X003493Y028884D01*
X003510Y028911D01*
X003530Y028935D01*
X003552Y028957D01*
X003578Y028976D01*
X003605Y028992D01*
X003634Y029004D01*
X003664Y029013D01*
X003695Y029018D01*
X003727Y029019D01*
X003758Y029016D01*
X003789Y029009D01*
X003819Y028999D01*
X003847Y028985D01*
X003873Y028967D01*
X003897Y028947D01*
X003918Y028923D01*
X003937Y028898D01*
X003952Y028870D01*
X003963Y028841D01*
X003971Y028810D01*
X003975Y028779D01*
X003975Y028747D01*
X003971Y028716D01*
X003963Y028685D01*
X003952Y028656D01*
X003937Y028628D01*
X003918Y028603D01*
X003897Y028579D01*
X003873Y028559D01*
X003847Y028541D01*
X003819Y028527D01*
X003789Y028517D01*
X003758Y028510D01*
X003727Y028507D01*
X003695Y028508D01*
X003664Y028513D01*
X003634Y028522D01*
X003605Y028534D01*
X003578Y028550D01*
X003552Y028569D01*
X003530Y028591D01*
X003510Y028615D01*
X003493Y028642D01*
X003480Y028671D01*
X003471Y028701D01*
X003465Y028732D01*
X003463Y028763D01*
X003463Y025259D02*
X003465Y025290D01*
X003471Y025321D01*
X003480Y025351D01*
X003493Y025380D01*
X003510Y025407D01*
X003530Y025431D01*
X003552Y025453D01*
X003578Y025472D01*
X003605Y025488D01*
X003634Y025500D01*
X003664Y025509D01*
X003695Y025514D01*
X003727Y025515D01*
X003758Y025512D01*
X003789Y025505D01*
X003819Y025495D01*
X003847Y025481D01*
X003873Y025463D01*
X003897Y025443D01*
X003918Y025419D01*
X003937Y025394D01*
X003952Y025366D01*
X003963Y025337D01*
X003971Y025306D01*
X003975Y025275D01*
X003975Y025243D01*
X003971Y025212D01*
X003963Y025181D01*
X003952Y025152D01*
X003937Y025124D01*
X003918Y025099D01*
X003897Y025075D01*
X003873Y025055D01*
X003847Y025037D01*
X003819Y025023D01*
X003789Y025013D01*
X003758Y025006D01*
X003727Y025003D01*
X003695Y025004D01*
X003664Y025009D01*
X003634Y025018D01*
X003605Y025030D01*
X003578Y025046D01*
X003552Y025065D01*
X003530Y025087D01*
X003510Y025111D01*
X003493Y025138D01*
X003480Y025167D01*
X003471Y025197D01*
X003465Y025228D01*
X003463Y025259D01*
X001961Y020558D02*
X001885Y020481D01*
X001885Y020328D01*
X001961Y020251D01*
X002268Y020251D01*
X002115Y020098D02*
X002115Y019791D01*
X002038Y019791D02*
X002345Y019791D01*
X008213Y025259D02*
X008215Y025290D01*
X008221Y025321D01*
X008230Y025351D01*
X008243Y025380D01*
X008260Y025407D01*
X008280Y025431D01*
X008302Y025453D01*
X008328Y025472D01*
X008355Y025488D01*
X008384Y025500D01*
X008414Y025509D01*
X008445Y025514D01*
X008477Y025515D01*
X008508Y025512D01*
X008539Y025505D01*
X008569Y025495D01*
X008597Y025481D01*
X008623Y025463D01*
X008647Y025443D01*
X008668Y025419D01*
X008687Y025394D01*
X008702Y025366D01*
X008713Y025337D01*
X008721Y025306D01*
X008725Y025275D01*
X008725Y025243D01*
X008721Y025212D01*
X008713Y025181D01*
X008702Y025152D01*
X008687Y025124D01*
X008668Y025099D01*
X008647Y025075D01*
X008623Y025055D01*
X008597Y025037D01*
X008569Y025023D01*
X008539Y025013D01*
X008508Y025006D01*
X008477Y025003D01*
X008445Y025004D01*
X008414Y025009D01*
X008384Y025018D01*
X008355Y025030D01*
X008328Y025046D01*
X008302Y025065D01*
X008280Y025087D01*
X008260Y025111D01*
X008243Y025138D01*
X008230Y025167D01*
X008221Y025197D01*
X008215Y025228D01*
X008213Y025259D01*
X008162Y032695D02*
X008369Y032902D01*
X008369Y032954D01*
X008317Y033005D01*
X008214Y033005D01*
X008162Y032954D01*
X008162Y032695D02*
X008369Y032695D01*
X008484Y032695D02*
X008536Y032695D01*
X008536Y032747D01*
X008484Y032747D01*
X008484Y032695D01*
X008646Y032747D02*
X008697Y032695D01*
X008801Y032695D01*
X008852Y032747D01*
X008852Y032799D01*
X008801Y032850D01*
X008646Y032850D01*
X008646Y032747D01*
X008646Y032850D02*
X008749Y032954D01*
X008852Y033005D01*
X009102Y032954D02*
X009154Y033005D01*
X009257Y033005D01*
X009309Y032954D01*
X009309Y032902D01*
X009102Y032695D01*
X009309Y032695D01*
X009424Y032695D02*
X009476Y032695D01*
X009476Y032747D01*
X009424Y032747D01*
X009424Y032695D01*
X009586Y032850D02*
X009792Y032850D01*
X009741Y032695D02*
X009741Y033005D01*
X009586Y032850D01*
X009637Y033220D02*
X009586Y033272D01*
X009637Y033220D02*
X009741Y033220D01*
X009792Y033272D01*
X009792Y033375D01*
X009741Y033427D01*
X009689Y033427D01*
X009586Y033375D01*
X009586Y033530D01*
X009792Y033530D01*
X009476Y033272D02*
X009476Y033220D01*
X009424Y033220D01*
X009424Y033272D01*
X009476Y033272D01*
X009309Y033220D02*
X009102Y033220D01*
X009309Y033427D01*
X009309Y033479D01*
X009257Y033530D01*
X009154Y033530D01*
X009102Y033479D01*
X008852Y033479D02*
X008646Y033272D01*
X008646Y033220D01*
X008536Y033220D02*
X008484Y033220D01*
X008484Y033272D01*
X008536Y033272D01*
X008536Y033220D01*
X008369Y033220D02*
X008162Y033220D01*
X008369Y033427D01*
X008369Y033479D01*
X008317Y033530D01*
X008214Y033530D01*
X008162Y033479D01*
X007832Y033220D02*
X007626Y033220D01*
X007729Y033220D02*
X007729Y033530D01*
X007626Y033427D01*
X007516Y033272D02*
X007516Y033220D01*
X007464Y033220D01*
X007464Y033272D01*
X007516Y033272D01*
X007349Y033272D02*
X007297Y033220D01*
X007194Y033220D01*
X007142Y033272D01*
X007246Y033375D02*
X007297Y033375D01*
X007349Y033324D01*
X007349Y033272D01*
X007297Y033375D02*
X007349Y033427D01*
X007349Y033479D01*
X007297Y033530D01*
X007194Y033530D01*
X007142Y033479D01*
X006772Y033469D02*
X006772Y033417D01*
X006721Y033365D01*
X006772Y033314D01*
X006772Y033262D01*
X006721Y033210D01*
X006617Y033210D01*
X006566Y033262D01*
X006456Y033262D02*
X006456Y033210D01*
X006404Y033210D01*
X006404Y033262D01*
X006456Y033262D01*
X006289Y033262D02*
X006237Y033210D01*
X006134Y033210D01*
X006082Y033262D01*
X006186Y033365D02*
X006237Y033365D01*
X006289Y033314D01*
X006289Y033262D01*
X006237Y033365D02*
X006289Y033417D01*
X006289Y033469D01*
X006237Y033520D01*
X006134Y033520D01*
X006082Y033469D01*
X005792Y033520D02*
X005586Y033520D01*
X005586Y033365D01*
X005689Y033417D01*
X005741Y033417D01*
X005792Y033365D01*
X005792Y033262D01*
X005741Y033210D01*
X005637Y033210D01*
X005586Y033262D01*
X005476Y033262D02*
X005476Y033210D01*
X005424Y033210D01*
X005424Y033262D01*
X005476Y033262D01*
X005309Y033262D02*
X005257Y033210D01*
X005154Y033210D01*
X005102Y033262D01*
X005206Y033365D02*
X005257Y033365D01*
X005309Y033314D01*
X005309Y033262D01*
X005257Y033365D02*
X005309Y033417D01*
X005309Y033469D01*
X005257Y033520D01*
X005154Y033520D01*
X005102Y033469D01*
X005154Y032995D02*
X005257Y032995D01*
X005309Y032944D01*
X005309Y032892D01*
X005257Y032840D01*
X005309Y032789D01*
X005309Y032737D01*
X005257Y032685D01*
X005154Y032685D01*
X005102Y032737D01*
X005206Y032840D02*
X005257Y032840D01*
X005102Y032944D02*
X005154Y032995D01*
X005424Y032737D02*
X005476Y032737D01*
X005476Y032685D01*
X005424Y032685D01*
X005424Y032737D01*
X005586Y032840D02*
X005792Y032840D01*
X005741Y032685D02*
X005741Y032995D01*
X005586Y032840D01*
X006082Y032737D02*
X006134Y032685D01*
X006237Y032685D01*
X006289Y032737D01*
X006289Y032789D01*
X006237Y032840D01*
X006186Y032840D01*
X006237Y032840D02*
X006289Y032892D01*
X006289Y032944D01*
X006237Y032995D01*
X006134Y032995D01*
X006082Y032944D01*
X006404Y032737D02*
X006456Y032737D01*
X006456Y032685D01*
X006404Y032685D01*
X006404Y032737D01*
X006566Y032685D02*
X006772Y032892D01*
X006772Y032944D01*
X006721Y032995D01*
X006617Y032995D01*
X006566Y032944D01*
X006566Y032685D02*
X006772Y032685D01*
X007142Y032747D02*
X007194Y032695D01*
X007297Y032695D01*
X007349Y032747D01*
X007349Y032799D01*
X007297Y032850D01*
X007246Y032850D01*
X007297Y032850D02*
X007349Y032902D01*
X007349Y032954D01*
X007297Y033005D01*
X007194Y033005D01*
X007142Y032954D01*
X006772Y033469D02*
X006721Y033520D01*
X006617Y033520D01*
X006566Y033469D01*
X006669Y033365D02*
X006721Y033365D01*
X007464Y032747D02*
X007516Y032747D01*
X007516Y032695D01*
X007464Y032695D01*
X007464Y032747D01*
X007626Y032747D02*
X007832Y032954D01*
X007832Y032747D01*
X007781Y032695D01*
X007677Y032695D01*
X007626Y032747D01*
X007626Y032954D01*
X007677Y033005D01*
X007781Y033005D01*
X007832Y032954D01*
X008646Y033530D02*
X008852Y033530D01*
X008852Y033479D01*
X010132Y033479D02*
X010184Y033530D01*
X010287Y033530D01*
X010339Y033479D01*
X010339Y033427D01*
X010132Y033220D01*
X010339Y033220D01*
X010454Y033220D02*
X010506Y033220D01*
X010506Y033272D01*
X010454Y033272D01*
X010454Y033220D01*
X010616Y033272D02*
X010667Y033220D01*
X010771Y033220D01*
X010822Y033272D01*
X010822Y033324D01*
X010771Y033375D01*
X010719Y033375D01*
X010771Y033375D02*
X010822Y033427D01*
X010822Y033479D01*
X010771Y033530D01*
X010667Y033530D01*
X010616Y033479D01*
X010667Y033005D02*
X010616Y032954D01*
X010667Y033005D02*
X010771Y033005D01*
X010822Y032954D01*
X010822Y032902D01*
X010616Y032695D01*
X010822Y032695D01*
X010506Y032695D02*
X010454Y032695D01*
X010454Y032747D01*
X010506Y032747D01*
X010506Y032695D01*
X010339Y032695D02*
X010132Y032695D01*
X010339Y032902D01*
X010339Y032954D01*
X010287Y033005D01*
X010184Y033005D01*
X010132Y032954D01*
X011132Y032954D02*
X011184Y033005D01*
X011287Y033005D01*
X011339Y032954D01*
X011339Y032902D01*
X011132Y032695D01*
X011339Y032695D01*
X011454Y032695D02*
X011506Y032695D01*
X011506Y032747D01*
X011454Y032747D01*
X011454Y032695D01*
X011616Y032747D02*
X011616Y032954D01*
X011667Y033005D01*
X011771Y033005D01*
X011822Y032954D01*
X011616Y032747D01*
X011667Y032695D01*
X011771Y032695D01*
X011822Y032747D01*
X011822Y032954D01*
X011822Y033220D02*
X011616Y033220D01*
X011719Y033220D02*
X011719Y033530D01*
X011616Y033427D01*
X011506Y033272D02*
X011506Y033220D01*
X011454Y033220D01*
X011454Y033272D01*
X011506Y033272D01*
X011339Y033220D02*
X011132Y033220D01*
X011339Y033427D01*
X011339Y033479D01*
X011287Y033530D01*
X011184Y033530D01*
X011132Y033479D01*
X012142Y033427D02*
X012246Y033530D01*
X012246Y033220D01*
X012349Y033220D02*
X012142Y033220D01*
X012246Y033005D02*
X012142Y032902D01*
X012246Y033005D02*
X012246Y032695D01*
X012349Y032695D02*
X012142Y032695D01*
X012464Y032695D02*
X012516Y032695D01*
X012516Y032747D01*
X012464Y032747D01*
X012464Y032695D01*
X012626Y032747D02*
X012677Y032695D01*
X012781Y032695D01*
X012832Y032747D01*
X012832Y032799D01*
X012781Y032850D01*
X012626Y032850D01*
X012626Y032747D01*
X012626Y032850D02*
X012729Y032954D01*
X012832Y033005D01*
X012626Y033220D02*
X012626Y033272D01*
X012832Y033479D01*
X012832Y033530D01*
X012626Y033530D01*
X012516Y033272D02*
X012516Y033220D01*
X012464Y033220D01*
X012464Y033272D01*
X012516Y033272D01*
X013122Y033210D02*
X013329Y033210D01*
X013226Y033210D02*
X013226Y033520D01*
X013122Y033417D01*
X013444Y033262D02*
X013496Y033262D01*
X013496Y033210D01*
X013444Y033210D01*
X013444Y033262D01*
X013606Y033262D02*
X013657Y033210D01*
X013761Y033210D01*
X013812Y033262D01*
X013812Y033365D01*
X013761Y033417D01*
X013709Y033417D01*
X013606Y033365D01*
X013606Y033520D01*
X013812Y033520D01*
X014102Y033417D02*
X014206Y033520D01*
X014206Y033210D01*
X014309Y033210D02*
X014102Y033210D01*
X014206Y032995D02*
X014102Y032892D01*
X014206Y032995D02*
X014206Y032685D01*
X014309Y032685D02*
X014102Y032685D01*
X013812Y032840D02*
X013606Y032840D01*
X013761Y032995D01*
X013761Y032685D01*
X013496Y032685D02*
X013444Y032685D01*
X013444Y032737D01*
X013496Y032737D01*
X013496Y032685D01*
X013329Y032685D02*
X013122Y032685D01*
X013226Y032685D02*
X013226Y032995D01*
X013122Y032892D01*
X014424Y032737D02*
X014476Y032737D01*
X014476Y032685D01*
X014424Y032685D01*
X014424Y032737D01*
X014586Y032685D02*
X014792Y032892D01*
X014792Y032944D01*
X014741Y032995D01*
X014637Y032995D01*
X014586Y032944D01*
X014586Y032685D02*
X014792Y032685D01*
X015132Y032685D02*
X015339Y032685D01*
X015236Y032685D02*
X015236Y032995D01*
X015132Y032892D01*
X015132Y033210D02*
X015339Y033210D01*
X015236Y033210D02*
X015236Y033520D01*
X015132Y033417D01*
X015454Y033262D02*
X015506Y033262D01*
X015506Y033210D01*
X015454Y033210D01*
X015454Y033262D01*
X015616Y033210D02*
X015822Y033210D01*
X015719Y033210D02*
X015719Y033520D01*
X015616Y033417D01*
X015667Y032995D02*
X015771Y032995D01*
X015822Y032944D01*
X015616Y032737D01*
X015667Y032685D01*
X015771Y032685D01*
X015822Y032737D01*
X015822Y032944D01*
X015667Y032995D02*
X015616Y032944D01*
X015616Y032737D01*
X015506Y032737D02*
X015506Y032685D01*
X015454Y032685D01*
X015454Y032737D01*
X015506Y032737D01*
X016112Y032767D02*
X016319Y032974D01*
X016319Y032767D01*
X016267Y032715D01*
X016164Y032715D01*
X016112Y032767D01*
X016112Y032974D01*
X016164Y033025D01*
X016267Y033025D01*
X016319Y032974D01*
X016434Y032767D02*
X016486Y032767D01*
X016486Y032715D01*
X016434Y032715D01*
X016434Y032767D01*
X016596Y032767D02*
X016596Y032870D01*
X016751Y032870D01*
X016802Y032819D01*
X016802Y032767D01*
X016751Y032715D01*
X016647Y032715D01*
X016596Y032767D01*
X016596Y032870D02*
X016699Y032974D01*
X016802Y033025D01*
X016596Y033240D02*
X016596Y033292D01*
X016802Y033499D01*
X016802Y033550D01*
X016596Y033550D01*
X016486Y033292D02*
X016486Y033240D01*
X016434Y033240D01*
X016434Y033292D01*
X016486Y033292D01*
X016319Y033292D02*
X016267Y033240D01*
X016164Y033240D01*
X016112Y033292D01*
X016319Y033499D01*
X016319Y033292D01*
X016319Y033499D02*
X016267Y033550D01*
X016164Y033550D01*
X016112Y033499D01*
X016112Y033292D01*
X017192Y033292D02*
X017399Y033499D01*
X017399Y033292D01*
X017347Y033240D01*
X017244Y033240D01*
X017192Y033292D01*
X017192Y033499D01*
X017244Y033550D01*
X017347Y033550D01*
X017399Y033499D01*
X017514Y033292D02*
X017566Y033292D01*
X017566Y033240D01*
X017514Y033240D01*
X017514Y033292D01*
X017676Y033292D02*
X017727Y033240D01*
X017831Y033240D01*
X017882Y033292D01*
X017882Y033395D01*
X017831Y033447D01*
X017779Y033447D01*
X017676Y033395D01*
X017676Y033550D01*
X017882Y033550D01*
X018212Y033509D02*
X018264Y033560D01*
X018367Y033560D01*
X018419Y033509D01*
X018212Y033302D01*
X018264Y033250D01*
X018367Y033250D01*
X018419Y033302D01*
X018419Y033509D01*
X018212Y033509D02*
X018212Y033302D01*
X018264Y033035D02*
X018367Y033035D01*
X018419Y032984D01*
X018212Y032777D01*
X018264Y032725D01*
X018367Y032725D01*
X018419Y032777D01*
X018419Y032984D01*
X018264Y033035D02*
X018212Y032984D01*
X018212Y032777D01*
X017882Y032870D02*
X017676Y032870D01*
X017831Y033025D01*
X017831Y032715D01*
X017566Y032715D02*
X017514Y032715D01*
X017514Y032767D01*
X017566Y032767D01*
X017566Y032715D01*
X017399Y032767D02*
X017399Y032974D01*
X017192Y032767D01*
X017244Y032715D01*
X017347Y032715D01*
X017399Y032767D01*
X017399Y032974D02*
X017347Y033025D01*
X017244Y033025D01*
X017192Y032974D01*
X017192Y032767D01*
X018534Y032777D02*
X018586Y032777D01*
X018586Y032725D01*
X018534Y032725D01*
X018534Y032777D01*
X018696Y032725D02*
X018902Y032932D01*
X018902Y032984D01*
X018851Y033035D01*
X018747Y033035D01*
X018696Y032984D01*
X018696Y032725D02*
X018902Y032725D01*
X019212Y032767D02*
X019419Y032974D01*
X019419Y032767D01*
X019367Y032715D01*
X019264Y032715D01*
X019212Y032767D01*
X019212Y032974D01*
X019264Y033025D01*
X019367Y033025D01*
X019419Y032974D01*
X019534Y032767D02*
X019586Y032767D01*
X019586Y032715D01*
X019534Y032715D01*
X019534Y032767D01*
X019696Y032767D02*
X019696Y032974D01*
X019747Y033025D01*
X019851Y033025D01*
X019902Y032974D01*
X019696Y032767D01*
X019747Y032715D01*
X019851Y032715D01*
X019902Y032767D01*
X019902Y032974D01*
X019902Y033240D02*
X019696Y033240D01*
X019799Y033240D02*
X019799Y033550D01*
X019696Y033447D01*
X019586Y033292D02*
X019586Y033240D01*
X019534Y033240D01*
X019534Y033292D01*
X019586Y033292D01*
X019419Y033292D02*
X019367Y033240D01*
X019264Y033240D01*
X019212Y033292D01*
X019419Y033499D01*
X019419Y033292D01*
X019419Y033499D02*
X019367Y033550D01*
X019264Y033550D01*
X019212Y033499D01*
X019212Y033292D01*
X018902Y033302D02*
X018851Y033250D01*
X018747Y033250D01*
X018696Y033302D01*
X018586Y033302D02*
X018586Y033250D01*
X018534Y033250D01*
X018534Y033302D01*
X018586Y033302D01*
X018696Y033509D02*
X018747Y033560D01*
X018851Y033560D01*
X018902Y033509D01*
X018902Y033457D01*
X018851Y033405D01*
X018902Y033354D01*
X018902Y033302D01*
X018851Y033405D02*
X018799Y033405D01*
X014792Y033417D02*
X014741Y033365D01*
X014792Y033314D01*
X014792Y033262D01*
X014741Y033210D01*
X014637Y033210D01*
X014586Y033262D01*
X014476Y033262D02*
X014476Y033210D01*
X014424Y033210D01*
X014424Y033262D01*
X014476Y033262D01*
X014586Y033469D02*
X014637Y033520D01*
X014741Y033520D01*
X014792Y033469D01*
X014792Y033417D01*
X014741Y033365D02*
X014689Y033365D01*
X004772Y033479D02*
X004566Y033272D01*
X004566Y033220D01*
X004456Y033220D02*
X004404Y033220D01*
X004404Y033272D01*
X004456Y033272D01*
X004456Y033220D01*
X004289Y033272D02*
X004237Y033220D01*
X004134Y033220D01*
X004082Y033272D01*
X004186Y033375D02*
X004237Y033375D01*
X004289Y033324D01*
X004289Y033272D01*
X004237Y033375D02*
X004289Y033427D01*
X004289Y033479D01*
X004237Y033530D01*
X004134Y033530D01*
X004082Y033479D01*
X004134Y033005D02*
X004237Y033005D01*
X004289Y032954D01*
X004289Y032902D01*
X004237Y032850D01*
X004289Y032799D01*
X004289Y032747D01*
X004237Y032695D01*
X004134Y032695D01*
X004082Y032747D01*
X004186Y032850D02*
X004237Y032850D01*
X004082Y032954D02*
X004134Y033005D01*
X004404Y032747D02*
X004456Y032747D01*
X004456Y032695D01*
X004404Y032695D01*
X004404Y032747D01*
X004566Y032747D02*
X004617Y032695D01*
X004721Y032695D01*
X004772Y032747D01*
X004772Y032799D01*
X004721Y032850D01*
X004566Y032850D01*
X004566Y032747D01*
X004566Y032850D02*
X004669Y032954D01*
X004772Y033005D01*
X004772Y033479D02*
X004772Y033530D01*
X004566Y033530D01*
X003683Y033499D02*
X003631Y033550D01*
X003476Y033550D01*
X003476Y033240D01*
X003631Y033240D01*
X003683Y033292D01*
X003683Y033499D01*
X003361Y033550D02*
X003361Y033240D01*
X003154Y033550D01*
X003154Y033240D01*
X003038Y033292D02*
X003038Y033395D01*
X002935Y033395D01*
X002832Y033292D02*
X002883Y033240D01*
X002987Y033240D01*
X003038Y033292D01*
X002832Y033292D02*
X002832Y033499D01*
X002883Y033550D01*
X002987Y033550D01*
X003038Y033499D01*
X002987Y033025D02*
X002883Y033025D01*
X002832Y032974D01*
X002832Y032767D01*
X002883Y032715D01*
X002987Y032715D01*
X003038Y032767D01*
X003154Y032767D02*
X003154Y032974D01*
X003206Y033025D01*
X003309Y033025D01*
X003361Y032974D01*
X003361Y032767D01*
X003309Y032715D01*
X003206Y032715D01*
X003154Y032767D01*
X003038Y032974D02*
X002987Y033025D01*
X003476Y033025D02*
X003476Y032715D01*
X003683Y032715D02*
X003683Y033025D01*
X003580Y032922D01*
X003476Y033025D01*
D12*
X017030Y013066D02*
X016941Y012977D01*
X016941Y012624D01*
X017030Y012535D01*
X017207Y012535D01*
X017295Y012624D01*
X017295Y012977D01*
X017207Y013066D01*
X017030Y013066D01*
X017494Y013066D02*
X017494Y012624D01*
X017582Y012535D01*
X017759Y012535D01*
X017847Y012624D01*
X017847Y013066D01*
X018046Y013066D02*
X018400Y013066D01*
X018223Y013066D02*
X018223Y012535D01*
X007922Y007086D02*
X007922Y006555D01*
X007568Y007086D01*
X007568Y006555D01*
X007376Y006555D02*
X007200Y006555D01*
X007288Y006555D02*
X007288Y007086D01*
X007200Y007086D02*
X007376Y007086D01*
D13*
X007906Y008432D02*
X008064Y008432D01*
X008064Y009299D01*
X009757Y009299D01*
X009757Y013432D01*
X008576Y013432D01*
X008576Y012645D01*
X007394Y012645D01*
X007394Y013432D01*
X008576Y013432D01*
X007394Y013432D02*
X006213Y013432D01*
X006213Y009299D01*
X008064Y009299D01*
X007906Y009259D02*
X007906Y008432D01*
X008685Y006196D02*
X008835Y006196D01*
X008910Y006121D01*
X008610Y005820D01*
X008685Y005745D01*
X008835Y005745D01*
X008910Y005820D01*
X008910Y006121D01*
X008685Y006196D02*
X008610Y006121D01*
X008610Y005820D01*
X009520Y005765D02*
X009820Y005765D01*
X009670Y005765D02*
X009670Y006216D01*
X009520Y006065D01*
X010610Y006161D02*
X010685Y006236D01*
X010835Y006236D01*
X010910Y006161D01*
X010910Y006085D01*
X010610Y005785D01*
X010910Y005785D01*
X011620Y005860D02*
X011695Y005785D01*
X011845Y005785D01*
X011920Y005860D01*
X011920Y005935D01*
X011845Y006010D01*
X011770Y006010D01*
X011845Y006010D02*
X011920Y006085D01*
X011920Y006161D01*
X011845Y006236D01*
X011695Y006236D01*
X011620Y006161D01*
X012630Y006010D02*
X012930Y006010D01*
X012855Y005785D02*
X012855Y006236D01*
X012630Y006010D01*
X013610Y006020D02*
X013760Y006095D01*
X013835Y006095D01*
X013910Y006020D01*
X013910Y005870D01*
X013835Y005795D01*
X013685Y005795D01*
X013610Y005870D01*
X013610Y006020D02*
X013610Y006246D01*
X013910Y006246D01*
X014590Y006030D02*
X014815Y006030D01*
X014890Y005955D01*
X014890Y005880D01*
X014815Y005805D01*
X014665Y005805D01*
X014590Y005880D01*
X014590Y006030D01*
X014740Y006181D01*
X014890Y006256D01*
X015530Y006266D02*
X015830Y006266D01*
X015830Y006191D01*
X015530Y005890D01*
X015530Y005815D01*
X016528Y005866D02*
X016603Y005791D01*
X016753Y005791D01*
X016828Y005866D01*
X016828Y006166D02*
X016753Y006241D01*
X016603Y006241D01*
X016528Y006166D01*
X016528Y005866D01*
X017332Y005867D02*
X017408Y005792D01*
X017558Y005792D01*
X017633Y005867D01*
X017633Y006017D01*
X017483Y006017D01*
X017633Y006167D02*
X017558Y006242D01*
X017408Y006242D01*
X017332Y006167D01*
X017332Y005867D01*
X017793Y005792D02*
X017793Y006242D01*
X018093Y005792D01*
X018093Y006242D01*
X018253Y006242D02*
X018478Y006242D01*
X018554Y006167D01*
X018554Y005867D01*
X018478Y005792D01*
X018253Y005792D01*
X018253Y006242D01*
X017257Y009299D02*
X015564Y009299D01*
X015564Y008432D01*
X015406Y008432D01*
X015406Y009259D01*
X015564Y009299D02*
X013713Y009299D01*
X013713Y013432D01*
X014894Y013432D01*
X014894Y012645D01*
X016076Y012645D01*
X016076Y013432D01*
X017257Y013432D01*
X017257Y009299D01*
X014426Y011070D02*
X014428Y011135D01*
X014434Y011199D01*
X014444Y011263D01*
X014457Y011326D01*
X014475Y011388D01*
X014496Y011449D01*
X014521Y011509D01*
X014550Y011567D01*
X014582Y011623D01*
X014617Y011677D01*
X014656Y011728D01*
X014697Y011778D01*
X014742Y011825D01*
X014789Y011868D01*
X014839Y011909D01*
X014892Y011947D01*
X014946Y011982D01*
X015003Y012013D01*
X015061Y012040D01*
X015121Y012065D01*
X015182Y012085D01*
X015245Y012101D01*
X015308Y012114D01*
X015372Y012123D01*
X015437Y012128D01*
X015501Y012129D01*
X015566Y012126D01*
X015630Y012119D01*
X015694Y012108D01*
X015756Y012094D01*
X015818Y012075D01*
X015879Y012053D01*
X015938Y012027D01*
X015996Y011998D01*
X016051Y011965D01*
X016105Y011929D01*
X016156Y011889D01*
X016205Y011847D01*
X016251Y011802D01*
X016294Y011753D01*
X016334Y011703D01*
X016371Y011650D01*
X016405Y011595D01*
X016435Y011538D01*
X016462Y011479D01*
X016485Y011419D01*
X016504Y011357D01*
X016520Y011294D01*
X016532Y011231D01*
X016540Y011167D01*
X016544Y011102D01*
X016544Y011038D01*
X016540Y010973D01*
X016532Y010909D01*
X016520Y010846D01*
X016504Y010783D01*
X016485Y010721D01*
X016462Y010661D01*
X016435Y010602D01*
X016405Y010545D01*
X016371Y010490D01*
X016334Y010437D01*
X016294Y010387D01*
X016251Y010338D01*
X016205Y010293D01*
X016156Y010251D01*
X016105Y010211D01*
X016051Y010175D01*
X015996Y010142D01*
X015938Y010113D01*
X015879Y010087D01*
X015818Y010065D01*
X015756Y010046D01*
X015694Y010032D01*
X015630Y010021D01*
X015566Y010014D01*
X015501Y010011D01*
X015437Y010012D01*
X015372Y010017D01*
X015308Y010026D01*
X015245Y010039D01*
X015182Y010055D01*
X015121Y010075D01*
X015061Y010100D01*
X015003Y010127D01*
X014946Y010158D01*
X014892Y010193D01*
X014839Y010231D01*
X014789Y010272D01*
X014742Y010315D01*
X014697Y010362D01*
X014656Y010412D01*
X014617Y010463D01*
X014582Y010517D01*
X014550Y010573D01*
X014521Y010631D01*
X014496Y010691D01*
X014475Y010752D01*
X014457Y010814D01*
X014444Y010877D01*
X014434Y010941D01*
X014428Y011005D01*
X014426Y011070D01*
X014240Y011070D02*
X014242Y011140D01*
X014248Y011211D01*
X014258Y011280D01*
X014272Y011349D01*
X014290Y011418D01*
X014311Y011485D01*
X014336Y011551D01*
X014365Y011615D01*
X014398Y011677D01*
X014434Y011738D01*
X014474Y011796D01*
X014516Y011852D01*
X014562Y011906D01*
X014611Y011957D01*
X014662Y012005D01*
X014717Y012050D01*
X014773Y012092D01*
X014832Y012130D01*
X014893Y012165D01*
X014956Y012197D01*
X015021Y012225D01*
X015087Y012250D01*
X015154Y012270D01*
X015223Y012287D01*
X015292Y012300D01*
X015362Y012309D01*
X015432Y012314D01*
X015503Y012315D01*
X015573Y012312D01*
X015643Y012305D01*
X015713Y012294D01*
X015782Y012279D01*
X015850Y012260D01*
X015916Y012238D01*
X015982Y012212D01*
X016046Y012182D01*
X016108Y012148D01*
X016168Y012111D01*
X016225Y012071D01*
X016281Y012027D01*
X016334Y011981D01*
X016384Y011931D01*
X016431Y011879D01*
X016475Y011824D01*
X016516Y011767D01*
X016554Y011708D01*
X016589Y011646D01*
X016619Y011583D01*
X016647Y011518D01*
X016670Y011451D01*
X016690Y011384D01*
X016706Y011315D01*
X016718Y011246D01*
X016726Y011176D01*
X016730Y011105D01*
X016730Y011035D01*
X016726Y010964D01*
X016718Y010894D01*
X016706Y010825D01*
X016690Y010756D01*
X016670Y010689D01*
X016647Y010622D01*
X016619Y010557D01*
X016589Y010494D01*
X016554Y010432D01*
X016516Y010373D01*
X016475Y010316D01*
X016431Y010261D01*
X016384Y010209D01*
X016334Y010159D01*
X016281Y010113D01*
X016225Y010069D01*
X016168Y010029D01*
X016107Y009992D01*
X016046Y009958D01*
X015982Y009928D01*
X015916Y009902D01*
X015850Y009880D01*
X015782Y009861D01*
X015713Y009846D01*
X015643Y009835D01*
X015573Y009828D01*
X015503Y009825D01*
X015432Y009826D01*
X015362Y009831D01*
X015292Y009840D01*
X015223Y009853D01*
X015154Y009870D01*
X015087Y009890D01*
X015021Y009915D01*
X014956Y009943D01*
X014893Y009975D01*
X014832Y010010D01*
X014773Y010048D01*
X014717Y010090D01*
X014662Y010135D01*
X014611Y010183D01*
X014562Y010234D01*
X014516Y010288D01*
X014474Y010344D01*
X014434Y010402D01*
X014398Y010463D01*
X014365Y010525D01*
X014336Y010589D01*
X014311Y010655D01*
X014290Y010722D01*
X014272Y010791D01*
X014258Y010860D01*
X014248Y010929D01*
X014242Y011000D01*
X014240Y011070D01*
X013507Y009299D02*
X011814Y009299D01*
X011814Y008432D01*
X011656Y008432D01*
X011656Y009259D01*
X011814Y009299D02*
X009963Y009299D01*
X009963Y013432D01*
X011144Y013432D01*
X011144Y012645D01*
X012326Y012645D01*
X012326Y013432D01*
X013507Y013432D01*
X013507Y009299D01*
X010676Y011070D02*
X010678Y011135D01*
X010684Y011199D01*
X010694Y011263D01*
X010707Y011326D01*
X010725Y011388D01*
X010746Y011449D01*
X010771Y011509D01*
X010800Y011567D01*
X010832Y011623D01*
X010867Y011677D01*
X010906Y011728D01*
X010947Y011778D01*
X010992Y011825D01*
X011039Y011868D01*
X011089Y011909D01*
X011142Y011947D01*
X011196Y011982D01*
X011253Y012013D01*
X011311Y012040D01*
X011371Y012065D01*
X011432Y012085D01*
X011495Y012101D01*
X011558Y012114D01*
X011622Y012123D01*
X011687Y012128D01*
X011751Y012129D01*
X011816Y012126D01*
X011880Y012119D01*
X011944Y012108D01*
X012006Y012094D01*
X012068Y012075D01*
X012129Y012053D01*
X012188Y012027D01*
X012246Y011998D01*
X012301Y011965D01*
X012355Y011929D01*
X012406Y011889D01*
X012455Y011847D01*
X012501Y011802D01*
X012544Y011753D01*
X012584Y011703D01*
X012621Y011650D01*
X012655Y011595D01*
X012685Y011538D01*
X012712Y011479D01*
X012735Y011419D01*
X012754Y011357D01*
X012770Y011294D01*
X012782Y011231D01*
X012790Y011167D01*
X012794Y011102D01*
X012794Y011038D01*
X012790Y010973D01*
X012782Y010909D01*
X012770Y010846D01*
X012754Y010783D01*
X012735Y010721D01*
X012712Y010661D01*
X012685Y010602D01*
X012655Y010545D01*
X012621Y010490D01*
X012584Y010437D01*
X012544Y010387D01*
X012501Y010338D01*
X012455Y010293D01*
X012406Y010251D01*
X012355Y010211D01*
X012301Y010175D01*
X012246Y010142D01*
X012188Y010113D01*
X012129Y010087D01*
X012068Y010065D01*
X012006Y010046D01*
X011944Y010032D01*
X011880Y010021D01*
X011816Y010014D01*
X011751Y010011D01*
X011687Y010012D01*
X011622Y010017D01*
X011558Y010026D01*
X011495Y010039D01*
X011432Y010055D01*
X011371Y010075D01*
X011311Y010100D01*
X011253Y010127D01*
X011196Y010158D01*
X011142Y010193D01*
X011089Y010231D01*
X011039Y010272D01*
X010992Y010315D01*
X010947Y010362D01*
X010906Y010412D01*
X010867Y010463D01*
X010832Y010517D01*
X010800Y010573D01*
X010771Y010631D01*
X010746Y010691D01*
X010725Y010752D01*
X010707Y010814D01*
X010694Y010877D01*
X010684Y010941D01*
X010678Y011005D01*
X010676Y011070D01*
X010490Y011070D02*
X010492Y011140D01*
X010498Y011211D01*
X010508Y011280D01*
X010522Y011349D01*
X010540Y011418D01*
X010561Y011485D01*
X010586Y011551D01*
X010615Y011615D01*
X010648Y011677D01*
X010684Y011738D01*
X010724Y011796D01*
X010766Y011852D01*
X010812Y011906D01*
X010861Y011957D01*
X010912Y012005D01*
X010967Y012050D01*
X011023Y012092D01*
X011082Y012130D01*
X011143Y012165D01*
X011206Y012197D01*
X011271Y012225D01*
X011337Y012250D01*
X011404Y012270D01*
X011473Y012287D01*
X011542Y012300D01*
X011612Y012309D01*
X011682Y012314D01*
X011753Y012315D01*
X011823Y012312D01*
X011893Y012305D01*
X011963Y012294D01*
X012032Y012279D01*
X012100Y012260D01*
X012166Y012238D01*
X012232Y012212D01*
X012296Y012182D01*
X012358Y012148D01*
X012418Y012111D01*
X012475Y012071D01*
X012531Y012027D01*
X012584Y011981D01*
X012634Y011931D01*
X012681Y011879D01*
X012725Y011824D01*
X012766Y011767D01*
X012804Y011708D01*
X012839Y011646D01*
X012869Y011583D01*
X012897Y011518D01*
X012920Y011451D01*
X012940Y011384D01*
X012956Y011315D01*
X012968Y011246D01*
X012976Y011176D01*
X012980Y011105D01*
X012980Y011035D01*
X012976Y010964D01*
X012968Y010894D01*
X012956Y010825D01*
X012940Y010756D01*
X012920Y010689D01*
X012897Y010622D01*
X012869Y010557D01*
X012839Y010494D01*
X012804Y010432D01*
X012766Y010373D01*
X012725Y010316D01*
X012681Y010261D01*
X012634Y010209D01*
X012584Y010159D01*
X012531Y010113D01*
X012475Y010069D01*
X012418Y010029D01*
X012357Y009992D01*
X012296Y009958D01*
X012232Y009928D01*
X012166Y009902D01*
X012100Y009880D01*
X012032Y009861D01*
X011963Y009846D01*
X011893Y009835D01*
X011823Y009828D01*
X011753Y009825D01*
X011682Y009826D01*
X011612Y009831D01*
X011542Y009840D01*
X011473Y009853D01*
X011404Y009870D01*
X011337Y009890D01*
X011271Y009915D01*
X011206Y009943D01*
X011143Y009975D01*
X011082Y010010D01*
X011023Y010048D01*
X010967Y010090D01*
X010912Y010135D01*
X010861Y010183D01*
X010812Y010234D01*
X010766Y010288D01*
X010724Y010344D01*
X010684Y010402D01*
X010648Y010463D01*
X010615Y010525D01*
X010586Y010589D01*
X010561Y010655D01*
X010540Y010722D01*
X010522Y010791D01*
X010508Y010860D01*
X010498Y010929D01*
X010492Y011000D01*
X010490Y011070D01*
X011144Y013432D02*
X012326Y013432D01*
X012110Y015974D02*
X011660Y015974D01*
X011660Y016200D01*
X011735Y016275D01*
X012035Y016275D01*
X012110Y016200D01*
X012110Y015974D01*
X012035Y016435D02*
X012110Y016510D01*
X012110Y016660D01*
X012035Y016735D01*
X011960Y016735D01*
X011885Y016660D01*
X011885Y016585D01*
X011885Y016660D02*
X011810Y016735D01*
X011735Y016735D01*
X011660Y016660D01*
X011660Y016510D01*
X011735Y016435D01*
X011656Y018432D02*
X011814Y018432D01*
X011814Y019299D01*
X013507Y019299D01*
X013507Y023432D01*
X012326Y023432D01*
X012326Y022645D01*
X011144Y022645D01*
X011144Y023432D01*
X012326Y023432D01*
X011144Y023432D02*
X009963Y023432D01*
X009963Y019299D01*
X011814Y019299D01*
X011656Y019259D02*
X011656Y018432D01*
X010676Y021070D02*
X010678Y021135D01*
X010684Y021199D01*
X010694Y021263D01*
X010707Y021326D01*
X010725Y021388D01*
X010746Y021449D01*
X010771Y021509D01*
X010800Y021567D01*
X010832Y021623D01*
X010867Y021677D01*
X010906Y021728D01*
X010947Y021778D01*
X010992Y021825D01*
X011039Y021868D01*
X011089Y021909D01*
X011142Y021947D01*
X011196Y021982D01*
X011253Y022013D01*
X011311Y022040D01*
X011371Y022065D01*
X011432Y022085D01*
X011495Y022101D01*
X011558Y022114D01*
X011622Y022123D01*
X011687Y022128D01*
X011751Y022129D01*
X011816Y022126D01*
X011880Y022119D01*
X011944Y022108D01*
X012006Y022094D01*
X012068Y022075D01*
X012129Y022053D01*
X012188Y022027D01*
X012246Y021998D01*
X012301Y021965D01*
X012355Y021929D01*
X012406Y021889D01*
X012455Y021847D01*
X012501Y021802D01*
X012544Y021753D01*
X012584Y021703D01*
X012621Y021650D01*
X012655Y021595D01*
X012685Y021538D01*
X012712Y021479D01*
X012735Y021419D01*
X012754Y021357D01*
X012770Y021294D01*
X012782Y021231D01*
X012790Y021167D01*
X012794Y021102D01*
X012794Y021038D01*
X012790Y020973D01*
X012782Y020909D01*
X012770Y020846D01*
X012754Y020783D01*
X012735Y020721D01*
X012712Y020661D01*
X012685Y020602D01*
X012655Y020545D01*
X012621Y020490D01*
X012584Y020437D01*
X012544Y020387D01*
X012501Y020338D01*
X012455Y020293D01*
X012406Y020251D01*
X012355Y020211D01*
X012301Y020175D01*
X012246Y020142D01*
X012188Y020113D01*
X012129Y020087D01*
X012068Y020065D01*
X012006Y020046D01*
X011944Y020032D01*
X011880Y020021D01*
X011816Y020014D01*
X011751Y020011D01*
X011687Y020012D01*
X011622Y020017D01*
X011558Y020026D01*
X011495Y020039D01*
X011432Y020055D01*
X011371Y020075D01*
X011311Y020100D01*
X011253Y020127D01*
X011196Y020158D01*
X011142Y020193D01*
X011089Y020231D01*
X011039Y020272D01*
X010992Y020315D01*
X010947Y020362D01*
X010906Y020412D01*
X010867Y020463D01*
X010832Y020517D01*
X010800Y020573D01*
X010771Y020631D01*
X010746Y020691D01*
X010725Y020752D01*
X010707Y020814D01*
X010694Y020877D01*
X010684Y020941D01*
X010678Y021005D01*
X010676Y021070D01*
X010490Y021070D02*
X010492Y021140D01*
X010498Y021211D01*
X010508Y021280D01*
X010522Y021349D01*
X010540Y021418D01*
X010561Y021485D01*
X010586Y021551D01*
X010615Y021615D01*
X010648Y021677D01*
X010684Y021738D01*
X010724Y021796D01*
X010766Y021852D01*
X010812Y021906D01*
X010861Y021957D01*
X010912Y022005D01*
X010967Y022050D01*
X011023Y022092D01*
X011082Y022130D01*
X011143Y022165D01*
X011206Y022197D01*
X011271Y022225D01*
X011337Y022250D01*
X011404Y022270D01*
X011473Y022287D01*
X011542Y022300D01*
X011612Y022309D01*
X011682Y022314D01*
X011753Y022315D01*
X011823Y022312D01*
X011893Y022305D01*
X011963Y022294D01*
X012032Y022279D01*
X012100Y022260D01*
X012166Y022238D01*
X012232Y022212D01*
X012296Y022182D01*
X012358Y022148D01*
X012418Y022111D01*
X012475Y022071D01*
X012531Y022027D01*
X012584Y021981D01*
X012634Y021931D01*
X012681Y021879D01*
X012725Y021824D01*
X012766Y021767D01*
X012804Y021708D01*
X012839Y021646D01*
X012869Y021583D01*
X012897Y021518D01*
X012920Y021451D01*
X012940Y021384D01*
X012956Y021315D01*
X012968Y021246D01*
X012976Y021176D01*
X012980Y021105D01*
X012980Y021035D01*
X012976Y020964D01*
X012968Y020894D01*
X012956Y020825D01*
X012940Y020756D01*
X012920Y020689D01*
X012897Y020622D01*
X012869Y020557D01*
X012839Y020494D01*
X012804Y020432D01*
X012766Y020373D01*
X012725Y020316D01*
X012681Y020261D01*
X012634Y020209D01*
X012584Y020159D01*
X012531Y020113D01*
X012475Y020069D01*
X012418Y020029D01*
X012357Y019992D01*
X012296Y019958D01*
X012232Y019928D01*
X012166Y019902D01*
X012100Y019880D01*
X012032Y019861D01*
X011963Y019846D01*
X011893Y019835D01*
X011823Y019828D01*
X011753Y019825D01*
X011682Y019826D01*
X011612Y019831D01*
X011542Y019840D01*
X011473Y019853D01*
X011404Y019870D01*
X011337Y019890D01*
X011271Y019915D01*
X011206Y019943D01*
X011143Y019975D01*
X011082Y020010D01*
X011023Y020048D01*
X010967Y020090D01*
X010912Y020135D01*
X010861Y020183D01*
X010812Y020234D01*
X010766Y020288D01*
X010724Y020344D01*
X010684Y020402D01*
X010648Y020463D01*
X010615Y020525D01*
X010586Y020589D01*
X010561Y020655D01*
X010540Y020722D01*
X010522Y020791D01*
X010508Y020860D01*
X010498Y020929D01*
X010492Y021000D01*
X010490Y021070D01*
X009757Y019299D02*
X008064Y019299D01*
X008064Y018432D01*
X007906Y018432D01*
X007906Y019259D01*
X008064Y019299D02*
X006213Y019299D01*
X006213Y023432D01*
X007394Y023432D01*
X007394Y022645D01*
X008576Y022645D01*
X008576Y023432D01*
X009757Y023432D01*
X009757Y019299D01*
X008110Y016735D02*
X008110Y016435D01*
X007810Y016735D01*
X007735Y016735D01*
X007660Y016660D01*
X007660Y016510D01*
X007735Y016435D01*
X007735Y016275D02*
X007660Y016200D01*
X007660Y015974D01*
X008110Y015974D01*
X008110Y016200D01*
X008035Y016275D01*
X007735Y016275D01*
X006007Y019299D02*
X004314Y019299D01*
X004314Y018432D01*
X004156Y018432D01*
X004156Y019259D01*
X004314Y019299D02*
X002463Y019299D01*
X002463Y023432D01*
X003644Y023432D01*
X003644Y022645D01*
X004826Y022645D01*
X004826Y023432D01*
X006007Y023432D01*
X006007Y019299D01*
X004360Y016735D02*
X004360Y016435D01*
X004360Y016585D02*
X003910Y016585D01*
X004060Y016435D01*
X003985Y016275D02*
X003910Y016200D01*
X003910Y015974D01*
X004360Y015974D01*
X004360Y016200D01*
X004285Y016275D01*
X003985Y016275D01*
X003644Y013432D02*
X002463Y013432D01*
X002463Y009299D01*
X004314Y009299D01*
X004314Y008432D01*
X004156Y008432D01*
X004156Y009259D01*
X004314Y009299D02*
X006007Y009299D01*
X006007Y013432D01*
X004826Y013432D01*
X004826Y012645D01*
X003644Y012645D01*
X003644Y013432D01*
X004826Y013432D01*
X003176Y011070D02*
X003178Y011135D01*
X003184Y011199D01*
X003194Y011263D01*
X003207Y011326D01*
X003225Y011388D01*
X003246Y011449D01*
X003271Y011509D01*
X003300Y011567D01*
X003332Y011623D01*
X003367Y011677D01*
X003406Y011728D01*
X003447Y011778D01*
X003492Y011825D01*
X003539Y011868D01*
X003589Y011909D01*
X003642Y011947D01*
X003696Y011982D01*
X003753Y012013D01*
X003811Y012040D01*
X003871Y012065D01*
X003932Y012085D01*
X003995Y012101D01*
X004058Y012114D01*
X004122Y012123D01*
X004187Y012128D01*
X004251Y012129D01*
X004316Y012126D01*
X004380Y012119D01*
X004444Y012108D01*
X004506Y012094D01*
X004568Y012075D01*
X004629Y012053D01*
X004688Y012027D01*
X004746Y011998D01*
X004801Y011965D01*
X004855Y011929D01*
X004906Y011889D01*
X004955Y011847D01*
X005001Y011802D01*
X005044Y011753D01*
X005084Y011703D01*
X005121Y011650D01*
X005155Y011595D01*
X005185Y011538D01*
X005212Y011479D01*
X005235Y011419D01*
X005254Y011357D01*
X005270Y011294D01*
X005282Y011231D01*
X005290Y011167D01*
X005294Y011102D01*
X005294Y011038D01*
X005290Y010973D01*
X005282Y010909D01*
X005270Y010846D01*
X005254Y010783D01*
X005235Y010721D01*
X005212Y010661D01*
X005185Y010602D01*
X005155Y010545D01*
X005121Y010490D01*
X005084Y010437D01*
X005044Y010387D01*
X005001Y010338D01*
X004955Y010293D01*
X004906Y010251D01*
X004855Y010211D01*
X004801Y010175D01*
X004746Y010142D01*
X004688Y010113D01*
X004629Y010087D01*
X004568Y010065D01*
X004506Y010046D01*
X004444Y010032D01*
X004380Y010021D01*
X004316Y010014D01*
X004251Y010011D01*
X004187Y010012D01*
X004122Y010017D01*
X004058Y010026D01*
X003995Y010039D01*
X003932Y010055D01*
X003871Y010075D01*
X003811Y010100D01*
X003753Y010127D01*
X003696Y010158D01*
X003642Y010193D01*
X003589Y010231D01*
X003539Y010272D01*
X003492Y010315D01*
X003447Y010362D01*
X003406Y010412D01*
X003367Y010463D01*
X003332Y010517D01*
X003300Y010573D01*
X003271Y010631D01*
X003246Y010691D01*
X003225Y010752D01*
X003207Y010814D01*
X003194Y010877D01*
X003184Y010941D01*
X003178Y011005D01*
X003176Y011070D01*
X002990Y011070D02*
X002992Y011140D01*
X002998Y011211D01*
X003008Y011280D01*
X003022Y011349D01*
X003040Y011418D01*
X003061Y011485D01*
X003086Y011551D01*
X003115Y011615D01*
X003148Y011677D01*
X003184Y011738D01*
X003224Y011796D01*
X003266Y011852D01*
X003312Y011906D01*
X003361Y011957D01*
X003412Y012005D01*
X003467Y012050D01*
X003523Y012092D01*
X003582Y012130D01*
X003643Y012165D01*
X003706Y012197D01*
X003771Y012225D01*
X003837Y012250D01*
X003904Y012270D01*
X003973Y012287D01*
X004042Y012300D01*
X004112Y012309D01*
X004182Y012314D01*
X004253Y012315D01*
X004323Y012312D01*
X004393Y012305D01*
X004463Y012294D01*
X004532Y012279D01*
X004600Y012260D01*
X004666Y012238D01*
X004732Y012212D01*
X004796Y012182D01*
X004858Y012148D01*
X004918Y012111D01*
X004975Y012071D01*
X005031Y012027D01*
X005084Y011981D01*
X005134Y011931D01*
X005181Y011879D01*
X005225Y011824D01*
X005266Y011767D01*
X005304Y011708D01*
X005339Y011646D01*
X005369Y011583D01*
X005397Y011518D01*
X005420Y011451D01*
X005440Y011384D01*
X005456Y011315D01*
X005468Y011246D01*
X005476Y011176D01*
X005480Y011105D01*
X005480Y011035D01*
X005476Y010964D01*
X005468Y010894D01*
X005456Y010825D01*
X005440Y010756D01*
X005420Y010689D01*
X005397Y010622D01*
X005369Y010557D01*
X005339Y010494D01*
X005304Y010432D01*
X005266Y010373D01*
X005225Y010316D01*
X005181Y010261D01*
X005134Y010209D01*
X005084Y010159D01*
X005031Y010113D01*
X004975Y010069D01*
X004918Y010029D01*
X004857Y009992D01*
X004796Y009958D01*
X004732Y009928D01*
X004666Y009902D01*
X004600Y009880D01*
X004532Y009861D01*
X004463Y009846D01*
X004393Y009835D01*
X004323Y009828D01*
X004253Y009825D01*
X004182Y009826D01*
X004112Y009831D01*
X004042Y009840D01*
X003973Y009853D01*
X003904Y009870D01*
X003837Y009890D01*
X003771Y009915D01*
X003706Y009943D01*
X003643Y009975D01*
X003582Y010010D01*
X003523Y010048D01*
X003467Y010090D01*
X003412Y010135D01*
X003361Y010183D01*
X003312Y010234D01*
X003266Y010288D01*
X003224Y010344D01*
X003184Y010402D01*
X003148Y010463D01*
X003115Y010525D01*
X003086Y010589D01*
X003061Y010655D01*
X003040Y010722D01*
X003022Y010791D01*
X003008Y010860D01*
X002998Y010929D01*
X002992Y011000D01*
X002990Y011070D01*
X006926Y011070D02*
X006928Y011135D01*
X006934Y011199D01*
X006944Y011263D01*
X006957Y011326D01*
X006975Y011388D01*
X006996Y011449D01*
X007021Y011509D01*
X007050Y011567D01*
X007082Y011623D01*
X007117Y011677D01*
X007156Y011728D01*
X007197Y011778D01*
X007242Y011825D01*
X007289Y011868D01*
X007339Y011909D01*
X007392Y011947D01*
X007446Y011982D01*
X007503Y012013D01*
X007561Y012040D01*
X007621Y012065D01*
X007682Y012085D01*
X007745Y012101D01*
X007808Y012114D01*
X007872Y012123D01*
X007937Y012128D01*
X008001Y012129D01*
X008066Y012126D01*
X008130Y012119D01*
X008194Y012108D01*
X008256Y012094D01*
X008318Y012075D01*
X008379Y012053D01*
X008438Y012027D01*
X008496Y011998D01*
X008551Y011965D01*
X008605Y011929D01*
X008656Y011889D01*
X008705Y011847D01*
X008751Y011802D01*
X008794Y011753D01*
X008834Y011703D01*
X008871Y011650D01*
X008905Y011595D01*
X008935Y011538D01*
X008962Y011479D01*
X008985Y011419D01*
X009004Y011357D01*
X009020Y011294D01*
X009032Y011231D01*
X009040Y011167D01*
X009044Y011102D01*
X009044Y011038D01*
X009040Y010973D01*
X009032Y010909D01*
X009020Y010846D01*
X009004Y010783D01*
X008985Y010721D01*
X008962Y010661D01*
X008935Y010602D01*
X008905Y010545D01*
X008871Y010490D01*
X008834Y010437D01*
X008794Y010387D01*
X008751Y010338D01*
X008705Y010293D01*
X008656Y010251D01*
X008605Y010211D01*
X008551Y010175D01*
X008496Y010142D01*
X008438Y010113D01*
X008379Y010087D01*
X008318Y010065D01*
X008256Y010046D01*
X008194Y010032D01*
X008130Y010021D01*
X008066Y010014D01*
X008001Y010011D01*
X007937Y010012D01*
X007872Y010017D01*
X007808Y010026D01*
X007745Y010039D01*
X007682Y010055D01*
X007621Y010075D01*
X007561Y010100D01*
X007503Y010127D01*
X007446Y010158D01*
X007392Y010193D01*
X007339Y010231D01*
X007289Y010272D01*
X007242Y010315D01*
X007197Y010362D01*
X007156Y010412D01*
X007117Y010463D01*
X007082Y010517D01*
X007050Y010573D01*
X007021Y010631D01*
X006996Y010691D01*
X006975Y010752D01*
X006957Y010814D01*
X006944Y010877D01*
X006934Y010941D01*
X006928Y011005D01*
X006926Y011070D01*
X006740Y011070D02*
X006742Y011140D01*
X006748Y011211D01*
X006758Y011280D01*
X006772Y011349D01*
X006790Y011418D01*
X006811Y011485D01*
X006836Y011551D01*
X006865Y011615D01*
X006898Y011677D01*
X006934Y011738D01*
X006974Y011796D01*
X007016Y011852D01*
X007062Y011906D01*
X007111Y011957D01*
X007162Y012005D01*
X007217Y012050D01*
X007273Y012092D01*
X007332Y012130D01*
X007393Y012165D01*
X007456Y012197D01*
X007521Y012225D01*
X007587Y012250D01*
X007654Y012270D01*
X007723Y012287D01*
X007792Y012300D01*
X007862Y012309D01*
X007932Y012314D01*
X008003Y012315D01*
X008073Y012312D01*
X008143Y012305D01*
X008213Y012294D01*
X008282Y012279D01*
X008350Y012260D01*
X008416Y012238D01*
X008482Y012212D01*
X008546Y012182D01*
X008608Y012148D01*
X008668Y012111D01*
X008725Y012071D01*
X008781Y012027D01*
X008834Y011981D01*
X008884Y011931D01*
X008931Y011879D01*
X008975Y011824D01*
X009016Y011767D01*
X009054Y011708D01*
X009089Y011646D01*
X009119Y011583D01*
X009147Y011518D01*
X009170Y011451D01*
X009190Y011384D01*
X009206Y011315D01*
X009218Y011246D01*
X009226Y011176D01*
X009230Y011105D01*
X009230Y011035D01*
X009226Y010964D01*
X009218Y010894D01*
X009206Y010825D01*
X009190Y010756D01*
X009170Y010689D01*
X009147Y010622D01*
X009119Y010557D01*
X009089Y010494D01*
X009054Y010432D01*
X009016Y010373D01*
X008975Y010316D01*
X008931Y010261D01*
X008884Y010209D01*
X008834Y010159D01*
X008781Y010113D01*
X008725Y010069D01*
X008668Y010029D01*
X008607Y009992D01*
X008546Y009958D01*
X008482Y009928D01*
X008416Y009902D01*
X008350Y009880D01*
X008282Y009861D01*
X008213Y009846D01*
X008143Y009835D01*
X008073Y009828D01*
X008003Y009825D01*
X007932Y009826D01*
X007862Y009831D01*
X007792Y009840D01*
X007723Y009853D01*
X007654Y009870D01*
X007587Y009890D01*
X007521Y009915D01*
X007456Y009943D01*
X007393Y009975D01*
X007332Y010010D01*
X007273Y010048D01*
X007217Y010090D01*
X007162Y010135D01*
X007111Y010183D01*
X007062Y010234D01*
X007016Y010288D01*
X006974Y010344D01*
X006934Y010402D01*
X006898Y010463D01*
X006865Y010525D01*
X006836Y010589D01*
X006811Y010655D01*
X006790Y010722D01*
X006772Y010791D01*
X006758Y010860D01*
X006748Y010929D01*
X006742Y011000D01*
X006740Y011070D01*
X006926Y021070D02*
X006928Y021135D01*
X006934Y021199D01*
X006944Y021263D01*
X006957Y021326D01*
X006975Y021388D01*
X006996Y021449D01*
X007021Y021509D01*
X007050Y021567D01*
X007082Y021623D01*
X007117Y021677D01*
X007156Y021728D01*
X007197Y021778D01*
X007242Y021825D01*
X007289Y021868D01*
X007339Y021909D01*
X007392Y021947D01*
X007446Y021982D01*
X007503Y022013D01*
X007561Y022040D01*
X007621Y022065D01*
X007682Y022085D01*
X007745Y022101D01*
X007808Y022114D01*
X007872Y022123D01*
X007937Y022128D01*
X008001Y022129D01*
X008066Y022126D01*
X008130Y022119D01*
X008194Y022108D01*
X008256Y022094D01*
X008318Y022075D01*
X008379Y022053D01*
X008438Y022027D01*
X008496Y021998D01*
X008551Y021965D01*
X008605Y021929D01*
X008656Y021889D01*
X008705Y021847D01*
X008751Y021802D01*
X008794Y021753D01*
X008834Y021703D01*
X008871Y021650D01*
X008905Y021595D01*
X008935Y021538D01*
X008962Y021479D01*
X008985Y021419D01*
X009004Y021357D01*
X009020Y021294D01*
X009032Y021231D01*
X009040Y021167D01*
X009044Y021102D01*
X009044Y021038D01*
X009040Y020973D01*
X009032Y020909D01*
X009020Y020846D01*
X009004Y020783D01*
X008985Y020721D01*
X008962Y020661D01*
X008935Y020602D01*
X008905Y020545D01*
X008871Y020490D01*
X008834Y020437D01*
X008794Y020387D01*
X008751Y020338D01*
X008705Y020293D01*
X008656Y020251D01*
X008605Y020211D01*
X008551Y020175D01*
X008496Y020142D01*
X008438Y020113D01*
X008379Y020087D01*
X008318Y020065D01*
X008256Y020046D01*
X008194Y020032D01*
X008130Y020021D01*
X008066Y020014D01*
X008001Y020011D01*
X007937Y020012D01*
X007872Y020017D01*
X007808Y020026D01*
X007745Y020039D01*
X007682Y020055D01*
X007621Y020075D01*
X007561Y020100D01*
X007503Y020127D01*
X007446Y020158D01*
X007392Y020193D01*
X007339Y020231D01*
X007289Y020272D01*
X007242Y020315D01*
X007197Y020362D01*
X007156Y020412D01*
X007117Y020463D01*
X007082Y020517D01*
X007050Y020573D01*
X007021Y020631D01*
X006996Y020691D01*
X006975Y020752D01*
X006957Y020814D01*
X006944Y020877D01*
X006934Y020941D01*
X006928Y021005D01*
X006926Y021070D01*
X006740Y021070D02*
X006742Y021140D01*
X006748Y021211D01*
X006758Y021280D01*
X006772Y021349D01*
X006790Y021418D01*
X006811Y021485D01*
X006836Y021551D01*
X006865Y021615D01*
X006898Y021677D01*
X006934Y021738D01*
X006974Y021796D01*
X007016Y021852D01*
X007062Y021906D01*
X007111Y021957D01*
X007162Y022005D01*
X007217Y022050D01*
X007273Y022092D01*
X007332Y022130D01*
X007393Y022165D01*
X007456Y022197D01*
X007521Y022225D01*
X007587Y022250D01*
X007654Y022270D01*
X007723Y022287D01*
X007792Y022300D01*
X007862Y022309D01*
X007932Y022314D01*
X008003Y022315D01*
X008073Y022312D01*
X008143Y022305D01*
X008213Y022294D01*
X008282Y022279D01*
X008350Y022260D01*
X008416Y022238D01*
X008482Y022212D01*
X008546Y022182D01*
X008608Y022148D01*
X008668Y022111D01*
X008725Y022071D01*
X008781Y022027D01*
X008834Y021981D01*
X008884Y021931D01*
X008931Y021879D01*
X008975Y021824D01*
X009016Y021767D01*
X009054Y021708D01*
X009089Y021646D01*
X009119Y021583D01*
X009147Y021518D01*
X009170Y021451D01*
X009190Y021384D01*
X009206Y021315D01*
X009218Y021246D01*
X009226Y021176D01*
X009230Y021105D01*
X009230Y021035D01*
X009226Y020964D01*
X009218Y020894D01*
X009206Y020825D01*
X009190Y020756D01*
X009170Y020689D01*
X009147Y020622D01*
X009119Y020557D01*
X009089Y020494D01*
X009054Y020432D01*
X009016Y020373D01*
X008975Y020316D01*
X008931Y020261D01*
X008884Y020209D01*
X008834Y020159D01*
X008781Y020113D01*
X008725Y020069D01*
X008668Y020029D01*
X008607Y019992D01*
X008546Y019958D01*
X008482Y019928D01*
X008416Y019902D01*
X008350Y019880D01*
X008282Y019861D01*
X008213Y019846D01*
X008143Y019835D01*
X008073Y019828D01*
X008003Y019825D01*
X007932Y019826D01*
X007862Y019831D01*
X007792Y019840D01*
X007723Y019853D01*
X007654Y019870D01*
X007587Y019890D01*
X007521Y019915D01*
X007456Y019943D01*
X007393Y019975D01*
X007332Y020010D01*
X007273Y020048D01*
X007217Y020090D01*
X007162Y020135D01*
X007111Y020183D01*
X007062Y020234D01*
X007016Y020288D01*
X006974Y020344D01*
X006934Y020402D01*
X006898Y020463D01*
X006865Y020525D01*
X006836Y020589D01*
X006811Y020655D01*
X006790Y020722D01*
X006772Y020791D01*
X006758Y020860D01*
X006748Y020929D01*
X006742Y021000D01*
X006740Y021070D01*
X007394Y023432D02*
X008576Y023432D01*
X004826Y023432D02*
X003644Y023432D01*
X003176Y021070D02*
X003178Y021135D01*
X003184Y021199D01*
X003194Y021263D01*
X003207Y021326D01*
X003225Y021388D01*
X003246Y021449D01*
X003271Y021509D01*
X003300Y021567D01*
X003332Y021623D01*
X003367Y021677D01*
X003406Y021728D01*
X003447Y021778D01*
X003492Y021825D01*
X003539Y021868D01*
X003589Y021909D01*
X003642Y021947D01*
X003696Y021982D01*
X003753Y022013D01*
X003811Y022040D01*
X003871Y022065D01*
X003932Y022085D01*
X003995Y022101D01*
X004058Y022114D01*
X004122Y022123D01*
X004187Y022128D01*
X004251Y022129D01*
X004316Y022126D01*
X004380Y022119D01*
X004444Y022108D01*
X004506Y022094D01*
X004568Y022075D01*
X004629Y022053D01*
X004688Y022027D01*
X004746Y021998D01*
X004801Y021965D01*
X004855Y021929D01*
X004906Y021889D01*
X004955Y021847D01*
X005001Y021802D01*
X005044Y021753D01*
X005084Y021703D01*
X005121Y021650D01*
X005155Y021595D01*
X005185Y021538D01*
X005212Y021479D01*
X005235Y021419D01*
X005254Y021357D01*
X005270Y021294D01*
X005282Y021231D01*
X005290Y021167D01*
X005294Y021102D01*
X005294Y021038D01*
X005290Y020973D01*
X005282Y020909D01*
X005270Y020846D01*
X005254Y020783D01*
X005235Y020721D01*
X005212Y020661D01*
X005185Y020602D01*
X005155Y020545D01*
X005121Y020490D01*
X005084Y020437D01*
X005044Y020387D01*
X005001Y020338D01*
X004955Y020293D01*
X004906Y020251D01*
X004855Y020211D01*
X004801Y020175D01*
X004746Y020142D01*
X004688Y020113D01*
X004629Y020087D01*
X004568Y020065D01*
X004506Y020046D01*
X004444Y020032D01*
X004380Y020021D01*
X004316Y020014D01*
X004251Y020011D01*
X004187Y020012D01*
X004122Y020017D01*
X004058Y020026D01*
X003995Y020039D01*
X003932Y020055D01*
X003871Y020075D01*
X003811Y020100D01*
X003753Y020127D01*
X003696Y020158D01*
X003642Y020193D01*
X003589Y020231D01*
X003539Y020272D01*
X003492Y020315D01*
X003447Y020362D01*
X003406Y020412D01*
X003367Y020463D01*
X003332Y020517D01*
X003300Y020573D01*
X003271Y020631D01*
X003246Y020691D01*
X003225Y020752D01*
X003207Y020814D01*
X003194Y020877D01*
X003184Y020941D01*
X003178Y021005D01*
X003176Y021070D01*
X002990Y021070D02*
X002992Y021140D01*
X002998Y021211D01*
X003008Y021280D01*
X003022Y021349D01*
X003040Y021418D01*
X003061Y021485D01*
X003086Y021551D01*
X003115Y021615D01*
X003148Y021677D01*
X003184Y021738D01*
X003224Y021796D01*
X003266Y021852D01*
X003312Y021906D01*
X003361Y021957D01*
X003412Y022005D01*
X003467Y022050D01*
X003523Y022092D01*
X003582Y022130D01*
X003643Y022165D01*
X003706Y022197D01*
X003771Y022225D01*
X003837Y022250D01*
X003904Y022270D01*
X003973Y022287D01*
X004042Y022300D01*
X004112Y022309D01*
X004182Y022314D01*
X004253Y022315D01*
X004323Y022312D01*
X004393Y022305D01*
X004463Y022294D01*
X004532Y022279D01*
X004600Y022260D01*
X004666Y022238D01*
X004732Y022212D01*
X004796Y022182D01*
X004858Y022148D01*
X004918Y022111D01*
X004975Y022071D01*
X005031Y022027D01*
X005084Y021981D01*
X005134Y021931D01*
X005181Y021879D01*
X005225Y021824D01*
X005266Y021767D01*
X005304Y021708D01*
X005339Y021646D01*
X005369Y021583D01*
X005397Y021518D01*
X005420Y021451D01*
X005440Y021384D01*
X005456Y021315D01*
X005468Y021246D01*
X005476Y021176D01*
X005480Y021105D01*
X005480Y021035D01*
X005476Y020964D01*
X005468Y020894D01*
X005456Y020825D01*
X005440Y020756D01*
X005420Y020689D01*
X005397Y020622D01*
X005369Y020557D01*
X005339Y020494D01*
X005304Y020432D01*
X005266Y020373D01*
X005225Y020316D01*
X005181Y020261D01*
X005134Y020209D01*
X005084Y020159D01*
X005031Y020113D01*
X004975Y020069D01*
X004918Y020029D01*
X004857Y019992D01*
X004796Y019958D01*
X004732Y019928D01*
X004666Y019902D01*
X004600Y019880D01*
X004532Y019861D01*
X004463Y019846D01*
X004393Y019835D01*
X004323Y019828D01*
X004253Y019825D01*
X004182Y019826D01*
X004112Y019831D01*
X004042Y019840D01*
X003973Y019853D01*
X003904Y019870D01*
X003837Y019890D01*
X003771Y019915D01*
X003706Y019943D01*
X003643Y019975D01*
X003582Y020010D01*
X003523Y020048D01*
X003467Y020090D01*
X003412Y020135D01*
X003361Y020183D01*
X003312Y020234D01*
X003266Y020288D01*
X003224Y020344D01*
X003184Y020402D01*
X003148Y020463D01*
X003115Y020525D01*
X003086Y020589D01*
X003061Y020655D01*
X003040Y020722D01*
X003022Y020791D01*
X003008Y020860D01*
X002998Y020929D01*
X002992Y021000D01*
X002990Y021070D01*
X001360Y029845D02*
X001060Y029845D01*
X001210Y029845D02*
X001210Y030296D01*
X001060Y030145D01*
X000985Y032645D02*
X000835Y032645D01*
X000760Y032720D01*
X000835Y032870D02*
X000985Y032870D01*
X001060Y032795D01*
X001060Y032720D01*
X000985Y032645D01*
X000835Y032870D02*
X000760Y032945D01*
X000760Y033021D01*
X000835Y033096D01*
X000985Y033096D01*
X001060Y033021D01*
X001220Y033096D02*
X001220Y032795D01*
X001371Y032645D01*
X001521Y032795D01*
X001521Y033096D01*
X001681Y032945D02*
X001831Y033096D01*
X001831Y032645D01*
X001681Y032645D02*
X001981Y032645D01*
X007760Y032645D02*
X008060Y032645D01*
X007910Y032645D02*
X007910Y033096D01*
X007760Y032945D01*
X008220Y032870D02*
X008220Y032720D01*
X008295Y032645D01*
X008446Y032645D01*
X008521Y032720D01*
X008521Y032795D01*
X008446Y032870D01*
X008220Y032870D01*
X008371Y033021D01*
X008521Y033096D01*
X013713Y023432D02*
X014894Y023432D01*
X014894Y022645D01*
X016076Y022645D01*
X016076Y023432D01*
X017257Y023432D01*
X017257Y019299D01*
X015564Y019299D01*
X015564Y018432D01*
X015406Y018432D01*
X015406Y019259D01*
X015564Y019299D02*
X013713Y019299D01*
X013713Y023432D01*
X014894Y023432D02*
X016076Y023432D01*
X016075Y023036D02*
X015924Y023036D01*
X015849Y022961D01*
X015849Y022660D01*
X015924Y022585D01*
X016075Y022585D01*
X016150Y022660D01*
X016150Y022810D01*
X016000Y022810D01*
X016150Y022961D02*
X016075Y023036D01*
X016310Y023036D02*
X016310Y022585D01*
X016610Y022585D02*
X016310Y023036D01*
X016610Y023036D02*
X016610Y022585D01*
X016770Y022585D02*
X016995Y022585D01*
X017070Y022660D01*
X017070Y022961D01*
X016995Y023036D01*
X016770Y023036D01*
X016770Y022585D01*
X016830Y022046D02*
X016830Y021745D01*
X016980Y021595D01*
X017130Y021745D01*
X017130Y022046D01*
X016670Y022046D02*
X016370Y022046D01*
X016370Y021820D01*
X016520Y021895D01*
X016595Y021895D01*
X016670Y021820D01*
X016670Y021670D01*
X016595Y021595D01*
X016445Y021595D01*
X016370Y021670D01*
X016210Y021820D02*
X015909Y021820D01*
X016060Y021670D02*
X016060Y021971D01*
X014426Y021070D02*
X014428Y021135D01*
X014434Y021199D01*
X014444Y021263D01*
X014457Y021326D01*
X014475Y021388D01*
X014496Y021449D01*
X014521Y021509D01*
X014550Y021567D01*
X014582Y021623D01*
X014617Y021677D01*
X014656Y021728D01*
X014697Y021778D01*
X014742Y021825D01*
X014789Y021868D01*
X014839Y021909D01*
X014892Y021947D01*
X014946Y021982D01*
X015003Y022013D01*
X015061Y022040D01*
X015121Y022065D01*
X015182Y022085D01*
X015245Y022101D01*
X015308Y022114D01*
X015372Y022123D01*
X015437Y022128D01*
X015501Y022129D01*
X015566Y022126D01*
X015630Y022119D01*
X015694Y022108D01*
X015756Y022094D01*
X015818Y022075D01*
X015879Y022053D01*
X015938Y022027D01*
X015996Y021998D01*
X016051Y021965D01*
X016105Y021929D01*
X016156Y021889D01*
X016205Y021847D01*
X016251Y021802D01*
X016294Y021753D01*
X016334Y021703D01*
X016371Y021650D01*
X016405Y021595D01*
X016435Y021538D01*
X016462Y021479D01*
X016485Y021419D01*
X016504Y021357D01*
X016520Y021294D01*
X016532Y021231D01*
X016540Y021167D01*
X016544Y021102D01*
X016544Y021038D01*
X016540Y020973D01*
X016532Y020909D01*
X016520Y020846D01*
X016504Y020783D01*
X016485Y020721D01*
X016462Y020661D01*
X016435Y020602D01*
X016405Y020545D01*
X016371Y020490D01*
X016334Y020437D01*
X016294Y020387D01*
X016251Y020338D01*
X016205Y020293D01*
X016156Y020251D01*
X016105Y020211D01*
X016051Y020175D01*
X015996Y020142D01*
X015938Y020113D01*
X015879Y020087D01*
X015818Y020065D01*
X015756Y020046D01*
X015694Y020032D01*
X015630Y020021D01*
X015566Y020014D01*
X015501Y020011D01*
X015437Y020012D01*
X015372Y020017D01*
X015308Y020026D01*
X015245Y020039D01*
X015182Y020055D01*
X015121Y020075D01*
X015061Y020100D01*
X015003Y020127D01*
X014946Y020158D01*
X014892Y020193D01*
X014839Y020231D01*
X014789Y020272D01*
X014742Y020315D01*
X014697Y020362D01*
X014656Y020412D01*
X014617Y020463D01*
X014582Y020517D01*
X014550Y020573D01*
X014521Y020631D01*
X014496Y020691D01*
X014475Y020752D01*
X014457Y020814D01*
X014444Y020877D01*
X014434Y020941D01*
X014428Y021005D01*
X014426Y021070D01*
X014240Y021070D02*
X014242Y021140D01*
X014248Y021211D01*
X014258Y021280D01*
X014272Y021349D01*
X014290Y021418D01*
X014311Y021485D01*
X014336Y021551D01*
X014365Y021615D01*
X014398Y021677D01*
X014434Y021738D01*
X014474Y021796D01*
X014516Y021852D01*
X014562Y021906D01*
X014611Y021957D01*
X014662Y022005D01*
X014717Y022050D01*
X014773Y022092D01*
X014832Y022130D01*
X014893Y022165D01*
X014956Y022197D01*
X015021Y022225D01*
X015087Y022250D01*
X015154Y022270D01*
X015223Y022287D01*
X015292Y022300D01*
X015362Y022309D01*
X015432Y022314D01*
X015503Y022315D01*
X015573Y022312D01*
X015643Y022305D01*
X015713Y022294D01*
X015782Y022279D01*
X015850Y022260D01*
X015916Y022238D01*
X015982Y022212D01*
X016046Y022182D01*
X016108Y022148D01*
X016168Y022111D01*
X016225Y022071D01*
X016281Y022027D01*
X016334Y021981D01*
X016384Y021931D01*
X016431Y021879D01*
X016475Y021824D01*
X016516Y021767D01*
X016554Y021708D01*
X016589Y021646D01*
X016619Y021583D01*
X016647Y021518D01*
X016670Y021451D01*
X016690Y021384D01*
X016706Y021315D01*
X016718Y021246D01*
X016726Y021176D01*
X016730Y021105D01*
X016730Y021035D01*
X016726Y020964D01*
X016718Y020894D01*
X016706Y020825D01*
X016690Y020756D01*
X016670Y020689D01*
X016647Y020622D01*
X016619Y020557D01*
X016589Y020494D01*
X016554Y020432D01*
X016516Y020373D01*
X016475Y020316D01*
X016431Y020261D01*
X016384Y020209D01*
X016334Y020159D01*
X016281Y020113D01*
X016225Y020069D01*
X016168Y020029D01*
X016107Y019992D01*
X016046Y019958D01*
X015982Y019928D01*
X015916Y019902D01*
X015850Y019880D01*
X015782Y019861D01*
X015713Y019846D01*
X015643Y019835D01*
X015573Y019828D01*
X015503Y019825D01*
X015432Y019826D01*
X015362Y019831D01*
X015292Y019840D01*
X015223Y019853D01*
X015154Y019870D01*
X015087Y019890D01*
X015021Y019915D01*
X014956Y019943D01*
X014893Y019975D01*
X014832Y020010D01*
X014773Y020048D01*
X014717Y020090D01*
X014662Y020135D01*
X014611Y020183D01*
X014562Y020234D01*
X014516Y020288D01*
X014474Y020344D01*
X014434Y020402D01*
X014398Y020463D01*
X014365Y020525D01*
X014336Y020589D01*
X014311Y020655D01*
X014290Y020722D01*
X014272Y020791D01*
X014258Y020860D01*
X014248Y020929D01*
X014242Y021000D01*
X014240Y021070D01*
X016650Y021036D02*
X016950Y021036D01*
X016950Y020961D01*
X016650Y020660D01*
X016650Y020585D01*
X016950Y019976D02*
X016800Y019901D01*
X016650Y019750D01*
X016875Y019750D01*
X016950Y019675D01*
X016950Y019600D01*
X016875Y019525D01*
X016725Y019525D01*
X016650Y019600D01*
X016650Y019750D01*
X016650Y019016D02*
X016650Y018790D01*
X016800Y018865D01*
X016875Y018865D01*
X016950Y018790D01*
X016950Y018640D01*
X016875Y018565D01*
X016725Y018565D01*
X016650Y018640D01*
X016650Y019016D02*
X016950Y019016D01*
X016895Y018016D02*
X016670Y017790D01*
X016970Y017790D01*
X016895Y017565D02*
X016895Y018016D01*
X016895Y017026D02*
X016745Y017026D01*
X016670Y016951D01*
X016820Y016800D02*
X016895Y016800D01*
X016970Y016725D01*
X016970Y016650D01*
X016895Y016575D01*
X016745Y016575D01*
X016670Y016650D01*
X016895Y016800D02*
X016970Y016875D01*
X016970Y016951D01*
X016895Y017026D01*
X016875Y016076D02*
X016725Y016076D01*
X016650Y016001D01*
X016875Y016076D02*
X016950Y016001D01*
X016950Y015925D01*
X016650Y015625D01*
X016950Y015625D01*
X016800Y015036D02*
X016800Y014585D01*
X016650Y014585D02*
X016950Y014585D01*
X016650Y014885D02*
X016800Y015036D01*
X016745Y014086D02*
X016895Y014086D01*
X016970Y014011D01*
X016670Y013710D01*
X016745Y013635D01*
X016895Y013635D01*
X016970Y013710D01*
X016970Y014011D01*
X016745Y014086D02*
X016670Y014011D01*
X016670Y013710D01*
X016076Y013432D02*
X014894Y013432D01*
X015460Y015974D02*
X015460Y016200D01*
X015535Y016275D01*
X015835Y016275D01*
X015910Y016200D01*
X015910Y015974D01*
X015460Y015974D01*
X015685Y016435D02*
X015685Y016735D01*
X015910Y016660D02*
X015460Y016660D01*
X015685Y016435D01*
D14*
X015285Y016870D02*
X014285Y016870D01*
X014285Y015270D01*
X015285Y015270D01*
X015285Y016870D01*
X015785Y017370D02*
X015785Y017470D01*
X015835Y017520D01*
X015835Y018420D01*
X015785Y018470D01*
X015785Y018570D01*
X015787Y018587D01*
X015791Y018604D01*
X015798Y018620D01*
X015808Y018634D01*
X015821Y018647D01*
X015835Y018657D01*
X015851Y018664D01*
X015868Y018668D01*
X015885Y018670D01*
X016385Y018670D02*
X016402Y018668D01*
X016419Y018664D01*
X016435Y018657D01*
X016449Y018647D01*
X016462Y018634D01*
X016472Y018620D01*
X016479Y018604D01*
X016483Y018587D01*
X016485Y018570D01*
X016485Y018470D01*
X016435Y018420D01*
X016435Y017520D01*
X016485Y017470D01*
X016485Y017370D01*
X016483Y017353D01*
X016479Y017336D01*
X016472Y017320D01*
X016462Y017306D01*
X016449Y017293D01*
X016435Y017283D01*
X016419Y017276D01*
X016402Y017272D01*
X016385Y017270D01*
X015885Y017270D02*
X015868Y017272D01*
X015851Y017276D01*
X015835Y017283D01*
X015821Y017293D01*
X015808Y017306D01*
X015798Y017320D01*
X015791Y017336D01*
X015787Y017353D01*
X015785Y017370D01*
X015035Y016070D02*
X014785Y016070D01*
X014535Y016070D01*
X014785Y016070D02*
X014535Y015670D01*
X015035Y015670D01*
X014785Y016070D01*
X014785Y015470D01*
X014785Y016070D02*
X014785Y016320D01*
X015885Y015570D02*
X015885Y015470D01*
X015935Y015420D01*
X015935Y014520D01*
X015885Y014470D01*
X015885Y014370D01*
X015887Y014353D01*
X015891Y014336D01*
X015898Y014320D01*
X015908Y014306D01*
X015921Y014293D01*
X015935Y014283D01*
X015951Y014276D01*
X015968Y014272D01*
X015985Y014270D01*
X016485Y014270D02*
X016502Y014272D01*
X016519Y014276D01*
X016535Y014283D01*
X016549Y014293D01*
X016562Y014306D01*
X016572Y014320D01*
X016579Y014336D01*
X016583Y014353D01*
X016585Y014370D01*
X016585Y014470D01*
X016535Y014520D01*
X016535Y015420D01*
X016585Y015470D01*
X016585Y015570D01*
X016583Y015587D01*
X016579Y015604D01*
X016572Y015620D01*
X016562Y015634D01*
X016549Y015647D01*
X016535Y015657D01*
X016519Y015664D01*
X016502Y015668D01*
X016485Y015670D01*
X015985Y015670D02*
X015968Y015668D01*
X015951Y015664D01*
X015935Y015657D01*
X015921Y015647D01*
X015908Y015634D01*
X015898Y015620D01*
X015891Y015604D01*
X015887Y015587D01*
X015885Y015570D01*
X017375Y013350D02*
X017375Y023350D01*
X018375Y023350D01*
X018375Y013350D01*
X017375Y013350D01*
X019375Y013100D02*
X019375Y012600D01*
X019625Y012350D01*
X021125Y012350D01*
X021375Y012100D01*
X021375Y011600D01*
X021125Y011350D01*
X019625Y011350D01*
X019375Y011600D01*
X019375Y012100D01*
X019625Y012350D01*
X019375Y013100D02*
X019625Y013350D01*
X021125Y013350D01*
X021375Y013100D01*
X021375Y012600D01*
X021125Y012350D01*
X021125Y011350D02*
X021375Y011100D01*
X021375Y010600D01*
X021125Y010350D01*
X019625Y010350D01*
X019375Y010600D01*
X019375Y011100D01*
X019625Y011350D01*
X019625Y010350D02*
X019375Y010100D01*
X019375Y009600D01*
X019625Y009350D01*
X021125Y009350D01*
X021375Y009100D01*
X021375Y008600D01*
X021125Y008350D01*
X019625Y008350D01*
X019375Y008600D01*
X019375Y009100D01*
X019625Y009350D01*
X019625Y008350D02*
X019375Y008100D01*
X019375Y007600D01*
X019625Y007350D01*
X019375Y007100D01*
X019375Y006600D01*
X019625Y006350D01*
X019375Y006100D01*
X019375Y005600D01*
X019625Y005350D01*
X019375Y005100D01*
X019375Y004600D01*
X019625Y004350D01*
X019375Y004100D01*
X019375Y003600D01*
X019625Y003350D01*
X019375Y003100D01*
X019375Y002600D01*
X019625Y002350D01*
X019375Y002100D01*
X019375Y001600D01*
X019625Y001350D01*
X019375Y001100D01*
X019375Y000600D01*
X019625Y000350D01*
X021125Y000350D01*
X021375Y000600D01*
X021375Y001100D01*
X021125Y001350D01*
X019625Y001350D01*
X019625Y002350D02*
X021125Y002350D01*
X021375Y002100D01*
X021375Y001600D01*
X021125Y001350D01*
X021125Y002350D02*
X021375Y002600D01*
X021375Y003100D01*
X021125Y003350D01*
X019625Y003350D01*
X019625Y004350D02*
X021125Y004350D01*
X021375Y004100D01*
X021375Y003600D01*
X021125Y003350D01*
X021125Y004350D02*
X021375Y004600D01*
X021375Y005100D01*
X021125Y005350D01*
X019625Y005350D01*
X019625Y006350D02*
X021125Y006350D01*
X021375Y006100D01*
X021375Y005600D01*
X021125Y005350D01*
X021125Y006350D02*
X021375Y006600D01*
X021375Y007100D01*
X021125Y007350D01*
X019625Y007350D01*
X018375Y007350D02*
X018375Y006350D01*
X008375Y006350D01*
X008375Y007350D01*
X018375Y007350D01*
X021125Y007350D02*
X021375Y007600D01*
X021375Y008100D01*
X021125Y008350D01*
X021125Y009350D02*
X021375Y009600D01*
X021375Y010100D01*
X021125Y010350D01*
X021125Y013350D02*
X021375Y013600D01*
X021375Y014100D01*
X021125Y014350D01*
X019625Y014350D01*
X019375Y014600D01*
X019375Y015100D01*
X019625Y015350D01*
X021125Y015350D01*
X021375Y015100D01*
X021375Y014600D01*
X021125Y014350D01*
X021125Y015350D02*
X021375Y015600D01*
X021375Y016100D01*
X021125Y016350D01*
X019625Y016350D01*
X019375Y016600D01*
X019375Y017100D01*
X019625Y017350D01*
X021125Y017350D01*
X021375Y017100D01*
X021375Y016600D01*
X021125Y016350D01*
X021125Y017350D02*
X021375Y017600D01*
X021375Y018100D01*
X021125Y018350D01*
X019625Y018350D01*
X019375Y018100D01*
X019375Y017600D01*
X019625Y017350D01*
X019625Y016350D02*
X019375Y016100D01*
X019375Y015600D01*
X019625Y015350D01*
X019625Y014350D02*
X019375Y014100D01*
X019375Y013600D01*
X019625Y013350D01*
X019625Y018350D02*
X019375Y018600D01*
X019375Y019100D01*
X019625Y019350D01*
X021125Y019350D01*
X021375Y019100D01*
X021375Y018600D01*
X021125Y018350D01*
X021125Y019350D02*
X021375Y019600D01*
X021375Y020100D01*
X021125Y020350D01*
X019625Y020350D01*
X019375Y020100D01*
X019375Y019600D01*
X019625Y019350D01*
X019625Y020350D02*
X019375Y020600D01*
X019375Y021100D01*
X019625Y021350D01*
X021125Y021350D01*
X021375Y021100D01*
X021375Y020600D01*
X021125Y020350D01*
X021125Y021350D02*
X021375Y021600D01*
X021375Y022100D01*
X021125Y022350D01*
X019625Y022350D01*
X019375Y022100D01*
X019375Y021600D01*
X019625Y021350D01*
X019625Y022350D02*
X019375Y022600D01*
X019375Y023100D01*
X019625Y023350D01*
X021125Y023350D01*
X021375Y023100D01*
X021375Y022600D01*
X021125Y022350D01*
X018250Y030600D02*
X018250Y030707D01*
X018677Y031134D01*
X018677Y031241D01*
X018250Y031241D01*
X018463Y031650D02*
X018677Y031864D01*
X018677Y032291D01*
X018894Y032184D02*
X019001Y032291D01*
X019214Y032291D01*
X019321Y032184D01*
X018894Y031757D01*
X019001Y031650D01*
X019214Y031650D01*
X019321Y031757D01*
X019321Y032184D01*
X019539Y031757D02*
X019645Y031757D01*
X019645Y031650D01*
X019539Y031650D01*
X019539Y031757D01*
X019861Y031650D02*
X020288Y031650D01*
X020074Y031650D02*
X020074Y032291D01*
X019861Y032077D01*
X020506Y032077D02*
X020506Y031650D01*
X020506Y031970D02*
X020933Y031970D01*
X020933Y032077D02*
X020933Y031650D01*
X020933Y032077D02*
X020719Y032291D01*
X020506Y032077D01*
X018894Y032184D02*
X018894Y031757D01*
X018463Y031650D02*
X018250Y031864D01*
X018250Y032291D01*
X017819Y031241D02*
X017819Y030600D01*
X018032Y030600D02*
X017605Y030600D01*
X017388Y030707D02*
X017388Y031134D01*
X016961Y030707D01*
X017067Y030600D01*
X017281Y030600D01*
X017388Y030707D01*
X017605Y031027D02*
X017819Y031241D01*
X017388Y031134D02*
X017281Y031241D01*
X017067Y031241D01*
X016961Y031134D01*
X016961Y030707D01*
X016743Y030600D02*
X016316Y030600D01*
X016743Y031027D01*
X016743Y031134D01*
X016636Y031241D01*
X016423Y031241D01*
X016316Y031134D01*
X016316Y031650D02*
X016316Y032291D01*
X016636Y032291D01*
X016743Y032184D01*
X016743Y031970D01*
X016636Y031864D01*
X016316Y031864D01*
X016098Y031757D02*
X016098Y032184D01*
X015992Y032291D01*
X015778Y032291D01*
X015671Y032184D01*
X015671Y031757D01*
X015778Y031650D01*
X015992Y031650D01*
X016098Y031757D01*
X015454Y031650D02*
X015240Y031864D01*
X015347Y031864D02*
X015027Y031864D01*
X015027Y031650D02*
X015027Y032291D01*
X015347Y032291D01*
X015454Y032184D01*
X015454Y031970D01*
X015347Y031864D01*
X015454Y031241D02*
X015027Y030814D01*
X015134Y030920D02*
X015454Y030600D01*
X015027Y030600D02*
X015027Y031241D01*
X014809Y031134D02*
X014703Y031241D01*
X014489Y031241D01*
X014382Y031134D01*
X014382Y030707D01*
X014489Y030600D01*
X014703Y030600D01*
X014809Y030707D01*
X014165Y030600D02*
X014165Y031027D01*
X013951Y031241D01*
X013738Y031027D01*
X013738Y030600D01*
X013738Y030920D02*
X014165Y030920D01*
X013520Y031241D02*
X013307Y031241D01*
X013413Y031241D02*
X013413Y030707D01*
X013307Y030600D01*
X013200Y030600D01*
X013093Y030707D01*
X012876Y030920D02*
X012449Y030920D01*
X012231Y030920D02*
X011804Y030920D01*
X011587Y030920D02*
X011160Y030920D01*
X010942Y030920D02*
X010835Y030814D01*
X010515Y030814D01*
X010729Y030814D02*
X010942Y030600D01*
X010942Y030920D02*
X010942Y031134D01*
X010835Y031241D01*
X010515Y031241D01*
X010515Y030600D01*
X010515Y031650D02*
X010835Y031650D01*
X010942Y031757D01*
X010942Y031864D01*
X010835Y031970D01*
X010515Y031970D01*
X010515Y031650D02*
X010515Y032291D01*
X010835Y032291D01*
X010942Y032184D01*
X010942Y032077D01*
X010835Y031970D01*
X011160Y031970D02*
X011373Y031970D01*
X011160Y031650D02*
X011587Y031650D01*
X011804Y031650D02*
X012231Y031650D01*
X012449Y031650D02*
X012449Y032077D01*
X012662Y032291D01*
X012876Y032077D01*
X012876Y031650D01*
X012876Y031970D02*
X012449Y031970D01*
X012231Y031241D02*
X012231Y030600D01*
X011804Y030600D02*
X011804Y031241D01*
X011804Y031650D02*
X011804Y032291D01*
X011587Y032291D02*
X011160Y032291D01*
X011160Y031650D01*
X013093Y031970D02*
X013520Y031970D01*
X013738Y031970D02*
X013951Y031970D01*
X013738Y031650D02*
X014165Y031650D01*
X014382Y031757D02*
X014489Y031650D01*
X014703Y031650D01*
X014809Y031757D01*
X014809Y032291D01*
X014382Y032291D02*
X014382Y031757D01*
X014165Y032291D02*
X013738Y032291D01*
X013738Y031650D01*
X016961Y031650D02*
X016961Y032077D01*
X017174Y032291D01*
X017388Y032077D01*
X017388Y031650D01*
X017388Y031970D02*
X016961Y031970D01*
X008735Y032220D02*
X008735Y030720D01*
X008485Y030470D01*
X007985Y030470D01*
X007735Y030720D01*
X007485Y030470D01*
X006985Y030470D01*
X006735Y030720D01*
X006485Y030470D01*
X005985Y030470D01*
X005735Y030720D01*
X005485Y030470D01*
X004985Y030470D01*
X004735Y030720D01*
X004485Y030470D01*
X003985Y030470D01*
X003735Y030720D01*
X003485Y030470D01*
X002985Y030470D01*
X002735Y030720D01*
X002485Y030470D01*
X001985Y030470D01*
X001735Y030720D01*
X001485Y030470D01*
X000985Y030470D01*
X000735Y030720D01*
X000735Y032220D01*
X000985Y032470D01*
X001485Y032470D01*
X001735Y032220D01*
X001985Y032470D01*
X002485Y032470D01*
X002735Y032220D01*
X002985Y032470D01*
X003485Y032470D01*
X003735Y032220D01*
X003985Y032470D01*
X004485Y032470D01*
X004735Y032220D01*
X004985Y032470D01*
X005485Y032470D01*
X005735Y032220D01*
X005985Y032470D01*
X006485Y032470D01*
X006735Y032220D01*
X006985Y032470D01*
X007485Y032470D01*
X007735Y032220D01*
X007985Y032470D01*
X008485Y032470D01*
X008735Y032220D01*
X002125Y023350D02*
X002375Y023100D01*
X002375Y022600D01*
X002125Y022350D01*
X000625Y022350D01*
X000375Y022100D01*
X000375Y021600D01*
X000625Y021350D01*
X002125Y021350D01*
X002375Y021100D01*
X002375Y020600D01*
X002125Y020350D01*
X000625Y020350D01*
X000375Y020100D01*
X000375Y019600D01*
X000625Y019350D01*
X002125Y019350D01*
X002375Y019100D01*
X002375Y018600D01*
X002125Y018350D01*
X000625Y018350D01*
X000375Y018100D01*
X000375Y017600D01*
X000625Y017350D01*
X002125Y017350D01*
X002375Y017100D01*
X002375Y016600D01*
X002125Y016350D01*
X000625Y016350D01*
X000375Y016600D01*
X000375Y017100D01*
X000625Y017350D01*
X000625Y016350D02*
X000375Y016100D01*
X000375Y015600D01*
X000625Y015350D01*
X002125Y015350D01*
X002375Y015100D01*
X002375Y014600D01*
X002125Y014350D01*
X000625Y014350D01*
X000375Y014600D01*
X000375Y015100D01*
X000625Y015350D01*
X000625Y014350D02*
X000375Y014100D01*
X000375Y013600D01*
X000625Y013350D01*
X002125Y013350D01*
X002375Y013100D01*
X002375Y012600D01*
X002125Y012350D01*
X000625Y012350D01*
X000375Y012600D01*
X000375Y013100D01*
X000625Y013350D01*
X000625Y012350D02*
X000375Y012100D01*
X000375Y011600D01*
X000625Y011350D01*
X002125Y011350D01*
X002375Y011100D01*
X002375Y010600D01*
X002125Y010350D01*
X000625Y010350D01*
X000375Y010600D01*
X000375Y011100D01*
X000625Y011350D01*
X000625Y010350D02*
X000375Y010100D01*
X000375Y009600D01*
X000625Y009350D01*
X002125Y009350D01*
X002375Y009100D01*
X002375Y008600D01*
X002125Y008350D01*
X000625Y008350D01*
X000375Y008600D01*
X000375Y009100D01*
X000625Y009350D01*
X000625Y008350D02*
X000375Y008100D01*
X000375Y007600D01*
X000625Y007350D01*
X000375Y007100D01*
X000375Y006600D01*
X000625Y006350D01*
X000375Y006100D01*
X000375Y005600D01*
X000625Y005350D01*
X000375Y005100D01*
X000375Y004600D01*
X000625Y004350D01*
X000375Y004100D01*
X000375Y003600D01*
X000625Y003350D01*
X000375Y003100D01*
X000375Y002600D01*
X000625Y002350D01*
X000375Y002100D01*
X000375Y001600D01*
X000625Y001350D01*
X000375Y001100D01*
X000375Y000600D01*
X000625Y000350D01*
X002125Y000350D01*
X002375Y000600D01*
X002375Y001100D01*
X002125Y001350D01*
X000625Y001350D01*
X000625Y002350D02*
X002125Y002350D01*
X002375Y002100D01*
X002375Y001600D01*
X002125Y001350D01*
X002125Y002350D02*
X002375Y002600D01*
X002375Y003100D01*
X002125Y003350D01*
X000625Y003350D01*
X000625Y004350D02*
X002125Y004350D01*
X002375Y004100D01*
X002375Y003600D01*
X002125Y003350D01*
X002125Y004350D02*
X002375Y004600D01*
X002375Y005100D01*
X002125Y005350D01*
X000625Y005350D01*
X000625Y006350D02*
X002125Y006350D01*
X002375Y006100D01*
X002375Y005600D01*
X002125Y005350D01*
X002125Y006350D02*
X002375Y006600D01*
X002375Y007100D01*
X002125Y007350D01*
X000625Y007350D01*
X002125Y007350D02*
X002375Y007600D01*
X002375Y008100D01*
X002125Y008350D01*
X002125Y009350D02*
X002375Y009600D01*
X002375Y010100D01*
X002125Y010350D01*
X002125Y011350D02*
X002375Y011600D01*
X002375Y012100D01*
X002125Y012350D01*
X002125Y013350D02*
X002375Y013600D01*
X002375Y014100D01*
X002125Y014350D01*
X002125Y015350D02*
X002375Y015600D01*
X002375Y016100D01*
X002125Y016350D01*
X002735Y016870D02*
X002735Y015270D01*
X003735Y015270D01*
X003735Y016870D01*
X002735Y016870D01*
X003235Y016320D02*
X003235Y016070D01*
X002985Y016070D01*
X003235Y016070D02*
X002985Y015670D01*
X003485Y015670D01*
X003235Y016070D01*
X003485Y016070D01*
X003235Y016070D02*
X003235Y015470D01*
X004535Y015420D02*
X004635Y015420D01*
X004685Y015370D01*
X005585Y015370D01*
X005635Y015420D01*
X005735Y015420D01*
X005752Y015418D01*
X005769Y015414D01*
X005785Y015407D01*
X005799Y015397D01*
X005812Y015384D01*
X005822Y015370D01*
X005829Y015354D01*
X005833Y015337D01*
X005835Y015320D01*
X005835Y014820D02*
X005833Y014803D01*
X005829Y014786D01*
X005822Y014770D01*
X005812Y014756D01*
X005799Y014743D01*
X005785Y014733D01*
X005769Y014726D01*
X005752Y014722D01*
X005735Y014720D01*
X005635Y014720D01*
X005585Y014770D01*
X004685Y014770D01*
X004635Y014720D01*
X004535Y014720D01*
X004518Y014722D01*
X004501Y014726D01*
X004485Y014733D01*
X004471Y014743D01*
X004458Y014756D01*
X004448Y014770D01*
X004441Y014786D01*
X004437Y014803D01*
X004435Y014820D01*
X004535Y014520D02*
X004635Y014520D01*
X004685Y014470D01*
X005585Y014470D01*
X005635Y014520D01*
X005735Y014520D01*
X005752Y014518D01*
X005769Y014514D01*
X005785Y014507D01*
X005799Y014497D01*
X005812Y014484D01*
X005822Y014470D01*
X005829Y014454D01*
X005833Y014437D01*
X005835Y014420D01*
X005835Y013920D02*
X005833Y013903D01*
X005829Y013886D01*
X005822Y013870D01*
X005812Y013856D01*
X005799Y013843D01*
X005785Y013833D01*
X005769Y013826D01*
X005752Y013822D01*
X005735Y013820D01*
X005635Y013820D01*
X005585Y013870D01*
X004685Y013870D01*
X004635Y013820D01*
X004535Y013820D01*
X004518Y013822D01*
X004501Y013826D01*
X004485Y013833D01*
X004471Y013843D01*
X004458Y013856D01*
X004448Y013870D01*
X004441Y013886D01*
X004437Y013903D01*
X004435Y013920D01*
X004435Y014420D02*
X004437Y014437D01*
X004441Y014454D01*
X004448Y014470D01*
X004458Y014484D01*
X004471Y014497D01*
X004485Y014507D01*
X004501Y014514D01*
X004518Y014518D01*
X004535Y014520D01*
X004435Y015320D02*
X004437Y015337D01*
X004441Y015354D01*
X004448Y015370D01*
X004458Y015384D01*
X004471Y015397D01*
X004485Y015407D01*
X004501Y015414D01*
X004518Y015418D01*
X004535Y015420D01*
X006485Y015270D02*
X007485Y015270D01*
X007485Y016870D01*
X006485Y016870D01*
X006485Y015270D01*
X006735Y015670D02*
X006985Y016070D01*
X006735Y016070D01*
X006735Y015670D02*
X007235Y015670D01*
X006985Y016070D01*
X007235Y016070D01*
X006985Y016070D02*
X006985Y016320D01*
X006985Y016070D02*
X006985Y015470D01*
X008435Y014420D02*
X008535Y014420D01*
X008585Y014370D01*
X009485Y014370D01*
X009535Y014420D01*
X009635Y014420D01*
X009652Y014418D01*
X009669Y014414D01*
X009685Y014407D01*
X009699Y014397D01*
X009712Y014384D01*
X009722Y014370D01*
X009729Y014354D01*
X009733Y014337D01*
X009735Y014320D01*
X009735Y014720D02*
X009635Y014720D01*
X009585Y014770D01*
X008685Y014770D01*
X008635Y014720D01*
X008535Y014720D01*
X008518Y014722D01*
X008501Y014726D01*
X008485Y014733D01*
X008471Y014743D01*
X008458Y014756D01*
X008448Y014770D01*
X008441Y014786D01*
X008437Y014803D01*
X008435Y014820D01*
X008435Y014420D02*
X008418Y014418D01*
X008401Y014414D01*
X008385Y014407D01*
X008371Y014397D01*
X008358Y014384D01*
X008348Y014370D01*
X008341Y014354D01*
X008337Y014337D01*
X008335Y014320D01*
X008335Y013820D02*
X008337Y013803D01*
X008341Y013786D01*
X008348Y013770D01*
X008358Y013756D01*
X008371Y013743D01*
X008385Y013733D01*
X008401Y013726D01*
X008418Y013722D01*
X008435Y013720D01*
X008535Y013720D01*
X008585Y013770D01*
X009485Y013770D01*
X009535Y013720D01*
X009635Y013720D01*
X009652Y013722D01*
X009669Y013726D01*
X009685Y013733D01*
X009699Y013743D01*
X009712Y013756D01*
X009722Y013770D01*
X009729Y013786D01*
X009733Y013803D01*
X009735Y013820D01*
X009735Y014720D02*
X009752Y014722D01*
X009769Y014726D01*
X009785Y014733D01*
X009799Y014743D01*
X009812Y014756D01*
X009822Y014770D01*
X009829Y014786D01*
X009833Y014803D01*
X009835Y014820D01*
X009835Y015320D02*
X009833Y015337D01*
X009829Y015354D01*
X009822Y015370D01*
X009812Y015384D01*
X009799Y015397D01*
X009785Y015407D01*
X009769Y015414D01*
X009752Y015418D01*
X009735Y015420D01*
X009635Y015420D01*
X009585Y015370D01*
X008685Y015370D01*
X008635Y015420D01*
X008535Y015420D01*
X008518Y015418D01*
X008501Y015414D01*
X008485Y015407D01*
X008471Y015397D01*
X008458Y015384D01*
X008448Y015370D01*
X008441Y015354D01*
X008437Y015337D01*
X008435Y015320D01*
X010485Y015270D02*
X011485Y015270D01*
X011485Y016870D01*
X010485Y016870D01*
X010485Y015270D01*
X010735Y015670D02*
X010985Y016070D01*
X010735Y016070D01*
X010985Y016070D02*
X010985Y016320D01*
X010985Y016070D02*
X011235Y016070D01*
X010985Y016070D02*
X011235Y015670D01*
X010735Y015670D01*
X010985Y015470D02*
X010985Y016070D01*
X012185Y015470D02*
X012285Y015470D01*
X012335Y015420D01*
X013235Y015420D01*
X013285Y015470D01*
X013385Y015470D01*
X013402Y015468D01*
X013419Y015464D01*
X013435Y015457D01*
X013449Y015447D01*
X013462Y015434D01*
X013472Y015420D01*
X013479Y015404D01*
X013483Y015387D01*
X013485Y015370D01*
X013485Y014870D02*
X013483Y014853D01*
X013479Y014836D01*
X013472Y014820D01*
X013462Y014806D01*
X013449Y014793D01*
X013435Y014783D01*
X013419Y014776D01*
X013402Y014772D01*
X013385Y014770D01*
X013285Y014770D01*
X013235Y014820D01*
X012335Y014820D01*
X012285Y014770D01*
X012185Y014770D01*
X012168Y014772D01*
X012151Y014776D01*
X012135Y014783D01*
X012121Y014793D01*
X012108Y014806D01*
X012098Y014820D01*
X012091Y014836D01*
X012087Y014853D01*
X012085Y014870D01*
X012085Y015370D02*
X012087Y015387D01*
X012091Y015404D01*
X012098Y015420D01*
X012108Y015434D01*
X012121Y015447D01*
X012135Y015457D01*
X012151Y015464D01*
X012168Y015468D01*
X012185Y015470D01*
X012435Y014420D02*
X012535Y014420D01*
X012585Y014370D01*
X013485Y014370D01*
X013535Y014420D01*
X013635Y014420D01*
X013652Y014418D01*
X013669Y014414D01*
X013685Y014407D01*
X013699Y014397D01*
X013712Y014384D01*
X013722Y014370D01*
X013729Y014354D01*
X013733Y014337D01*
X013735Y014320D01*
X013735Y013820D02*
X013733Y013803D01*
X013729Y013786D01*
X013722Y013770D01*
X013712Y013756D01*
X013699Y013743D01*
X013685Y013733D01*
X013669Y013726D01*
X013652Y013722D01*
X013635Y013720D01*
X013535Y013720D01*
X013485Y013770D01*
X012585Y013770D01*
X012535Y013720D01*
X012435Y013720D01*
X012418Y013722D01*
X012401Y013726D01*
X012385Y013733D01*
X012371Y013743D01*
X012358Y013756D01*
X012348Y013770D01*
X012341Y013786D01*
X012337Y013803D01*
X012335Y013820D01*
X012335Y014320D02*
X012337Y014337D01*
X012341Y014354D01*
X012348Y014370D01*
X012358Y014384D01*
X012371Y014397D01*
X012385Y014407D01*
X012401Y014414D01*
X012418Y014418D01*
X012435Y014420D01*
X002375Y017600D02*
X002125Y017350D01*
X002375Y017600D02*
X002375Y018100D01*
X002125Y018350D01*
X002125Y019350D02*
X002375Y019600D01*
X002375Y020100D01*
X002125Y020350D01*
X002125Y021350D02*
X002375Y021600D01*
X002375Y022100D01*
X002125Y022350D01*
X002125Y023350D02*
X000625Y023350D01*
X000375Y023100D01*
X000375Y022600D01*
X000625Y022350D01*
X000625Y021350D02*
X000375Y021100D01*
X000375Y020600D01*
X000625Y020350D01*
X000625Y019350D02*
X000375Y019100D01*
X000375Y018600D01*
X000625Y018350D01*
D15*
X003235Y016620D03*
X006985Y016620D03*
X010985Y016620D03*
X014785Y016620D03*
D16*
X014785Y017245D03*
X014785Y014895D03*
X010985Y014895D03*
X010985Y017245D03*
X006985Y017245D03*
X006985Y014895D03*
X003235Y014895D03*
X003235Y017245D03*
D17*
X004349Y024747D02*
X001121Y024747D01*
X001121Y024964D01*
X000904Y024964D01*
X000904Y026224D01*
X000904Y028114D02*
X000904Y028980D01*
X001121Y028980D01*
X001121Y029196D01*
X004349Y029196D01*
X004349Y028980D01*
X004566Y028980D01*
X004566Y028114D01*
X005654Y028114D02*
X005654Y028980D01*
X005871Y028980D01*
X005871Y029196D01*
X009099Y029196D01*
X009099Y028980D01*
X009316Y028980D01*
X009316Y028114D01*
X010404Y028114D02*
X010404Y028980D01*
X010621Y028980D01*
X010621Y029196D01*
X013849Y029196D01*
X013849Y028980D01*
X014066Y028980D01*
X014066Y028114D01*
X015154Y028114D02*
X015154Y028980D01*
X015371Y028980D01*
X015371Y029196D01*
X018599Y029196D01*
X018599Y028980D01*
X018816Y028980D01*
X018816Y028114D01*
X018816Y026224D02*
X018816Y024964D01*
X018599Y024964D01*
X018599Y024747D01*
X015371Y024747D01*
X015371Y024964D01*
X015154Y024964D01*
X015154Y026224D01*
X014066Y026224D02*
X014066Y024964D01*
X013849Y024964D01*
X013849Y024747D01*
X010621Y024747D01*
X010621Y024964D01*
X010404Y024964D01*
X010404Y026224D01*
X009316Y026224D02*
X009316Y024964D01*
X009099Y024964D01*
X009099Y024747D01*
X005871Y024747D01*
X005871Y024964D01*
X005654Y024964D01*
X005654Y026224D01*
X004566Y026224D02*
X004566Y024964D01*
X004349Y024964D01*
X004349Y024747D01*
X001810Y027070D02*
X001812Y027130D01*
X001818Y027191D01*
X001828Y027250D01*
X001842Y027309D01*
X001859Y027367D01*
X001880Y027424D01*
X001905Y027479D01*
X001934Y027532D01*
X001966Y027584D01*
X002001Y027633D01*
X002040Y027680D01*
X002081Y027724D01*
X002125Y027765D01*
X002172Y027804D01*
X002221Y027839D01*
X002272Y027871D01*
X002326Y027900D01*
X002381Y027925D01*
X002438Y027946D01*
X002496Y027963D01*
X002555Y027977D01*
X002614Y027987D01*
X002675Y027993D01*
X002735Y027995D01*
X002795Y027993D01*
X002856Y027987D01*
X002915Y027977D01*
X002974Y027963D01*
X003032Y027946D01*
X003089Y027925D01*
X003144Y027900D01*
X003197Y027871D01*
X003249Y027839D01*
X003298Y027804D01*
X003345Y027765D01*
X003389Y027724D01*
X003430Y027680D01*
X003469Y027633D01*
X003504Y027584D01*
X003536Y027533D01*
X003565Y027479D01*
X003590Y027424D01*
X003611Y027367D01*
X003628Y027309D01*
X003642Y027250D01*
X003652Y027191D01*
X003658Y027130D01*
X003660Y027070D01*
X003658Y027010D01*
X003652Y026949D01*
X003642Y026890D01*
X003628Y026831D01*
X003611Y026773D01*
X003590Y026716D01*
X003565Y026661D01*
X003536Y026608D01*
X003504Y026556D01*
X003469Y026507D01*
X003430Y026460D01*
X003389Y026416D01*
X003345Y026375D01*
X003298Y026336D01*
X003249Y026301D01*
X003198Y026269D01*
X003144Y026240D01*
X003089Y026215D01*
X003032Y026194D01*
X002974Y026177D01*
X002915Y026163D01*
X002856Y026153D01*
X002795Y026147D01*
X002735Y026145D01*
X002675Y026147D01*
X002614Y026153D01*
X002555Y026163D01*
X002496Y026177D01*
X002438Y026194D01*
X002381Y026215D01*
X002326Y026240D01*
X002273Y026269D01*
X002221Y026301D01*
X002172Y026336D01*
X002125Y026375D01*
X002081Y026416D01*
X002040Y026460D01*
X002001Y026507D01*
X001966Y026556D01*
X001934Y026607D01*
X001905Y026661D01*
X001880Y026716D01*
X001859Y026773D01*
X001842Y026831D01*
X001828Y026890D01*
X001818Y026949D01*
X001812Y027010D01*
X001810Y027070D01*
X001593Y027070D02*
X001595Y027137D01*
X001601Y027204D01*
X001611Y027270D01*
X001624Y027336D01*
X001642Y027401D01*
X001663Y027464D01*
X001688Y027526D01*
X001717Y027587D01*
X001749Y027646D01*
X001784Y027703D01*
X001823Y027757D01*
X001865Y027810D01*
X001910Y027860D01*
X001958Y027907D01*
X002008Y027951D01*
X002061Y027992D01*
X002116Y028030D01*
X002174Y028065D01*
X002233Y028096D01*
X002294Y028123D01*
X002357Y028148D01*
X002421Y028168D01*
X002486Y028184D01*
X002551Y028197D01*
X002618Y028206D01*
X002685Y028211D01*
X002752Y028212D01*
X002819Y028209D01*
X002885Y028202D01*
X002952Y028191D01*
X003017Y028177D01*
X003082Y028158D01*
X003145Y028136D01*
X003207Y028110D01*
X003267Y028081D01*
X003325Y028048D01*
X003382Y028011D01*
X003436Y027972D01*
X003487Y027929D01*
X003537Y027883D01*
X003583Y027835D01*
X003626Y027784D01*
X003667Y027730D01*
X003704Y027675D01*
X003738Y027617D01*
X003768Y027557D01*
X003795Y027495D01*
X003818Y027432D01*
X003837Y027368D01*
X003853Y027303D01*
X003865Y027237D01*
X003873Y027170D01*
X003877Y027104D01*
X003877Y027036D01*
X003873Y026970D01*
X003865Y026903D01*
X003853Y026837D01*
X003837Y026772D01*
X003818Y026708D01*
X003795Y026645D01*
X003768Y026583D01*
X003738Y026523D01*
X003704Y026465D01*
X003667Y026410D01*
X003626Y026356D01*
X003583Y026305D01*
X003537Y026257D01*
X003487Y026211D01*
X003436Y026168D01*
X003382Y026129D01*
X003325Y026092D01*
X003267Y026059D01*
X003207Y026030D01*
X003145Y026004D01*
X003082Y025982D01*
X003017Y025963D01*
X002952Y025949D01*
X002885Y025938D01*
X002819Y025931D01*
X002752Y025928D01*
X002685Y025929D01*
X002618Y025934D01*
X002551Y025943D01*
X002486Y025956D01*
X002421Y025972D01*
X002357Y025992D01*
X002294Y026017D01*
X002233Y026044D01*
X002174Y026075D01*
X002116Y026110D01*
X002061Y026148D01*
X002008Y026189D01*
X001958Y026233D01*
X001910Y026280D01*
X001865Y026330D01*
X001823Y026383D01*
X001784Y026437D01*
X001749Y026494D01*
X001717Y026553D01*
X001688Y026614D01*
X001663Y026676D01*
X001642Y026739D01*
X001624Y026804D01*
X001611Y026870D01*
X001601Y026936D01*
X001595Y027003D01*
X001593Y027070D01*
X006560Y027070D02*
X006562Y027130D01*
X006568Y027191D01*
X006578Y027250D01*
X006592Y027309D01*
X006609Y027367D01*
X006630Y027424D01*
X006655Y027479D01*
X006684Y027532D01*
X006716Y027584D01*
X006751Y027633D01*
X006790Y027680D01*
X006831Y027724D01*
X006875Y027765D01*
X006922Y027804D01*
X006971Y027839D01*
X007022Y027871D01*
X007076Y027900D01*
X007131Y027925D01*
X007188Y027946D01*
X007246Y027963D01*
X007305Y027977D01*
X007364Y027987D01*
X007425Y027993D01*
X007485Y027995D01*
X007545Y027993D01*
X007606Y027987D01*
X007665Y027977D01*
X007724Y027963D01*
X007782Y027946D01*
X007839Y027925D01*
X007894Y027900D01*
X007947Y027871D01*
X007999Y027839D01*
X008048Y027804D01*
X008095Y027765D01*
X008139Y027724D01*
X008180Y027680D01*
X008219Y027633D01*
X008254Y027584D01*
X008286Y027533D01*
X008315Y027479D01*
X008340Y027424D01*
X008361Y027367D01*
X008378Y027309D01*
X008392Y027250D01*
X008402Y027191D01*
X008408Y027130D01*
X008410Y027070D01*
X008408Y027010D01*
X008402Y026949D01*
X008392Y026890D01*
X008378Y026831D01*
X008361Y026773D01*
X008340Y026716D01*
X008315Y026661D01*
X008286Y026608D01*
X008254Y026556D01*
X008219Y026507D01*
X008180Y026460D01*
X008139Y026416D01*
X008095Y026375D01*
X008048Y026336D01*
X007999Y026301D01*
X007948Y026269D01*
X007894Y026240D01*
X007839Y026215D01*
X007782Y026194D01*
X007724Y026177D01*
X007665Y026163D01*
X007606Y026153D01*
X007545Y026147D01*
X007485Y026145D01*
X007425Y026147D01*
X007364Y026153D01*
X007305Y026163D01*
X007246Y026177D01*
X007188Y026194D01*
X007131Y026215D01*
X007076Y026240D01*
X007023Y026269D01*
X006971Y026301D01*
X006922Y026336D01*
X006875Y026375D01*
X006831Y026416D01*
X006790Y026460D01*
X006751Y026507D01*
X006716Y026556D01*
X006684Y026607D01*
X006655Y026661D01*
X006630Y026716D01*
X006609Y026773D01*
X006592Y026831D01*
X006578Y026890D01*
X006568Y026949D01*
X006562Y027010D01*
X006560Y027070D01*
X006343Y027070D02*
X006345Y027137D01*
X006351Y027204D01*
X006361Y027270D01*
X006374Y027336D01*
X006392Y027401D01*
X006413Y027464D01*
X006438Y027526D01*
X006467Y027587D01*
X006499Y027646D01*
X006534Y027703D01*
X006573Y027757D01*
X006615Y027810D01*
X006660Y027860D01*
X006708Y027907D01*
X006758Y027951D01*
X006811Y027992D01*
X006866Y028030D01*
X006924Y028065D01*
X006983Y028096D01*
X007044Y028123D01*
X007107Y028148D01*
X007171Y028168D01*
X007236Y028184D01*
X007301Y028197D01*
X007368Y028206D01*
X007435Y028211D01*
X007502Y028212D01*
X007569Y028209D01*
X007635Y028202D01*
X007702Y028191D01*
X007767Y028177D01*
X007832Y028158D01*
X007895Y028136D01*
X007957Y028110D01*
X008017Y028081D01*
X008075Y028048D01*
X008132Y028011D01*
X008186Y027972D01*
X008237Y027929D01*
X008287Y027883D01*
X008333Y027835D01*
X008376Y027784D01*
X008417Y027730D01*
X008454Y027675D01*
X008488Y027617D01*
X008518Y027557D01*
X008545Y027495D01*
X008568Y027432D01*
X008587Y027368D01*
X008603Y027303D01*
X008615Y027237D01*
X008623Y027170D01*
X008627Y027104D01*
X008627Y027036D01*
X008623Y026970D01*
X008615Y026903D01*
X008603Y026837D01*
X008587Y026772D01*
X008568Y026708D01*
X008545Y026645D01*
X008518Y026583D01*
X008488Y026523D01*
X008454Y026465D01*
X008417Y026410D01*
X008376Y026356D01*
X008333Y026305D01*
X008287Y026257D01*
X008237Y026211D01*
X008186Y026168D01*
X008132Y026129D01*
X008075Y026092D01*
X008017Y026059D01*
X007957Y026030D01*
X007895Y026004D01*
X007832Y025982D01*
X007767Y025963D01*
X007702Y025949D01*
X007635Y025938D01*
X007569Y025931D01*
X007502Y025928D01*
X007435Y025929D01*
X007368Y025934D01*
X007301Y025943D01*
X007236Y025956D01*
X007171Y025972D01*
X007107Y025992D01*
X007044Y026017D01*
X006983Y026044D01*
X006924Y026075D01*
X006866Y026110D01*
X006811Y026148D01*
X006758Y026189D01*
X006708Y026233D01*
X006660Y026280D01*
X006615Y026330D01*
X006573Y026383D01*
X006534Y026437D01*
X006499Y026494D01*
X006467Y026553D01*
X006438Y026614D01*
X006413Y026676D01*
X006392Y026739D01*
X006374Y026804D01*
X006361Y026870D01*
X006351Y026936D01*
X006345Y027003D01*
X006343Y027070D01*
X011310Y027070D02*
X011312Y027130D01*
X011318Y027191D01*
X011328Y027250D01*
X011342Y027309D01*
X011359Y027367D01*
X011380Y027424D01*
X011405Y027479D01*
X011434Y027532D01*
X011466Y027584D01*
X011501Y027633D01*
X011540Y027680D01*
X011581Y027724D01*
X011625Y027765D01*
X011672Y027804D01*
X011721Y027839D01*
X011772Y027871D01*
X011826Y027900D01*
X011881Y027925D01*
X011938Y027946D01*
X011996Y027963D01*
X012055Y027977D01*
X012114Y027987D01*
X012175Y027993D01*
X012235Y027995D01*
X012295Y027993D01*
X012356Y027987D01*
X012415Y027977D01*
X012474Y027963D01*
X012532Y027946D01*
X012589Y027925D01*
X012644Y027900D01*
X012697Y027871D01*
X012749Y027839D01*
X012798Y027804D01*
X012845Y027765D01*
X012889Y027724D01*
X012930Y027680D01*
X012969Y027633D01*
X013004Y027584D01*
X013036Y027533D01*
X013065Y027479D01*
X013090Y027424D01*
X013111Y027367D01*
X013128Y027309D01*
X013142Y027250D01*
X013152Y027191D01*
X013158Y027130D01*
X013160Y027070D01*
X013158Y027010D01*
X013152Y026949D01*
X013142Y026890D01*
X013128Y026831D01*
X013111Y026773D01*
X013090Y026716D01*
X013065Y026661D01*
X013036Y026608D01*
X013004Y026556D01*
X012969Y026507D01*
X012930Y026460D01*
X012889Y026416D01*
X012845Y026375D01*
X012798Y026336D01*
X012749Y026301D01*
X012698Y026269D01*
X012644Y026240D01*
X012589Y026215D01*
X012532Y026194D01*
X012474Y026177D01*
X012415Y026163D01*
X012356Y026153D01*
X012295Y026147D01*
X012235Y026145D01*
X012175Y026147D01*
X012114Y026153D01*
X012055Y026163D01*
X011996Y026177D01*
X011938Y026194D01*
X011881Y026215D01*
X011826Y026240D01*
X011773Y026269D01*
X011721Y026301D01*
X011672Y026336D01*
X011625Y026375D01*
X011581Y026416D01*
X011540Y026460D01*
X011501Y026507D01*
X011466Y026556D01*
X011434Y026607D01*
X011405Y026661D01*
X011380Y026716D01*
X011359Y026773D01*
X011342Y026831D01*
X011328Y026890D01*
X011318Y026949D01*
X011312Y027010D01*
X011310Y027070D01*
X011093Y027070D02*
X011095Y027137D01*
X011101Y027204D01*
X011111Y027270D01*
X011124Y027336D01*
X011142Y027401D01*
X011163Y027464D01*
X011188Y027526D01*
X011217Y027587D01*
X011249Y027646D01*
X011284Y027703D01*
X011323Y027757D01*
X011365Y027810D01*
X011410Y027860D01*
X011458Y027907D01*
X011508Y027951D01*
X011561Y027992D01*
X011616Y028030D01*
X011674Y028065D01*
X011733Y028096D01*
X011794Y028123D01*
X011857Y028148D01*
X011921Y028168D01*
X011986Y028184D01*
X012051Y028197D01*
X012118Y028206D01*
X012185Y028211D01*
X012252Y028212D01*
X012319Y028209D01*
X012385Y028202D01*
X012452Y028191D01*
X012517Y028177D01*
X012582Y028158D01*
X012645Y028136D01*
X012707Y028110D01*
X012767Y028081D01*
X012825Y028048D01*
X012882Y028011D01*
X012936Y027972D01*
X012987Y027929D01*
X013037Y027883D01*
X013083Y027835D01*
X013126Y027784D01*
X013167Y027730D01*
X013204Y027675D01*
X013238Y027617D01*
X013268Y027557D01*
X013295Y027495D01*
X013318Y027432D01*
X013337Y027368D01*
X013353Y027303D01*
X013365Y027237D01*
X013373Y027170D01*
X013377Y027104D01*
X013377Y027036D01*
X013373Y026970D01*
X013365Y026903D01*
X013353Y026837D01*
X013337Y026772D01*
X013318Y026708D01*
X013295Y026645D01*
X013268Y026583D01*
X013238Y026523D01*
X013204Y026465D01*
X013167Y026410D01*
X013126Y026356D01*
X013083Y026305D01*
X013037Y026257D01*
X012987Y026211D01*
X012936Y026168D01*
X012882Y026129D01*
X012825Y026092D01*
X012767Y026059D01*
X012707Y026030D01*
X012645Y026004D01*
X012582Y025982D01*
X012517Y025963D01*
X012452Y025949D01*
X012385Y025938D01*
X012319Y025931D01*
X012252Y025928D01*
X012185Y025929D01*
X012118Y025934D01*
X012051Y025943D01*
X011986Y025956D01*
X011921Y025972D01*
X011857Y025992D01*
X011794Y026017D01*
X011733Y026044D01*
X011674Y026075D01*
X011616Y026110D01*
X011561Y026148D01*
X011508Y026189D01*
X011458Y026233D01*
X011410Y026280D01*
X011365Y026330D01*
X011323Y026383D01*
X011284Y026437D01*
X011249Y026494D01*
X011217Y026553D01*
X011188Y026614D01*
X011163Y026676D01*
X011142Y026739D01*
X011124Y026804D01*
X011111Y026870D01*
X011101Y026936D01*
X011095Y027003D01*
X011093Y027070D01*
X016060Y027070D02*
X016062Y027130D01*
X016068Y027191D01*
X016078Y027250D01*
X016092Y027309D01*
X016109Y027367D01*
X016130Y027424D01*
X016155Y027479D01*
X016184Y027532D01*
X016216Y027584D01*
X016251Y027633D01*
X016290Y027680D01*
X016331Y027724D01*
X016375Y027765D01*
X016422Y027804D01*
X016471Y027839D01*
X016522Y027871D01*
X016576Y027900D01*
X016631Y027925D01*
X016688Y027946D01*
X016746Y027963D01*
X016805Y027977D01*
X016864Y027987D01*
X016925Y027993D01*
X016985Y027995D01*
X017045Y027993D01*
X017106Y027987D01*
X017165Y027977D01*
X017224Y027963D01*
X017282Y027946D01*
X017339Y027925D01*
X017394Y027900D01*
X017447Y027871D01*
X017499Y027839D01*
X017548Y027804D01*
X017595Y027765D01*
X017639Y027724D01*
X017680Y027680D01*
X017719Y027633D01*
X017754Y027584D01*
X017786Y027533D01*
X017815Y027479D01*
X017840Y027424D01*
X017861Y027367D01*
X017878Y027309D01*
X017892Y027250D01*
X017902Y027191D01*
X017908Y027130D01*
X017910Y027070D01*
X017908Y027010D01*
X017902Y026949D01*
X017892Y026890D01*
X017878Y026831D01*
X017861Y026773D01*
X017840Y026716D01*
X017815Y026661D01*
X017786Y026608D01*
X017754Y026556D01*
X017719Y026507D01*
X017680Y026460D01*
X017639Y026416D01*
X017595Y026375D01*
X017548Y026336D01*
X017499Y026301D01*
X017448Y026269D01*
X017394Y026240D01*
X017339Y026215D01*
X017282Y026194D01*
X017224Y026177D01*
X017165Y026163D01*
X017106Y026153D01*
X017045Y026147D01*
X016985Y026145D01*
X016925Y026147D01*
X016864Y026153D01*
X016805Y026163D01*
X016746Y026177D01*
X016688Y026194D01*
X016631Y026215D01*
X016576Y026240D01*
X016523Y026269D01*
X016471Y026301D01*
X016422Y026336D01*
X016375Y026375D01*
X016331Y026416D01*
X016290Y026460D01*
X016251Y026507D01*
X016216Y026556D01*
X016184Y026607D01*
X016155Y026661D01*
X016130Y026716D01*
X016109Y026773D01*
X016092Y026831D01*
X016078Y026890D01*
X016068Y026949D01*
X016062Y027010D01*
X016060Y027070D01*
X015843Y027070D02*
X015845Y027137D01*
X015851Y027204D01*
X015861Y027270D01*
X015874Y027336D01*
X015892Y027401D01*
X015913Y027464D01*
X015938Y027526D01*
X015967Y027587D01*
X015999Y027646D01*
X016034Y027703D01*
X016073Y027757D01*
X016115Y027810D01*
X016160Y027860D01*
X016208Y027907D01*
X016258Y027951D01*
X016311Y027992D01*
X016366Y028030D01*
X016424Y028065D01*
X016483Y028096D01*
X016544Y028123D01*
X016607Y028148D01*
X016671Y028168D01*
X016736Y028184D01*
X016801Y028197D01*
X016868Y028206D01*
X016935Y028211D01*
X017002Y028212D01*
X017069Y028209D01*
X017135Y028202D01*
X017202Y028191D01*
X017267Y028177D01*
X017332Y028158D01*
X017395Y028136D01*
X017457Y028110D01*
X017517Y028081D01*
X017575Y028048D01*
X017632Y028011D01*
X017686Y027972D01*
X017737Y027929D01*
X017787Y027883D01*
X017833Y027835D01*
X017876Y027784D01*
X017917Y027730D01*
X017954Y027675D01*
X017988Y027617D01*
X018018Y027557D01*
X018045Y027495D01*
X018068Y027432D01*
X018087Y027368D01*
X018103Y027303D01*
X018115Y027237D01*
X018123Y027170D01*
X018127Y027104D01*
X018127Y027036D01*
X018123Y026970D01*
X018115Y026903D01*
X018103Y026837D01*
X018087Y026772D01*
X018068Y026708D01*
X018045Y026645D01*
X018018Y026583D01*
X017988Y026523D01*
X017954Y026465D01*
X017917Y026410D01*
X017876Y026356D01*
X017833Y026305D01*
X017787Y026257D01*
X017737Y026211D01*
X017686Y026168D01*
X017632Y026129D01*
X017575Y026092D01*
X017517Y026059D01*
X017457Y026030D01*
X017395Y026004D01*
X017332Y025982D01*
X017267Y025963D01*
X017202Y025949D01*
X017135Y025938D01*
X017069Y025931D01*
X017002Y025928D01*
X016935Y025929D01*
X016868Y025934D01*
X016801Y025943D01*
X016736Y025956D01*
X016671Y025972D01*
X016607Y025992D01*
X016544Y026017D01*
X016483Y026044D01*
X016424Y026075D01*
X016366Y026110D01*
X016311Y026148D01*
X016258Y026189D01*
X016208Y026233D01*
X016160Y026280D01*
X016115Y026330D01*
X016073Y026383D01*
X016034Y026437D01*
X015999Y026494D01*
X015967Y026553D01*
X015938Y026614D01*
X015913Y026676D01*
X015892Y026739D01*
X015874Y026804D01*
X015861Y026870D01*
X015851Y026936D01*
X015845Y027003D01*
X015843Y027070D01*
M02*
