G75*
%MOIN*%
%OFA0B0*%
%FSLAX24Y24*%
%IPPOS*%
%LPD*%
%AMOC8*
5,1,8,0,0,1.08239X$1,22.5*
%
%ADD10C,0.0000*%
%ADD11R,0.0594X0.0594*%
%ADD12C,0.0594*%
%ADD13C,0.0650*%
%ADD14C,0.1581*%
%ADD15OC8,0.0600*%
%ADD16OC8,0.0520*%
%ADD17C,0.0660*%
%ADD18R,0.1102X0.1102*%
%ADD19C,0.0070*%
%ADD20C,0.0100*%
%ADD21C,0.0396*%
%ADD22C,0.0310*%
%ADD23C,0.0120*%
D10*
X000135Y000200D02*
X002235Y000200D01*
X003235Y001200D01*
X003235Y005570D01*
X018535Y005570D01*
X018535Y001200D01*
X019535Y000200D01*
X021635Y000200D01*
X021635Y032070D01*
X021636Y032146D01*
X021632Y032222D01*
X021625Y032297D01*
X021614Y032372D01*
X021600Y032447D01*
X021582Y032521D01*
X021560Y032593D01*
X021535Y032665D01*
X021506Y032735D01*
X021474Y032804D01*
X021439Y032871D01*
X021400Y032936D01*
X021358Y032999D01*
X021313Y033061D01*
X021265Y033119D01*
X021215Y033176D01*
X021161Y033230D01*
X021105Y033281D01*
X021047Y033329D01*
X020986Y033375D01*
X020923Y033417D01*
X020858Y033457D01*
X020791Y033493D01*
X020723Y033525D01*
X020653Y033555D01*
X020582Y033581D01*
X020509Y033603D01*
X020436Y033622D01*
X020361Y033637D01*
X020286Y033648D01*
X020211Y033656D01*
X020135Y033660D01*
X001635Y033660D01*
X001557Y033656D01*
X001479Y033648D01*
X001402Y033636D01*
X001325Y033620D01*
X001249Y033600D01*
X001174Y033576D01*
X001101Y033549D01*
X001029Y033517D01*
X000959Y033483D01*
X000891Y033444D01*
X000824Y033403D01*
X000760Y033358D01*
X000698Y033309D01*
X000639Y033258D01*
X000583Y033204D01*
X000529Y033147D01*
X000478Y033087D01*
X000430Y033025D01*
X000386Y032961D01*
X000345Y032894D01*
X000307Y032826D01*
X000273Y032755D01*
X000242Y032683D01*
X000215Y032609D01*
X000192Y032535D01*
X000173Y032459D01*
X000157Y032382D01*
X000146Y032305D01*
X000138Y032227D01*
X000134Y032148D01*
X000135Y032070D01*
X000135Y000200D01*
D11*
X000875Y022850D03*
X019875Y022850D03*
D12*
X019875Y021850D03*
X019875Y020850D03*
X019875Y019850D03*
X019875Y018850D03*
X019875Y017850D03*
X019875Y016850D03*
X019875Y015850D03*
X019875Y014850D03*
X019875Y013850D03*
X019875Y012850D03*
X019875Y011850D03*
X019875Y010850D03*
X019875Y009850D03*
X019875Y008850D03*
X019875Y007850D03*
X019875Y006850D03*
X019875Y005850D03*
X019875Y004850D03*
X019875Y003850D03*
X019875Y002850D03*
X019875Y001850D03*
X019875Y000850D03*
X020875Y000850D03*
X020875Y001850D03*
X020875Y002850D03*
X020875Y003850D03*
X020875Y004850D03*
X020875Y005850D03*
X020875Y006850D03*
X020875Y007850D03*
X020875Y008850D03*
X020875Y009850D03*
X020875Y010850D03*
X020875Y011850D03*
X020875Y012850D03*
X020875Y013850D03*
X020875Y014850D03*
X020875Y015850D03*
X020875Y016850D03*
X020875Y017850D03*
X020875Y018850D03*
X020875Y019850D03*
X020875Y020850D03*
X020875Y021850D03*
X020875Y022850D03*
X017875Y022850D03*
X017875Y021850D03*
X017875Y020850D03*
X017875Y019850D03*
X017875Y018850D03*
X017875Y017850D03*
X017875Y016850D03*
X017875Y015850D03*
X017875Y014850D03*
X017875Y013850D03*
X017875Y006850D03*
X016875Y006850D03*
X015875Y006850D03*
X014875Y006850D03*
X013875Y006850D03*
X012875Y006850D03*
X011875Y006850D03*
X010875Y006850D03*
X009875Y006850D03*
X008875Y006850D03*
X001875Y006850D03*
X001875Y005850D03*
X001875Y004850D03*
X001875Y003850D03*
X001875Y002850D03*
X001875Y001850D03*
X001875Y000850D03*
X000875Y000850D03*
X000875Y001850D03*
X000875Y002850D03*
X000875Y003850D03*
X000875Y004850D03*
X000875Y005850D03*
X000875Y006850D03*
X000875Y007850D03*
X000875Y008850D03*
X000875Y009850D03*
X000875Y010850D03*
X000875Y011850D03*
X000875Y012850D03*
X000875Y013850D03*
X000875Y014850D03*
X000875Y015850D03*
X000875Y016850D03*
X000875Y017850D03*
X000875Y018850D03*
X000875Y019850D03*
X000875Y020850D03*
X000875Y021850D03*
X001875Y021850D03*
X001875Y020850D03*
X001875Y019850D03*
X001875Y018850D03*
X001875Y017850D03*
X001875Y016850D03*
X001875Y015850D03*
X001875Y014850D03*
X001875Y013850D03*
X001875Y012850D03*
X001875Y011850D03*
X001875Y010850D03*
X001875Y009850D03*
X001875Y008850D03*
X001875Y007850D03*
X001875Y022850D03*
D13*
X004235Y023039D03*
X004235Y019692D03*
X004235Y018511D03*
X004235Y013039D03*
X004235Y009692D03*
X004235Y008511D03*
X007985Y008511D03*
X007985Y009692D03*
X007985Y013039D03*
X007985Y018511D03*
X007985Y019692D03*
X007985Y023039D03*
X011735Y023039D03*
X011735Y019692D03*
X011735Y018511D03*
X011735Y013039D03*
X011735Y009692D03*
X011735Y008511D03*
X015485Y008511D03*
X015485Y009692D03*
X015485Y013039D03*
X015485Y018511D03*
X015485Y019692D03*
X015485Y023039D03*
D14*
X015485Y021070D03*
X011735Y021070D03*
X007985Y021070D03*
X004235Y021070D03*
X004235Y011070D03*
X007985Y011070D03*
X011735Y011070D03*
X015485Y011070D03*
D15*
X008235Y030970D03*
X008235Y031970D03*
X007235Y031970D03*
X007235Y030970D03*
X006235Y030970D03*
X006235Y031970D03*
X005235Y031970D03*
X005235Y030970D03*
X004235Y030970D03*
X004235Y031970D03*
X003235Y031970D03*
X003235Y030970D03*
X002235Y030970D03*
X002235Y031970D03*
X001235Y031970D03*
X001235Y030970D03*
D16*
X004135Y015070D03*
X004135Y014170D03*
X006135Y014170D03*
X006135Y015070D03*
X008035Y014070D03*
X008135Y015070D03*
X010135Y015070D03*
X010035Y014070D03*
X011785Y015120D03*
X012035Y014070D03*
X013785Y015120D03*
X014035Y014070D03*
X016235Y013970D03*
X016235Y015970D03*
X016135Y016970D03*
X016135Y018970D03*
D17*
X014785Y018070D03*
X014785Y014070D03*
X010985Y014070D03*
X010985Y018070D03*
X006985Y018070D03*
X006985Y014070D03*
X003235Y014070D03*
X003235Y018070D03*
X003719Y024314D03*
X002735Y024314D03*
X001751Y024314D03*
X006501Y024314D03*
X007485Y024314D03*
X008469Y024314D03*
X011251Y024314D03*
X012235Y024314D03*
X013219Y024314D03*
X016001Y024314D03*
X016985Y024314D03*
X017969Y024314D03*
D18*
X018757Y027070D03*
X015213Y027070D03*
X014007Y027070D03*
X010463Y027070D03*
X009257Y027070D03*
X005713Y027070D03*
X004507Y027070D03*
X000963Y027070D03*
D19*
X001751Y024314D02*
X001735Y024070D01*
X002735Y023070D01*
X002735Y021070D01*
X001735Y022070D01*
X001875Y021850D01*
X001735Y022070D02*
X000735Y022070D01*
X000875Y021850D01*
X000735Y021070D02*
X000875Y020850D01*
X000735Y021070D02*
X001735Y021070D01*
X001875Y020850D01*
X002735Y021070D02*
X002735Y020070D01*
X003235Y019570D01*
X003235Y018070D01*
X004735Y015570D02*
X008235Y015570D01*
X010235Y015570D01*
X010735Y015070D01*
X011735Y015070D01*
X011785Y015120D01*
X012235Y015070D02*
X012235Y014070D01*
X012035Y014070D01*
X010985Y014070D01*
X010735Y014070D01*
X010235Y013570D01*
X010235Y007570D01*
X010735Y007070D01*
X010875Y006850D01*
X011735Y007070D02*
X011875Y006850D01*
X011735Y007070D02*
X014235Y009570D01*
X014235Y013570D01*
X014735Y014070D01*
X014785Y014070D01*
X015735Y014070D01*
X015735Y017570D01*
X016235Y018070D01*
X016235Y019070D01*
X016135Y018970D01*
X015485Y018511D02*
X015235Y018570D01*
X014235Y019570D01*
X014235Y022570D01*
X015735Y022570D01*
X016235Y023070D01*
X017735Y023070D01*
X017875Y022850D01*
X018235Y023570D02*
X012235Y023570D01*
X012235Y024314D01*
X012235Y023070D02*
X011735Y023070D01*
X011735Y023039D01*
X012235Y023070D02*
X013235Y022070D01*
X013235Y017070D01*
X015235Y015070D01*
X015235Y014570D02*
X012235Y017570D01*
X006235Y017570D01*
X006235Y022070D01*
X007235Y023070D01*
X007735Y023070D01*
X007985Y023039D01*
X010235Y023070D02*
X010235Y018070D01*
X006985Y018070D01*
X008235Y015570D02*
X008235Y015070D01*
X008135Y015070D01*
X008735Y015070D02*
X008735Y014570D01*
X008235Y014070D01*
X008035Y014070D01*
X006985Y014070D01*
X006735Y014070D01*
X006735Y008070D01*
X008735Y008070D01*
X009735Y007070D01*
X009875Y006850D01*
X008875Y006850D02*
X008735Y007070D01*
X005735Y007070D01*
X005735Y012070D01*
X005235Y012570D01*
X003735Y012570D01*
X003735Y014070D01*
X004235Y014070D01*
X004135Y014170D01*
X004235Y014070D02*
X004735Y014570D01*
X004735Y015070D01*
X006135Y015070D01*
X006235Y015070D01*
X006135Y014170D02*
X006235Y014070D01*
X004735Y014070D01*
X004735Y013570D01*
X004235Y013070D01*
X004235Y013039D01*
X003735Y014070D02*
X003235Y014070D01*
X002735Y015070D02*
X002735Y010070D01*
X004235Y008570D01*
X004235Y008511D01*
X007985Y013039D02*
X008235Y013070D01*
X008735Y013570D01*
X008735Y014070D01*
X010035Y014070D01*
X010235Y014070D01*
X010235Y015070D02*
X010135Y015070D01*
X008735Y015070D01*
X010235Y018070D02*
X010985Y018070D01*
X012235Y015070D02*
X013735Y015070D01*
X013785Y015120D01*
X014035Y014070D02*
X014235Y014070D01*
X014035Y014070D02*
X012735Y014070D01*
X011735Y013070D01*
X011735Y013039D01*
X015485Y013039D02*
X015735Y013070D01*
X016235Y013070D01*
X016735Y013570D01*
X016735Y015570D01*
X016235Y016070D01*
X016235Y015970D01*
X017235Y016070D02*
X016235Y017070D01*
X016135Y016970D01*
X017235Y016070D02*
X017235Y010070D01*
X016235Y009070D01*
X016235Y008570D01*
X017735Y007070D01*
X017875Y006850D01*
X018235Y007570D02*
X018735Y008070D01*
X018735Y023070D01*
X018235Y023570D01*
X019235Y024570D02*
X011735Y032570D01*
X002735Y032570D01*
X002735Y024314D01*
X003235Y022570D02*
X003235Y028070D01*
X006235Y031070D01*
X006235Y030970D01*
X006235Y031070D02*
X006235Y031970D01*
X006235Y032070D01*
X005235Y031970D02*
X005235Y030970D01*
X007235Y030970D02*
X007235Y031970D01*
X008235Y031970D02*
X008235Y030970D01*
X011251Y024314D02*
X011235Y024070D01*
X010235Y023070D01*
X004735Y015570D02*
X004235Y015070D01*
X004135Y015070D01*
X002735Y015070D01*
X001235Y030970D02*
X001235Y031970D01*
X015735Y014070D02*
X016235Y014070D01*
X016235Y013970D01*
X016235Y009070D02*
X015735Y008570D01*
X015485Y008511D01*
X015735Y007070D02*
X015875Y006850D01*
X015735Y007070D02*
X016735Y006070D01*
X019235Y006070D01*
X019235Y024570D01*
X019735Y023070D02*
X019875Y022850D01*
X019735Y023070D02*
X020735Y023070D01*
X020875Y022850D01*
D20*
X018985Y024320D02*
X018985Y007070D01*
X018735Y006820D01*
X018985Y024320D02*
X018235Y025070D01*
X017235Y025070D01*
X017235Y024564D01*
X016985Y024314D01*
D21*
X009485Y018570D03*
X014735Y009570D03*
X018735Y006820D03*
D22*
X018235Y007570D03*
X015235Y014570D03*
X015235Y015070D03*
X003235Y022570D03*
D23*
X007485Y024314D02*
X007485Y025070D01*
X007985Y025570D01*
X008985Y025570D01*
X009485Y025070D01*
X009485Y018570D01*
X014735Y009570D02*
X014735Y007070D01*
X014875Y006930D01*
X014875Y006850D01*
M02*
