G75*
%MOIN*%
%OFA0B0*%
%FSLAX24Y24*%
%IPPOS*%
%LPD*%
%AMOC8*
5,1,8,0,0,1.08239X$1,22.5*
%
%ADD10C,0.0000*%
%ADD11C,0.0060*%
%ADD12R,0.0594X0.0594*%
%ADD13C,0.0594*%
%ADD14C,0.0650*%
%ADD15C,0.1581*%
%ADD16OC8,0.0600*%
%ADD17OC8,0.0520*%
%ADD18C,0.0660*%
%ADD19R,0.1102X0.1102*%
%ADD20C,0.0120*%
%ADD21C,0.0070*%
%ADD22C,0.0396*%
%ADD23C,0.0100*%
%ADD24C,0.0310*%
%ADD25C,0.0160*%
D10*
X000135Y000200D02*
X002235Y000200D01*
X003235Y001200D01*
X003235Y005570D01*
X018535Y005570D01*
X018535Y001200D01*
X019535Y000200D01*
X021635Y000200D01*
X021635Y032070D01*
X021636Y032146D01*
X021632Y032222D01*
X021625Y032297D01*
X021614Y032372D01*
X021600Y032447D01*
X021582Y032521D01*
X021560Y032593D01*
X021535Y032665D01*
X021506Y032735D01*
X021474Y032804D01*
X021439Y032871D01*
X021400Y032936D01*
X021358Y032999D01*
X021313Y033061D01*
X021265Y033119D01*
X021215Y033176D01*
X021161Y033230D01*
X021105Y033281D01*
X021047Y033329D01*
X020986Y033375D01*
X020923Y033417D01*
X020858Y033457D01*
X020791Y033493D01*
X020723Y033525D01*
X020653Y033555D01*
X020582Y033581D01*
X020509Y033603D01*
X020436Y033622D01*
X020361Y033637D01*
X020286Y033648D01*
X020211Y033656D01*
X020135Y033660D01*
X001635Y033660D01*
X001557Y033656D01*
X001479Y033648D01*
X001402Y033636D01*
X001325Y033620D01*
X001249Y033600D01*
X001174Y033576D01*
X001101Y033549D01*
X001029Y033517D01*
X000959Y033483D01*
X000891Y033444D01*
X000824Y033403D01*
X000760Y033358D01*
X000698Y033309D01*
X000639Y033258D01*
X000583Y033204D01*
X000529Y033147D01*
X000478Y033087D01*
X000430Y033025D01*
X000386Y032961D01*
X000345Y032894D01*
X000307Y032826D01*
X000273Y032755D01*
X000242Y032683D01*
X000215Y032609D01*
X000192Y032535D01*
X000173Y032459D01*
X000157Y032382D01*
X000146Y032305D01*
X000138Y032227D01*
X000134Y032148D01*
X000135Y032070D01*
X000135Y000200D01*
D11*
X007510Y028350D02*
X007510Y028457D01*
X007082Y028884D01*
X007082Y028991D01*
X007510Y028991D01*
X007510Y029400D02*
X007510Y029827D01*
X007296Y030041D01*
X007082Y029827D01*
X007082Y029400D01*
X007043Y029400D02*
X007364Y029720D01*
X007510Y029720D02*
X007082Y029720D01*
X006865Y029507D02*
X006758Y029400D01*
X006545Y029400D01*
X006438Y029507D01*
X006220Y029614D02*
X005793Y030041D01*
X005754Y030041D02*
X005754Y029614D01*
X005968Y029400D01*
X006181Y029614D01*
X006181Y030041D01*
X006220Y030041D02*
X006220Y029400D01*
X006114Y029720D02*
X005793Y029400D01*
X005537Y029507D02*
X005110Y029934D01*
X005110Y029507D01*
X005216Y029400D01*
X005430Y029400D01*
X005537Y029507D01*
X005537Y029934D01*
X005430Y030041D01*
X005216Y030041D01*
X005110Y029934D01*
X004931Y030041D02*
X004931Y029614D01*
X004718Y029400D01*
X004504Y029614D01*
X004504Y030041D01*
X004356Y030041D02*
X004570Y029827D01*
X004356Y030041D02*
X004356Y029400D01*
X004287Y029507D02*
X004180Y029400D01*
X003966Y029400D01*
X003860Y029507D01*
X003860Y029934D01*
X004287Y029507D01*
X004287Y029934D01*
X004180Y030041D01*
X003966Y030041D01*
X003860Y029934D01*
X003925Y029827D02*
X003712Y030041D01*
X003498Y029827D01*
X003498Y029400D01*
X003535Y029400D02*
X003642Y029400D01*
X003642Y029507D01*
X003535Y029507D01*
X003535Y029400D01*
X003320Y029400D02*
X002893Y029400D01*
X003106Y029400D02*
X003106Y030041D01*
X003320Y029827D01*
X003498Y029720D02*
X003925Y029720D01*
X003925Y029827D02*
X003925Y029400D01*
X004143Y029400D02*
X004570Y029400D01*
X004785Y029400D02*
X004785Y029507D01*
X004892Y029507D01*
X004892Y029400D01*
X004785Y029400D01*
X005248Y030650D02*
X005248Y031077D01*
X005462Y031291D01*
X005675Y031077D01*
X005675Y030650D01*
X005675Y031077D01*
X005462Y031291D01*
X005248Y031077D01*
X005248Y030650D01*
X005248Y031077D01*
X005462Y031291D01*
X005675Y031077D01*
X005675Y030650D01*
X005893Y030650D02*
X006320Y030650D01*
X005893Y030650D01*
X006320Y030650D01*
X006106Y030650D02*
X006106Y031291D01*
X006320Y031077D01*
X006106Y031291D01*
X006106Y030650D01*
X006106Y031291D01*
X006320Y031077D01*
X006535Y030757D02*
X006535Y030650D01*
X006642Y030650D01*
X006642Y030757D01*
X006535Y030757D01*
X006535Y030650D01*
X006642Y030650D01*
X006642Y030757D01*
X006535Y030757D01*
X006535Y030650D01*
X006642Y030650D01*
X006642Y030757D01*
X006535Y030757D01*
X006860Y030757D02*
X006860Y031184D01*
X007287Y030757D01*
X007180Y030650D01*
X006966Y030650D01*
X006860Y030757D01*
X006966Y030650D01*
X007180Y030650D01*
X007287Y030757D01*
X007287Y031184D01*
X007180Y031291D01*
X006966Y031291D01*
X006860Y031184D01*
X007287Y030757D01*
X007287Y031184D01*
X007180Y031291D01*
X006966Y031291D01*
X006860Y031184D01*
X006860Y030757D01*
X006966Y030650D01*
X007180Y030650D01*
X007287Y030757D01*
X006860Y031184D01*
X006860Y030757D01*
X007287Y030757D02*
X007287Y031184D01*
X007180Y031291D01*
X006966Y031291D01*
X006860Y031184D01*
X007504Y031291D02*
X007504Y030864D01*
X007718Y030650D01*
X007931Y030864D01*
X007931Y031291D01*
X007931Y030864D01*
X007718Y030650D01*
X007504Y030864D01*
X007504Y031291D01*
X007504Y030864D01*
X007718Y030650D01*
X007931Y030864D01*
X007931Y031291D01*
X008793Y031291D02*
X009220Y030864D01*
X008793Y031291D01*
X009220Y030864D01*
X009114Y030970D02*
X008793Y030650D01*
X009114Y030970D01*
X008793Y030650D01*
X009220Y030650D02*
X009220Y031291D01*
X009220Y030650D01*
X009220Y031291D01*
X009425Y031400D02*
X009425Y031827D01*
X009212Y032041D01*
X008998Y031827D01*
X008998Y031400D01*
X008998Y031827D01*
X009212Y032041D01*
X009425Y031827D01*
X009425Y031400D01*
X009545Y031291D02*
X009758Y031291D01*
X009865Y031184D01*
X009865Y030757D01*
X009758Y030650D01*
X009545Y030650D01*
X009438Y030757D01*
X009545Y030650D01*
X009758Y030650D01*
X009865Y030757D01*
X009865Y031184D01*
X009758Y031291D01*
X009545Y031291D01*
X009438Y031184D01*
X009545Y031291D01*
X009758Y031291D01*
X009865Y031184D01*
X009865Y030757D01*
X009758Y030650D01*
X009545Y030650D01*
X009438Y030757D01*
X009438Y031184D02*
X009545Y031291D01*
X009643Y031400D02*
X010070Y031400D01*
X009643Y031400D01*
X009856Y031400D02*
X009856Y032041D01*
X010070Y031827D01*
X009856Y032041D01*
X009856Y031400D01*
X009856Y031650D02*
X009856Y032291D01*
X010070Y032077D01*
X009856Y032291D01*
X009856Y031650D01*
X009893Y031650D02*
X010320Y031650D01*
X009893Y031650D01*
X010320Y031650D01*
X009893Y031650D01*
X010320Y031650D01*
X009893Y031650D01*
X010320Y031650D01*
X010285Y031650D02*
X010392Y031650D01*
X010392Y031757D01*
X010285Y031757D01*
X010285Y031650D01*
X010392Y031650D01*
X010392Y031757D01*
X010285Y031757D01*
X010285Y031650D01*
X010285Y031507D02*
X010285Y031400D01*
X010392Y031400D01*
X010392Y031507D01*
X010285Y031507D01*
X010285Y031400D01*
X010392Y031400D01*
X010392Y031507D01*
X010285Y031507D01*
X010296Y031291D02*
X010082Y031077D01*
X010082Y030650D01*
X010082Y031077D01*
X010296Y031291D01*
X010510Y031077D01*
X010510Y030650D01*
X010510Y031077D01*
X010296Y031291D01*
X010082Y031077D01*
X010082Y030650D01*
X010082Y030970D02*
X010510Y030970D01*
X010082Y030970D01*
X010510Y030970D01*
X010510Y031077D02*
X010296Y031291D01*
X010510Y031077D02*
X010510Y030650D01*
X010727Y030650D02*
X010941Y030864D01*
X010727Y030650D01*
X010941Y030864D01*
X010834Y030864D02*
X011154Y030864D01*
X010834Y030864D01*
X010727Y030970D01*
X010727Y031184D01*
X010834Y031291D01*
X011154Y031291D01*
X011154Y030650D01*
X011154Y031291D01*
X010834Y031291D01*
X010727Y031184D01*
X010727Y030970D01*
X010834Y030864D01*
X011154Y030864D01*
X011154Y030650D02*
X011154Y031291D01*
X010834Y031291D01*
X010727Y031184D01*
X010727Y030970D01*
X010834Y030864D01*
X010930Y031400D02*
X010716Y031400D01*
X010610Y031507D01*
X010610Y031934D01*
X011037Y031507D01*
X010930Y031400D01*
X011037Y031507D01*
X011037Y031934D01*
X010930Y032041D01*
X010716Y032041D01*
X010610Y031934D01*
X011037Y031507D01*
X011037Y031934D01*
X010930Y032041D01*
X010716Y032041D01*
X010610Y031934D01*
X010610Y031507D01*
X010716Y031400D01*
X010930Y031400D01*
X010930Y031650D02*
X010716Y031650D01*
X010610Y031757D01*
X010610Y032184D01*
X011037Y031757D01*
X010930Y031650D01*
X011037Y031757D01*
X011037Y032184D01*
X010930Y032291D01*
X010716Y032291D01*
X010610Y032184D01*
X011037Y031757D01*
X011037Y032184D01*
X010930Y032291D01*
X010716Y032291D01*
X010610Y032184D01*
X010610Y031757D01*
X010716Y031650D01*
X010930Y031650D01*
X010966Y031650D02*
X011180Y031650D01*
X011287Y031757D01*
X010860Y032184D01*
X010860Y031757D01*
X010966Y031650D01*
X011180Y031650D01*
X011287Y031757D01*
X011287Y032184D01*
X011180Y032291D01*
X010966Y032291D01*
X010860Y032184D01*
X011287Y031757D01*
X011287Y032184D01*
X011180Y032291D01*
X010966Y032291D01*
X010860Y032184D01*
X010860Y031757D01*
X010966Y031650D01*
X011180Y031650D01*
X011287Y031757D01*
X010860Y032184D01*
X010860Y031757D01*
X010966Y031650D01*
X011180Y031650D01*
X011287Y031757D01*
X011287Y032184D01*
X011180Y032291D01*
X010966Y032291D01*
X010860Y032184D01*
X011287Y031757D01*
X011287Y032184D01*
X011180Y032291D01*
X010966Y032291D01*
X010860Y032184D01*
X010860Y031757D01*
X010966Y031650D01*
X011180Y031650D01*
X011287Y031757D01*
X010860Y032184D01*
X010860Y031757D01*
X010966Y031650D01*
X011180Y031650D01*
X011287Y031757D01*
X011287Y032184D01*
X011180Y032291D01*
X010966Y032291D01*
X010860Y032184D01*
X011287Y031757D01*
X011287Y032184D01*
X011180Y032291D01*
X010966Y032291D01*
X010860Y032184D01*
X010860Y031757D01*
X010966Y031650D01*
X011180Y031650D01*
X011287Y031757D01*
X010860Y032184D01*
X010860Y031757D01*
X010966Y031650D01*
X010966Y031900D02*
X010860Y032007D01*
X010860Y032434D01*
X011287Y032007D01*
X011180Y031900D01*
X010966Y031900D01*
X011180Y031900D01*
X011287Y032007D01*
X011287Y032434D01*
X011180Y032541D01*
X010966Y032541D01*
X010860Y032434D01*
X011287Y032007D01*
X011287Y032434D01*
X011180Y032541D01*
X010966Y032541D01*
X010860Y032434D01*
X010860Y032007D01*
X010966Y031900D01*
X011254Y031864D02*
X011254Y032291D01*
X011254Y031864D01*
X011468Y031650D01*
X011681Y031864D01*
X011681Y032291D01*
X011681Y031864D01*
X011468Y031650D01*
X011254Y031864D01*
X011287Y031757D02*
X011287Y032184D01*
X011180Y032291D01*
X010966Y032291D01*
X010860Y032184D01*
X010642Y032007D02*
X010535Y032007D01*
X010535Y031900D01*
X010642Y031900D01*
X010642Y032007D01*
X010535Y032007D01*
X010535Y031900D01*
X010642Y031900D01*
X010642Y032007D01*
X010642Y031757D02*
X010535Y031757D01*
X010535Y031650D01*
X010642Y031650D01*
X010642Y031757D01*
X010535Y031757D01*
X010535Y031650D01*
X010642Y031650D01*
X010642Y031757D01*
X010535Y031757D01*
X010535Y031650D01*
X010642Y031650D01*
X010642Y031757D01*
X010535Y031757D01*
X010535Y031650D01*
X010642Y031650D01*
X010642Y031757D01*
X010535Y031757D01*
X010535Y031650D01*
X010642Y031650D01*
X010642Y031757D01*
X010535Y031757D01*
X010535Y031650D01*
X010642Y031650D01*
X010642Y031757D01*
X010535Y031757D01*
X010535Y031650D01*
X010642Y031650D01*
X010642Y031757D01*
X010320Y031900D02*
X009893Y031900D01*
X010320Y031900D01*
X010320Y032077D02*
X010106Y032291D01*
X010106Y031650D01*
X010106Y032291D01*
X010320Y032077D01*
X010106Y032291D01*
X010106Y031650D01*
X010106Y032291D01*
X010320Y032077D01*
X010106Y032291D01*
X010106Y031650D01*
X010106Y032291D01*
X010320Y032077D01*
X010106Y032291D01*
X010106Y031650D01*
X010070Y031650D02*
X009643Y031650D01*
X010070Y031650D01*
X010106Y031900D02*
X010106Y032541D01*
X010320Y032327D01*
X010106Y032541D01*
X010106Y031900D01*
X009675Y031900D02*
X009675Y032327D01*
X009462Y032541D01*
X009248Y032327D01*
X009248Y031900D01*
X009248Y032327D01*
X009462Y032541D01*
X009675Y032327D01*
X009675Y031900D01*
X009675Y031970D02*
X009248Y031970D01*
X009675Y031970D01*
X009248Y031970D01*
X009675Y031970D01*
X009248Y031970D01*
X009675Y031970D01*
X009248Y031970D01*
X009248Y032077D02*
X009248Y031650D01*
X009248Y032077D01*
X009462Y032291D01*
X009675Y032077D01*
X009675Y031650D01*
X009675Y032077D01*
X009462Y032291D01*
X009248Y032077D01*
X009248Y031650D01*
X009248Y032077D01*
X009462Y032291D01*
X009675Y032077D01*
X009675Y031650D01*
X009675Y032077D01*
X009462Y032291D01*
X009248Y032077D01*
X009248Y031650D01*
X009248Y032077D01*
X009462Y032291D01*
X009675Y032077D01*
X009675Y031650D01*
X009675Y032077D01*
X009462Y032291D01*
X009248Y032077D01*
X009248Y031650D01*
X009425Y031650D02*
X009425Y032077D01*
X009212Y032291D01*
X008998Y032077D01*
X008998Y031650D01*
X008998Y032077D01*
X009212Y032291D01*
X009425Y032077D01*
X009425Y031650D01*
X009425Y031720D02*
X008998Y031720D01*
X009425Y031720D01*
X009425Y031970D02*
X008998Y031970D01*
X009425Y031970D01*
X009248Y032077D02*
X009462Y032291D01*
X009675Y032077D01*
X009675Y031650D01*
X009675Y032220D02*
X009248Y032220D01*
X009675Y032220D01*
X010082Y030241D02*
X010082Y030134D01*
X010510Y029707D01*
X010510Y029600D01*
X010510Y029707D01*
X010082Y030134D01*
X010082Y030241D01*
X010510Y030241D01*
X010082Y030241D01*
X010082Y030134D01*
X010510Y029707D01*
X010510Y029600D01*
X010480Y029614D02*
X010266Y029400D01*
X010305Y029400D02*
X010732Y029400D01*
X010732Y030041D01*
X010305Y030041D01*
X010373Y030041D02*
X010266Y029934D01*
X010266Y029720D01*
X010373Y029614D01*
X010693Y029614D01*
X010727Y029600D02*
X011154Y029600D01*
X010727Y029600D01*
X011154Y029600D01*
X011338Y029507D02*
X011231Y029400D01*
X011017Y029400D01*
X010911Y029507D01*
X010911Y030041D01*
X010941Y030241D02*
X010941Y029600D01*
X010941Y030241D01*
X011154Y030027D01*
X010941Y030241D01*
X010941Y029600D01*
X010732Y029720D02*
X010519Y029720D01*
X010373Y030041D02*
X010693Y030041D01*
X010693Y029400D01*
X010732Y028991D02*
X010732Y028350D01*
X010693Y028350D02*
X010266Y028777D01*
X010266Y028884D01*
X010373Y028991D01*
X010586Y028991D01*
X010693Y028884D01*
X010625Y028670D02*
X010305Y028350D01*
X010266Y028350D02*
X010693Y028350D01*
X010732Y028564D02*
X010305Y028991D01*
X010049Y028884D02*
X009942Y028991D01*
X009728Y028991D01*
X009622Y028884D01*
X010049Y028457D01*
X009942Y028350D01*
X009728Y028350D01*
X009622Y028457D01*
X009622Y028884D01*
X009443Y028884D02*
X009336Y028991D01*
X009123Y028991D01*
X009016Y028884D01*
X009016Y028777D01*
X009443Y028350D01*
X009016Y028350D01*
X008977Y028350D02*
X009404Y028350D01*
X009191Y028350D02*
X009191Y028991D01*
X009404Y028777D01*
X009404Y029400D02*
X009404Y030041D01*
X009084Y030041D01*
X008977Y029934D01*
X008977Y029720D01*
X009084Y029614D01*
X009404Y029614D01*
X009443Y029614D02*
X009123Y029614D01*
X009016Y029720D01*
X009016Y029934D01*
X009123Y030041D01*
X009443Y030041D01*
X009443Y029400D01*
X009622Y029507D02*
X009622Y029934D01*
X009728Y030041D01*
X009942Y030041D01*
X010049Y029934D01*
X010049Y029507D01*
X009942Y029400D01*
X009728Y029400D01*
X009622Y029507D01*
X009661Y029507D02*
X009661Y030041D01*
X009661Y029507D02*
X009767Y029400D01*
X009981Y029400D01*
X010088Y029507D01*
X010088Y030041D01*
X010082Y030241D02*
X010510Y030241D01*
X010941Y030241D02*
X011154Y030027D01*
X011338Y030041D02*
X011338Y029507D01*
X011478Y029600D02*
X011692Y029600D01*
X011799Y029707D01*
X011372Y030134D01*
X011372Y029707D01*
X011478Y029600D01*
X011692Y029600D01*
X011799Y029707D01*
X011799Y030134D01*
X011692Y030241D01*
X011478Y030241D01*
X011372Y030134D01*
X011799Y029707D01*
X011799Y030134D01*
X011692Y030241D01*
X011478Y030241D01*
X011372Y030134D01*
X011372Y029707D01*
X011478Y029600D01*
X011692Y029600D01*
X011799Y029707D01*
X011372Y030134D01*
X011372Y029707D01*
X011478Y029600D01*
X011594Y029720D02*
X012021Y029720D01*
X011982Y029720D02*
X011769Y029720D01*
X011799Y029707D02*
X011799Y030134D01*
X011692Y030241D01*
X011478Y030241D01*
X011372Y030134D01*
X011555Y030041D02*
X011982Y030041D01*
X011982Y029400D01*
X011555Y029400D01*
X011594Y029400D02*
X011594Y029827D01*
X011808Y030041D01*
X012021Y029827D01*
X012021Y029400D01*
X012016Y029600D02*
X012443Y029600D01*
X012016Y030027D01*
X012016Y030134D01*
X012123Y030241D01*
X012336Y030241D01*
X012443Y030134D01*
X012336Y030241D01*
X012123Y030241D01*
X012016Y030134D01*
X012016Y030027D01*
X012443Y029600D01*
X012016Y029600D01*
X012443Y029600D01*
X012016Y030027D01*
X012016Y030134D01*
X012123Y030241D01*
X012336Y030241D01*
X012443Y030134D01*
X012666Y030041D02*
X012666Y029400D01*
X012239Y029400D01*
X012239Y028991D02*
X012452Y028991D01*
X012520Y028991D02*
X012627Y028884D01*
X012627Y028457D01*
X012520Y028350D01*
X012307Y028350D01*
X012200Y028457D01*
X012346Y028457D02*
X012346Y028991D01*
X012307Y028991D02*
X012520Y028991D01*
X012307Y028991D02*
X012200Y028884D01*
X012021Y028777D02*
X011808Y028991D01*
X011594Y028777D01*
X011594Y028350D01*
X011555Y028350D02*
X011875Y028670D01*
X012021Y028670D02*
X011594Y028670D01*
X011377Y028457D02*
X011270Y028350D01*
X011057Y028350D01*
X010950Y028457D01*
X011377Y028457D02*
X011377Y028884D01*
X011270Y028991D01*
X011057Y028991D01*
X010950Y028884D01*
X011555Y028991D02*
X011982Y028564D01*
X011982Y028350D02*
X011982Y028991D01*
X012021Y028777D02*
X012021Y028350D01*
X012346Y028457D02*
X012452Y028350D01*
X012559Y028350D01*
X012666Y028457D01*
X012844Y028350D02*
X012844Y028777D01*
X013058Y028991D01*
X013271Y028777D01*
X013271Y028350D01*
X013310Y028350D02*
X013310Y028991D01*
X013489Y028991D02*
X013702Y028991D01*
X013635Y028991D02*
X013528Y028884D01*
X013528Y028670D01*
X013635Y028564D01*
X013955Y028564D01*
X013916Y028457D02*
X013809Y028350D01*
X013702Y028350D01*
X013596Y028457D01*
X013596Y028991D01*
X013635Y028991D02*
X013955Y028991D01*
X013955Y028350D01*
X014133Y028350D02*
X014133Y028991D01*
X014133Y028670D02*
X014560Y028670D01*
X014778Y028670D02*
X014778Y028884D01*
X014885Y028991D01*
X015205Y028991D01*
X015205Y028350D01*
X015205Y028564D02*
X014885Y028564D01*
X014778Y028670D01*
X014991Y028564D02*
X014778Y028350D01*
X014560Y028350D02*
X014560Y028991D01*
X014560Y029400D02*
X014133Y029400D01*
X013955Y029400D02*
X013635Y029400D01*
X013528Y029507D01*
X013528Y029614D01*
X013635Y029720D01*
X013955Y029720D01*
X013950Y029707D02*
X014057Y029600D01*
X014270Y029600D01*
X014377Y029707D01*
X014377Y030134D01*
X014270Y030241D01*
X014057Y030241D01*
X013950Y030134D01*
X014057Y030241D01*
X014270Y030241D01*
X014377Y030134D01*
X014377Y029707D01*
X014270Y029600D01*
X014057Y029600D01*
X013950Y029707D01*
X014057Y029600D01*
X014270Y029600D01*
X014377Y029707D01*
X014377Y030134D01*
X014270Y030241D01*
X014057Y030241D01*
X013950Y030134D01*
X013955Y030041D02*
X013635Y030041D01*
X013528Y029934D01*
X013528Y029827D01*
X013635Y029720D01*
X013732Y029814D02*
X013305Y030241D01*
X013732Y029814D01*
X013305Y030241D01*
X013310Y030041D02*
X013310Y029400D01*
X012883Y029400D01*
X012844Y029400D02*
X012844Y029827D01*
X013058Y030041D01*
X013271Y029827D01*
X013271Y029400D01*
X013305Y029600D02*
X013625Y029920D01*
X013305Y029600D01*
X013625Y029920D01*
X013916Y030041D02*
X013916Y029400D01*
X013489Y029400D01*
X013310Y029720D02*
X013097Y029720D01*
X013271Y029720D02*
X012844Y029720D01*
X012883Y030041D02*
X013310Y030041D01*
X013732Y030241D02*
X013732Y029600D01*
X013732Y030241D01*
X013732Y029600D01*
X013955Y029400D02*
X013955Y030041D01*
X014133Y030041D02*
X014560Y030041D01*
X014560Y029400D01*
X014594Y029600D02*
X014594Y030027D01*
X014808Y030241D01*
X015021Y030027D01*
X015021Y029600D01*
X015021Y030027D01*
X014808Y030241D01*
X014594Y030027D01*
X014594Y029600D01*
X014594Y030027D01*
X014808Y030241D01*
X015021Y030027D01*
X015021Y029600D01*
X014885Y029720D02*
X015205Y029720D01*
X015346Y029707D02*
X015346Y030241D01*
X015346Y029707D01*
X015452Y029600D01*
X015559Y029600D01*
X015666Y029707D01*
X015559Y029600D01*
X015452Y029600D01*
X015346Y029707D01*
X015346Y030241D01*
X015452Y030241D02*
X015239Y030241D01*
X015452Y030241D01*
X015239Y030241D01*
X015228Y030350D02*
X015442Y030350D01*
X015549Y030457D01*
X015122Y030884D01*
X015122Y030457D01*
X015228Y030350D01*
X015442Y030350D01*
X015549Y030457D01*
X015549Y030884D01*
X015442Y030991D01*
X015228Y030991D01*
X015122Y030884D01*
X015549Y030457D01*
X015549Y030884D01*
X015442Y030991D01*
X015228Y030991D01*
X015122Y030884D01*
X015122Y030457D01*
X015228Y030350D01*
X015228Y030600D02*
X015442Y030600D01*
X015549Y030707D01*
X015122Y031134D01*
X015122Y030707D01*
X015228Y030600D01*
X015442Y030600D01*
X015549Y030707D01*
X015549Y031134D01*
X015442Y031241D01*
X015228Y031241D01*
X015122Y031134D01*
X015549Y030707D01*
X015549Y031134D01*
X015442Y031241D01*
X015228Y031241D01*
X015122Y031134D01*
X015122Y030707D01*
X015228Y030600D01*
X015239Y030650D02*
X015666Y030650D01*
X015666Y031291D01*
X015666Y030650D01*
X015239Y030650D01*
X015666Y030650D01*
X015666Y031291D01*
X015692Y031241D02*
X015478Y031241D01*
X015372Y031134D01*
X015799Y030707D01*
X015692Y030600D01*
X015478Y030600D01*
X015372Y030707D01*
X015372Y031134D01*
X015799Y030707D01*
X015799Y031134D01*
X015692Y031241D01*
X015478Y031241D01*
X015372Y031134D01*
X015372Y030707D01*
X015478Y030600D01*
X015692Y030600D01*
X015799Y030707D01*
X015799Y031134D01*
X015692Y031241D01*
X015478Y031241D01*
X015372Y031134D01*
X015799Y030707D01*
X015692Y030600D01*
X015478Y030600D01*
X015372Y030707D01*
X015372Y031134D01*
X015799Y030707D01*
X015799Y031134D01*
X015692Y031241D01*
X015478Y031241D01*
X015372Y031134D01*
X015372Y030707D01*
X015478Y030600D01*
X015692Y030600D01*
X015799Y030707D01*
X015799Y031134D01*
X015692Y031241D01*
X015478Y031241D01*
X015372Y031134D01*
X015799Y030707D01*
X015692Y030600D01*
X015478Y030600D01*
X015372Y030707D01*
X015372Y031134D01*
X015799Y030707D01*
X015799Y031134D01*
X015692Y031241D01*
X015478Y031241D01*
X015372Y031134D01*
X015372Y030707D01*
X015478Y030600D01*
X015692Y030600D01*
X015799Y030707D01*
X015799Y031134D01*
X015692Y031241D01*
X015478Y031241D01*
X015372Y031134D01*
X015799Y030707D01*
X015692Y030600D01*
X015478Y030600D01*
X015372Y030707D01*
X015372Y031134D01*
X015372Y030957D02*
X015478Y030850D01*
X015692Y030850D01*
X015799Y030957D01*
X015372Y031384D01*
X015372Y030957D01*
X015478Y030850D01*
X015692Y030850D01*
X015799Y030957D01*
X015799Y031384D01*
X015692Y031491D01*
X015478Y031491D01*
X015372Y031384D01*
X015799Y030957D01*
X015799Y031384D01*
X015692Y031491D01*
X015478Y031491D01*
X015372Y031384D01*
X015372Y030957D01*
X015154Y031027D02*
X014941Y031241D01*
X014941Y030600D01*
X014941Y031241D01*
X015154Y031027D01*
X014941Y031241D01*
X014941Y030600D01*
X014941Y031241D01*
X015154Y031027D01*
X014941Y031241D01*
X014941Y030600D01*
X014941Y031241D01*
X015154Y031027D01*
X014941Y031241D01*
X014941Y030600D01*
X014904Y030600D02*
X014477Y030600D01*
X014904Y030600D01*
X015021Y030650D02*
X015021Y031077D01*
X014808Y031291D01*
X014594Y031077D01*
X014594Y030650D01*
X014594Y031077D01*
X014808Y031291D01*
X015021Y031077D01*
X015021Y030650D01*
X015021Y031077D01*
X014808Y031291D01*
X014594Y031077D01*
X014594Y030650D01*
X014510Y030600D02*
X014510Y030707D01*
X014082Y031134D01*
X014082Y031241D01*
X014510Y031241D01*
X014082Y031241D01*
X014082Y031134D01*
X014510Y030707D01*
X014510Y030600D01*
X014510Y030707D01*
X014082Y031134D01*
X014082Y031241D01*
X014510Y031241D01*
X014082Y031241D01*
X014082Y031134D01*
X014510Y030707D01*
X014510Y030600D01*
X014510Y030707D01*
X014082Y031134D01*
X014082Y031241D01*
X014510Y031241D01*
X014082Y031241D01*
X014082Y031134D01*
X014510Y030707D01*
X014510Y030600D01*
X014510Y030707D01*
X014082Y031134D01*
X014082Y031241D01*
X014510Y031241D01*
X014477Y031400D02*
X014691Y031614D01*
X014477Y031400D01*
X014510Y031491D02*
X014082Y031491D01*
X014082Y031384D01*
X014510Y030957D01*
X014510Y030850D01*
X014510Y030957D01*
X014082Y031384D01*
X014082Y031491D01*
X014510Y031491D01*
X014584Y031614D02*
X014904Y031614D01*
X014584Y031614D01*
X014477Y031720D01*
X014477Y031934D01*
X014584Y032041D01*
X014904Y032041D01*
X014904Y031400D01*
X014904Y032041D01*
X014584Y032041D01*
X014477Y031934D01*
X014477Y031720D01*
X014584Y031614D01*
X014510Y031650D02*
X014510Y032077D01*
X014296Y032291D01*
X014082Y032077D01*
X014082Y031650D01*
X014082Y032077D01*
X014296Y032291D01*
X014510Y032077D01*
X014510Y031650D01*
X014510Y032077D01*
X014296Y032291D01*
X014082Y032077D01*
X014082Y031650D01*
X014082Y032077D01*
X014296Y032291D01*
X014510Y032077D01*
X014510Y031650D01*
X014510Y032077D01*
X014296Y032291D01*
X014082Y032077D01*
X014082Y031650D01*
X014082Y032077D01*
X014296Y032291D01*
X014510Y032077D01*
X014510Y031650D01*
X014510Y032077D01*
X014296Y032291D01*
X014082Y032077D01*
X014082Y031650D01*
X014260Y031650D02*
X014260Y032077D01*
X014046Y032291D01*
X013832Y032077D01*
X013832Y031650D01*
X013832Y032077D01*
X014046Y032291D01*
X014260Y032077D01*
X014260Y031650D01*
X014260Y031720D02*
X013832Y031720D01*
X014260Y031720D01*
X014260Y031827D02*
X014046Y032041D01*
X013832Y031827D01*
X013832Y031400D01*
X013832Y031827D01*
X014046Y032041D01*
X014260Y031827D01*
X014260Y031400D01*
X014260Y031827D01*
X014260Y031970D02*
X013832Y031970D01*
X014260Y031970D01*
X014082Y031970D02*
X014510Y031970D01*
X014082Y031970D01*
X014510Y031970D01*
X014082Y031970D01*
X014510Y031970D01*
X014082Y031970D01*
X014510Y031970D01*
X014477Y031970D02*
X014584Y031864D01*
X014904Y031864D01*
X014584Y031864D01*
X014477Y031970D01*
X014477Y032184D01*
X014584Y032291D01*
X014904Y032291D01*
X014904Y031650D01*
X014904Y032291D01*
X014584Y032291D01*
X014477Y032184D01*
X014477Y031970D01*
X014510Y031900D02*
X014510Y032327D01*
X014296Y032541D01*
X014082Y032327D01*
X014082Y031900D01*
X014082Y032327D01*
X014296Y032541D01*
X014510Y032327D01*
X014510Y031900D01*
X014691Y031864D02*
X014477Y031650D01*
X014691Y031864D01*
X014727Y031900D02*
X014941Y032114D01*
X014727Y031900D01*
X014727Y031970D02*
X014834Y031864D01*
X015154Y031864D01*
X014834Y031864D01*
X014727Y031970D01*
X014727Y032184D01*
X014834Y032291D01*
X015154Y032291D01*
X015154Y031650D01*
X015154Y032291D01*
X014834Y032291D01*
X014727Y032184D01*
X014727Y031970D01*
X014834Y031864D01*
X015154Y031864D01*
X014834Y031864D01*
X014727Y031970D01*
X014727Y032184D01*
X014834Y032291D01*
X015154Y032291D01*
X015154Y031650D01*
X015154Y032291D01*
X014834Y032291D01*
X014727Y032184D01*
X014727Y031970D01*
X014834Y031864D01*
X015154Y031864D01*
X014834Y031864D01*
X014727Y031970D01*
X014727Y032184D01*
X014834Y032291D01*
X015154Y032291D01*
X015154Y031650D01*
X015154Y032291D01*
X014834Y032291D01*
X014727Y032184D01*
X014727Y031970D01*
X014834Y031864D01*
X015154Y031864D01*
X015154Y031900D02*
X015154Y032541D01*
X014834Y032541D01*
X014727Y032434D01*
X014727Y032220D01*
X014834Y032114D01*
X015154Y032114D01*
X014834Y032114D01*
X014727Y032220D01*
X014727Y032434D01*
X014834Y032541D01*
X015154Y032541D01*
X015154Y031900D01*
X015122Y031934D02*
X015228Y032041D01*
X015442Y032041D01*
X015549Y031934D01*
X015549Y031507D01*
X015442Y031400D01*
X015228Y031400D01*
X015122Y031507D01*
X015122Y031934D01*
X015228Y032041D01*
X015442Y032041D01*
X015549Y031934D01*
X015549Y031507D01*
X015442Y031400D01*
X015228Y031400D01*
X015122Y031507D01*
X015122Y031934D01*
X015122Y031757D02*
X015122Y032184D01*
X015228Y032291D01*
X015442Y032291D01*
X015549Y032184D01*
X015549Y031757D01*
X015442Y031650D01*
X015228Y031650D01*
X015122Y031757D01*
X015122Y032184D01*
X015228Y032291D01*
X015442Y032291D01*
X015549Y032184D01*
X015549Y031757D01*
X015442Y031650D01*
X015228Y031650D01*
X015122Y031757D01*
X015154Y031650D02*
X015154Y032291D01*
X014834Y032291D01*
X014727Y032184D01*
X014727Y031970D01*
X014941Y031864D02*
X014727Y031650D01*
X014941Y031864D01*
X014727Y031650D01*
X014941Y031864D01*
X014727Y031650D01*
X014941Y031864D01*
X014727Y031650D01*
X014941Y031491D02*
X014941Y030850D01*
X014941Y031491D01*
X015154Y031277D01*
X014941Y031491D01*
X014691Y031241D02*
X014904Y031027D01*
X014691Y031241D01*
X014691Y030600D01*
X014691Y031241D01*
X014691Y030991D02*
X014691Y030350D01*
X014691Y030991D01*
X014904Y030777D01*
X014691Y030991D01*
X014594Y030970D02*
X015021Y030970D01*
X014594Y030970D01*
X015021Y030970D01*
X015154Y030850D02*
X014727Y030850D01*
X015154Y030850D01*
X015154Y030600D02*
X014727Y030600D01*
X015154Y030600D01*
X014727Y030600D01*
X015154Y030600D01*
X014727Y030600D01*
X015154Y030600D01*
X014727Y030600D01*
X014904Y030350D02*
X014477Y030350D01*
X014904Y030350D01*
X014885Y030041D02*
X014778Y029934D01*
X014778Y029827D01*
X014885Y029720D01*
X014778Y029614D01*
X014778Y029507D01*
X014885Y029400D01*
X015205Y029400D01*
X015205Y030041D01*
X014885Y030041D01*
X015021Y029920D02*
X014594Y029920D01*
X015021Y029920D01*
X014594Y029920D01*
X014560Y029720D02*
X014347Y029720D01*
X014260Y030350D02*
X014260Y030457D01*
X013832Y030884D01*
X013832Y030991D01*
X014260Y030991D01*
X013832Y030991D01*
X013832Y030884D01*
X014260Y030457D01*
X014260Y030350D01*
X014260Y030600D02*
X014260Y030707D01*
X013832Y031134D01*
X013832Y031241D01*
X014260Y031241D01*
X013832Y031241D01*
X013832Y031134D01*
X014260Y030707D01*
X014260Y030600D01*
X013732Y030650D02*
X013732Y031291D01*
X013305Y031291D01*
X013732Y031291D01*
X013732Y030650D01*
X013305Y030650D01*
X013732Y030650D01*
X013305Y030650D01*
X013088Y030757D02*
X012981Y030650D01*
X012767Y030650D01*
X012661Y030757D01*
X012661Y031291D01*
X012661Y030757D01*
X012767Y030650D01*
X012981Y030650D01*
X013088Y030757D01*
X013088Y031291D01*
X013088Y030757D01*
X012981Y030650D01*
X012767Y030650D01*
X012661Y030757D01*
X012661Y031291D01*
X012543Y031400D02*
X012864Y031720D01*
X012543Y031400D01*
X012443Y031291D02*
X012123Y031291D01*
X012016Y031184D01*
X012016Y030970D01*
X012123Y030864D01*
X012443Y030864D01*
X012123Y030864D01*
X012016Y030970D01*
X012016Y031184D01*
X012123Y031291D01*
X012443Y031291D01*
X012443Y030650D01*
X012443Y031291D01*
X012123Y031291D01*
X012016Y031184D01*
X012016Y030970D01*
X012123Y030864D01*
X012443Y030864D01*
X012230Y030864D02*
X012016Y030650D01*
X012230Y030864D01*
X012016Y030650D01*
X011799Y030757D02*
X011692Y030650D01*
X011478Y030650D01*
X011372Y030757D01*
X011372Y031184D01*
X011478Y031291D01*
X011692Y031291D01*
X011799Y031184D01*
X011799Y030757D01*
X011692Y030650D01*
X011478Y030650D01*
X011372Y030757D01*
X011372Y031184D01*
X011478Y031291D01*
X011692Y031291D01*
X011799Y031184D01*
X011799Y030757D01*
X011692Y030650D01*
X011478Y030650D01*
X011372Y030757D01*
X011372Y031184D01*
X011478Y031291D01*
X011692Y031291D01*
X011799Y031184D01*
X011799Y030757D01*
X011468Y031400D02*
X011254Y031614D01*
X011254Y032041D01*
X011254Y031614D01*
X011468Y031400D01*
X011681Y031614D01*
X011681Y032041D01*
X011681Y031614D01*
X011468Y031400D01*
X011718Y031650D02*
X011504Y031864D01*
X011504Y032291D01*
X011504Y031864D01*
X011718Y031650D01*
X011931Y031864D01*
X011931Y032291D01*
X011931Y031864D01*
X011718Y031650D01*
X011504Y031864D01*
X011504Y032291D01*
X011504Y031864D01*
X011718Y031650D01*
X011931Y031864D01*
X011931Y032291D01*
X011931Y031864D01*
X011718Y031650D01*
X011504Y031864D01*
X011504Y032291D01*
X011504Y031864D01*
X011718Y031650D01*
X011931Y031864D01*
X011931Y032291D01*
X011931Y031864D01*
X011718Y031650D01*
X011504Y031864D01*
X011504Y032291D01*
X011504Y032114D02*
X011504Y032541D01*
X011504Y032114D01*
X011718Y031900D01*
X011931Y032114D01*
X011931Y032541D01*
X011931Y032114D01*
X011718Y031900D01*
X011504Y032114D01*
X011931Y031864D02*
X011718Y031650D01*
X011931Y031864D02*
X011931Y032291D01*
X012543Y032291D02*
X012970Y031864D01*
X012543Y032291D01*
X012543Y032041D02*
X012970Y031614D01*
X012543Y032041D01*
X012793Y031900D02*
X013114Y032220D01*
X012793Y031900D01*
X012864Y031970D02*
X012543Y031650D01*
X012864Y031970D01*
X012970Y032041D02*
X012970Y031400D01*
X012970Y032041D01*
X013114Y031970D02*
X012793Y031650D01*
X013114Y031970D01*
X012793Y031650D01*
X013114Y031970D01*
X012793Y031650D01*
X013114Y031970D01*
X012793Y031650D01*
X012970Y031650D02*
X012970Y032291D01*
X012970Y031650D01*
X013188Y031757D02*
X013295Y031650D01*
X013508Y031650D01*
X013615Y031757D01*
X013615Y032184D01*
X013508Y032291D01*
X013295Y032291D01*
X013508Y032291D01*
X013615Y032184D01*
X013615Y031757D01*
X013508Y031650D01*
X013295Y031650D01*
X013188Y031757D01*
X013220Y031864D02*
X012793Y032291D01*
X013220Y031864D01*
X012793Y032291D01*
X013220Y031864D01*
X012793Y032291D01*
X013220Y031864D01*
X012793Y032291D01*
X012793Y032541D02*
X013220Y032114D01*
X012793Y032541D01*
X013220Y032541D02*
X013220Y031900D01*
X013220Y032541D01*
X013438Y032434D02*
X013545Y032541D01*
X013758Y032541D01*
X013865Y032434D01*
X013865Y032007D01*
X013758Y031900D01*
X013545Y031900D01*
X013438Y032007D01*
X013545Y031900D01*
X013758Y031900D01*
X013865Y032007D01*
X013865Y032434D01*
X013758Y032541D01*
X013545Y032541D01*
X013438Y032434D01*
X013545Y032291D02*
X013438Y032184D01*
X013545Y032291D01*
X013758Y032291D01*
X013865Y032184D01*
X013865Y031757D01*
X013758Y031650D01*
X013545Y031650D01*
X013438Y031757D01*
X013545Y031650D01*
X013758Y031650D01*
X013865Y031757D01*
X013865Y032184D01*
X013758Y032291D01*
X013545Y032291D01*
X013758Y032291D01*
X013865Y032184D01*
X013865Y031757D01*
X013758Y031650D01*
X013545Y031650D01*
X013438Y031757D01*
X013545Y031650D01*
X013758Y031650D01*
X013865Y031757D01*
X013865Y032184D01*
X013758Y032291D01*
X013545Y032291D01*
X013438Y032184D01*
X013545Y032291D01*
X013758Y032291D01*
X013865Y032184D01*
X013865Y031757D01*
X013758Y031650D01*
X013545Y031650D01*
X013438Y031757D01*
X013545Y031650D01*
X013758Y031650D01*
X013865Y031757D01*
X013865Y032184D01*
X013758Y032291D01*
X013545Y032291D01*
X013438Y032184D01*
X013545Y032291D01*
X013758Y032291D01*
X013865Y032184D01*
X013865Y031757D01*
X013758Y031650D01*
X013545Y031650D01*
X013438Y031757D01*
X013220Y031650D02*
X013220Y032291D01*
X013220Y031650D01*
X013220Y032291D01*
X013220Y031650D01*
X013220Y032291D01*
X013220Y031650D01*
X013220Y032291D01*
X013295Y032291D02*
X013188Y032184D01*
X013295Y032291D01*
X013438Y032184D02*
X013545Y032291D01*
X013508Y032041D02*
X013615Y031934D01*
X013615Y031507D01*
X013508Y031400D01*
X013295Y031400D01*
X013508Y031400D01*
X013615Y031507D01*
X013615Y031934D01*
X013508Y032041D01*
X013295Y032041D01*
X013508Y032041D01*
X013295Y032041D02*
X013188Y031934D01*
X013295Y032041D01*
X013188Y031507D02*
X013295Y031400D01*
X013188Y031507D01*
X013088Y031291D02*
X013088Y030757D01*
X013519Y030970D02*
X013732Y030970D01*
X013519Y030970D01*
X013732Y030970D01*
X013732Y030650D02*
X013732Y031291D01*
X013305Y031291D01*
X014082Y032220D02*
X014510Y032220D01*
X014082Y032220D01*
X015372Y032184D02*
X015372Y031757D01*
X015478Y031650D01*
X015692Y031650D01*
X015799Y031757D01*
X015799Y032184D01*
X015692Y032291D01*
X015478Y032291D01*
X015372Y032184D01*
X015478Y032291D01*
X015692Y032291D01*
X015799Y032184D01*
X015799Y031757D01*
X015692Y031650D01*
X015478Y031650D01*
X015372Y031757D01*
X015372Y032184D01*
X015478Y032291D01*
X015692Y032291D01*
X015799Y032184D01*
X015799Y031757D01*
X015692Y031650D01*
X015478Y031650D01*
X015372Y031757D01*
X015372Y032184D01*
X015478Y032291D01*
X015692Y032291D01*
X015799Y032184D01*
X015799Y031757D01*
X015692Y031650D01*
X015478Y031650D01*
X015372Y031757D01*
X015372Y032184D01*
X015478Y032291D01*
X015692Y032291D01*
X015799Y032184D01*
X015799Y031757D01*
X015692Y031650D01*
X015478Y031650D01*
X015372Y031757D01*
X015372Y032184D01*
X015478Y032291D01*
X015692Y032291D01*
X015799Y032184D01*
X015799Y031757D01*
X015692Y031650D01*
X015478Y031650D01*
X015372Y031757D01*
X015372Y032184D01*
X015478Y032291D01*
X015692Y032291D01*
X015799Y032184D01*
X015799Y031757D01*
X015692Y031650D01*
X015478Y031650D01*
X015372Y031757D01*
X015372Y032184D01*
X015372Y032007D02*
X015372Y032434D01*
X015478Y032541D01*
X015692Y032541D01*
X015799Y032434D01*
X015799Y032007D01*
X015692Y031900D01*
X015478Y031900D01*
X015372Y032007D01*
X015372Y032434D01*
X015478Y032541D01*
X015692Y032541D01*
X015799Y032434D01*
X015799Y032007D01*
X015692Y031900D01*
X015478Y031900D01*
X015372Y032007D01*
X015766Y031970D02*
X015873Y031864D01*
X016193Y031864D01*
X015873Y031864D01*
X015766Y031970D01*
X015766Y032184D01*
X015873Y032291D01*
X016193Y032291D01*
X016193Y031650D01*
X016193Y032291D01*
X015873Y032291D01*
X015766Y032184D01*
X015766Y031970D01*
X015766Y031934D02*
X015766Y031720D01*
X015873Y031614D01*
X016193Y031614D01*
X015873Y031614D01*
X015766Y031720D01*
X015766Y031934D01*
X015873Y032041D01*
X016193Y032041D01*
X016193Y031400D01*
X016193Y032041D01*
X015873Y032041D01*
X015766Y031934D01*
X015980Y031864D02*
X015766Y031650D01*
X015980Y031864D01*
X016016Y031900D02*
X016230Y032114D01*
X016016Y031900D01*
X016016Y031970D02*
X016123Y031864D01*
X016443Y031864D01*
X016123Y031864D01*
X016016Y031970D01*
X016016Y032184D01*
X016123Y032291D01*
X016443Y032291D01*
X016443Y031650D01*
X016443Y032291D01*
X016123Y032291D01*
X016016Y032184D01*
X016016Y031970D01*
X016123Y031864D01*
X016443Y031864D01*
X016123Y031864D01*
X016016Y031970D01*
X016016Y032184D01*
X016123Y032291D01*
X016443Y032291D01*
X016443Y031650D01*
X016443Y032291D01*
X016123Y032291D01*
X016016Y032184D01*
X016016Y031970D01*
X016123Y031864D01*
X016443Y031864D01*
X016123Y031864D01*
X016016Y031970D01*
X016016Y032184D01*
X016123Y032291D01*
X016443Y032291D01*
X016443Y031650D01*
X016443Y032291D01*
X016123Y032291D01*
X016016Y032184D01*
X016016Y031970D01*
X016123Y031864D01*
X016443Y031864D01*
X016443Y031900D02*
X016443Y032541D01*
X016123Y032541D01*
X016016Y032434D01*
X016016Y032220D01*
X016123Y032114D01*
X016443Y032114D01*
X016123Y032114D01*
X016016Y032220D01*
X016016Y032434D01*
X016123Y032541D01*
X016443Y032541D01*
X016443Y031900D01*
X016411Y032041D02*
X016411Y031507D01*
X016517Y031400D01*
X016731Y031400D01*
X016838Y031507D01*
X016838Y032041D01*
X016838Y031507D01*
X016731Y031400D01*
X016517Y031400D01*
X016411Y031507D01*
X016411Y032041D01*
X016411Y032291D02*
X016411Y031757D01*
X016517Y031650D01*
X016731Y031650D01*
X016838Y031757D01*
X016838Y032291D01*
X016838Y031757D01*
X016731Y031650D01*
X016517Y031650D01*
X016411Y031757D01*
X016411Y032291D01*
X016443Y032291D02*
X016123Y032291D01*
X016016Y032184D01*
X016016Y031970D01*
X016230Y031864D02*
X016016Y031650D01*
X016230Y031864D01*
X016016Y031650D01*
X016230Y031864D01*
X016016Y031650D01*
X016230Y031864D01*
X016016Y031650D01*
X015980Y031614D02*
X015766Y031400D01*
X015980Y031614D01*
X016123Y031491D02*
X016336Y031491D01*
X016443Y031384D01*
X016336Y031491D01*
X016123Y031491D01*
X016016Y031384D01*
X016016Y031277D01*
X016443Y030850D01*
X016016Y030850D01*
X016443Y030850D01*
X016016Y031277D01*
X016016Y031384D01*
X016123Y031491D01*
X016123Y031241D02*
X016336Y031241D01*
X016443Y031134D01*
X016336Y031241D01*
X016123Y031241D01*
X016016Y031134D01*
X016016Y031027D01*
X016443Y030600D01*
X016016Y030600D01*
X016443Y030600D01*
X016016Y031027D01*
X016016Y031134D01*
X016123Y031241D01*
X016336Y031241D01*
X016443Y031134D01*
X016336Y031241D01*
X016123Y031241D01*
X016016Y031134D01*
X016016Y031027D01*
X016443Y030600D01*
X016016Y030600D01*
X016443Y030600D01*
X016016Y031027D01*
X016016Y031134D01*
X016123Y031241D01*
X016336Y031241D01*
X016443Y031134D01*
X016336Y031241D01*
X016123Y031241D01*
X016016Y031134D01*
X016016Y031027D01*
X016443Y030600D01*
X016016Y030600D01*
X016443Y030600D01*
X016016Y031027D01*
X016016Y031134D01*
X016123Y031241D01*
X016336Y031241D01*
X016443Y031134D01*
X016528Y031184D02*
X016528Y031077D01*
X016635Y030970D01*
X016955Y030970D01*
X016635Y030970D01*
X016528Y030864D01*
X016528Y030757D01*
X016635Y030650D01*
X016955Y030650D01*
X016955Y031291D01*
X016635Y031291D01*
X016528Y031184D01*
X016528Y031077D01*
X016635Y030970D01*
X016528Y030864D01*
X016528Y030757D01*
X016635Y030650D01*
X016955Y030650D01*
X016955Y031291D01*
X016635Y031291D01*
X016528Y031184D01*
X016528Y031077D01*
X016635Y030970D01*
X016955Y030970D01*
X017055Y030991D02*
X017482Y030564D01*
X017055Y030991D01*
X017055Y031241D02*
X017482Y030814D01*
X017055Y031241D01*
X016955Y031291D02*
X016635Y031291D01*
X016528Y031184D01*
X016635Y030970D02*
X016528Y030864D01*
X016528Y030757D01*
X016635Y030650D01*
X016955Y030650D01*
X016955Y031291D01*
X017055Y031400D02*
X017482Y031400D01*
X017482Y032041D01*
X017055Y032041D01*
X017482Y032041D01*
X017482Y031400D01*
X017055Y031400D01*
X017055Y031650D02*
X017482Y031650D01*
X017482Y032291D01*
X017055Y032291D01*
X017482Y032291D01*
X017482Y031650D01*
X017055Y031650D01*
X016981Y031650D02*
X017088Y031757D01*
X017088Y032291D01*
X017088Y031757D01*
X016981Y031650D01*
X016767Y031650D01*
X016661Y031757D01*
X016661Y032291D01*
X016661Y031757D01*
X016767Y031650D01*
X016981Y031650D01*
X016767Y031650D01*
X016661Y031757D01*
X016661Y032291D01*
X016661Y031757D01*
X016767Y031650D01*
X016981Y031650D01*
X017088Y031757D01*
X017088Y032291D01*
X017088Y031757D01*
X016981Y031650D01*
X016767Y031650D01*
X016661Y031757D01*
X016661Y032291D01*
X016661Y031757D01*
X016767Y031650D01*
X016981Y031650D01*
X017088Y031757D01*
X017088Y032291D01*
X017088Y031757D01*
X016981Y031650D01*
X016767Y031650D01*
X016661Y031757D01*
X016661Y032291D01*
X016443Y032291D02*
X016443Y031650D01*
X016310Y031291D02*
X016310Y030650D01*
X015883Y030650D01*
X016310Y030650D01*
X016310Y031291D01*
X015883Y031291D01*
X016310Y031291D01*
X016310Y030650D01*
X015883Y030650D01*
X015799Y030707D02*
X015799Y031134D01*
X015692Y031241D01*
X015766Y031134D02*
X015873Y031241D01*
X016086Y031241D01*
X016193Y031134D01*
X016086Y031241D01*
X015873Y031241D01*
X015766Y031134D01*
X015766Y031027D01*
X016193Y030600D01*
X015766Y030600D01*
X016193Y030600D01*
X015766Y031027D01*
X015766Y031134D01*
X015873Y030991D02*
X016086Y030991D01*
X016193Y030884D01*
X016086Y030991D01*
X015873Y030991D01*
X015766Y030884D01*
X015766Y030777D01*
X016193Y030350D01*
X015766Y030350D01*
X016193Y030350D01*
X015766Y030777D01*
X015766Y030884D01*
X015873Y030991D01*
X016016Y031027D02*
X016016Y031134D01*
X016123Y031241D01*
X016310Y031291D02*
X015883Y031291D01*
X016016Y031027D02*
X016443Y030600D01*
X016016Y030600D01*
X016097Y030970D02*
X016310Y030970D01*
X016097Y030970D01*
X016310Y030970D01*
X016310Y030241D02*
X016310Y029600D01*
X016310Y030241D01*
X016310Y029600D01*
X016528Y029600D02*
X016741Y029814D01*
X016528Y029600D01*
X016741Y029814D01*
X016635Y029814D02*
X016955Y029814D01*
X016635Y029814D01*
X016528Y029920D01*
X016528Y030134D01*
X016635Y030241D01*
X016955Y030241D01*
X016955Y029600D01*
X016955Y030241D01*
X016635Y030241D01*
X016528Y030134D01*
X016528Y029920D01*
X016635Y029814D01*
X016955Y029814D01*
X016955Y029600D02*
X016955Y030241D01*
X016635Y030241D01*
X016528Y030134D01*
X016528Y029920D01*
X016635Y029814D01*
X016310Y029920D02*
X015883Y029920D01*
X016310Y029920D01*
X015883Y029920D01*
X015666Y029707D02*
X015559Y029600D01*
X015452Y029600D01*
X015346Y029707D01*
X015883Y029600D02*
X015883Y030241D01*
X015883Y029600D01*
X015883Y030241D01*
X016981Y031650D02*
X017088Y031757D01*
X017088Y032291D01*
X017305Y032291D02*
X017732Y032291D01*
X017732Y031650D01*
X017305Y031650D01*
X017732Y031650D01*
X017732Y032291D01*
X017305Y032291D01*
X017732Y032291D01*
X017732Y031650D01*
X017305Y031650D01*
X017732Y031650D01*
X017732Y032291D01*
X017305Y032291D01*
X017732Y032291D01*
X017732Y031650D01*
X017305Y031650D01*
X017732Y031650D01*
X017732Y032291D01*
X017305Y032291D01*
X017732Y032291D01*
X017732Y031650D01*
X017305Y031650D01*
X017269Y031720D02*
X017482Y031720D01*
X017269Y031720D01*
X017305Y031900D02*
X017732Y031900D01*
X017732Y032541D01*
X017305Y032541D01*
X017732Y032541D01*
X017732Y031900D01*
X017305Y031900D01*
X017269Y031970D02*
X017482Y031970D01*
X017269Y031970D01*
X017088Y032007D02*
X016981Y031900D01*
X016767Y031900D01*
X016661Y032007D01*
X016661Y032541D01*
X016661Y032007D01*
X016767Y031900D01*
X016981Y031900D01*
X017088Y032007D01*
X017088Y032541D01*
X017088Y032007D01*
X017519Y031970D02*
X017732Y031970D01*
X017519Y031970D01*
X017732Y031970D01*
X017519Y031970D01*
X017732Y031970D01*
X017519Y031970D01*
X017732Y031970D01*
X017732Y032220D02*
X017519Y032220D01*
X017732Y032220D01*
X018344Y032077D02*
X018344Y031650D01*
X018344Y032077D01*
X018558Y032291D01*
X018771Y032077D01*
X018771Y031650D01*
X018771Y032077D01*
X018558Y032291D01*
X018344Y032077D01*
X018344Y031970D02*
X018771Y031970D01*
X018344Y031970D01*
X018344Y031827D02*
X018344Y031400D01*
X018344Y031827D01*
X018558Y032041D01*
X018771Y031827D01*
X018771Y031400D01*
X018771Y031827D01*
X018558Y032041D01*
X018344Y031827D01*
X018344Y031720D02*
X018771Y031720D01*
X018344Y031720D01*
X018270Y031491D02*
X018377Y031384D01*
X018377Y030957D01*
X018270Y030850D01*
X018057Y030850D01*
X017950Y030957D01*
X018057Y030850D01*
X018270Y030850D01*
X018377Y030957D01*
X018377Y031384D01*
X018270Y031491D01*
X018057Y031491D01*
X017950Y031384D01*
X018057Y031491D01*
X018270Y031491D01*
X018270Y031241D02*
X018377Y031134D01*
X018377Y030707D01*
X018270Y030600D01*
X018057Y030600D01*
X017950Y030707D01*
X018057Y030600D01*
X018270Y030600D01*
X018377Y030707D01*
X018377Y031134D01*
X018270Y031241D01*
X018057Y031241D01*
X017950Y031134D01*
X018057Y031241D01*
X018270Y031241D01*
X018377Y031134D01*
X018377Y030707D01*
X018270Y030600D01*
X018057Y030600D01*
X017950Y030707D01*
X018057Y030600D01*
X018270Y030600D01*
X018377Y030707D01*
X018377Y031134D01*
X018270Y031241D01*
X018057Y031241D01*
X017950Y031134D01*
X018057Y031241D01*
X018270Y031241D01*
X018377Y031134D01*
X018377Y030707D01*
X018270Y030600D01*
X018057Y030600D01*
X017950Y030707D01*
X018057Y030600D01*
X018270Y030600D01*
X018377Y030707D01*
X018377Y031134D01*
X018270Y031241D01*
X018057Y031241D01*
X017950Y031134D01*
X018057Y031241D01*
X018270Y031241D01*
X018377Y031134D01*
X018377Y030707D01*
X018270Y030600D01*
X018057Y030600D01*
X017950Y030707D01*
X018020Y030600D02*
X017807Y030600D01*
X017700Y030707D01*
X017807Y030600D01*
X018020Y030600D01*
X018127Y030707D01*
X018127Y031134D01*
X018020Y031241D01*
X017807Y031241D01*
X017700Y031134D01*
X017807Y031241D01*
X018020Y031241D01*
X018127Y031134D01*
X018127Y030707D01*
X018020Y030600D01*
X018127Y030457D02*
X018020Y030350D01*
X017807Y030350D01*
X017700Y030457D01*
X017807Y030350D01*
X018020Y030350D01*
X018127Y030457D01*
X018127Y030884D01*
X018020Y030991D01*
X017807Y030991D01*
X017700Y030884D01*
X017807Y030991D01*
X018020Y030991D01*
X018127Y030884D01*
X018127Y030457D01*
X018344Y030350D02*
X018344Y030777D01*
X018558Y030991D01*
X018771Y030777D01*
X018771Y030350D01*
X018771Y030777D01*
X018558Y030991D01*
X018344Y030777D01*
X018344Y030350D01*
X018344Y030600D02*
X018344Y031027D01*
X018558Y031241D01*
X018771Y031027D01*
X018771Y030600D01*
X018771Y031027D01*
X018558Y031241D01*
X018344Y031027D01*
X018344Y030600D01*
X018344Y030670D02*
X018771Y030670D01*
X018344Y030670D01*
X018344Y030920D02*
X018771Y030920D01*
X018344Y030920D01*
X018594Y030920D02*
X019021Y030920D01*
X018594Y030920D01*
X019021Y030920D01*
X018594Y030920D01*
X019021Y030920D01*
X018594Y030920D01*
X019021Y030920D01*
X019021Y030850D02*
X019021Y031277D01*
X018808Y031491D01*
X018594Y031277D01*
X018594Y030850D01*
X018594Y031277D01*
X018808Y031491D01*
X019021Y031277D01*
X019021Y030850D01*
X018989Y030991D02*
X019202Y030991D01*
X018989Y030991D01*
X019021Y031027D02*
X018808Y031241D01*
X018594Y031027D01*
X018594Y030600D01*
X018594Y031027D01*
X018808Y031241D01*
X019021Y031027D01*
X019021Y030600D01*
X019021Y031027D01*
X018808Y031241D01*
X018594Y031027D01*
X018594Y030600D01*
X018594Y031027D01*
X018808Y031241D01*
X019021Y031027D01*
X019021Y030600D01*
X019021Y031027D01*
X018808Y031241D01*
X018594Y031027D01*
X018594Y030600D01*
X018594Y031027D01*
X018808Y031241D01*
X019021Y031027D01*
X019021Y030600D01*
X019021Y031027D01*
X018808Y031241D01*
X018594Y031027D01*
X018594Y030600D01*
X019021Y030600D02*
X019021Y031027D01*
X019096Y030991D02*
X019096Y030457D01*
X019202Y030350D01*
X019309Y030350D01*
X019416Y030457D01*
X019309Y030350D01*
X019202Y030350D01*
X019096Y030457D01*
X019096Y030991D01*
X019021Y031170D02*
X018594Y031170D01*
X019021Y031170D01*
X018989Y031241D02*
X019202Y031241D01*
X018989Y031241D01*
X019096Y031241D02*
X019096Y030707D01*
X019202Y030600D01*
X019309Y030600D01*
X019416Y030707D01*
X019309Y030600D01*
X019202Y030600D01*
X019096Y030707D01*
X019096Y031241D01*
X019239Y031241D02*
X019452Y031241D01*
X019239Y031241D01*
X019452Y031241D01*
X019239Y031241D01*
X019452Y031241D01*
X019239Y031241D01*
X019452Y031241D01*
X019346Y031241D02*
X019346Y030707D01*
X019452Y030600D01*
X019559Y030600D01*
X019666Y030707D01*
X019559Y030600D01*
X019452Y030600D01*
X019346Y030707D01*
X019346Y031241D01*
X019346Y030707D01*
X019452Y030600D01*
X019559Y030600D01*
X019666Y030707D01*
X019559Y030600D01*
X019452Y030600D01*
X019346Y030707D01*
X019346Y031241D01*
X019346Y030707D01*
X019452Y030600D01*
X019559Y030600D01*
X019666Y030707D01*
X019559Y030600D01*
X019452Y030600D01*
X019346Y030707D01*
X019346Y031241D01*
X019346Y030707D01*
X019452Y030600D01*
X019559Y030600D01*
X019666Y030707D01*
X019633Y030670D02*
X020060Y030670D01*
X019633Y030670D01*
X019633Y030600D02*
X019633Y031241D01*
X019633Y030600D01*
X019633Y030350D02*
X019633Y030991D01*
X019633Y030350D01*
X019883Y030600D02*
X019883Y031241D01*
X019883Y030600D01*
X019883Y031241D01*
X019883Y030600D01*
X019883Y031241D01*
X019883Y030600D01*
X019883Y031241D01*
X019883Y031170D02*
X020310Y031170D01*
X019883Y031170D01*
X020060Y031241D02*
X020060Y030600D01*
X020060Y031241D01*
X020060Y031400D02*
X019633Y031400D01*
X020060Y031400D01*
X020060Y032041D01*
X019633Y032041D01*
X020060Y032041D01*
X020060Y031400D01*
X019883Y031491D02*
X019883Y030850D01*
X019883Y031491D01*
X019883Y031650D02*
X020310Y031650D01*
X020310Y032291D01*
X019883Y032291D01*
X020310Y032291D01*
X020310Y031650D01*
X019883Y031650D01*
X020310Y031650D01*
X020310Y032291D01*
X019883Y032291D01*
X020310Y032291D01*
X020310Y031650D01*
X019883Y031650D01*
X020310Y031650D01*
X020310Y032291D01*
X019883Y032291D01*
X020310Y032291D01*
X020310Y031650D01*
X019883Y031650D01*
X020310Y031650D01*
X020310Y032291D01*
X019883Y032291D01*
X020060Y032291D02*
X019633Y032291D01*
X020060Y032291D01*
X020060Y031650D01*
X019633Y031650D01*
X020060Y031650D01*
X020060Y032291D01*
X020097Y032220D02*
X020310Y032220D01*
X020097Y032220D01*
X020278Y032184D02*
X020278Y032077D01*
X020385Y031970D01*
X020705Y031970D01*
X020385Y031970D01*
X020278Y031864D01*
X020278Y031757D01*
X020385Y031650D01*
X020705Y031650D01*
X020705Y032291D01*
X020385Y032291D01*
X020278Y032184D01*
X020278Y032077D01*
X020385Y031970D01*
X020278Y031864D01*
X020278Y031757D01*
X020385Y031650D01*
X020705Y031650D01*
X020705Y032291D01*
X020385Y032291D01*
X020278Y032184D01*
X020385Y032041D02*
X020278Y031934D01*
X020278Y031827D01*
X020385Y031720D01*
X020705Y031720D01*
X020385Y031720D01*
X020278Y031614D01*
X020278Y031507D01*
X020385Y031400D01*
X020705Y031400D01*
X020705Y032041D01*
X020385Y032041D01*
X020278Y031934D01*
X020278Y031827D01*
X020385Y031720D01*
X020278Y031614D01*
X020278Y031507D01*
X020385Y031400D01*
X020705Y031400D01*
X020705Y032041D01*
X020385Y032041D01*
X020310Y031970D02*
X020097Y031970D01*
X020310Y031970D01*
X020097Y031970D01*
X020310Y031970D01*
X020097Y031970D01*
X020310Y031970D01*
X020097Y031970D01*
X020060Y031970D02*
X019847Y031970D01*
X020060Y031970D01*
X019883Y031900D02*
X020310Y031900D01*
X020310Y032541D01*
X019883Y032541D01*
X020310Y032541D01*
X020310Y031900D01*
X019883Y031900D01*
X019847Y031720D02*
X020060Y031720D01*
X019847Y031720D01*
X019666Y031650D02*
X019239Y031650D01*
X019666Y031650D01*
X019666Y032291D01*
X019666Y031650D01*
X019239Y031650D01*
X019666Y031650D01*
X019666Y032291D01*
X019666Y031650D01*
X019239Y031650D01*
X019666Y031650D01*
X019666Y032291D01*
X019666Y031650D01*
X019239Y031650D01*
X019239Y031491D02*
X019452Y031491D01*
X019239Y031491D01*
X019346Y031491D02*
X019346Y030957D01*
X019452Y030850D01*
X019559Y030850D01*
X019666Y030957D01*
X019559Y030850D01*
X019452Y030850D01*
X019346Y030957D01*
X019346Y031491D01*
X019416Y031400D02*
X018989Y031400D01*
X019416Y031400D01*
X019416Y032041D01*
X019416Y031400D01*
X019416Y031650D02*
X018989Y031650D01*
X019416Y031650D01*
X019416Y032291D01*
X019416Y031650D01*
X019666Y031650D02*
X019666Y032291D01*
X019666Y032541D02*
X019666Y031900D01*
X019239Y031900D01*
X019666Y031900D01*
X019666Y032541D01*
X019021Y032327D02*
X019021Y031900D01*
X019021Y032327D01*
X018808Y032541D01*
X018594Y032327D01*
X018594Y031900D01*
X018594Y032327D01*
X018808Y032541D01*
X019021Y032327D01*
X019021Y032220D02*
X018594Y032220D01*
X019021Y032220D01*
X019021Y032077D02*
X018808Y032291D01*
X018594Y032077D01*
X018594Y031650D01*
X018594Y032077D01*
X018808Y032291D01*
X019021Y032077D01*
X019021Y031650D01*
X019021Y032077D01*
X018808Y032291D01*
X018594Y032077D01*
X018594Y031650D01*
X018594Y032077D01*
X018808Y032291D01*
X019021Y032077D01*
X019021Y031650D01*
X019021Y032077D01*
X018808Y032291D01*
X018594Y032077D01*
X018594Y031650D01*
X018594Y032077D01*
X018808Y032291D01*
X019021Y032077D01*
X019021Y031650D01*
X019021Y032077D01*
X018808Y032291D01*
X018594Y032077D01*
X018594Y031650D01*
X018594Y031970D02*
X019021Y031970D01*
X018594Y031970D01*
X019021Y031970D01*
X018594Y031970D01*
X019021Y031970D01*
X018594Y031970D01*
X019021Y031970D01*
X019021Y032077D02*
X019021Y031650D01*
X019633Y030920D02*
X020060Y030920D01*
X019633Y030920D01*
X019883Y030920D02*
X020310Y030920D01*
X019883Y030920D01*
X020310Y030920D01*
X019883Y030920D01*
X020310Y030920D01*
X019883Y030920D01*
X020310Y030920D01*
X020278Y030920D02*
X020385Y030814D01*
X020705Y030814D01*
X020385Y030814D01*
X020278Y030920D01*
X020278Y031134D01*
X020385Y031241D01*
X020705Y031241D01*
X020705Y030600D01*
X020705Y031241D01*
X020385Y031241D01*
X020278Y031134D01*
X020278Y030920D01*
X020278Y030884D02*
X020278Y030670D01*
X020385Y030564D01*
X020705Y030564D01*
X020385Y030564D01*
X020278Y030670D01*
X020278Y030884D01*
X020385Y030991D01*
X020705Y030991D01*
X020705Y030350D01*
X020705Y030991D01*
X020385Y030991D01*
X020278Y030884D01*
X020310Y030850D02*
X020310Y031491D01*
X020310Y030850D01*
X020491Y030814D02*
X020278Y030600D01*
X020491Y030814D01*
X020528Y030850D02*
X020741Y031064D01*
X020528Y030850D01*
X020528Y030920D02*
X020635Y030814D01*
X020955Y030814D01*
X020635Y030814D01*
X020528Y030920D01*
X020528Y031134D01*
X020635Y031241D01*
X020955Y031241D01*
X020955Y030600D01*
X020955Y031241D01*
X020635Y031241D01*
X020528Y031134D01*
X020528Y030920D01*
X020635Y030814D01*
X020955Y030814D01*
X020635Y030814D01*
X020528Y030920D01*
X020528Y031134D01*
X020635Y031241D01*
X020955Y031241D01*
X020955Y030600D01*
X020955Y031241D01*
X020635Y031241D01*
X020528Y031134D01*
X020528Y030920D01*
X020635Y030814D01*
X020955Y030814D01*
X020635Y030814D01*
X020528Y030920D01*
X020528Y031134D01*
X020635Y031241D01*
X020955Y031241D01*
X020955Y030600D01*
X020955Y031241D01*
X020635Y031241D01*
X020528Y031134D01*
X020528Y030920D01*
X020635Y030814D01*
X020955Y030814D01*
X020955Y030850D02*
X020955Y031491D01*
X020635Y031491D01*
X020528Y031384D01*
X020528Y031170D01*
X020635Y031064D01*
X020955Y031064D01*
X020635Y031064D01*
X020528Y031170D01*
X020528Y031384D01*
X020635Y031491D01*
X020955Y031491D01*
X020955Y030850D01*
X020741Y030814D02*
X020528Y030600D01*
X020741Y030814D01*
X020528Y030600D01*
X020741Y030814D01*
X020528Y030600D01*
X020741Y030814D01*
X020528Y030600D01*
X020491Y030564D02*
X020278Y030350D01*
X020491Y030564D01*
X020310Y030600D02*
X020310Y031241D01*
X020310Y030600D01*
X020310Y031241D01*
X020310Y030600D01*
X020310Y031241D01*
X020310Y030600D01*
X020310Y031241D01*
X020528Y031134D02*
X020528Y030920D01*
X020528Y031134D02*
X020635Y031241D01*
X020955Y031241D01*
X020955Y030600D01*
X020955Y031650D02*
X020635Y031650D01*
X020528Y031757D01*
X020528Y031864D01*
X020635Y031970D01*
X020955Y031970D01*
X020635Y031970D01*
X020528Y032077D01*
X020528Y032184D01*
X020635Y032291D01*
X020955Y032291D01*
X020955Y031650D01*
X020635Y031650D01*
X020528Y031757D01*
X020528Y031864D01*
X020635Y031970D01*
X020528Y032077D01*
X020528Y032184D01*
X020635Y032291D01*
X020955Y032291D01*
X020955Y031650D01*
X020635Y031650D01*
X020528Y031757D01*
X020528Y031864D01*
X020635Y031970D01*
X020955Y031970D01*
X020635Y031970D01*
X020528Y032077D01*
X020528Y032184D01*
X020635Y032291D01*
X020955Y032291D01*
X020955Y031650D01*
X020635Y031650D01*
X020528Y031757D01*
X020528Y031864D01*
X020635Y031970D01*
X020528Y032077D01*
X020528Y032184D01*
X020635Y032291D01*
X020955Y032291D01*
X020955Y031650D01*
X020635Y031650D01*
X020528Y031757D01*
X020528Y031864D01*
X020635Y031970D01*
X020955Y031970D01*
X020635Y031970D01*
X020528Y032077D01*
X020528Y032184D01*
X020635Y032291D01*
X020955Y032291D01*
X020955Y031650D01*
X020635Y031650D01*
X020528Y031757D01*
X020528Y031864D01*
X020635Y031970D01*
X020528Y032077D01*
X020528Y032184D01*
X020635Y032291D01*
X020955Y032291D01*
X020955Y031650D01*
X020635Y031650D01*
X020528Y031757D01*
X020528Y031864D01*
X020635Y031970D01*
X020955Y031970D01*
X020955Y031900D02*
X020635Y031900D01*
X020528Y032007D01*
X020528Y032114D01*
X020635Y032220D01*
X020955Y032220D01*
X020635Y032220D01*
X020528Y032327D01*
X020528Y032434D01*
X020635Y032541D01*
X020955Y032541D01*
X020955Y031900D01*
X020635Y031900D01*
X020528Y032007D01*
X020528Y032114D01*
X020635Y032220D01*
X020528Y032327D01*
X020528Y032434D01*
X020635Y032541D01*
X020955Y032541D01*
X020955Y031900D01*
X020955Y031650D02*
X020955Y032291D01*
X020635Y032291D01*
X020528Y032184D01*
X020528Y032077D01*
X020635Y031970D01*
X020060Y030991D02*
X020060Y030350D01*
X020060Y030991D01*
X018270Y031241D02*
X018057Y031241D01*
X017950Y031134D01*
X017732Y031064D02*
X017305Y031491D01*
X017732Y031064D01*
X017625Y031170D02*
X017305Y030850D01*
X017625Y031170D01*
X017732Y031241D02*
X017732Y030600D01*
X017732Y031241D01*
X017732Y030600D01*
X017732Y031241D01*
X017732Y030600D01*
X017732Y031241D01*
X017732Y030600D01*
X017732Y030814D02*
X017305Y031241D01*
X017732Y030814D01*
X017305Y031241D01*
X017732Y030814D01*
X017305Y031241D01*
X017732Y030814D01*
X017305Y031241D01*
X017482Y031241D02*
X017482Y030600D01*
X017482Y031241D01*
X017482Y030991D02*
X017482Y030350D01*
X017482Y030991D01*
X017375Y030920D02*
X017055Y030600D01*
X017375Y030920D01*
X017375Y030670D02*
X017055Y030350D01*
X017375Y030670D01*
X017305Y030600D02*
X017625Y030920D01*
X017305Y030600D01*
X017625Y030920D01*
X017305Y030600D01*
X017625Y030920D01*
X017305Y030600D01*
X017625Y030920D01*
X017732Y030850D02*
X017732Y031491D01*
X017732Y030850D01*
X013741Y028564D02*
X013528Y028350D01*
X013310Y028670D02*
X012883Y028670D01*
X012844Y028670D02*
X013271Y028670D01*
X012883Y028350D02*
X012883Y028991D01*
X012443Y030650D02*
X012443Y031291D01*
X010049Y028884D02*
X010049Y028457D01*
X009016Y029400D02*
X009230Y029614D01*
X009191Y029614D02*
X008977Y029400D01*
X008799Y029507D02*
X008692Y029400D01*
X008478Y029400D01*
X008372Y029507D01*
X008372Y029934D01*
X008478Y030041D01*
X008692Y030041D01*
X008799Y029934D01*
X008799Y029507D01*
X008760Y029400D02*
X008760Y029827D01*
X008546Y030041D01*
X008332Y029827D01*
X008332Y029400D01*
X008154Y029400D02*
X008154Y030041D01*
X007834Y030041D01*
X007727Y029934D01*
X007727Y029720D01*
X007834Y029614D01*
X008154Y029614D01*
X008115Y029507D02*
X008008Y029400D01*
X007795Y029400D01*
X007688Y029507D01*
X007727Y029400D02*
X007941Y029614D01*
X008115Y029507D02*
X008115Y029934D01*
X008008Y030041D01*
X007795Y030041D01*
X007688Y029934D01*
X007470Y030041D02*
X007470Y029400D01*
X007470Y029614D02*
X007043Y030041D01*
X006865Y029934D02*
X006865Y029507D01*
X006865Y029934D02*
X006758Y030041D01*
X006545Y030041D01*
X006438Y029934D01*
X005675Y030970D02*
X005248Y030970D01*
X005675Y030970D01*
X005248Y030970D01*
X007727Y028350D02*
X008154Y028350D01*
X007941Y028350D02*
X007941Y028991D01*
X008154Y028777D01*
X008332Y028884D02*
X008760Y028457D01*
X008760Y028350D01*
X008692Y028350D02*
X008799Y028457D01*
X008372Y028884D01*
X008372Y028457D01*
X008478Y028350D01*
X008692Y028350D01*
X008799Y028457D02*
X008799Y028884D01*
X008692Y028991D01*
X008478Y028991D01*
X008372Y028884D01*
X008332Y028884D02*
X008332Y028991D01*
X008760Y028991D01*
X008760Y029720D02*
X008332Y029720D01*
X002675Y029720D02*
X002248Y029720D01*
X002248Y029827D02*
X002248Y029400D01*
X002248Y029827D02*
X002462Y030041D01*
X002675Y029827D01*
X002675Y029400D01*
D12*
X000875Y022850D03*
X019875Y022850D03*
D13*
X019875Y021850D03*
X019875Y020850D03*
X019875Y019850D03*
X019875Y018850D03*
X019875Y017850D03*
X019875Y016850D03*
X019875Y015850D03*
X019875Y014850D03*
X019875Y013850D03*
X019875Y012850D03*
X019875Y011850D03*
X019875Y010850D03*
X019875Y009850D03*
X019875Y008850D03*
X019875Y007850D03*
X019875Y006850D03*
X019875Y005850D03*
X019875Y004850D03*
X019875Y003850D03*
X019875Y002850D03*
X019875Y001850D03*
X019875Y000850D03*
X020875Y000850D03*
X020875Y001850D03*
X020875Y002850D03*
X020875Y003850D03*
X020875Y004850D03*
X020875Y005850D03*
X020875Y006850D03*
X020875Y007850D03*
X020875Y008850D03*
X020875Y009850D03*
X020875Y010850D03*
X020875Y011850D03*
X020875Y012850D03*
X020875Y013850D03*
X020875Y014850D03*
X020875Y015850D03*
X020875Y016850D03*
X020875Y017850D03*
X020875Y018850D03*
X020875Y019850D03*
X020875Y020850D03*
X020875Y021850D03*
X020875Y022850D03*
X017875Y022850D03*
X017875Y021850D03*
X017875Y020850D03*
X017875Y019850D03*
X017875Y018850D03*
X017875Y017850D03*
X017875Y016850D03*
X017875Y015850D03*
X017875Y014850D03*
X017875Y013850D03*
X017875Y006850D03*
X016875Y006850D03*
X015875Y006850D03*
X014875Y006850D03*
X013875Y006850D03*
X012875Y006850D03*
X011875Y006850D03*
X010875Y006850D03*
X009875Y006850D03*
X008875Y006850D03*
X001875Y006850D03*
X001875Y005850D03*
X001875Y004850D03*
X001875Y003850D03*
X001875Y002850D03*
X001875Y001850D03*
X001875Y000850D03*
X000875Y000850D03*
X000875Y001850D03*
X000875Y002850D03*
X000875Y003850D03*
X000875Y004850D03*
X000875Y005850D03*
X000875Y006850D03*
X000875Y007850D03*
X000875Y008850D03*
X000875Y009850D03*
X000875Y010850D03*
X000875Y011850D03*
X000875Y012850D03*
X000875Y013850D03*
X000875Y014850D03*
X000875Y015850D03*
X000875Y016850D03*
X000875Y017850D03*
X000875Y018850D03*
X000875Y019850D03*
X000875Y020850D03*
X000875Y021850D03*
X001875Y021850D03*
X001875Y020850D03*
X001875Y019850D03*
X001875Y018850D03*
X001875Y017850D03*
X001875Y016850D03*
X001875Y015850D03*
X001875Y014850D03*
X001875Y013850D03*
X001875Y012850D03*
X001875Y011850D03*
X001875Y010850D03*
X001875Y009850D03*
X001875Y008850D03*
X001875Y007850D03*
X001875Y022850D03*
D14*
X004235Y023039D03*
X004235Y019692D03*
X004235Y018511D03*
X004235Y013039D03*
X004235Y009692D03*
X004235Y008511D03*
X007985Y008511D03*
X007985Y009692D03*
X007985Y013039D03*
X007985Y018511D03*
X007985Y019692D03*
X007985Y023039D03*
X011735Y023039D03*
X011735Y019692D03*
X011735Y018511D03*
X011735Y013039D03*
X011735Y009692D03*
X011735Y008511D03*
X015485Y008511D03*
X015485Y009692D03*
X015485Y013039D03*
X015485Y018511D03*
X015485Y019692D03*
X015485Y023039D03*
D15*
X015485Y021070D03*
X011735Y021070D03*
X007985Y021070D03*
X004235Y021070D03*
X004235Y011070D03*
X007985Y011070D03*
X011735Y011070D03*
X015485Y011070D03*
D16*
X008235Y030970D03*
X008235Y031970D03*
X007235Y031970D03*
X007235Y030970D03*
X006235Y030970D03*
X006235Y031970D03*
X005235Y031970D03*
X005235Y030970D03*
X004235Y030970D03*
X004235Y031970D03*
X003235Y031970D03*
X003235Y030970D03*
X002235Y030970D03*
X002235Y031970D03*
X001235Y031970D03*
X001235Y030970D03*
D17*
X004135Y015070D03*
X004135Y014170D03*
X006135Y014170D03*
X006135Y015070D03*
X008035Y014070D03*
X008135Y015070D03*
X010135Y015070D03*
X010035Y014070D03*
X011785Y015120D03*
X012035Y014070D03*
X013785Y015120D03*
X014035Y014070D03*
X016235Y013970D03*
X016235Y015970D03*
X016135Y016970D03*
X016135Y018970D03*
D18*
X014785Y018070D03*
X014785Y014070D03*
X010985Y014070D03*
X010985Y018070D03*
X006985Y018070D03*
X006985Y014070D03*
X003235Y014070D03*
X003235Y018070D03*
X003719Y024314D03*
X002735Y024314D03*
X001751Y024314D03*
X006501Y024314D03*
X007485Y024314D03*
X008469Y024314D03*
X011251Y024314D03*
X012235Y024314D03*
X013219Y024314D03*
X016001Y024314D03*
X016985Y024314D03*
X017969Y024314D03*
D19*
X018757Y027070D03*
X015213Y027070D03*
X014007Y027070D03*
X010463Y027070D03*
X009257Y027070D03*
X005713Y027070D03*
X004507Y027070D03*
X000963Y027070D03*
D20*
X001645Y027057D02*
X003825Y027057D01*
X003825Y027175D02*
X001645Y027175D01*
X001645Y027294D02*
X003825Y027294D01*
X003825Y027412D02*
X001645Y027412D01*
X001645Y027531D02*
X003825Y027531D01*
X003825Y027649D02*
X001645Y027649D01*
X001645Y027675D02*
X001568Y027751D01*
X000395Y027751D01*
X000395Y032022D01*
X000396Y032026D01*
X000395Y032074D01*
X000395Y032081D01*
X000401Y032246D01*
X000478Y032572D01*
X000638Y032868D01*
X000868Y033112D01*
X001154Y033288D01*
X001475Y033384D01*
X001641Y033400D01*
X020129Y033400D01*
X020295Y033384D01*
X020616Y033288D01*
X020902Y033112D01*
X021070Y032934D01*
X009277Y032934D01*
X009260Y032931D01*
X009243Y032927D01*
X009227Y032920D01*
X009213Y032912D01*
X009199Y032902D01*
X009187Y032889D01*
X009177Y032876D01*
X009168Y032861D01*
X009162Y032845D01*
X009157Y032829D01*
X009155Y032812D01*
X009155Y032684D01*
X009027Y032684D01*
X009010Y032681D01*
X008993Y032677D01*
X008977Y032670D01*
X008963Y032662D01*
X008949Y032652D01*
X008937Y032639D01*
X008927Y032626D01*
X008918Y032611D01*
X008912Y032595D01*
X008907Y032579D01*
X008905Y032562D01*
X008905Y031684D01*
X008556Y031684D01*
X008665Y031792D01*
X008665Y032148D01*
X008413Y032400D01*
X008057Y032400D01*
X007805Y032148D01*
X007805Y031792D01*
X007914Y031684D01*
X007556Y031684D01*
X007665Y031792D01*
X007665Y032148D01*
X007413Y032400D01*
X007057Y032400D01*
X006805Y032148D01*
X006805Y031792D01*
X006914Y031684D01*
X006556Y031684D01*
X006665Y031792D01*
X006665Y032148D01*
X006413Y032400D01*
X006057Y032400D01*
X005805Y032148D01*
X005805Y031792D01*
X005914Y031684D01*
X005556Y031684D01*
X005665Y031792D01*
X005665Y032148D01*
X005413Y032400D01*
X005057Y032400D01*
X004805Y032148D01*
X004805Y031792D01*
X005057Y031540D01*
X005155Y031540D01*
X005155Y031400D01*
X005057Y031400D01*
X004805Y031148D01*
X004805Y030792D01*
X005057Y030540D01*
X005155Y030540D01*
X005155Y030434D01*
X002277Y030434D01*
X002260Y030431D01*
X002243Y030427D01*
X002227Y030420D01*
X002213Y030412D01*
X002199Y030402D01*
X002187Y030389D01*
X002177Y030376D01*
X002168Y030361D01*
X002162Y030345D01*
X002157Y030329D01*
X002155Y030312D01*
X002155Y028078D01*
X002157Y028061D01*
X002162Y028045D01*
X002168Y028029D01*
X002177Y028015D01*
X002187Y028001D01*
X002199Y027989D01*
X002213Y027979D01*
X002227Y027970D01*
X002243Y027964D01*
X002260Y027959D01*
X002277Y027957D01*
X015477Y027957D01*
X015494Y027959D01*
X015510Y027964D01*
X015526Y027970D01*
X015541Y027979D01*
X015554Y027989D01*
X015566Y028001D01*
X015577Y028015D01*
X015585Y028029D01*
X015592Y028045D01*
X015596Y028061D01*
X015598Y028078D01*
X015598Y029207D01*
X017227Y029207D01*
X017244Y029209D01*
X017260Y029214D01*
X017276Y029220D01*
X017291Y029229D01*
X017304Y029239D01*
X017316Y029251D01*
X017327Y029265D01*
X017335Y029279D01*
X017342Y029295D01*
X017346Y029311D01*
X017348Y029328D01*
X017348Y029957D01*
X020977Y029957D01*
X020994Y029959D01*
X021010Y029964D01*
X021026Y029970D01*
X021041Y029979D01*
X021054Y029989D01*
X021066Y030001D01*
X021077Y030015D01*
X021085Y030029D01*
X021092Y030045D01*
X021096Y030061D01*
X021098Y030078D01*
X021098Y030207D01*
X021227Y030207D01*
X021244Y030209D01*
X021260Y030214D01*
X021276Y030220D01*
X021291Y030229D01*
X021304Y030239D01*
X021316Y030251D01*
X021327Y030265D01*
X021335Y030279D01*
X021342Y030295D01*
X021346Y030311D01*
X021348Y030328D01*
X021348Y032333D01*
X021369Y032246D01*
X021375Y032081D01*
X021375Y032074D01*
X021374Y032026D01*
X021375Y032022D01*
X021375Y024937D01*
X019557Y023307D01*
X019516Y023296D01*
X019480Y023275D01*
X019450Y023245D01*
X019429Y023209D01*
X019423Y023187D01*
X019315Y023090D01*
X019393Y000709D01*
X018795Y001308D01*
X018795Y005622D01*
X018755Y005717D01*
X018682Y005791D01*
X018587Y005830D01*
X003183Y005830D01*
X003088Y005791D01*
X003015Y005717D01*
X002975Y005622D01*
X002975Y001308D01*
X002233Y000566D01*
X002266Y000611D01*
X002298Y000675D01*
X002321Y000743D01*
X002331Y000812D01*
X001913Y000812D01*
X001913Y000889D01*
X001837Y000889D01*
X001837Y001307D01*
X001768Y001296D01*
X001700Y001274D01*
X001636Y001241D01*
X001577Y001199D01*
X001527Y001148D01*
X001484Y001090D01*
X001452Y001026D01*
X001429Y000957D01*
X001419Y000889D01*
X001837Y000889D01*
X001837Y000812D01*
X001419Y000812D01*
X001429Y000743D01*
X001452Y000675D01*
X001484Y000611D01*
X001527Y000553D01*
X001577Y000502D01*
X001635Y000460D01*
X001115Y000460D01*
X001173Y000502D01*
X001223Y000553D01*
X001266Y000611D01*
X001298Y000675D01*
X001321Y000743D01*
X001331Y000812D01*
X000913Y000812D01*
X000913Y000889D01*
X000837Y000889D01*
X000837Y001307D01*
X000768Y001296D01*
X000700Y001274D01*
X000636Y001241D01*
X000577Y001199D01*
X000527Y001148D01*
X000484Y001090D01*
X000452Y001026D01*
X000429Y000957D01*
X000419Y000889D01*
X000837Y000889D01*
X000837Y000812D01*
X000419Y000812D01*
X000429Y000743D01*
X000452Y000675D01*
X000484Y000611D01*
X000527Y000553D01*
X000577Y000502D01*
X000635Y000460D01*
X000395Y000460D01*
X000395Y026389D01*
X001568Y026389D01*
X001645Y026465D01*
X001645Y027675D01*
X002155Y028123D02*
X000395Y028123D01*
X000395Y028005D02*
X002184Y028005D01*
X002155Y028242D02*
X000395Y028242D01*
X000395Y028360D02*
X002155Y028360D01*
X002155Y028479D02*
X000395Y028479D01*
X000395Y028597D02*
X002155Y028597D01*
X002155Y028716D02*
X000395Y028716D01*
X000395Y028834D02*
X002155Y028834D01*
X002155Y028953D02*
X000395Y028953D01*
X000395Y029071D02*
X002155Y029071D01*
X002155Y029190D02*
X000395Y029190D01*
X000395Y029308D02*
X002155Y029308D01*
X002155Y029427D02*
X000395Y029427D01*
X000395Y029545D02*
X002155Y029545D01*
X002155Y029664D02*
X000395Y029664D01*
X000395Y029782D02*
X002155Y029782D01*
X002155Y029901D02*
X000395Y029901D01*
X000395Y030019D02*
X002155Y030019D01*
X002155Y030138D02*
X000395Y030138D01*
X000395Y030256D02*
X002155Y030256D01*
X002176Y030375D02*
X000395Y030375D01*
X000395Y030493D02*
X005155Y030493D01*
X004985Y030612D02*
X004527Y030612D01*
X004426Y030510D02*
X004695Y030780D01*
X004695Y030930D01*
X004275Y030930D01*
X004275Y030510D01*
X004426Y030510D01*
X004275Y030612D02*
X004195Y030612D01*
X004195Y030510D02*
X004195Y030930D01*
X004275Y030930D01*
X004275Y031010D01*
X004695Y031010D01*
X004695Y031161D01*
X004426Y031430D01*
X004275Y031430D01*
X004275Y031010D01*
X004195Y031010D01*
X004195Y030930D01*
X003775Y030930D01*
X003775Y030780D01*
X004044Y030510D01*
X004195Y030510D01*
X004195Y030730D02*
X004275Y030730D01*
X004275Y030849D02*
X004195Y030849D01*
X004195Y030967D02*
X003275Y030967D01*
X003275Y030930D02*
X003275Y031010D01*
X003695Y031010D01*
X003695Y031161D01*
X003426Y031430D01*
X003275Y031430D01*
X003275Y031010D01*
X003195Y031010D01*
X003195Y030930D01*
X003275Y030930D01*
X003275Y030510D01*
X003426Y030510D01*
X003695Y030780D01*
X003695Y030930D01*
X003275Y030930D01*
X003195Y030930D02*
X003195Y030510D01*
X003044Y030510D01*
X002775Y030780D01*
X002775Y030930D01*
X003195Y030930D01*
X003195Y030967D02*
X002275Y030967D01*
X002275Y030930D02*
X002275Y031010D01*
X002695Y031010D01*
X002695Y031161D01*
X002426Y031430D01*
X002275Y031430D01*
X002275Y031010D01*
X002195Y031010D01*
X002195Y030930D01*
X002275Y030930D01*
X002275Y030510D01*
X002426Y030510D01*
X002695Y030780D01*
X002695Y030930D01*
X002275Y030930D01*
X002195Y030930D02*
X002195Y030510D01*
X002044Y030510D01*
X001775Y030780D01*
X001775Y030930D01*
X002195Y030930D01*
X002195Y030967D02*
X001665Y030967D01*
X001775Y031010D02*
X002195Y031010D01*
X002195Y031430D01*
X002044Y031430D01*
X001775Y031161D01*
X001775Y031010D01*
X001775Y031086D02*
X001665Y031086D01*
X001665Y031148D02*
X001413Y031400D01*
X001057Y031400D01*
X000805Y031148D01*
X000805Y030792D01*
X001057Y030540D01*
X001413Y030540D01*
X001665Y030792D01*
X001665Y031148D01*
X001609Y031204D02*
X001819Y031204D01*
X001937Y031323D02*
X001491Y031323D01*
X001413Y031540D02*
X001665Y031792D01*
X001665Y032148D01*
X001413Y032400D01*
X001057Y032400D01*
X000805Y032148D01*
X000805Y031792D01*
X001057Y031540D01*
X001413Y031540D01*
X001433Y031560D02*
X001995Y031560D01*
X002044Y031510D02*
X002195Y031510D01*
X002195Y031930D01*
X002275Y031930D01*
X002275Y031510D01*
X002426Y031510D01*
X002695Y031780D01*
X002695Y031930D01*
X002275Y031930D01*
X002275Y032010D01*
X002695Y032010D01*
X002695Y032161D01*
X002426Y032430D01*
X002275Y032430D01*
X002275Y032010D01*
X002195Y032010D01*
X002195Y031930D01*
X001775Y031930D01*
X001775Y031780D01*
X002044Y031510D01*
X002195Y031560D02*
X002275Y031560D01*
X002275Y031678D02*
X002195Y031678D01*
X002195Y031797D02*
X002275Y031797D01*
X002275Y031915D02*
X002195Y031915D01*
X002195Y032010D02*
X001775Y032010D01*
X001775Y032161D01*
X002044Y032430D01*
X002195Y032430D01*
X002195Y032010D01*
X002195Y032034D02*
X002275Y032034D01*
X002275Y032152D02*
X002195Y032152D01*
X002195Y032271D02*
X002275Y032271D01*
X002275Y032389D02*
X002195Y032389D01*
X002004Y032389D02*
X001424Y032389D01*
X001543Y032271D02*
X001885Y032271D01*
X001775Y032152D02*
X001661Y032152D01*
X001665Y032034D02*
X001775Y032034D01*
X001775Y031915D02*
X001665Y031915D01*
X001665Y031797D02*
X001775Y031797D01*
X001876Y031678D02*
X001551Y031678D01*
X001665Y030849D02*
X001775Y030849D01*
X001824Y030730D02*
X001603Y030730D01*
X001485Y030612D02*
X001943Y030612D01*
X002195Y030612D02*
X002275Y030612D01*
X002275Y030730D02*
X002195Y030730D01*
X002195Y030849D02*
X002275Y030849D01*
X002275Y031086D02*
X002195Y031086D01*
X002195Y031204D02*
X002275Y031204D01*
X002275Y031323D02*
X002195Y031323D01*
X002533Y031323D02*
X002937Y031323D01*
X003044Y031430D02*
X002775Y031161D01*
X002775Y031010D01*
X003195Y031010D01*
X003195Y031430D01*
X003044Y031430D01*
X003044Y031510D02*
X002775Y031780D01*
X002775Y031930D01*
X003195Y031930D01*
X003275Y031930D01*
X003275Y031510D01*
X003426Y031510D01*
X003695Y031780D01*
X003695Y031930D01*
X003275Y031930D01*
X003275Y032010D01*
X003695Y032010D01*
X003695Y032161D01*
X003426Y032430D01*
X003275Y032430D01*
X003275Y032010D01*
X003195Y032010D01*
X003195Y031930D01*
X003195Y031510D01*
X003044Y031510D01*
X002995Y031560D02*
X002475Y031560D01*
X002594Y031678D02*
X002876Y031678D01*
X002775Y031797D02*
X002695Y031797D01*
X002695Y031915D02*
X002775Y031915D01*
X002775Y032010D02*
X003195Y032010D01*
X003195Y032430D01*
X003044Y032430D01*
X002775Y032161D01*
X002775Y032010D01*
X002775Y032034D02*
X002695Y032034D01*
X002695Y032152D02*
X002775Y032152D01*
X002885Y032271D02*
X002585Y032271D01*
X002466Y032389D02*
X003004Y032389D01*
X003195Y032389D02*
X003275Y032389D01*
X003275Y032271D02*
X003195Y032271D01*
X003195Y032152D02*
X003275Y032152D01*
X003275Y032034D02*
X003195Y032034D01*
X003195Y031915D02*
X003275Y031915D01*
X003275Y031797D02*
X003195Y031797D01*
X003195Y031678D02*
X003275Y031678D01*
X003275Y031560D02*
X003195Y031560D01*
X003195Y031323D02*
X003275Y031323D01*
X003275Y031204D02*
X003195Y031204D01*
X003195Y031086D02*
X003275Y031086D01*
X003275Y030849D02*
X003195Y030849D01*
X003195Y030730D02*
X003275Y030730D01*
X003275Y030612D02*
X003195Y030612D01*
X002943Y030612D02*
X002527Y030612D01*
X002646Y030730D02*
X002824Y030730D01*
X002775Y030849D02*
X002695Y030849D01*
X002695Y031086D02*
X002775Y031086D01*
X002819Y031204D02*
X002651Y031204D01*
X003475Y031560D02*
X003995Y031560D01*
X004044Y031510D02*
X004195Y031510D01*
X004195Y031930D01*
X004275Y031930D01*
X004275Y031510D01*
X004426Y031510D01*
X004695Y031780D01*
X004695Y031930D01*
X004275Y031930D01*
X004275Y032010D01*
X004695Y032010D01*
X004695Y032161D01*
X004426Y032430D01*
X004275Y032430D01*
X004275Y032010D01*
X004195Y032010D01*
X004195Y031930D01*
X003775Y031930D01*
X003775Y031780D01*
X004044Y031510D01*
X004044Y031430D02*
X003775Y031161D01*
X003775Y031010D01*
X004195Y031010D01*
X004195Y031430D01*
X004044Y031430D01*
X003937Y031323D02*
X003533Y031323D01*
X003651Y031204D02*
X003819Y031204D01*
X003775Y031086D02*
X003695Y031086D01*
X003695Y030849D02*
X003775Y030849D01*
X003824Y030730D02*
X003646Y030730D01*
X003527Y030612D02*
X003943Y030612D01*
X004275Y030967D02*
X004805Y030967D01*
X004805Y030849D02*
X004695Y030849D01*
X004646Y030730D02*
X004867Y030730D01*
X004805Y031086D02*
X004695Y031086D01*
X004651Y031204D02*
X004861Y031204D01*
X004979Y031323D02*
X004533Y031323D01*
X004475Y031560D02*
X005037Y031560D01*
X004919Y031678D02*
X004594Y031678D01*
X004695Y031797D02*
X004805Y031797D01*
X004805Y031915D02*
X004695Y031915D01*
X004695Y032034D02*
X004805Y032034D01*
X004809Y032152D02*
X004695Y032152D01*
X004585Y032271D02*
X004927Y032271D01*
X005046Y032389D02*
X004466Y032389D01*
X004275Y032389D02*
X004195Y032389D01*
X004195Y032430D02*
X004044Y032430D01*
X003775Y032161D01*
X003775Y032010D01*
X004195Y032010D01*
X004195Y032430D01*
X004195Y032271D02*
X004275Y032271D01*
X004275Y032152D02*
X004195Y032152D01*
X004195Y032034D02*
X004275Y032034D01*
X004275Y031915D02*
X004195Y031915D01*
X004195Y031797D02*
X004275Y031797D01*
X004275Y031678D02*
X004195Y031678D01*
X004195Y031560D02*
X004275Y031560D01*
X004275Y031323D02*
X004195Y031323D01*
X004195Y031204D02*
X004275Y031204D01*
X004275Y031086D02*
X004195Y031086D01*
X003876Y031678D02*
X003594Y031678D01*
X003695Y031797D02*
X003775Y031797D01*
X003775Y031915D02*
X003695Y031915D01*
X003695Y032034D02*
X003775Y032034D01*
X003775Y032152D02*
X003695Y032152D01*
X003585Y032271D02*
X003885Y032271D01*
X004004Y032389D02*
X003466Y032389D01*
X005155Y031441D02*
X000395Y031441D01*
X000395Y031323D02*
X000979Y031323D01*
X000861Y031204D02*
X000395Y031204D01*
X000395Y031086D02*
X000805Y031086D01*
X000805Y030967D02*
X000395Y030967D01*
X000395Y030849D02*
X000805Y030849D01*
X000867Y030730D02*
X000395Y030730D01*
X000395Y030612D02*
X000985Y030612D01*
X001037Y031560D02*
X000395Y031560D01*
X000395Y031678D02*
X000919Y031678D01*
X000805Y031797D02*
X000395Y031797D01*
X000395Y031915D02*
X000805Y031915D01*
X000805Y032034D02*
X000396Y032034D01*
X000398Y032152D02*
X000809Y032152D01*
X000927Y032271D02*
X000407Y032271D01*
X000435Y032389D02*
X001046Y032389D01*
X000507Y032626D02*
X008927Y032626D01*
X008905Y032508D02*
X000463Y032508D01*
X000571Y032745D02*
X009155Y032745D01*
X009169Y032863D02*
X000635Y032863D01*
X000745Y032982D02*
X021025Y032982D01*
X020913Y033100D02*
X000857Y033100D01*
X001041Y033219D02*
X020729Y033219D01*
X020452Y033337D02*
X001318Y033337D01*
X000395Y027886D02*
X021375Y027886D01*
X021375Y027768D02*
X000395Y027768D01*
X000395Y026346D02*
X021375Y026346D01*
X021375Y026464D02*
X019437Y026464D01*
X019438Y026465D02*
X019438Y027675D01*
X019362Y027751D01*
X018152Y027751D01*
X018075Y027675D01*
X018075Y026465D01*
X018152Y026389D01*
X019362Y026389D01*
X019438Y026465D01*
X019438Y026583D02*
X021375Y026583D01*
X021375Y026701D02*
X019438Y026701D01*
X019438Y026820D02*
X021375Y026820D01*
X021375Y026938D02*
X019438Y026938D01*
X019438Y027057D02*
X021375Y027057D01*
X021375Y027175D02*
X019438Y027175D01*
X019438Y027294D02*
X021375Y027294D01*
X021375Y027412D02*
X019438Y027412D01*
X019438Y027531D02*
X021375Y027531D01*
X021375Y027649D02*
X019438Y027649D01*
X018075Y027649D02*
X015895Y027649D01*
X015895Y027675D02*
X015818Y027751D01*
X013402Y027751D01*
X013325Y027675D01*
X013325Y026465D01*
X013402Y026389D01*
X014612Y026389D01*
X015818Y026389D01*
X015895Y026465D01*
X015895Y027675D01*
X015895Y027531D02*
X018075Y027531D01*
X018075Y027412D02*
X015895Y027412D01*
X015895Y027294D02*
X018075Y027294D01*
X018075Y027175D02*
X015895Y027175D01*
X015895Y027057D02*
X018075Y027057D01*
X018075Y026938D02*
X015895Y026938D01*
X015895Y026820D02*
X018075Y026820D01*
X018075Y026701D02*
X015895Y026701D01*
X015895Y026583D02*
X018075Y026583D01*
X018076Y026464D02*
X015894Y026464D01*
X015082Y025530D02*
X011648Y025530D01*
X011041Y024923D01*
X011041Y024725D01*
X010990Y024704D01*
X010861Y024575D01*
X010791Y024406D01*
X010791Y024223D01*
X010861Y024054D01*
X010990Y023924D01*
X011159Y023854D01*
X011342Y023854D01*
X011511Y023924D01*
X011641Y024054D01*
X011711Y024223D01*
X011711Y024406D01*
X011641Y024575D01*
X011511Y024704D01*
X011461Y024725D01*
X011461Y024749D01*
X011822Y025110D01*
X014908Y025110D01*
X015562Y024456D01*
X015541Y024406D01*
X015541Y024223D01*
X015611Y024054D01*
X015740Y023924D01*
X015909Y023854D01*
X016092Y023854D01*
X016261Y023924D01*
X016391Y024054D01*
X016461Y024223D01*
X016461Y024406D01*
X016391Y024575D01*
X016261Y024704D01*
X016092Y024774D01*
X015909Y024774D01*
X015859Y024753D01*
X015082Y025530D01*
X015096Y025516D02*
X021375Y025516D01*
X021375Y025398D02*
X015214Y025398D01*
X015333Y025279D02*
X021375Y025279D01*
X021375Y025161D02*
X015451Y025161D01*
X015570Y025042D02*
X021375Y025042D01*
X021360Y024924D02*
X015688Y024924D01*
X015807Y024805D02*
X021228Y024805D01*
X021096Y024687D02*
X018290Y024687D01*
X018288Y024688D02*
X018226Y024733D01*
X018157Y024768D01*
X018084Y024792D01*
X018018Y024803D01*
X018018Y024363D01*
X017921Y024363D01*
X017921Y024803D01*
X017855Y024792D01*
X017781Y024768D01*
X017712Y024733D01*
X017650Y024688D01*
X017596Y024634D01*
X017550Y024571D01*
X017515Y024502D01*
X017491Y024429D01*
X017481Y024363D01*
X017921Y024363D01*
X017921Y024266D01*
X018018Y024266D01*
X018018Y024363D01*
X018458Y024363D01*
X018447Y024429D01*
X018423Y024502D01*
X018388Y024571D01*
X018343Y024634D01*
X018288Y024688D01*
X018390Y024568D02*
X020964Y024568D01*
X020831Y024450D02*
X018440Y024450D01*
X018458Y024266D02*
X018018Y024266D01*
X018018Y023826D01*
X018084Y023836D01*
X018157Y023860D01*
X018226Y023895D01*
X018288Y023941D01*
X018343Y023995D01*
X018388Y024057D01*
X018423Y024126D01*
X018447Y024200D01*
X018458Y024266D01*
X018449Y024213D02*
X020567Y024213D01*
X020699Y024331D02*
X018018Y024331D01*
X017921Y024331D02*
X017445Y024331D01*
X017481Y024266D02*
X017491Y024200D01*
X017515Y024126D01*
X017550Y024057D01*
X017596Y023995D01*
X017650Y023941D01*
X017712Y023895D01*
X017781Y023860D01*
X017855Y023836D01*
X017921Y023826D01*
X017921Y024266D01*
X017481Y024266D01*
X017489Y024213D02*
X017441Y024213D01*
X017445Y024223D02*
X017375Y024054D01*
X017246Y023924D01*
X017077Y023854D01*
X016894Y023854D01*
X016724Y023924D01*
X016595Y024054D01*
X016525Y024223D01*
X016525Y024406D01*
X016595Y024575D01*
X016724Y024704D01*
X016894Y024774D01*
X017077Y024774D01*
X017246Y024704D01*
X017375Y024575D01*
X017445Y024406D01*
X017445Y024223D01*
X017392Y024094D02*
X017531Y024094D01*
X017615Y023976D02*
X017297Y023976D01*
X017084Y023857D02*
X017790Y023857D01*
X017921Y023857D02*
X018018Y023857D01*
X018018Y023976D02*
X017921Y023976D01*
X017921Y024094D02*
X018018Y024094D01*
X018018Y024213D02*
X017921Y024213D01*
X017921Y024450D02*
X018018Y024450D01*
X018018Y024568D02*
X017921Y024568D01*
X017921Y024687D02*
X018018Y024687D01*
X017649Y024687D02*
X017263Y024687D01*
X017378Y024568D02*
X017549Y024568D01*
X017498Y024450D02*
X017427Y024450D01*
X016886Y023857D02*
X016099Y023857D01*
X015902Y023857D02*
X013398Y023857D01*
X013407Y023860D02*
X013476Y023895D01*
X013538Y023941D01*
X013593Y023995D01*
X013638Y024057D01*
X013673Y024126D01*
X013697Y024200D01*
X013708Y024266D01*
X013268Y024266D01*
X013268Y024363D01*
X013171Y024363D01*
X013171Y024803D01*
X013105Y024792D01*
X013031Y024768D01*
X012962Y024733D01*
X012900Y024688D01*
X012846Y024634D01*
X012800Y024571D01*
X012765Y024502D01*
X012741Y024429D01*
X012731Y024363D01*
X013171Y024363D01*
X013171Y024266D01*
X013268Y024266D01*
X013268Y023826D01*
X013334Y023836D01*
X013407Y023860D01*
X013268Y023857D02*
X013171Y023857D01*
X013171Y023826D02*
X013171Y024266D01*
X012731Y024266D01*
X012741Y024200D01*
X012765Y024126D01*
X012800Y024057D01*
X012846Y023995D01*
X012900Y023941D01*
X012962Y023895D01*
X013031Y023860D01*
X013105Y023836D01*
X013171Y023826D01*
X013040Y023857D02*
X012334Y023857D01*
X012327Y023854D02*
X012496Y023924D01*
X012625Y024054D01*
X012695Y024223D01*
X012695Y024406D01*
X012625Y024575D01*
X012496Y024704D01*
X012327Y024774D01*
X012144Y024774D01*
X011974Y024704D01*
X011845Y024575D01*
X011775Y024406D01*
X011775Y024223D01*
X011845Y024054D01*
X011974Y023924D01*
X012144Y023854D01*
X012327Y023854D01*
X012136Y023857D02*
X011349Y023857D01*
X011152Y023857D02*
X008648Y023857D01*
X008657Y023860D02*
X008726Y023895D01*
X008788Y023941D01*
X008843Y023995D01*
X008888Y024057D01*
X008923Y024126D01*
X008947Y024200D01*
X008958Y024266D01*
X008518Y024266D01*
X008518Y024363D01*
X008421Y024363D01*
X008421Y024803D01*
X008355Y024792D01*
X008281Y024768D01*
X008212Y024733D01*
X008150Y024688D01*
X008096Y024634D01*
X008050Y024571D01*
X008015Y024502D01*
X007991Y024429D01*
X007981Y024363D01*
X008421Y024363D01*
X008421Y024266D01*
X008518Y024266D01*
X008518Y023826D01*
X008584Y023836D01*
X008657Y023860D01*
X008518Y023857D02*
X008421Y023857D01*
X008421Y023826D02*
X008421Y024266D01*
X007981Y024266D01*
X007991Y024200D01*
X008015Y024126D01*
X008050Y024057D01*
X008096Y023995D01*
X008150Y023941D01*
X008212Y023895D01*
X008281Y023860D01*
X008355Y023836D01*
X008421Y023826D01*
X008290Y023857D02*
X007584Y023857D01*
X007577Y023854D02*
X007746Y023924D01*
X007875Y024054D01*
X007945Y024223D01*
X007945Y024406D01*
X007875Y024575D01*
X007746Y024704D01*
X007577Y024774D01*
X007394Y024774D01*
X007224Y024704D01*
X007095Y024575D01*
X007025Y024406D01*
X007025Y024223D01*
X007095Y024054D01*
X007224Y023924D01*
X007394Y023854D01*
X007577Y023854D01*
X007386Y023857D02*
X006599Y023857D01*
X006592Y023854D02*
X006761Y023924D01*
X006891Y024054D01*
X006961Y024223D01*
X006961Y024406D01*
X006891Y024575D01*
X006761Y024704D01*
X006711Y024725D01*
X006711Y024891D01*
X006195Y025407D01*
X006072Y025530D01*
X002670Y025530D01*
X001893Y024753D01*
X001842Y024774D01*
X001659Y024774D01*
X001490Y024704D01*
X001361Y024575D01*
X001291Y024406D01*
X001291Y024223D01*
X001361Y024054D01*
X001490Y023924D01*
X001659Y023854D01*
X001842Y023854D01*
X002011Y023924D01*
X002141Y024054D01*
X002211Y024223D01*
X002211Y024406D01*
X002190Y024456D01*
X002844Y025110D01*
X005898Y025110D01*
X006285Y024723D01*
X006240Y024704D01*
X006111Y024575D01*
X006041Y024406D01*
X006041Y024223D01*
X006111Y024054D01*
X006240Y023924D01*
X006409Y023854D01*
X006592Y023854D01*
X006402Y023857D02*
X003898Y023857D01*
X003907Y023860D02*
X003976Y023895D01*
X004038Y023941D01*
X004093Y023995D01*
X004138Y024057D01*
X004173Y024126D01*
X004197Y024200D01*
X004208Y024266D01*
X003768Y024266D01*
X003768Y024363D01*
X003671Y024363D01*
X003671Y024803D01*
X003605Y024792D01*
X003531Y024768D01*
X003462Y024733D01*
X003400Y024688D01*
X003346Y024634D01*
X003300Y024571D01*
X003265Y024502D01*
X003241Y024429D01*
X003231Y024363D01*
X003671Y024363D01*
X003671Y024266D01*
X003768Y024266D01*
X003768Y023826D01*
X003834Y023836D01*
X003907Y023860D01*
X003768Y023857D02*
X003671Y023857D01*
X003671Y023826D02*
X003671Y024266D01*
X003231Y024266D01*
X003241Y024200D01*
X003265Y024126D01*
X003300Y024057D01*
X003346Y023995D01*
X003400Y023941D01*
X003462Y023895D01*
X003531Y023860D01*
X003605Y023836D01*
X003671Y023826D01*
X003540Y023857D02*
X002834Y023857D01*
X002827Y023854D02*
X002996Y023924D01*
X003125Y024054D01*
X003195Y024223D01*
X003195Y024406D01*
X003125Y024575D01*
X002996Y024704D01*
X002827Y024774D01*
X002644Y024774D01*
X002474Y024704D01*
X002345Y024575D01*
X002275Y024406D01*
X002275Y024223D01*
X002345Y024054D01*
X002474Y023924D01*
X002644Y023854D01*
X002827Y023854D01*
X002636Y023857D02*
X001849Y023857D01*
X001652Y023857D02*
X000395Y023857D01*
X000395Y023739D02*
X020038Y023739D01*
X019906Y023620D02*
X018900Y023620D01*
X018900Y023639D02*
X018803Y023735D01*
X004667Y023735D01*
X004570Y023639D01*
X004570Y023639D01*
X004396Y023464D01*
X004325Y023494D01*
X004145Y023494D01*
X003977Y023424D01*
X003849Y023296D01*
X003780Y023129D01*
X003780Y022948D01*
X003849Y022781D01*
X003977Y022653D01*
X004145Y022584D01*
X004325Y022584D01*
X004493Y022653D01*
X004621Y022781D01*
X004690Y022948D01*
X004690Y023129D01*
X004642Y023244D01*
X004803Y023405D01*
X007708Y023405D01*
X007599Y023296D01*
X007530Y023129D01*
X007530Y022948D01*
X007599Y022781D01*
X007727Y022653D01*
X007895Y022584D01*
X008075Y022584D01*
X008243Y022653D01*
X008371Y022781D01*
X008440Y022948D01*
X008440Y023129D01*
X008371Y023296D01*
X008262Y023405D01*
X011458Y023405D01*
X011349Y023296D01*
X011280Y023129D01*
X011280Y022948D01*
X011349Y022781D01*
X011477Y022653D01*
X011645Y022584D01*
X011825Y022584D01*
X011993Y022653D01*
X012121Y022781D01*
X012190Y022948D01*
X012190Y023129D01*
X012121Y023296D01*
X012012Y023405D01*
X015208Y023405D01*
X015099Y023296D01*
X015030Y023129D01*
X015030Y022948D01*
X015099Y022781D01*
X015227Y022653D01*
X015395Y022584D01*
X015575Y022584D01*
X015743Y022653D01*
X015871Y022781D01*
X015922Y022905D01*
X016570Y022905D01*
X016570Y018002D01*
X016667Y017905D01*
X017503Y017068D01*
X017448Y016935D01*
X017448Y016765D01*
X017513Y016608D01*
X017633Y016488D01*
X017790Y016423D01*
X017960Y016423D01*
X018117Y016488D01*
X018237Y016608D01*
X018302Y016765D01*
X018302Y016935D01*
X018237Y017092D01*
X018117Y017212D01*
X017960Y017277D01*
X017790Y017277D01*
X017770Y017269D01*
X016900Y018139D01*
X016900Y023139D01*
X016803Y023235D01*
X015896Y023235D01*
X015871Y023296D01*
X015762Y023405D01*
X018570Y023405D01*
X018570Y015139D01*
X018302Y014870D01*
X018302Y014935D01*
X018237Y015092D01*
X018117Y015212D01*
X017960Y015277D01*
X017790Y015277D01*
X017711Y015244D01*
X017704Y015246D01*
X017687Y015235D01*
X017667Y015235D01*
X017651Y015219D01*
X017633Y015212D01*
X017603Y015182D01*
X017589Y015173D01*
X017587Y015166D01*
X017513Y015092D01*
X017506Y015074D01*
X017167Y014735D01*
X015473Y014735D01*
X015396Y014812D01*
X015376Y014820D01*
X015396Y014829D01*
X015473Y014905D01*
X016803Y014905D01*
X016900Y015002D01*
X017511Y015613D01*
X017513Y015608D01*
X017633Y015488D01*
X017790Y015423D01*
X017960Y015423D01*
X018117Y015488D01*
X018237Y015608D01*
X018302Y015765D01*
X018302Y015935D01*
X018237Y016092D01*
X018117Y016212D01*
X017960Y016277D01*
X017790Y016277D01*
X017711Y016244D01*
X017704Y016246D01*
X017687Y016235D01*
X017667Y016235D01*
X017651Y016219D01*
X017633Y016212D01*
X017603Y016182D01*
X017589Y016173D01*
X017587Y016166D01*
X017513Y016092D01*
X017506Y016074D01*
X016667Y015235D01*
X015473Y015235D01*
X015396Y015312D01*
X015292Y015355D01*
X015178Y015355D01*
X015074Y015312D01*
X014993Y015232D01*
X014950Y015127D01*
X014950Y015014D01*
X014993Y014909D01*
X015074Y014829D01*
X015094Y014820D01*
X015074Y014812D01*
X014993Y014732D01*
X014950Y014627D01*
X014950Y014514D01*
X014957Y014497D01*
X014877Y014530D01*
X014694Y014530D01*
X014524Y014460D01*
X014395Y014331D01*
X014375Y014282D01*
X014197Y014460D01*
X013873Y014460D01*
X013645Y014232D01*
X013645Y013909D01*
X013873Y013680D01*
X014197Y013680D01*
X014375Y013858D01*
X014395Y013810D01*
X014524Y013680D01*
X014694Y013610D01*
X014877Y013610D01*
X015046Y013680D01*
X015175Y013810D01*
X015245Y013979D01*
X015245Y014162D01*
X015194Y014285D01*
X015292Y014285D01*
X015396Y014329D01*
X015473Y014405D01*
X017303Y014405D01*
X017400Y014502D01*
X017511Y014613D01*
X017513Y014608D01*
X017633Y014488D01*
X017790Y014423D01*
X017855Y014423D01*
X017651Y014219D01*
X017633Y014212D01*
X017603Y014182D01*
X017589Y014173D01*
X017587Y014166D01*
X017513Y014092D01*
X017448Y013935D01*
X017448Y013765D01*
X017513Y013608D01*
X017633Y013488D01*
X017790Y013423D01*
X017960Y013423D01*
X018117Y013488D01*
X018237Y013608D01*
X018302Y013765D01*
X018302Y013935D01*
X018237Y014092D01*
X018117Y014212D01*
X018112Y014214D01*
X018803Y014905D01*
X018900Y015002D01*
X018900Y023639D01*
X018900Y023502D02*
X019774Y023502D01*
X019642Y023383D02*
X018900Y023383D01*
X018900Y023265D02*
X019470Y023265D01*
X019378Y023146D02*
X018900Y023146D01*
X018900Y023028D02*
X019315Y023028D01*
X019316Y022909D02*
X018900Y022909D01*
X018900Y022791D02*
X019316Y022791D01*
X019316Y022672D02*
X018900Y022672D01*
X018900Y022554D02*
X019317Y022554D01*
X019317Y022435D02*
X018900Y022435D01*
X018900Y022317D02*
X019318Y022317D01*
X019318Y022198D02*
X018900Y022198D01*
X018900Y022080D02*
X019319Y022080D01*
X019319Y021961D02*
X018900Y021961D01*
X018900Y021843D02*
X019319Y021843D01*
X019320Y021724D02*
X018900Y021724D01*
X018900Y021606D02*
X019320Y021606D01*
X019321Y021487D02*
X018900Y021487D01*
X018900Y021369D02*
X019321Y021369D01*
X019321Y021250D02*
X018900Y021250D01*
X018900Y021132D02*
X019322Y021132D01*
X019322Y021013D02*
X018900Y021013D01*
X018900Y020895D02*
X019323Y020895D01*
X019323Y020776D02*
X018900Y020776D01*
X018900Y020658D02*
X019324Y020658D01*
X019324Y020539D02*
X018900Y020539D01*
X018900Y020421D02*
X019324Y020421D01*
X019325Y020302D02*
X018900Y020302D01*
X018900Y020184D02*
X019325Y020184D01*
X019326Y020065D02*
X018900Y020065D01*
X018900Y019947D02*
X019326Y019947D01*
X019326Y019828D02*
X018900Y019828D01*
X018900Y019710D02*
X019327Y019710D01*
X019327Y019591D02*
X018900Y019591D01*
X018900Y019473D02*
X019328Y019473D01*
X019328Y019354D02*
X018900Y019354D01*
X018900Y019236D02*
X019328Y019236D01*
X019329Y019117D02*
X018900Y019117D01*
X018900Y018999D02*
X019329Y018999D01*
X019330Y018880D02*
X018900Y018880D01*
X018900Y018762D02*
X019330Y018762D01*
X019331Y018643D02*
X018900Y018643D01*
X018900Y018525D02*
X019331Y018525D01*
X019331Y018406D02*
X018900Y018406D01*
X018900Y018288D02*
X019332Y018288D01*
X019332Y018169D02*
X018900Y018169D01*
X018900Y018051D02*
X019333Y018051D01*
X019333Y017932D02*
X018900Y017932D01*
X018900Y017814D02*
X019333Y017814D01*
X019334Y017695D02*
X018900Y017695D01*
X018900Y017577D02*
X019334Y017577D01*
X019335Y017458D02*
X018900Y017458D01*
X018900Y017340D02*
X019335Y017340D01*
X019336Y017221D02*
X018900Y017221D01*
X018900Y017103D02*
X019336Y017103D01*
X019336Y016984D02*
X018900Y016984D01*
X018900Y016866D02*
X019337Y016866D01*
X019337Y016747D02*
X018900Y016747D01*
X018900Y016629D02*
X019338Y016629D01*
X019338Y016510D02*
X018900Y016510D01*
X018900Y016392D02*
X019338Y016392D01*
X019339Y016273D02*
X018900Y016273D01*
X018900Y016155D02*
X019339Y016155D01*
X019340Y016036D02*
X018900Y016036D01*
X018900Y015918D02*
X019340Y015918D01*
X019341Y015799D02*
X018900Y015799D01*
X018900Y015681D02*
X019341Y015681D01*
X019341Y015562D02*
X018900Y015562D01*
X018900Y015444D02*
X019342Y015444D01*
X019342Y015325D02*
X018900Y015325D01*
X018900Y015207D02*
X019343Y015207D01*
X019343Y015088D02*
X018900Y015088D01*
X018868Y014970D02*
X019343Y014970D01*
X019344Y014851D02*
X018749Y014851D01*
X018631Y014733D02*
X019344Y014733D01*
X019345Y014614D02*
X018512Y014614D01*
X018394Y014496D02*
X019345Y014496D01*
X019346Y014377D02*
X018275Y014377D01*
X018157Y014259D02*
X019346Y014259D01*
X019346Y014140D02*
X018189Y014140D01*
X018266Y014022D02*
X019347Y014022D01*
X019347Y013903D02*
X018302Y013903D01*
X018302Y013785D02*
X019348Y013785D01*
X019348Y013666D02*
X018261Y013666D01*
X018176Y013548D02*
X019348Y013548D01*
X019349Y013429D02*
X017974Y013429D01*
X017776Y013429D02*
X015731Y013429D01*
X015743Y013424D02*
X015575Y013494D01*
X015395Y013494D01*
X015227Y013424D01*
X015099Y013296D01*
X015030Y013129D01*
X015030Y012948D01*
X015099Y012781D01*
X015227Y012653D01*
X015395Y012584D01*
X015575Y012584D01*
X015743Y012653D01*
X015871Y012781D01*
X015940Y012948D01*
X015940Y013129D01*
X015871Y013296D01*
X015743Y013424D01*
X015856Y013311D02*
X019349Y013311D01*
X019350Y013192D02*
X015914Y013192D01*
X015940Y013074D02*
X019350Y013074D01*
X019350Y012955D02*
X015940Y012955D01*
X015894Y012837D02*
X019351Y012837D01*
X019351Y012718D02*
X015808Y012718D01*
X015614Y012600D02*
X019352Y012600D01*
X019352Y012481D02*
X013675Y012481D01*
X013675Y012363D02*
X019353Y012363D01*
X019353Y012244D02*
X013675Y012244D01*
X013675Y012126D02*
X019353Y012126D01*
X019354Y012007D02*
X013675Y012007D01*
X013675Y011889D02*
X015056Y011889D01*
X014964Y011851D02*
X014705Y011592D01*
X014564Y011253D01*
X014564Y010887D01*
X014705Y010549D01*
X014964Y010290D01*
X015302Y010150D01*
X015668Y010150D01*
X016006Y010290D01*
X016265Y010549D01*
X016406Y010887D01*
X016406Y011253D01*
X016265Y011592D01*
X016006Y011851D01*
X015668Y011991D01*
X015302Y011991D01*
X014964Y011851D01*
X014883Y011770D02*
X013675Y011770D01*
X013675Y011652D02*
X014765Y011652D01*
X014680Y011533D02*
X013675Y011533D01*
X013675Y011415D02*
X014631Y011415D01*
X014582Y011296D02*
X013675Y011296D01*
X013675Y011178D02*
X014564Y011178D01*
X014564Y011059D02*
X013675Y011059D01*
X013675Y010941D02*
X014564Y010941D01*
X014591Y010822D02*
X013675Y010822D01*
X013675Y010704D02*
X014640Y010704D01*
X014689Y010585D02*
X013675Y010585D01*
X013675Y010467D02*
X014787Y010467D01*
X014905Y010348D02*
X013675Y010348D01*
X013675Y010230D02*
X015109Y010230D01*
X015227Y010078D02*
X015099Y009950D01*
X015030Y009783D01*
X015030Y009715D01*
X015013Y009756D01*
X014921Y009848D01*
X014800Y009898D01*
X014670Y009898D01*
X014549Y009848D01*
X014520Y009820D01*
X013832Y009992D01*
X013675Y010149D01*
X013675Y012649D01*
X013564Y012760D01*
X013425Y012899D01*
X013425Y014899D01*
X013314Y015010D01*
X009813Y018511D01*
X009813Y018635D01*
X009763Y018756D01*
X009671Y018848D01*
X009550Y018898D01*
X009420Y018898D01*
X009299Y018848D01*
X009207Y018756D01*
X009157Y018635D01*
X009157Y018505D01*
X009207Y018384D01*
X009299Y018292D01*
X009420Y018242D01*
X009544Y018242D01*
X013045Y014742D01*
X013045Y012742D01*
X013295Y012492D01*
X013295Y009992D01*
X013584Y009702D01*
X013613Y009655D01*
X013638Y009649D01*
X013656Y009630D01*
X013712Y009630D01*
X014429Y009451D01*
X014457Y009384D01*
X014549Y009292D01*
X014670Y009242D01*
X014800Y009242D01*
X014921Y009292D01*
X015013Y009384D01*
X015063Y009505D01*
X015063Y009522D01*
X015099Y009435D01*
X015227Y009307D01*
X015395Y009237D01*
X015575Y009237D01*
X015743Y009307D01*
X015871Y009435D01*
X015940Y009602D01*
X015940Y009783D01*
X015871Y009950D01*
X015743Y010078D01*
X015575Y010147D01*
X015395Y010147D01*
X015227Y010078D01*
X015308Y010111D02*
X013713Y010111D01*
X013831Y009993D02*
X015142Y009993D01*
X015068Y009874D02*
X014858Y009874D01*
X015013Y009756D02*
X015030Y009756D01*
X015063Y009519D02*
X015065Y009519D01*
X015020Y009400D02*
X015134Y009400D01*
X015288Y009282D02*
X014896Y009282D01*
X014803Y009235D02*
X015185Y008854D01*
X015227Y008897D01*
X015395Y008966D01*
X015575Y008966D01*
X015743Y008897D01*
X015871Y008769D01*
X015940Y008602D01*
X015940Y008421D01*
X015871Y008254D01*
X015743Y008126D01*
X015575Y008056D01*
X015395Y008056D01*
X015227Y008126D01*
X015099Y008254D01*
X015030Y008421D01*
X015030Y008542D01*
X014667Y008905D01*
X012303Y008905D01*
X012134Y008736D01*
X012190Y008602D01*
X012190Y008421D01*
X012121Y008254D01*
X011993Y008126D01*
X011825Y008056D01*
X011645Y008056D01*
X011477Y008126D01*
X011349Y008254D01*
X011280Y008421D01*
X011280Y008602D01*
X011336Y008736D01*
X011167Y008905D01*
X008803Y008905D01*
X008440Y008542D01*
X008440Y008421D01*
X008371Y008254D01*
X008243Y008126D01*
X008075Y008056D01*
X007895Y008056D01*
X007727Y008126D01*
X007599Y008254D01*
X007530Y008421D01*
X007530Y008542D01*
X007167Y008905D01*
X004803Y008905D01*
X004634Y008736D01*
X004690Y008602D01*
X004690Y008421D01*
X004621Y008254D01*
X004493Y008126D01*
X004325Y008056D01*
X004145Y008056D01*
X003977Y008126D01*
X003849Y008254D01*
X003780Y008421D01*
X003780Y008602D01*
X003849Y008769D01*
X003977Y008897D01*
X004145Y008966D01*
X004325Y008966D01*
X004376Y008945D01*
X004570Y009139D01*
X004667Y009235D01*
X007303Y009235D01*
X007685Y008854D01*
X007727Y008897D01*
X007895Y008966D01*
X008075Y008966D01*
X008243Y008897D01*
X008285Y008854D01*
X008570Y009139D01*
X008667Y009235D01*
X011303Y009235D01*
X011594Y008945D01*
X011645Y008966D01*
X011825Y008966D01*
X011876Y008945D01*
X012070Y009139D01*
X012167Y009235D01*
X014803Y009235D01*
X014875Y009163D02*
X019364Y009163D01*
X019364Y009045D02*
X014994Y009045D01*
X015112Y008926D02*
X015299Y008926D01*
X015671Y008926D02*
X019365Y008926D01*
X019365Y008808D02*
X015832Y008808D01*
X015904Y008689D02*
X019365Y008689D01*
X019366Y008571D02*
X015940Y008571D01*
X015940Y008452D02*
X019366Y008452D01*
X019367Y008334D02*
X015904Y008334D01*
X015832Y008215D02*
X019367Y008215D01*
X019367Y008097D02*
X015673Y008097D01*
X015297Y008097D02*
X011923Y008097D01*
X012082Y008215D02*
X015138Y008215D01*
X015066Y008334D02*
X012154Y008334D01*
X012190Y008452D02*
X015030Y008452D01*
X015001Y008571D02*
X012190Y008571D01*
X012154Y008689D02*
X014883Y008689D01*
X014764Y008808D02*
X012206Y008808D01*
X011976Y009045D02*
X011494Y009045D01*
X011375Y009163D02*
X012095Y009163D01*
X011993Y009307D02*
X012121Y009435D01*
X012190Y009602D01*
X012190Y009783D01*
X012121Y009950D01*
X011993Y010078D01*
X011825Y010147D01*
X011645Y010147D01*
X011477Y010078D01*
X011349Y009950D01*
X011280Y009783D01*
X011280Y009602D01*
X011349Y009435D01*
X011477Y009307D01*
X011645Y009237D01*
X011825Y009237D01*
X011993Y009307D01*
X011932Y009282D02*
X014574Y009282D01*
X014450Y009400D02*
X012086Y009400D01*
X012155Y009519D02*
X014157Y009519D01*
X014302Y009874D02*
X014612Y009874D01*
X014735Y009570D02*
X013735Y009820D01*
X013485Y010070D01*
X013485Y012570D01*
X013235Y012820D01*
X013235Y014820D01*
X009485Y018570D01*
X009376Y018880D02*
X008778Y018880D01*
X008803Y018905D02*
X011167Y018905D01*
X011336Y018736D01*
X011280Y018602D01*
X011280Y018426D01*
X011246Y018460D01*
X011077Y018530D01*
X010894Y018530D01*
X010724Y018460D01*
X010595Y018331D01*
X010525Y018162D01*
X010525Y017979D01*
X010595Y017810D01*
X010724Y017680D01*
X010894Y017610D01*
X011077Y017610D01*
X011246Y017680D01*
X011319Y017753D01*
X011667Y017405D01*
X014303Y017405D01*
X014400Y017502D01*
X014563Y017664D01*
X014694Y017610D01*
X014877Y017610D01*
X015046Y017680D01*
X015175Y017810D01*
X015245Y017979D01*
X015245Y018118D01*
X015395Y018056D01*
X015575Y018056D01*
X015743Y018126D01*
X015871Y018254D01*
X015940Y018421D01*
X015940Y018602D01*
X015931Y018623D01*
X015973Y018580D01*
X016297Y018580D01*
X016525Y018809D01*
X016525Y019132D01*
X016297Y019360D01*
X015973Y019360D01*
X015745Y019132D01*
X015745Y018894D01*
X015743Y018897D01*
X015575Y018966D01*
X015395Y018966D01*
X015227Y018897D01*
X015185Y018854D01*
X014900Y019139D01*
X014803Y019235D01*
X012167Y019235D01*
X011876Y018945D01*
X011825Y018966D01*
X011645Y018966D01*
X011594Y018945D01*
X011400Y019139D01*
X011303Y019235D01*
X008667Y019235D01*
X008285Y018854D01*
X008243Y018897D01*
X008075Y018966D01*
X007895Y018966D01*
X007727Y018897D01*
X007685Y018854D01*
X007303Y019235D01*
X004667Y019235D01*
X004570Y019139D01*
X004376Y018945D01*
X004325Y018966D01*
X004145Y018966D01*
X003977Y018897D01*
X003849Y018769D01*
X003780Y018602D01*
X003780Y018421D01*
X003849Y018254D01*
X003977Y018126D01*
X004145Y018056D01*
X004325Y018056D01*
X004493Y018126D01*
X004621Y018254D01*
X004690Y018421D01*
X004690Y018602D01*
X004634Y018736D01*
X004803Y018905D01*
X007167Y018905D01*
X007530Y018542D01*
X007530Y018421D01*
X007599Y018254D01*
X007727Y018126D01*
X007895Y018056D01*
X008075Y018056D01*
X008243Y018126D01*
X008371Y018254D01*
X008440Y018421D01*
X008440Y018542D01*
X008803Y018905D01*
X008660Y018762D02*
X009213Y018762D01*
X009160Y018643D02*
X008541Y018643D01*
X008440Y018525D02*
X009157Y018525D01*
X009198Y018406D02*
X008434Y018406D01*
X008385Y018288D02*
X009309Y018288D01*
X009617Y018169D02*
X008286Y018169D01*
X008259Y018880D02*
X008312Y018880D01*
X008430Y018999D02*
X007540Y018999D01*
X007658Y018880D02*
X007711Y018880D01*
X007429Y018643D02*
X004673Y018643D01*
X004690Y018525D02*
X006880Y018525D01*
X006894Y018530D02*
X006724Y018460D01*
X006595Y018331D01*
X006525Y018162D01*
X006525Y018094D01*
X006167Y017735D01*
X003803Y017735D01*
X003655Y017883D01*
X003695Y017979D01*
X003695Y018162D01*
X003625Y018331D01*
X003496Y018460D01*
X003327Y018530D01*
X003144Y018530D01*
X002974Y018460D01*
X002845Y018331D01*
X002775Y018162D01*
X002775Y017979D01*
X002845Y017810D01*
X002974Y017680D01*
X003144Y017610D01*
X003327Y017610D01*
X003422Y017650D01*
X003570Y017502D01*
X003667Y017405D01*
X006303Y017405D01*
X006651Y017753D01*
X006724Y017680D01*
X006894Y017610D01*
X007077Y017610D01*
X007246Y017680D01*
X007375Y017810D01*
X007445Y017979D01*
X007445Y018162D01*
X007375Y018331D01*
X007246Y018460D01*
X007077Y018530D01*
X006894Y018530D01*
X007090Y018525D02*
X007530Y018525D01*
X007536Y018406D02*
X007299Y018406D01*
X007393Y018288D02*
X007585Y018288D01*
X007684Y018169D02*
X007442Y018169D01*
X007445Y018051D02*
X009736Y018051D01*
X009854Y017932D02*
X007426Y017932D01*
X007377Y017814D02*
X009973Y017814D01*
X010091Y017695D02*
X007261Y017695D01*
X006709Y017695D02*
X006593Y017695D01*
X006475Y017577D02*
X010210Y017577D01*
X010328Y017458D02*
X006356Y017458D01*
X006245Y017814D02*
X003725Y017814D01*
X003676Y017932D02*
X006364Y017932D01*
X006482Y018051D02*
X003695Y018051D01*
X003692Y018169D02*
X003934Y018169D01*
X003835Y018288D02*
X003643Y018288D01*
X003549Y018406D02*
X003786Y018406D01*
X003780Y018525D02*
X003340Y018525D01*
X003130Y018525D02*
X002153Y018525D01*
X002117Y018488D02*
X002237Y018608D01*
X002302Y018765D01*
X002302Y018935D01*
X002237Y019092D01*
X002117Y019212D01*
X001960Y019277D01*
X001790Y019277D01*
X001633Y019212D01*
X001513Y019092D01*
X001448Y018935D01*
X001448Y018765D01*
X001513Y018608D01*
X001633Y018488D01*
X001790Y018423D01*
X001960Y018423D01*
X002117Y018488D01*
X002251Y018643D02*
X003797Y018643D01*
X003847Y018762D02*
X002300Y018762D01*
X002302Y018880D02*
X003961Y018880D01*
X004145Y019237D02*
X003977Y019307D01*
X003849Y019435D01*
X003780Y019602D01*
X003780Y019783D01*
X003849Y019950D01*
X003977Y020078D01*
X004145Y020147D01*
X004325Y020147D01*
X004493Y020078D01*
X004621Y019950D01*
X004690Y019783D01*
X004690Y019602D01*
X004621Y019435D01*
X004493Y019307D01*
X004325Y019237D01*
X004145Y019237D01*
X003930Y019354D02*
X000395Y019354D01*
X000395Y019236D02*
X000690Y019236D01*
X000633Y019212D02*
X000790Y019277D01*
X000960Y019277D01*
X001117Y019212D01*
X001237Y019092D01*
X001302Y018935D01*
X001302Y018765D01*
X001237Y018608D01*
X001117Y018488D01*
X000960Y018423D01*
X000790Y018423D01*
X000633Y018488D01*
X000513Y018608D01*
X000448Y018765D01*
X000448Y018935D01*
X000513Y019092D01*
X000633Y019212D01*
X000538Y019117D02*
X000395Y019117D01*
X000395Y018999D02*
X000475Y018999D01*
X000448Y018880D02*
X000395Y018880D01*
X000395Y018762D02*
X000450Y018762D01*
X000499Y018643D02*
X000395Y018643D01*
X000395Y018525D02*
X000597Y018525D01*
X000395Y018406D02*
X002921Y018406D01*
X002827Y018288D02*
X000395Y018288D01*
X000395Y018169D02*
X000590Y018169D01*
X000633Y018212D02*
X000513Y018092D01*
X000448Y017935D01*
X000448Y017765D01*
X000513Y017608D01*
X000633Y017488D01*
X000790Y017423D01*
X000960Y017423D01*
X001117Y017488D01*
X001237Y017608D01*
X001302Y017765D01*
X001302Y017935D01*
X001237Y018092D01*
X001117Y018212D01*
X000960Y018277D01*
X000790Y018277D01*
X000633Y018212D01*
X000496Y018051D02*
X000395Y018051D01*
X000395Y017932D02*
X000448Y017932D01*
X000448Y017814D02*
X000395Y017814D01*
X000395Y017695D02*
X000477Y017695D01*
X000545Y017577D02*
X000395Y017577D01*
X000395Y017458D02*
X000706Y017458D01*
X000790Y017277D02*
X000633Y017212D01*
X000513Y017092D01*
X000448Y016935D01*
X000448Y016765D01*
X000513Y016608D01*
X000633Y016488D01*
X000790Y016423D01*
X000960Y016423D01*
X001117Y016488D01*
X001237Y016608D01*
X001302Y016765D01*
X001302Y016935D01*
X001237Y017092D01*
X001117Y017212D01*
X000960Y017277D01*
X000790Y017277D01*
X000655Y017221D02*
X000395Y017221D01*
X000395Y017103D02*
X000524Y017103D01*
X000469Y016984D02*
X000395Y016984D01*
X000395Y016866D02*
X000448Y016866D01*
X000456Y016747D02*
X000395Y016747D01*
X000395Y016629D02*
X000505Y016629D01*
X000611Y016510D02*
X000395Y016510D01*
X000395Y016392D02*
X011395Y016392D01*
X011513Y016273D02*
X001969Y016273D01*
X001960Y016277D02*
X002117Y016212D01*
X002237Y016092D01*
X002302Y015935D01*
X002302Y015765D01*
X002237Y015608D01*
X002117Y015488D01*
X001960Y015423D01*
X001790Y015423D01*
X001633Y015488D01*
X001513Y015608D01*
X001448Y015765D01*
X001448Y015935D01*
X001513Y016092D01*
X001633Y016212D01*
X001790Y016277D01*
X001960Y016277D01*
X001960Y016423D02*
X002117Y016488D01*
X002237Y016608D01*
X002302Y016765D01*
X002302Y016935D01*
X002237Y017092D01*
X002117Y017212D01*
X001960Y017277D01*
X001790Y017277D01*
X001633Y017212D01*
X001513Y017092D01*
X001448Y016935D01*
X001448Y016765D01*
X001513Y016608D01*
X001633Y016488D01*
X001790Y016423D01*
X001960Y016423D01*
X002139Y016510D02*
X011276Y016510D01*
X011158Y016629D02*
X002245Y016629D01*
X002294Y016747D02*
X011039Y016747D01*
X010921Y016866D02*
X002302Y016866D01*
X002281Y016984D02*
X010802Y016984D01*
X010684Y017103D02*
X002226Y017103D01*
X002095Y017221D02*
X010565Y017221D01*
X010447Y017340D02*
X000395Y017340D01*
X001044Y017458D02*
X001706Y017458D01*
X001633Y017488D02*
X001790Y017423D01*
X001960Y017423D01*
X002117Y017488D01*
X002237Y017608D01*
X002302Y017765D01*
X002302Y017935D01*
X002237Y018092D01*
X002117Y018212D01*
X001960Y018277D01*
X001790Y018277D01*
X001633Y018212D01*
X001513Y018092D01*
X001448Y017935D01*
X001448Y017765D01*
X001513Y017608D01*
X001633Y017488D01*
X001545Y017577D02*
X001205Y017577D01*
X001273Y017695D02*
X001477Y017695D01*
X001448Y017814D02*
X001302Y017814D01*
X001302Y017932D02*
X001448Y017932D01*
X001496Y018051D02*
X001254Y018051D01*
X001160Y018169D02*
X001590Y018169D01*
X001597Y018525D02*
X001153Y018525D01*
X001251Y018643D02*
X001499Y018643D01*
X001450Y018762D02*
X001300Y018762D01*
X001302Y018880D02*
X001448Y018880D01*
X001475Y018999D02*
X001275Y018999D01*
X001212Y019117D02*
X001538Y019117D01*
X001690Y019236D02*
X001060Y019236D01*
X000960Y019423D02*
X000790Y019423D01*
X000633Y019488D01*
X000513Y019608D01*
X000448Y019765D01*
X000448Y019935D01*
X000513Y020092D01*
X000633Y020212D01*
X000790Y020277D01*
X000960Y020277D01*
X001117Y020212D01*
X001237Y020092D01*
X001302Y019935D01*
X001302Y019765D01*
X001237Y019608D01*
X001117Y019488D01*
X000960Y019423D01*
X001079Y019473D02*
X001671Y019473D01*
X001633Y019488D02*
X001790Y019423D01*
X001960Y019423D01*
X002117Y019488D01*
X002237Y019608D01*
X002302Y019765D01*
X002302Y019935D01*
X002237Y020092D01*
X002117Y020212D01*
X001960Y020277D01*
X001790Y020277D01*
X001633Y020212D01*
X001513Y020092D01*
X001448Y019935D01*
X001448Y019765D01*
X001513Y019608D01*
X001633Y019488D01*
X001530Y019591D02*
X001220Y019591D01*
X001279Y019710D02*
X001471Y019710D01*
X001448Y019828D02*
X001302Y019828D01*
X001297Y019947D02*
X001453Y019947D01*
X001502Y020065D02*
X001248Y020065D01*
X001145Y020184D02*
X001605Y020184D01*
X001790Y020423D02*
X001633Y020488D01*
X001513Y020608D01*
X001448Y020765D01*
X001448Y020935D01*
X001513Y021092D01*
X001587Y021166D01*
X001589Y021173D01*
X001603Y021182D01*
X001633Y021212D01*
X001651Y021219D01*
X001855Y021423D01*
X001790Y021423D01*
X001633Y021488D01*
X001513Y021608D01*
X001448Y021765D01*
X001448Y021935D01*
X001513Y022092D01*
X001633Y022212D01*
X001790Y022277D01*
X001960Y022277D01*
X002117Y022212D01*
X002237Y022092D01*
X002302Y021935D01*
X002302Y021870D01*
X002950Y022519D01*
X002950Y022627D01*
X002993Y022732D01*
X003074Y022812D01*
X003178Y022855D01*
X003292Y022855D01*
X003396Y022812D01*
X003477Y022732D01*
X003520Y022627D01*
X003520Y022514D01*
X003477Y022409D01*
X003396Y022329D01*
X003292Y022285D01*
X003183Y022285D01*
X002112Y021214D01*
X002117Y021212D01*
X002237Y021092D01*
X002302Y020935D01*
X002302Y020765D01*
X002237Y020608D01*
X002117Y020488D01*
X001960Y020423D01*
X001790Y020423D01*
X001582Y020539D02*
X001168Y020539D01*
X001117Y020488D02*
X001237Y020608D01*
X001302Y020765D01*
X001302Y020935D01*
X001237Y021092D01*
X001117Y021212D01*
X000960Y021277D01*
X000790Y021277D01*
X000633Y021212D01*
X000513Y021092D01*
X000448Y020935D01*
X000448Y020765D01*
X000513Y020608D01*
X000633Y020488D01*
X000790Y020423D01*
X000960Y020423D01*
X001117Y020488D01*
X001257Y020658D02*
X001493Y020658D01*
X001448Y020776D02*
X001302Y020776D01*
X001302Y020895D02*
X001448Y020895D01*
X001481Y021013D02*
X001269Y021013D01*
X001197Y021132D02*
X001553Y021132D01*
X001682Y021250D02*
X001025Y021250D01*
X000960Y021423D02*
X000790Y021423D01*
X000633Y021488D01*
X000513Y021608D01*
X000448Y021765D01*
X000448Y021935D01*
X000513Y022092D01*
X000633Y022212D01*
X000790Y022277D01*
X000960Y022277D01*
X001117Y022212D01*
X001237Y022092D01*
X001302Y021935D01*
X001302Y021765D01*
X001237Y021608D01*
X001117Y021488D01*
X000960Y021423D01*
X001114Y021487D02*
X001636Y021487D01*
X001516Y021606D02*
X001234Y021606D01*
X001285Y021724D02*
X001465Y021724D01*
X001448Y021843D02*
X001302Y021843D01*
X001291Y021961D02*
X001459Y021961D01*
X001508Y022080D02*
X001242Y022080D01*
X001131Y022198D02*
X001619Y022198D01*
X001700Y022427D02*
X001768Y022405D01*
X001837Y022394D01*
X001837Y022812D01*
X001913Y022812D01*
X001913Y022394D01*
X001982Y022405D01*
X002050Y022427D01*
X002114Y022459D01*
X002173Y022502D01*
X002223Y022553D01*
X002266Y022611D01*
X002298Y022675D01*
X002321Y022743D01*
X002331Y022812D01*
X001913Y022812D01*
X001913Y022889D01*
X001837Y022889D01*
X001837Y023307D01*
X001768Y023296D01*
X001700Y023274D01*
X001636Y023241D01*
X001577Y023199D01*
X001527Y023148D01*
X001484Y023090D01*
X001452Y023026D01*
X001429Y022957D01*
X001419Y022889D01*
X001837Y022889D01*
X001837Y022812D01*
X001419Y022812D01*
X001429Y022743D01*
X001452Y022675D01*
X001484Y022611D01*
X001527Y022553D01*
X001577Y022502D01*
X001636Y022459D01*
X001700Y022427D01*
X001683Y022435D02*
X001280Y022435D01*
X001270Y022425D02*
X001300Y022455D01*
X001321Y022492D01*
X001332Y022532D01*
X001332Y022812D01*
X000913Y022812D01*
X000913Y022393D01*
X001193Y022393D01*
X001234Y022404D01*
X001270Y022425D01*
X001332Y022554D02*
X001526Y022554D01*
X001453Y022672D02*
X001332Y022672D01*
X001332Y022791D02*
X001422Y022791D01*
X001422Y022909D02*
X001332Y022909D01*
X001332Y022889D02*
X001332Y023168D01*
X001321Y023209D01*
X001300Y023245D01*
X001270Y023275D01*
X001234Y023296D01*
X001193Y023307D01*
X000913Y023307D01*
X000913Y022889D01*
X000837Y022889D01*
X000837Y023307D01*
X000557Y023307D01*
X000516Y023296D01*
X000480Y023275D01*
X000450Y023245D01*
X000429Y023209D01*
X000418Y023168D01*
X000418Y022889D01*
X000837Y022889D01*
X000837Y022812D01*
X000913Y022812D01*
X000913Y022889D01*
X001332Y022889D01*
X001332Y023028D02*
X001453Y023028D01*
X001525Y023146D02*
X001332Y023146D01*
X001280Y023265D02*
X001682Y023265D01*
X001837Y023265D02*
X001913Y023265D01*
X001913Y023307D02*
X001913Y022889D01*
X002331Y022889D01*
X002321Y022957D01*
X002298Y023026D01*
X002266Y023090D01*
X002223Y023148D01*
X002173Y023199D01*
X002114Y023241D01*
X002050Y023274D01*
X001982Y023296D01*
X001913Y023307D01*
X002068Y023265D02*
X003836Y023265D01*
X003787Y023146D02*
X002225Y023146D01*
X002297Y023028D02*
X003780Y023028D01*
X003796Y022909D02*
X002328Y022909D01*
X002328Y022791D02*
X003053Y022791D01*
X002969Y022672D02*
X002297Y022672D01*
X002224Y022554D02*
X002950Y022554D01*
X002867Y022435D02*
X002067Y022435D01*
X001913Y022435D02*
X001837Y022435D01*
X001837Y022554D02*
X001913Y022554D01*
X001913Y022672D02*
X001837Y022672D01*
X001837Y022791D02*
X001913Y022791D01*
X001913Y022909D02*
X001837Y022909D01*
X001837Y023028D02*
X001913Y023028D01*
X001913Y023146D02*
X001837Y023146D01*
X002063Y023976D02*
X002423Y023976D01*
X002328Y024094D02*
X002158Y024094D01*
X002207Y024213D02*
X002279Y024213D01*
X002275Y024331D02*
X002211Y024331D01*
X002193Y024450D02*
X002293Y024450D01*
X002302Y024568D02*
X002342Y024568D01*
X002420Y024687D02*
X002457Y024687D01*
X002539Y024805D02*
X006203Y024805D01*
X006223Y024687D02*
X004040Y024687D01*
X004038Y024688D02*
X003976Y024733D01*
X003907Y024768D01*
X003834Y024792D01*
X003768Y024803D01*
X003768Y024363D01*
X004208Y024363D01*
X004197Y024429D01*
X004173Y024502D01*
X004138Y024571D01*
X004093Y024634D01*
X004038Y024688D01*
X004140Y024568D02*
X006108Y024568D01*
X006059Y024450D02*
X004190Y024450D01*
X004199Y024213D02*
X006045Y024213D01*
X006041Y024331D02*
X003768Y024331D01*
X003671Y024331D02*
X003195Y024331D01*
X003191Y024213D02*
X003239Y024213D01*
X003281Y024094D02*
X003142Y024094D01*
X003047Y023976D02*
X003365Y023976D01*
X003671Y023976D02*
X003768Y023976D01*
X003768Y024094D02*
X003671Y024094D01*
X003671Y024213D02*
X003768Y024213D01*
X003768Y024450D02*
X003671Y024450D01*
X003671Y024568D02*
X003768Y024568D01*
X003768Y024687D02*
X003671Y024687D01*
X003399Y024687D02*
X003013Y024687D01*
X003128Y024568D02*
X003299Y024568D01*
X003248Y024450D02*
X003177Y024450D01*
X002657Y024924D02*
X006084Y024924D01*
X005966Y025042D02*
X002776Y025042D01*
X002537Y025398D02*
X000395Y025398D01*
X000395Y025516D02*
X002656Y025516D01*
X002419Y025279D02*
X000395Y025279D01*
X000395Y025161D02*
X002300Y025161D01*
X002182Y025042D02*
X000395Y025042D01*
X000395Y024924D02*
X002063Y024924D01*
X001945Y024805D02*
X000395Y024805D01*
X000395Y024687D02*
X001473Y024687D01*
X001358Y024568D02*
X000395Y024568D01*
X000395Y024450D02*
X001309Y024450D01*
X001291Y024331D02*
X000395Y024331D01*
X000395Y024213D02*
X001295Y024213D01*
X001344Y024094D02*
X000395Y024094D01*
X000395Y023976D02*
X001439Y023976D01*
X000913Y023265D02*
X000837Y023265D01*
X000837Y023146D02*
X000913Y023146D01*
X000913Y023028D02*
X000837Y023028D01*
X000837Y022909D02*
X000913Y022909D01*
X000913Y022791D02*
X000837Y022791D01*
X000837Y022812D02*
X000837Y022393D01*
X000557Y022393D01*
X000516Y022404D01*
X000480Y022425D01*
X000450Y022455D01*
X000429Y022492D01*
X000418Y022532D01*
X000418Y022812D01*
X000837Y022812D01*
X000837Y022672D02*
X000913Y022672D01*
X000913Y022554D02*
X000837Y022554D01*
X000837Y022435D02*
X000913Y022435D01*
X000619Y022198D02*
X000395Y022198D01*
X000395Y022080D02*
X000508Y022080D01*
X000459Y021961D02*
X000395Y021961D01*
X000395Y021843D02*
X000448Y021843D01*
X000465Y021724D02*
X000395Y021724D01*
X000395Y021606D02*
X000516Y021606D01*
X000395Y021487D02*
X000636Y021487D01*
X000725Y021250D02*
X000395Y021250D01*
X000395Y021132D02*
X000553Y021132D01*
X000481Y021013D02*
X000395Y021013D01*
X000395Y020895D02*
X000448Y020895D01*
X000448Y020776D02*
X000395Y020776D01*
X000395Y020658D02*
X000493Y020658D01*
X000582Y020539D02*
X000395Y020539D01*
X000395Y020421D02*
X003583Y020421D01*
X003701Y020302D02*
X000395Y020302D01*
X000395Y020184D02*
X000605Y020184D01*
X000502Y020065D02*
X000395Y020065D01*
X000395Y019947D02*
X000453Y019947D01*
X000448Y019828D02*
X000395Y019828D01*
X000395Y019710D02*
X000471Y019710D01*
X000530Y019591D02*
X000395Y019591D01*
X000395Y019473D02*
X000671Y019473D01*
X002079Y019473D02*
X003834Y019473D01*
X003785Y019591D02*
X002220Y019591D01*
X002279Y019710D02*
X003780Y019710D01*
X003799Y019828D02*
X002302Y019828D01*
X002297Y019947D02*
X003848Y019947D01*
X003965Y020065D02*
X002248Y020065D01*
X002145Y020184D02*
X003970Y020184D01*
X004052Y020150D02*
X004418Y020150D01*
X004756Y020290D01*
X005015Y020549D01*
X005156Y020887D01*
X005156Y021253D01*
X005015Y021592D01*
X004756Y021851D01*
X004418Y021991D01*
X004052Y021991D01*
X003714Y021851D01*
X003455Y021592D01*
X003314Y021253D01*
X003314Y020887D01*
X003455Y020549D01*
X003714Y020290D01*
X004052Y020150D01*
X004500Y020184D02*
X007720Y020184D01*
X007802Y020150D02*
X008168Y020150D01*
X008506Y020290D01*
X008765Y020549D01*
X008906Y020887D01*
X008906Y021253D01*
X008765Y021592D01*
X008506Y021851D01*
X008168Y021991D01*
X007802Y021991D01*
X007464Y021851D01*
X007205Y021592D01*
X007064Y021253D01*
X007064Y020887D01*
X007205Y020549D01*
X007464Y020290D01*
X007802Y020150D01*
X007895Y020147D02*
X007727Y020078D01*
X007599Y019950D01*
X007530Y019783D01*
X007530Y019602D01*
X007599Y019435D01*
X007727Y019307D01*
X007895Y019237D01*
X008075Y019237D01*
X008243Y019307D01*
X008371Y019435D01*
X008440Y019602D01*
X008440Y019783D01*
X008371Y019950D01*
X008243Y020078D01*
X008075Y020147D01*
X007895Y020147D01*
X007715Y020065D02*
X004505Y020065D01*
X004622Y019947D02*
X007598Y019947D01*
X007549Y019828D02*
X004671Y019828D01*
X004690Y019710D02*
X007530Y019710D01*
X007535Y019591D02*
X004685Y019591D01*
X004636Y019473D02*
X007584Y019473D01*
X007680Y019354D02*
X004540Y019354D01*
X004549Y019117D02*
X002212Y019117D01*
X002275Y018999D02*
X004430Y018999D01*
X004660Y018762D02*
X007310Y018762D01*
X007192Y018880D02*
X004778Y018880D01*
X004684Y018406D02*
X006671Y018406D01*
X006577Y018288D02*
X004635Y018288D01*
X004536Y018169D02*
X006528Y018169D01*
X007421Y019117D02*
X008549Y019117D01*
X008290Y019354D02*
X011430Y019354D01*
X011477Y019307D02*
X011349Y019435D01*
X011280Y019602D01*
X011280Y019783D01*
X011349Y019950D01*
X011477Y020078D01*
X011645Y020147D01*
X011825Y020147D01*
X011993Y020078D01*
X012121Y019950D01*
X012190Y019783D01*
X012190Y019602D01*
X012121Y019435D01*
X011993Y019307D01*
X011825Y019237D01*
X011645Y019237D01*
X011477Y019307D01*
X011421Y019117D02*
X012049Y019117D01*
X011930Y018999D02*
X011540Y018999D01*
X011310Y018762D02*
X009757Y018762D01*
X009810Y018643D02*
X011297Y018643D01*
X011280Y018525D02*
X011090Y018525D01*
X010880Y018525D02*
X009813Y018525D01*
X009918Y018406D02*
X010671Y018406D01*
X010577Y018288D02*
X010036Y018288D01*
X010155Y018169D02*
X010528Y018169D01*
X010525Y018051D02*
X010273Y018051D01*
X010392Y017932D02*
X010544Y017932D01*
X010510Y017814D02*
X010593Y017814D01*
X010629Y017695D02*
X010709Y017695D01*
X010747Y017577D02*
X011495Y017577D01*
X011377Y017695D02*
X011261Y017695D01*
X010984Y017340D02*
X015953Y017340D01*
X015973Y017360D02*
X015745Y017132D01*
X015745Y016809D01*
X015973Y016580D01*
X016297Y016580D01*
X016525Y016809D01*
X016525Y017132D01*
X016297Y017360D01*
X015973Y017360D01*
X015835Y017221D02*
X011103Y017221D01*
X011221Y017103D02*
X015745Y017103D01*
X015745Y016984D02*
X011340Y016984D01*
X011458Y016866D02*
X015745Y016866D01*
X015806Y016747D02*
X011577Y016747D01*
X011695Y016629D02*
X015925Y016629D01*
X016073Y016360D02*
X015845Y016132D01*
X015845Y015809D01*
X016073Y015580D01*
X016397Y015580D01*
X016625Y015809D01*
X016625Y016132D01*
X016397Y016360D01*
X016073Y016360D01*
X015987Y016273D02*
X012051Y016273D01*
X012169Y016155D02*
X015868Y016155D01*
X015845Y016036D02*
X012288Y016036D01*
X012406Y015918D02*
X015845Y015918D01*
X015854Y015799D02*
X012525Y015799D01*
X012643Y015681D02*
X015973Y015681D01*
X016497Y015681D02*
X017112Y015681D01*
X017231Y015799D02*
X016616Y015799D01*
X016625Y015918D02*
X017349Y015918D01*
X017468Y016036D02*
X016625Y016036D01*
X016602Y016155D02*
X017576Y016155D01*
X017781Y016273D02*
X016483Y016273D01*
X016345Y016629D02*
X017505Y016629D01*
X017456Y016747D02*
X016464Y016747D01*
X016525Y016866D02*
X017448Y016866D01*
X017469Y016984D02*
X016525Y016984D01*
X016525Y017103D02*
X017469Y017103D01*
X017351Y017221D02*
X016435Y017221D01*
X016317Y017340D02*
X017232Y017340D01*
X017114Y017458D02*
X014356Y017458D01*
X014475Y017577D02*
X016995Y017577D01*
X016877Y017695D02*
X015061Y017695D01*
X015177Y017814D02*
X016758Y017814D01*
X016640Y017932D02*
X015226Y017932D01*
X015245Y018051D02*
X016570Y018051D01*
X016570Y018169D02*
X015786Y018169D01*
X015885Y018288D02*
X016570Y018288D01*
X016570Y018406D02*
X015934Y018406D01*
X015940Y018525D02*
X016570Y018525D01*
X016570Y018643D02*
X016360Y018643D01*
X016478Y018762D02*
X016570Y018762D01*
X016570Y018880D02*
X016525Y018880D01*
X016525Y018999D02*
X016570Y018999D01*
X016570Y019117D02*
X016525Y019117D01*
X016570Y019236D02*
X016421Y019236D01*
X016302Y019354D02*
X016570Y019354D01*
X016570Y019473D02*
X015886Y019473D01*
X015871Y019435D02*
X015940Y019602D01*
X015940Y019783D01*
X015871Y019950D01*
X015743Y020078D01*
X015575Y020147D01*
X015395Y020147D01*
X015227Y020078D01*
X015099Y019950D01*
X015030Y019783D01*
X015030Y019602D01*
X015099Y019435D01*
X015227Y019307D01*
X015395Y019237D01*
X015575Y019237D01*
X015743Y019307D01*
X015871Y019435D01*
X015790Y019354D02*
X015968Y019354D01*
X015849Y019236D02*
X002060Y019236D01*
X002160Y018169D02*
X002778Y018169D01*
X002775Y018051D02*
X002254Y018051D01*
X002302Y017932D02*
X002794Y017932D01*
X002843Y017814D02*
X002302Y017814D01*
X002273Y017695D02*
X002959Y017695D01*
X003495Y017577D02*
X002205Y017577D01*
X002044Y017458D02*
X003614Y017458D01*
X002260Y016036D02*
X011750Y016036D01*
X011869Y015918D02*
X002302Y015918D01*
X002302Y015799D02*
X011987Y015799D01*
X012106Y015681D02*
X002267Y015681D01*
X002191Y015562D02*
X012224Y015562D01*
X012343Y015444D02*
X012013Y015444D01*
X011947Y015510D02*
X012175Y015282D01*
X012175Y014959D01*
X011947Y014730D01*
X011623Y014730D01*
X011395Y014959D01*
X011395Y015282D01*
X011623Y015510D01*
X011947Y015510D01*
X012131Y015325D02*
X012461Y015325D01*
X012580Y015207D02*
X012175Y015207D01*
X012175Y015088D02*
X012698Y015088D01*
X012817Y014970D02*
X012175Y014970D01*
X012068Y014851D02*
X012935Y014851D01*
X013045Y014733D02*
X011949Y014733D01*
X011873Y014460D02*
X011645Y014232D01*
X011645Y013909D01*
X011873Y013680D01*
X012197Y013680D01*
X012425Y013909D01*
X012425Y014232D01*
X012197Y014460D01*
X011873Y014460D01*
X011791Y014377D02*
X011328Y014377D01*
X011375Y014331D02*
X011246Y014460D01*
X011077Y014530D01*
X010894Y014530D01*
X010724Y014460D01*
X010595Y014331D01*
X010525Y014162D01*
X010525Y013979D01*
X010595Y013810D01*
X010724Y013680D01*
X010894Y013610D01*
X011077Y013610D01*
X011246Y013680D01*
X011375Y013810D01*
X011445Y013979D01*
X011445Y014162D01*
X011375Y014331D01*
X011405Y014259D02*
X011672Y014259D01*
X011645Y014140D02*
X011445Y014140D01*
X011445Y014022D02*
X011645Y014022D01*
X011650Y013903D02*
X011414Y013903D01*
X011350Y013785D02*
X011769Y013785D01*
X011825Y013494D02*
X011645Y013494D01*
X011477Y013424D01*
X011349Y013296D01*
X011280Y013129D01*
X011280Y012948D01*
X011349Y012781D01*
X011477Y012653D01*
X011645Y012584D01*
X011825Y012584D01*
X011993Y012653D01*
X012121Y012781D01*
X012190Y012948D01*
X012190Y013129D01*
X012121Y013296D01*
X011993Y013424D01*
X011825Y013494D01*
X011981Y013429D02*
X013045Y013429D01*
X013045Y013311D02*
X012106Y013311D01*
X012164Y013192D02*
X013045Y013192D01*
X013045Y013074D02*
X012190Y013074D01*
X012190Y012955D02*
X013045Y012955D01*
X013045Y012837D02*
X012144Y012837D01*
X012058Y012718D02*
X013068Y012718D01*
X013187Y012600D02*
X011864Y012600D01*
X011606Y012600D02*
X008114Y012600D01*
X008075Y012584D02*
X008243Y012653D01*
X008371Y012781D01*
X008440Y012948D01*
X008440Y013129D01*
X008371Y013296D01*
X008243Y013424D01*
X008075Y013494D01*
X007895Y013494D01*
X007727Y013424D01*
X007599Y013296D01*
X007530Y013129D01*
X007530Y012948D01*
X007599Y012781D01*
X007727Y012653D01*
X007895Y012584D01*
X008075Y012584D01*
X007856Y012600D02*
X004364Y012600D01*
X004325Y012584D02*
X004493Y012653D01*
X004621Y012781D01*
X004690Y012948D01*
X004690Y013129D01*
X004621Y013296D01*
X004493Y013424D01*
X004325Y013494D01*
X004145Y013494D01*
X003977Y013424D01*
X003849Y013296D01*
X003780Y013129D01*
X003780Y012948D01*
X003849Y012781D01*
X003977Y012653D01*
X004145Y012584D01*
X004325Y012584D01*
X004106Y012600D02*
X002228Y012600D01*
X002237Y012608D02*
X002302Y012765D01*
X002302Y012935D01*
X002237Y013092D01*
X002117Y013212D01*
X001960Y013277D01*
X001790Y013277D01*
X001633Y013212D01*
X001513Y013092D01*
X001448Y012935D01*
X001448Y012765D01*
X001513Y012608D01*
X001633Y012488D01*
X001790Y012423D01*
X001960Y012423D01*
X002117Y012488D01*
X002237Y012608D01*
X002282Y012718D02*
X003912Y012718D01*
X003826Y012837D02*
X002302Y012837D01*
X002294Y012955D02*
X003780Y012955D01*
X003780Y013074D02*
X002244Y013074D01*
X002137Y013192D02*
X003806Y013192D01*
X003864Y013311D02*
X000395Y013311D01*
X000395Y013429D02*
X000776Y013429D01*
X000790Y013423D02*
X000960Y013423D01*
X001117Y013488D01*
X001237Y013608D01*
X001302Y013765D01*
X001302Y013935D01*
X001237Y014092D01*
X001117Y014212D01*
X000960Y014277D01*
X000790Y014277D01*
X000633Y014212D01*
X000513Y014092D01*
X000448Y013935D01*
X000448Y013765D01*
X000513Y013608D01*
X000633Y013488D01*
X000790Y013423D01*
X000790Y013277D02*
X000633Y013212D01*
X000513Y013092D01*
X000448Y012935D01*
X000448Y012765D01*
X000513Y012608D01*
X000633Y012488D01*
X000790Y012423D01*
X000960Y012423D01*
X001117Y012488D01*
X001237Y012608D01*
X001302Y012765D01*
X001302Y012935D01*
X001237Y013092D01*
X001117Y013212D01*
X000960Y013277D01*
X000790Y013277D01*
X000613Y013192D02*
X000395Y013192D01*
X000395Y013074D02*
X000506Y013074D01*
X000456Y012955D02*
X000395Y012955D01*
X000395Y012837D02*
X000448Y012837D01*
X000468Y012718D02*
X000395Y012718D01*
X000395Y012600D02*
X000522Y012600D01*
X000395Y012481D02*
X000650Y012481D01*
X000711Y012244D02*
X000395Y012244D01*
X000395Y012126D02*
X000547Y012126D01*
X000513Y012092D02*
X000448Y011935D01*
X000448Y011765D01*
X000513Y011608D01*
X000633Y011488D01*
X000790Y011423D01*
X000960Y011423D01*
X001117Y011488D01*
X001237Y011608D01*
X001302Y011765D01*
X001302Y011935D01*
X001237Y012092D01*
X001117Y012212D01*
X000960Y012277D01*
X000790Y012277D01*
X000633Y012212D01*
X000513Y012092D01*
X000478Y012007D02*
X000395Y012007D01*
X000395Y011889D02*
X000448Y011889D01*
X000448Y011770D02*
X000395Y011770D01*
X000395Y011652D02*
X000495Y011652D01*
X000588Y011533D02*
X000395Y011533D01*
X000395Y011415D02*
X003381Y011415D01*
X003430Y011533D02*
X002162Y011533D01*
X002117Y011488D02*
X001960Y011423D01*
X001790Y011423D01*
X001633Y011488D01*
X001513Y011608D01*
X001448Y011765D01*
X001448Y011935D01*
X001513Y012092D01*
X001633Y012212D01*
X001790Y012277D01*
X001960Y012277D01*
X002117Y012212D01*
X002237Y012092D01*
X002302Y011935D01*
X002302Y011765D01*
X002237Y011608D01*
X002117Y011488D01*
X002255Y011652D02*
X003515Y011652D01*
X003455Y011592D02*
X003314Y011253D01*
X003314Y010887D01*
X003455Y010549D01*
X003714Y010290D01*
X004052Y010150D01*
X004418Y010150D01*
X004756Y010290D01*
X005015Y010549D01*
X005156Y010887D01*
X005156Y011253D01*
X005015Y011592D01*
X004756Y011851D01*
X004418Y011991D01*
X004052Y011991D01*
X003714Y011851D01*
X003455Y011592D01*
X003633Y011770D02*
X002302Y011770D01*
X002302Y011889D02*
X003806Y011889D01*
X003332Y011296D02*
X000395Y011296D01*
X000395Y011178D02*
X000599Y011178D01*
X000633Y011212D02*
X000513Y011092D01*
X000448Y010935D01*
X000448Y010765D01*
X000513Y010608D01*
X000633Y010488D01*
X000790Y010423D01*
X000960Y010423D01*
X001117Y010488D01*
X001237Y010608D01*
X001302Y010765D01*
X001302Y010935D01*
X001237Y011092D01*
X001117Y011212D01*
X000960Y011277D01*
X000790Y011277D01*
X000633Y011212D01*
X000500Y011059D02*
X000395Y011059D01*
X000395Y010941D02*
X000450Y010941D01*
X000448Y010822D02*
X000395Y010822D01*
X000395Y010704D02*
X000474Y010704D01*
X000536Y010585D02*
X000395Y010585D01*
X000395Y010467D02*
X000685Y010467D01*
X000790Y010277D02*
X000633Y010212D01*
X000513Y010092D01*
X000448Y009935D01*
X000448Y009765D01*
X000513Y009608D01*
X000633Y009488D01*
X000790Y009423D01*
X000960Y009423D01*
X001117Y009488D01*
X001237Y009608D01*
X001302Y009765D01*
X001302Y009935D01*
X001237Y010092D01*
X001117Y010212D01*
X000960Y010277D01*
X000790Y010277D01*
X000676Y010230D02*
X000395Y010230D01*
X000395Y010348D02*
X003655Y010348D01*
X003537Y010467D02*
X002065Y010467D01*
X002117Y010488D02*
X002237Y010608D01*
X002302Y010765D01*
X002302Y010935D01*
X002237Y011092D01*
X002117Y011212D01*
X001960Y011277D01*
X001790Y011277D01*
X001633Y011212D01*
X001513Y011092D01*
X001448Y010935D01*
X001448Y010765D01*
X001513Y010608D01*
X001633Y010488D01*
X001790Y010423D01*
X001960Y010423D01*
X002117Y010488D01*
X002214Y010585D02*
X003439Y010585D01*
X003390Y010704D02*
X002276Y010704D01*
X002302Y010822D02*
X003341Y010822D01*
X003314Y010941D02*
X002300Y010941D01*
X002250Y011059D02*
X003314Y011059D01*
X003314Y011178D02*
X002151Y011178D01*
X001599Y011178D02*
X001151Y011178D01*
X001250Y011059D02*
X001500Y011059D01*
X001450Y010941D02*
X001300Y010941D01*
X001302Y010822D02*
X001448Y010822D01*
X001474Y010704D02*
X001276Y010704D01*
X001214Y010585D02*
X001536Y010585D01*
X001685Y010467D02*
X001065Y010467D01*
X001074Y010230D02*
X001676Y010230D01*
X001633Y010212D02*
X001513Y010092D01*
X001448Y009935D01*
X001448Y009765D01*
X001513Y009608D01*
X001633Y009488D01*
X001790Y009423D01*
X001960Y009423D01*
X002117Y009488D01*
X002237Y009608D01*
X002302Y009765D01*
X002302Y009935D01*
X002237Y010092D01*
X002117Y010212D01*
X001960Y010277D01*
X001790Y010277D01*
X001633Y010212D01*
X001532Y010111D02*
X001218Y010111D01*
X001278Y009993D02*
X001472Y009993D01*
X001448Y009874D02*
X001302Y009874D01*
X001298Y009756D02*
X001452Y009756D01*
X001501Y009637D02*
X001249Y009637D01*
X001147Y009519D02*
X001603Y009519D01*
X001790Y009277D02*
X001633Y009212D01*
X001513Y009092D01*
X001448Y008935D01*
X001448Y008765D01*
X001513Y008608D01*
X001633Y008488D01*
X001790Y008423D01*
X001960Y008423D01*
X002117Y008488D01*
X002237Y008608D01*
X002302Y008765D01*
X002302Y008935D01*
X002237Y009092D01*
X002117Y009212D01*
X001960Y009277D01*
X001790Y009277D01*
X001584Y009163D02*
X001166Y009163D01*
X001117Y009212D02*
X000960Y009277D01*
X000790Y009277D01*
X000633Y009212D01*
X000513Y009092D01*
X000448Y008935D01*
X000448Y008765D01*
X000513Y008608D01*
X000633Y008488D01*
X000790Y008423D01*
X000960Y008423D01*
X001117Y008488D01*
X001237Y008608D01*
X001302Y008765D01*
X001302Y008935D01*
X001237Y009092D01*
X001117Y009212D01*
X001256Y009045D02*
X001494Y009045D01*
X001448Y008926D02*
X001302Y008926D01*
X001302Y008808D02*
X001448Y008808D01*
X001480Y008689D02*
X001270Y008689D01*
X001199Y008571D02*
X001551Y008571D01*
X001720Y008452D02*
X001030Y008452D01*
X000960Y008277D02*
X000790Y008277D01*
X000633Y008212D01*
X000513Y008092D01*
X000448Y007935D01*
X000448Y007765D01*
X000513Y007608D01*
X000633Y007488D01*
X000790Y007423D01*
X000960Y007423D01*
X001117Y007488D01*
X001237Y007608D01*
X001302Y007765D01*
X001302Y007935D01*
X001237Y008092D01*
X001117Y008212D01*
X000960Y008277D01*
X001109Y008215D02*
X001641Y008215D01*
X001633Y008212D02*
X001513Y008092D01*
X001448Y007935D01*
X001448Y007765D01*
X001513Y007608D01*
X001633Y007488D01*
X001790Y007423D01*
X001960Y007423D01*
X002117Y007488D01*
X002237Y007608D01*
X002302Y007765D01*
X002302Y007935D01*
X002237Y008092D01*
X002117Y008212D01*
X001960Y008277D01*
X001790Y008277D01*
X001633Y008212D01*
X001518Y008097D02*
X001232Y008097D01*
X001284Y007978D02*
X001466Y007978D01*
X001448Y007860D02*
X001302Y007860D01*
X001292Y007741D02*
X001458Y007741D01*
X001507Y007623D02*
X001243Y007623D01*
X001133Y007504D02*
X001617Y007504D01*
X001766Y007267D02*
X000984Y007267D01*
X000960Y007277D02*
X000790Y007277D01*
X000633Y007212D01*
X000513Y007092D01*
X000448Y006935D01*
X000448Y006765D01*
X000513Y006608D01*
X000633Y006488D01*
X000790Y006423D01*
X000960Y006423D01*
X001117Y006488D01*
X001237Y006608D01*
X001302Y006765D01*
X001302Y006935D01*
X001237Y007092D01*
X001117Y007212D01*
X000960Y007277D01*
X000766Y007267D02*
X000395Y007267D01*
X000395Y007149D02*
X000570Y007149D01*
X000488Y007030D02*
X000395Y007030D01*
X000395Y006912D02*
X000448Y006912D01*
X000448Y006793D02*
X000395Y006793D01*
X000395Y006675D02*
X000486Y006675D01*
X000565Y006556D02*
X000395Y006556D01*
X000395Y006438D02*
X000755Y006438D01*
X000790Y006277D02*
X000633Y006212D01*
X000513Y006092D01*
X000448Y005935D01*
X000448Y005765D01*
X000513Y005608D01*
X000395Y005608D01*
X000513Y005608D02*
X000633Y005488D01*
X000790Y005423D01*
X000960Y005423D01*
X001117Y005488D01*
X001237Y005608D01*
X001513Y005608D01*
X001633Y005488D01*
X001790Y005423D01*
X001960Y005423D01*
X002117Y005488D01*
X002237Y005608D01*
X002975Y005608D01*
X002975Y005490D02*
X002118Y005490D01*
X002237Y005608D02*
X002302Y005765D01*
X002302Y005935D01*
X002237Y006092D01*
X002117Y006212D01*
X001960Y006277D01*
X001790Y006277D01*
X001633Y006212D01*
X001513Y006092D01*
X001448Y005935D01*
X001448Y005765D01*
X001513Y005608D01*
X001464Y005727D02*
X001286Y005727D01*
X001302Y005765D02*
X001237Y005608D01*
X001118Y005490D02*
X001632Y005490D01*
X001731Y005253D02*
X001019Y005253D01*
X000960Y005277D02*
X000790Y005277D01*
X000633Y005212D01*
X000513Y005092D01*
X000448Y004935D01*
X000448Y004765D01*
X000513Y004608D01*
X000633Y004488D01*
X000790Y004423D01*
X000960Y004423D01*
X001117Y004488D01*
X001237Y004608D01*
X001302Y004765D01*
X001302Y004935D01*
X001237Y005092D01*
X001117Y005212D01*
X000960Y005277D01*
X000731Y005253D02*
X000395Y005253D01*
X000395Y005371D02*
X002975Y005371D01*
X002975Y005253D02*
X002019Y005253D01*
X001960Y005277D02*
X002117Y005212D01*
X002237Y005092D01*
X002302Y004935D01*
X002302Y004765D01*
X002237Y004608D01*
X002117Y004488D01*
X001960Y004423D01*
X001790Y004423D01*
X001633Y004488D01*
X001513Y004608D01*
X001448Y004765D01*
X001448Y004935D01*
X001513Y005092D01*
X001633Y005212D01*
X001790Y005277D01*
X001960Y005277D01*
X001555Y005134D02*
X001195Y005134D01*
X001268Y005016D02*
X001482Y005016D01*
X001448Y004897D02*
X001302Y004897D01*
X001302Y004779D02*
X001448Y004779D01*
X001492Y004660D02*
X001258Y004660D01*
X001170Y004542D02*
X001580Y004542D01*
X001633Y004212D02*
X001513Y004092D01*
X001448Y003935D01*
X001448Y003765D01*
X001513Y003608D01*
X001633Y003488D01*
X001790Y003423D01*
X001960Y003423D01*
X002117Y003488D01*
X002237Y003608D01*
X002302Y003765D01*
X002302Y003935D01*
X002237Y004092D01*
X002117Y004212D01*
X001960Y004277D01*
X001790Y004277D01*
X001633Y004212D01*
X001607Y004186D02*
X001143Y004186D01*
X001117Y004212D02*
X000960Y004277D01*
X000790Y004277D01*
X000633Y004212D01*
X000513Y004092D01*
X000448Y003935D01*
X000448Y003765D01*
X000513Y003608D01*
X000633Y003488D01*
X000790Y003423D01*
X000960Y003423D01*
X001117Y003488D01*
X001237Y003608D01*
X001302Y003765D01*
X001302Y003935D01*
X001237Y004092D01*
X001117Y004212D01*
X001247Y004068D02*
X001503Y004068D01*
X001454Y003949D02*
X001296Y003949D01*
X001302Y003831D02*
X001448Y003831D01*
X001470Y003712D02*
X001280Y003712D01*
X001222Y003594D02*
X001528Y003594D01*
X001665Y003475D02*
X001085Y003475D01*
X000960Y003277D02*
X000790Y003277D01*
X000633Y003212D01*
X000513Y003092D01*
X000448Y002935D01*
X000448Y002765D01*
X000513Y002608D01*
X000633Y002488D01*
X000790Y002423D01*
X000960Y002423D01*
X001117Y002488D01*
X001237Y002608D01*
X001302Y002765D01*
X001302Y002935D01*
X001237Y003092D01*
X001117Y003212D01*
X000960Y003277D01*
X001054Y003238D02*
X001696Y003238D01*
X001633Y003212D02*
X001513Y003092D01*
X001448Y002935D01*
X001448Y002765D01*
X001513Y002608D01*
X001633Y002488D01*
X001790Y002423D01*
X001960Y002423D01*
X002117Y002488D01*
X002237Y002608D01*
X002302Y002765D01*
X002302Y002935D01*
X002237Y003092D01*
X002117Y003212D01*
X001960Y003277D01*
X001790Y003277D01*
X001633Y003212D01*
X001541Y003120D02*
X001209Y003120D01*
X001274Y003001D02*
X001476Y003001D01*
X001448Y002883D02*
X001302Y002883D01*
X001301Y002764D02*
X001449Y002764D01*
X001498Y002646D02*
X001252Y002646D01*
X001156Y002527D02*
X001594Y002527D01*
X001700Y002274D02*
X001636Y002241D01*
X001577Y002199D01*
X001527Y002148D01*
X001484Y002090D01*
X001452Y002026D01*
X001429Y001957D01*
X001419Y001889D01*
X001837Y001889D01*
X001837Y002307D01*
X001768Y002296D01*
X001700Y002274D01*
X001751Y002290D02*
X000999Y002290D01*
X000982Y002296D02*
X000913Y002307D01*
X000913Y001889D01*
X000837Y001889D01*
X000837Y002307D01*
X000768Y002296D01*
X000700Y002274D01*
X000636Y002241D01*
X000577Y002199D01*
X000527Y002148D01*
X000484Y002090D01*
X000452Y002026D01*
X000429Y001957D01*
X000419Y001889D01*
X000837Y001889D01*
X000837Y001812D01*
X000913Y001812D01*
X000913Y001394D01*
X000982Y001405D01*
X001050Y001427D01*
X001114Y001459D01*
X001173Y001502D01*
X001223Y001553D01*
X001266Y001611D01*
X001298Y001675D01*
X001321Y001743D01*
X001331Y001812D01*
X000913Y001812D01*
X000913Y001889D01*
X001331Y001889D01*
X001321Y001957D01*
X001298Y002026D01*
X001266Y002090D01*
X001223Y002148D01*
X001173Y002199D01*
X001114Y002241D01*
X001050Y002274D01*
X000982Y002296D01*
X000913Y002290D02*
X000837Y002290D01*
X000751Y002290D02*
X000395Y002290D01*
X000395Y002172D02*
X000550Y002172D01*
X000466Y002053D02*
X000395Y002053D01*
X000395Y001935D02*
X000426Y001935D01*
X000395Y001816D02*
X000837Y001816D01*
X000837Y001812D02*
X000419Y001812D01*
X000429Y001743D01*
X000452Y001675D01*
X000484Y001611D01*
X000527Y001553D01*
X000577Y001502D01*
X000636Y001459D01*
X000700Y001427D01*
X000768Y001405D01*
X000837Y001394D01*
X000837Y001812D01*
X000913Y001816D02*
X001837Y001816D01*
X001837Y001812D02*
X001419Y001812D01*
X001429Y001743D01*
X001452Y001675D01*
X001484Y001611D01*
X001527Y001553D01*
X001577Y001502D01*
X001636Y001459D01*
X001700Y001427D01*
X001768Y001405D01*
X001837Y001394D01*
X001837Y001812D01*
X001913Y001812D01*
X001913Y001394D01*
X001982Y001405D01*
X002050Y001427D01*
X002114Y001459D01*
X002173Y001502D01*
X002223Y001553D01*
X002266Y001611D01*
X002298Y001675D01*
X002321Y001743D01*
X002331Y001812D01*
X001913Y001812D01*
X001913Y001889D01*
X001837Y001889D01*
X001837Y001812D01*
X001913Y001816D02*
X002975Y001816D01*
X002975Y001698D02*
X002306Y001698D01*
X002243Y001579D02*
X002975Y001579D01*
X002975Y001461D02*
X002116Y001461D01*
X002050Y001274D02*
X001982Y001296D01*
X001913Y001307D01*
X001913Y000889D01*
X002331Y000889D01*
X002321Y000957D01*
X002298Y001026D01*
X002266Y001090D01*
X002223Y001148D01*
X002173Y001199D01*
X002114Y001241D01*
X002050Y001274D01*
X002138Y001224D02*
X002891Y001224D01*
X002975Y001342D02*
X000395Y001342D01*
X000395Y001224D02*
X000612Y001224D01*
X000496Y001105D02*
X000395Y001105D01*
X000395Y000987D02*
X000439Y000987D01*
X000395Y000868D02*
X000837Y000868D01*
X000913Y000868D02*
X001837Y000868D01*
X001913Y000868D02*
X002535Y000868D01*
X002417Y000750D02*
X002322Y000750D01*
X002298Y000631D02*
X002276Y000631D01*
X002311Y000987D02*
X002654Y000987D01*
X002772Y001105D02*
X002254Y001105D01*
X001913Y001105D02*
X001837Y001105D01*
X001837Y000987D02*
X001913Y000987D01*
X001913Y001224D02*
X001837Y001224D01*
X001612Y001224D02*
X001138Y001224D01*
X001114Y001241D02*
X001050Y001274D01*
X000982Y001296D01*
X000913Y001307D01*
X000913Y000889D01*
X001331Y000889D01*
X001321Y000957D01*
X001298Y001026D01*
X001266Y001090D01*
X001223Y001148D01*
X001173Y001199D01*
X001114Y001241D01*
X001254Y001105D02*
X001496Y001105D01*
X001439Y000987D02*
X001311Y000987D01*
X001322Y000750D02*
X001428Y000750D01*
X001474Y000631D02*
X001276Y000631D01*
X001184Y000513D02*
X001566Y000513D01*
X000913Y000987D02*
X000837Y000987D01*
X000837Y001105D02*
X000913Y001105D01*
X000913Y001224D02*
X000837Y001224D01*
X000837Y001461D02*
X000913Y001461D01*
X000913Y001579D02*
X000837Y001579D01*
X000837Y001698D02*
X000913Y001698D01*
X000913Y001935D02*
X000837Y001935D01*
X000837Y002053D02*
X000913Y002053D01*
X000913Y002172D02*
X000837Y002172D01*
X000594Y002527D02*
X000395Y002527D01*
X000395Y002409D02*
X002975Y002409D01*
X002975Y002527D02*
X002156Y002527D01*
X002252Y002646D02*
X002975Y002646D01*
X002975Y002764D02*
X002301Y002764D01*
X002302Y002883D02*
X002975Y002883D01*
X002975Y003001D02*
X002274Y003001D01*
X002209Y003120D02*
X002975Y003120D01*
X002975Y003238D02*
X002054Y003238D01*
X002085Y003475D02*
X002975Y003475D01*
X002975Y003357D02*
X000395Y003357D01*
X000395Y003475D02*
X000665Y003475D01*
X000528Y003594D02*
X000395Y003594D01*
X000395Y003712D02*
X000470Y003712D01*
X000448Y003831D02*
X000395Y003831D01*
X000395Y003949D02*
X000454Y003949D01*
X000503Y004068D02*
X000395Y004068D01*
X000395Y004186D02*
X000607Y004186D01*
X000395Y004305D02*
X002975Y004305D01*
X002975Y004423D02*
X000395Y004423D01*
X000395Y004542D02*
X000580Y004542D01*
X000492Y004660D02*
X000395Y004660D01*
X000395Y004779D02*
X000448Y004779D01*
X000448Y004897D02*
X000395Y004897D01*
X000395Y005016D02*
X000482Y005016D01*
X000555Y005134D02*
X000395Y005134D01*
X000395Y005490D02*
X000632Y005490D01*
X000464Y005727D02*
X000395Y005727D01*
X000395Y005845D02*
X000448Y005845D01*
X000460Y005964D02*
X000395Y005964D01*
X000395Y006082D02*
X000509Y006082D01*
X000395Y006201D02*
X000622Y006201D01*
X000790Y006277D02*
X000960Y006277D01*
X001117Y006212D01*
X001237Y006092D01*
X001302Y005935D01*
X001302Y005765D01*
X001302Y005845D02*
X001448Y005845D01*
X001460Y005964D02*
X001290Y005964D01*
X001241Y006082D02*
X001509Y006082D01*
X001622Y006201D02*
X001128Y006201D01*
X000995Y006438D02*
X001755Y006438D01*
X001790Y006423D02*
X001960Y006423D01*
X002117Y006488D01*
X002237Y006608D01*
X002302Y006765D01*
X002302Y006935D01*
X002237Y007092D01*
X002117Y007212D01*
X001960Y007277D01*
X001790Y007277D01*
X001633Y007212D01*
X001513Y007092D01*
X001448Y006935D01*
X001448Y006765D01*
X001513Y006608D01*
X001633Y006488D01*
X001790Y006423D01*
X001995Y006438D02*
X008755Y006438D01*
X008790Y006423D02*
X008960Y006423D01*
X009117Y006488D01*
X009237Y006608D01*
X009302Y006765D01*
X009302Y006935D01*
X009237Y007092D01*
X009117Y007212D01*
X008960Y007277D01*
X008790Y007277D01*
X008633Y007212D01*
X008513Y007092D01*
X008448Y006935D01*
X008448Y006765D01*
X008513Y006608D01*
X008633Y006488D01*
X008790Y006423D01*
X008995Y006438D02*
X009755Y006438D01*
X009790Y006423D02*
X009633Y006488D01*
X009513Y006608D01*
X009448Y006765D01*
X009448Y006935D01*
X009513Y007092D01*
X009633Y007212D01*
X009790Y007277D01*
X009960Y007277D01*
X010117Y007212D01*
X010237Y007092D01*
X010302Y006935D01*
X010302Y006765D01*
X010237Y006608D01*
X010117Y006488D01*
X009960Y006423D01*
X009790Y006423D01*
X009995Y006438D02*
X010755Y006438D01*
X010790Y006423D02*
X010960Y006423D01*
X011117Y006488D01*
X011237Y006608D01*
X011302Y006765D01*
X011302Y006935D01*
X011237Y007092D01*
X011117Y007212D01*
X010960Y007277D01*
X010790Y007277D01*
X010633Y007212D01*
X010513Y007092D01*
X010448Y006935D01*
X010448Y006765D01*
X010513Y006608D01*
X010633Y006488D01*
X010790Y006423D01*
X010995Y006438D02*
X011755Y006438D01*
X011790Y006423D02*
X011633Y006488D01*
X011513Y006608D01*
X011448Y006765D01*
X011448Y006935D01*
X011513Y007092D01*
X011633Y007212D01*
X011790Y007277D01*
X011960Y007277D01*
X012117Y007212D01*
X012237Y007092D01*
X012302Y006935D01*
X012302Y006765D01*
X012237Y006608D01*
X012117Y006488D01*
X011960Y006423D01*
X011790Y006423D01*
X011995Y006438D02*
X012695Y006438D01*
X012695Y006463D02*
X012695Y006356D01*
X012800Y006250D01*
X012800Y006250D01*
X013160Y005890D01*
X018560Y005890D01*
X018915Y006246D01*
X018915Y006540D01*
X018921Y006542D01*
X019013Y006634D01*
X019063Y006755D01*
X019063Y006885D01*
X019013Y007006D01*
X018921Y007098D01*
X018800Y007148D01*
X018670Y007148D01*
X018549Y007098D01*
X018457Y007006D01*
X018407Y006885D01*
X018407Y006755D01*
X018457Y006634D01*
X018549Y006542D01*
X018555Y006540D01*
X018555Y006395D01*
X018410Y006250D01*
X013310Y006250D01*
X013085Y006475D01*
X013117Y006488D01*
X013237Y006608D01*
X013302Y006765D01*
X013302Y006935D01*
X013237Y007092D01*
X013117Y007212D01*
X012960Y007277D01*
X012790Y007277D01*
X012633Y007212D01*
X012513Y007092D01*
X012448Y006935D01*
X012448Y006765D01*
X012513Y006608D01*
X012633Y006488D01*
X012695Y006463D01*
X012731Y006319D02*
X000395Y006319D01*
X000395Y007386D02*
X013817Y007386D01*
X013936Y007504D02*
X002133Y007504D01*
X002243Y007623D02*
X014054Y007623D01*
X014070Y007639D02*
X013651Y007219D01*
X013633Y007212D01*
X013603Y007182D01*
X013589Y007173D01*
X013587Y007166D01*
X013513Y007092D01*
X013448Y006935D01*
X013448Y006765D01*
X013513Y006608D01*
X013633Y006488D01*
X013790Y006423D01*
X013960Y006423D01*
X014117Y006488D01*
X014237Y006608D01*
X014302Y006765D01*
X014302Y006935D01*
X014237Y007092D01*
X014117Y007212D01*
X014112Y007214D01*
X014303Y007405D01*
X017997Y007405D01*
X018074Y007329D01*
X018178Y007285D01*
X018292Y007285D01*
X018396Y007329D01*
X018477Y007409D01*
X018520Y007514D01*
X018520Y007627D01*
X018477Y007732D01*
X018396Y007812D01*
X018292Y007855D01*
X018178Y007855D01*
X018074Y007812D01*
X017997Y007735D01*
X014167Y007735D01*
X014070Y007639D01*
X014284Y007386D02*
X018016Y007386D01*
X017960Y007277D02*
X017790Y007277D01*
X017633Y007212D01*
X017513Y007092D01*
X017448Y006935D01*
X017448Y006765D01*
X017513Y006608D01*
X017633Y006488D01*
X017790Y006423D01*
X017960Y006423D01*
X018117Y006488D01*
X018237Y006608D01*
X018302Y006765D01*
X018302Y006935D01*
X018237Y007092D01*
X018117Y007212D01*
X017960Y007277D01*
X017984Y007267D02*
X019370Y007267D01*
X019371Y007149D02*
X018180Y007149D01*
X018262Y007030D02*
X018481Y007030D01*
X018418Y006912D02*
X018302Y006912D01*
X018302Y006793D02*
X018407Y006793D01*
X018440Y006675D02*
X018264Y006675D01*
X018185Y006556D02*
X018535Y006556D01*
X018555Y006438D02*
X017995Y006438D01*
X017755Y006438D02*
X016995Y006438D01*
X016960Y006423D02*
X017117Y006488D01*
X017237Y006608D01*
X017302Y006765D01*
X017302Y006935D01*
X017237Y007092D01*
X017117Y007212D01*
X016960Y007277D01*
X016790Y007277D01*
X016633Y007212D01*
X016513Y007092D01*
X016448Y006935D01*
X016448Y006765D01*
X016513Y006608D01*
X016633Y006488D01*
X016790Y006423D01*
X016960Y006423D01*
X016755Y006438D02*
X015995Y006438D01*
X015960Y006423D02*
X016117Y006488D01*
X016237Y006608D01*
X016302Y006765D01*
X016302Y006935D01*
X016237Y007092D01*
X016117Y007212D01*
X015960Y007277D01*
X015790Y007277D01*
X015633Y007212D01*
X015513Y007092D01*
X015448Y006935D01*
X015448Y006765D01*
X015513Y006608D01*
X015633Y006488D01*
X015790Y006423D01*
X015960Y006423D01*
X015755Y006438D02*
X014995Y006438D01*
X014960Y006423D02*
X014790Y006423D01*
X014633Y006488D01*
X014513Y006608D01*
X014448Y006765D01*
X014448Y006935D01*
X014513Y007092D01*
X014633Y007212D01*
X014790Y007277D01*
X014960Y007277D01*
X015117Y007212D01*
X015237Y007092D01*
X015302Y006935D01*
X015302Y006765D01*
X015237Y006608D01*
X015117Y006488D01*
X014960Y006423D01*
X014755Y006438D02*
X013995Y006438D01*
X014185Y006556D02*
X014565Y006556D01*
X014486Y006675D02*
X014264Y006675D01*
X014302Y006793D02*
X014448Y006793D01*
X014448Y006912D02*
X014302Y006912D01*
X014262Y007030D02*
X014488Y007030D01*
X014570Y007149D02*
X014180Y007149D01*
X014165Y007267D02*
X014766Y007267D01*
X014984Y007267D02*
X015766Y007267D01*
X015984Y007267D02*
X016766Y007267D01*
X016984Y007267D02*
X017766Y007267D01*
X017570Y007149D02*
X017180Y007149D01*
X017262Y007030D02*
X017488Y007030D01*
X017448Y006912D02*
X017302Y006912D01*
X017302Y006793D02*
X017448Y006793D01*
X017486Y006675D02*
X017264Y006675D01*
X017185Y006556D02*
X017565Y006556D01*
X018003Y007741D02*
X002292Y007741D01*
X002302Y007860D02*
X019368Y007860D01*
X019368Y007978D02*
X002284Y007978D01*
X002232Y008097D02*
X004047Y008097D01*
X003888Y008215D02*
X002109Y008215D01*
X002030Y008452D02*
X003780Y008452D01*
X003780Y008571D02*
X002199Y008571D01*
X002270Y008689D02*
X003816Y008689D01*
X003888Y008808D02*
X002302Y008808D01*
X002302Y008926D02*
X004049Y008926D01*
X004145Y009237D02*
X003977Y009307D01*
X003849Y009435D01*
X003780Y009602D01*
X003780Y009783D01*
X003849Y009950D01*
X003977Y010078D01*
X004145Y010147D01*
X004325Y010147D01*
X004493Y010078D01*
X004621Y009950D01*
X004690Y009783D01*
X004690Y009602D01*
X004621Y009435D01*
X004493Y009307D01*
X004325Y009237D01*
X004145Y009237D01*
X004038Y009282D02*
X000395Y009282D01*
X000395Y009400D02*
X003884Y009400D01*
X003815Y009519D02*
X002147Y009519D01*
X002249Y009637D02*
X003780Y009637D01*
X003780Y009756D02*
X002298Y009756D01*
X002302Y009874D02*
X003818Y009874D01*
X003892Y009993D02*
X002278Y009993D01*
X002218Y010111D02*
X004058Y010111D01*
X003859Y010230D02*
X002074Y010230D01*
X002166Y009163D02*
X004595Y009163D01*
X004476Y009045D02*
X002256Y009045D01*
X001984Y007267D02*
X008766Y007267D01*
X008984Y007267D02*
X009766Y007267D01*
X009984Y007267D02*
X010766Y007267D01*
X010984Y007267D02*
X011766Y007267D01*
X011984Y007267D02*
X012766Y007267D01*
X012984Y007267D02*
X013699Y007267D01*
X013570Y007149D02*
X013180Y007149D01*
X013262Y007030D02*
X013488Y007030D01*
X013448Y006912D02*
X013302Y006912D01*
X013302Y006793D02*
X013448Y006793D01*
X013486Y006675D02*
X013264Y006675D01*
X013185Y006556D02*
X013565Y006556D01*
X013755Y006438D02*
X013122Y006438D01*
X013241Y006319D02*
X018479Y006319D01*
X018633Y005964D02*
X019375Y005964D01*
X019375Y006082D02*
X018752Y006082D01*
X018870Y006201D02*
X019374Y006201D01*
X019374Y006319D02*
X018915Y006319D01*
X018915Y006438D02*
X019373Y006438D01*
X019373Y006556D02*
X018935Y006556D01*
X019030Y006675D02*
X019372Y006675D01*
X019372Y006793D02*
X019063Y006793D01*
X019052Y006912D02*
X019372Y006912D01*
X019371Y007030D02*
X018989Y007030D01*
X019370Y007386D02*
X018454Y007386D01*
X018516Y007504D02*
X019370Y007504D01*
X019369Y007623D02*
X018520Y007623D01*
X018467Y007741D02*
X019369Y007741D01*
X019363Y009282D02*
X015682Y009282D01*
X015836Y009400D02*
X019363Y009400D01*
X019363Y009519D02*
X015905Y009519D01*
X015940Y009637D02*
X019362Y009637D01*
X019362Y009756D02*
X015940Y009756D01*
X015902Y009874D02*
X019361Y009874D01*
X019361Y009993D02*
X015828Y009993D01*
X015662Y010111D02*
X019360Y010111D01*
X019360Y010230D02*
X015861Y010230D01*
X016065Y010348D02*
X019360Y010348D01*
X019359Y010467D02*
X016183Y010467D01*
X016281Y010585D02*
X019359Y010585D01*
X019358Y010704D02*
X016330Y010704D01*
X016379Y010822D02*
X019358Y010822D01*
X019358Y010941D02*
X016406Y010941D01*
X016406Y011059D02*
X019357Y011059D01*
X019357Y011178D02*
X016406Y011178D01*
X016388Y011296D02*
X019356Y011296D01*
X019356Y011415D02*
X016339Y011415D01*
X016290Y011533D02*
X019355Y011533D01*
X019355Y011652D02*
X016205Y011652D01*
X016087Y011770D02*
X019355Y011770D01*
X019354Y011889D02*
X015914Y011889D01*
X015356Y012600D02*
X013675Y012600D01*
X013606Y012718D02*
X015162Y012718D01*
X015076Y012837D02*
X013487Y012837D01*
X013425Y012955D02*
X015030Y012955D01*
X015030Y013074D02*
X013425Y013074D01*
X013425Y013192D02*
X015056Y013192D01*
X015114Y013311D02*
X013425Y013311D01*
X013425Y013429D02*
X015239Y013429D01*
X015012Y013666D02*
X015987Y013666D01*
X016073Y013580D02*
X016397Y013580D01*
X016625Y013809D01*
X016625Y014132D01*
X016397Y014360D01*
X016073Y014360D01*
X015845Y014132D01*
X015845Y013809D01*
X016073Y013580D01*
X015869Y013785D02*
X015150Y013785D01*
X015214Y013903D02*
X015845Y013903D01*
X015845Y014022D02*
X015245Y014022D01*
X015245Y014140D02*
X015854Y014140D01*
X015972Y014259D02*
X015205Y014259D01*
X015445Y014377D02*
X017809Y014377D01*
X017690Y014259D02*
X016498Y014259D01*
X016616Y014140D02*
X017561Y014140D01*
X017484Y014022D02*
X016625Y014022D01*
X016625Y013903D02*
X017448Y013903D01*
X017448Y013785D02*
X016601Y013785D01*
X016483Y013666D02*
X017489Y013666D01*
X017574Y013548D02*
X013425Y013548D01*
X013425Y013666D02*
X014558Y013666D01*
X014420Y013785D02*
X014301Y013785D01*
X013769Y013785D02*
X013425Y013785D01*
X013425Y013903D02*
X013650Y013903D01*
X013645Y014022D02*
X013425Y014022D01*
X013425Y014140D02*
X013645Y014140D01*
X013672Y014259D02*
X013425Y014259D01*
X013425Y014377D02*
X013791Y014377D01*
X013947Y014730D02*
X013623Y014730D01*
X013395Y014959D01*
X013395Y015282D01*
X013623Y015510D01*
X013947Y015510D01*
X014175Y015282D01*
X014175Y014959D01*
X013947Y014730D01*
X013949Y014733D02*
X014995Y014733D01*
X014950Y014614D02*
X013425Y014614D01*
X013425Y014496D02*
X014610Y014496D01*
X014442Y014377D02*
X014279Y014377D01*
X014068Y014851D02*
X015051Y014851D01*
X014968Y014970D02*
X014175Y014970D01*
X014175Y015088D02*
X014950Y015088D01*
X014983Y015207D02*
X014175Y015207D01*
X014131Y015325D02*
X015106Y015325D01*
X015364Y015325D02*
X016757Y015325D01*
X016875Y015444D02*
X014013Y015444D01*
X013557Y015444D02*
X012880Y015444D01*
X012762Y015562D02*
X016994Y015562D01*
X017105Y015207D02*
X017628Y015207D01*
X017512Y015088D02*
X016986Y015088D01*
X016868Y014970D02*
X017401Y014970D01*
X017283Y014851D02*
X015419Y014851D01*
X013621Y014733D02*
X013425Y014733D01*
X013425Y014851D02*
X013502Y014851D01*
X013395Y014970D02*
X013354Y014970D01*
X013395Y015088D02*
X013236Y015088D01*
X013117Y015207D02*
X013395Y015207D01*
X013439Y015325D02*
X012999Y015325D01*
X013045Y014614D02*
X002239Y014614D01*
X002237Y014608D02*
X002302Y014765D01*
X002302Y014935D01*
X002237Y015092D01*
X002117Y015212D01*
X001960Y015277D01*
X001790Y015277D01*
X001633Y015212D01*
X001513Y015092D01*
X001448Y014935D01*
X001448Y014765D01*
X001513Y014608D01*
X001633Y014488D01*
X001790Y014423D01*
X001960Y014423D01*
X002117Y014488D01*
X002237Y014608D01*
X002288Y014733D02*
X003921Y014733D01*
X003973Y014680D02*
X003745Y014909D01*
X003745Y015232D01*
X003973Y015460D01*
X004297Y015460D01*
X004525Y015232D01*
X004525Y014909D01*
X004297Y014680D01*
X003973Y014680D01*
X003973Y014560D02*
X003745Y014332D01*
X003745Y014009D01*
X003973Y013780D01*
X004297Y013780D01*
X004525Y014009D01*
X004525Y014332D01*
X004297Y014560D01*
X003973Y014560D01*
X003909Y014496D02*
X003410Y014496D01*
X003327Y014530D02*
X003144Y014530D01*
X002974Y014460D01*
X002845Y014331D01*
X002775Y014162D01*
X002775Y013979D01*
X002845Y013810D01*
X002974Y013680D01*
X003144Y013610D01*
X003327Y013610D01*
X003496Y013680D01*
X003625Y013810D01*
X003695Y013979D01*
X003695Y014162D01*
X003625Y014331D01*
X003496Y014460D01*
X003327Y014530D01*
X003060Y014496D02*
X002124Y014496D01*
X002004Y014259D02*
X002815Y014259D01*
X002775Y014140D02*
X002189Y014140D01*
X002237Y014092D02*
X002117Y014212D01*
X001960Y014277D01*
X001790Y014277D01*
X001633Y014212D01*
X001513Y014092D01*
X001448Y013935D01*
X001448Y013765D01*
X001513Y013608D01*
X001633Y013488D01*
X001790Y013423D01*
X001960Y013423D01*
X002117Y013488D01*
X002237Y013608D01*
X002302Y013765D01*
X002302Y013935D01*
X002237Y014092D01*
X002266Y014022D02*
X002775Y014022D01*
X002806Y013903D02*
X002302Y013903D01*
X002302Y013785D02*
X002870Y013785D01*
X003008Y013666D02*
X002261Y013666D01*
X002176Y013548D02*
X013045Y013548D01*
X013045Y013666D02*
X011212Y013666D01*
X011489Y013429D02*
X008231Y013429D01*
X008356Y013311D02*
X011364Y013311D01*
X011306Y013192D02*
X008414Y013192D01*
X008440Y013074D02*
X011280Y013074D01*
X011280Y012955D02*
X008440Y012955D01*
X008394Y012837D02*
X011326Y012837D01*
X011412Y012718D02*
X008308Y012718D01*
X008168Y011991D02*
X007802Y011991D01*
X007464Y011851D01*
X007205Y011592D01*
X007064Y011253D01*
X007064Y010887D01*
X007205Y010549D01*
X007464Y010290D01*
X007802Y010150D01*
X008168Y010150D01*
X008506Y010290D01*
X008765Y010549D01*
X008906Y010887D01*
X008906Y011253D01*
X008765Y011592D01*
X008506Y011851D01*
X008168Y011991D01*
X008414Y011889D02*
X011306Y011889D01*
X011214Y011851D02*
X010955Y011592D01*
X010814Y011253D01*
X010814Y010887D01*
X010955Y010549D01*
X011214Y010290D01*
X011552Y010150D01*
X011918Y010150D01*
X012256Y010290D01*
X012515Y010549D01*
X012656Y010887D01*
X012656Y011253D01*
X012515Y011592D01*
X012256Y011851D01*
X011918Y011991D01*
X011552Y011991D01*
X011214Y011851D01*
X011133Y011770D02*
X008587Y011770D01*
X008705Y011652D02*
X011015Y011652D01*
X010930Y011533D02*
X008790Y011533D01*
X008839Y011415D02*
X010881Y011415D01*
X010832Y011296D02*
X008888Y011296D01*
X008906Y011178D02*
X010814Y011178D01*
X010814Y011059D02*
X008906Y011059D01*
X008906Y010941D02*
X010814Y010941D01*
X010841Y010822D02*
X008879Y010822D01*
X008830Y010704D02*
X010890Y010704D01*
X010939Y010585D02*
X008781Y010585D01*
X008683Y010467D02*
X011037Y010467D01*
X011155Y010348D02*
X008565Y010348D01*
X008361Y010230D02*
X011359Y010230D01*
X011558Y010111D02*
X008162Y010111D01*
X008243Y010078D02*
X008075Y010147D01*
X007895Y010147D01*
X007727Y010078D01*
X007599Y009950D01*
X007530Y009783D01*
X007530Y009602D01*
X007599Y009435D01*
X007727Y009307D01*
X007895Y009237D01*
X008075Y009237D01*
X008243Y009307D01*
X008371Y009435D01*
X008440Y009602D01*
X008440Y009783D01*
X008371Y009950D01*
X008243Y010078D01*
X008328Y009993D02*
X011392Y009993D01*
X011318Y009874D02*
X008402Y009874D01*
X008440Y009756D02*
X011280Y009756D01*
X011280Y009637D02*
X008440Y009637D01*
X008405Y009519D02*
X011315Y009519D01*
X011384Y009400D02*
X008336Y009400D01*
X008182Y009282D02*
X011538Y009282D01*
X011264Y008808D02*
X008706Y008808D01*
X008587Y008689D02*
X011316Y008689D01*
X011280Y008571D02*
X008469Y008571D01*
X008440Y008452D02*
X011280Y008452D01*
X011316Y008334D02*
X008404Y008334D01*
X008332Y008215D02*
X011388Y008215D01*
X011547Y008097D02*
X008173Y008097D01*
X007797Y008097D02*
X004423Y008097D01*
X004582Y008215D02*
X007638Y008215D01*
X007566Y008334D02*
X004654Y008334D01*
X004690Y008452D02*
X007530Y008452D01*
X007501Y008571D02*
X004690Y008571D01*
X004654Y008689D02*
X007383Y008689D01*
X007264Y008808D02*
X004706Y008808D01*
X004432Y009282D02*
X007788Y009282D01*
X007634Y009400D02*
X004586Y009400D01*
X004655Y009519D02*
X007565Y009519D01*
X007530Y009637D02*
X004690Y009637D01*
X004690Y009756D02*
X007530Y009756D01*
X007568Y009874D02*
X004652Y009874D01*
X004578Y009993D02*
X007642Y009993D01*
X007808Y010111D02*
X004412Y010111D01*
X004611Y010230D02*
X007609Y010230D01*
X007405Y010348D02*
X004815Y010348D01*
X004933Y010467D02*
X007287Y010467D01*
X007189Y010585D02*
X005031Y010585D01*
X005080Y010704D02*
X007140Y010704D01*
X007091Y010822D02*
X005129Y010822D01*
X005156Y010941D02*
X007064Y010941D01*
X007064Y011059D02*
X005156Y011059D01*
X005156Y011178D02*
X007064Y011178D01*
X007082Y011296D02*
X005138Y011296D01*
X005089Y011415D02*
X007131Y011415D01*
X007180Y011533D02*
X005040Y011533D01*
X004955Y011652D02*
X007265Y011652D01*
X007383Y011770D02*
X004837Y011770D01*
X004664Y011889D02*
X007556Y011889D01*
X007662Y012718D02*
X004558Y012718D01*
X004644Y012837D02*
X007576Y012837D01*
X007530Y012955D02*
X004690Y012955D01*
X004690Y013074D02*
X007530Y013074D01*
X007556Y013192D02*
X004664Y013192D01*
X004606Y013311D02*
X007614Y013311D01*
X007739Y013429D02*
X004481Y013429D01*
X004301Y013785D02*
X005969Y013785D01*
X005973Y013780D02*
X006297Y013780D01*
X006525Y014009D01*
X006525Y014332D01*
X006297Y014560D01*
X005973Y014560D01*
X005745Y014332D01*
X005745Y014009D01*
X005973Y013780D01*
X005850Y013903D02*
X004420Y013903D01*
X004525Y014022D02*
X005745Y014022D01*
X005745Y014140D02*
X004525Y014140D01*
X004525Y014259D02*
X005745Y014259D01*
X005791Y014377D02*
X004479Y014377D01*
X004361Y014496D02*
X005909Y014496D01*
X005973Y014680D02*
X006297Y014680D01*
X006525Y014909D01*
X006525Y015232D01*
X006297Y015460D01*
X005973Y015460D01*
X005745Y015232D01*
X005745Y014909D01*
X005973Y014680D01*
X005921Y014733D02*
X004349Y014733D01*
X004468Y014851D02*
X005802Y014851D01*
X005745Y014970D02*
X004525Y014970D01*
X004525Y015088D02*
X005745Y015088D01*
X005745Y015207D02*
X004525Y015207D01*
X004431Y015325D02*
X005839Y015325D01*
X005957Y015444D02*
X004313Y015444D01*
X003957Y015444D02*
X002009Y015444D01*
X002122Y015207D02*
X003745Y015207D01*
X003745Y015088D02*
X002238Y015088D01*
X002288Y014970D02*
X003745Y014970D01*
X003802Y014851D02*
X002302Y014851D01*
X001746Y014259D02*
X001004Y014259D01*
X000960Y014423D02*
X001117Y014488D01*
X001237Y014608D01*
X001302Y014765D01*
X001302Y014935D01*
X001237Y015092D01*
X001117Y015212D01*
X000960Y015277D01*
X000790Y015277D01*
X000633Y015212D01*
X000513Y015092D01*
X000448Y014935D01*
X000448Y014765D01*
X000513Y014608D01*
X000633Y014488D01*
X000790Y014423D01*
X000960Y014423D01*
X001124Y014496D02*
X001626Y014496D01*
X001511Y014614D02*
X001239Y014614D01*
X001288Y014733D02*
X001462Y014733D01*
X001448Y014851D02*
X001302Y014851D01*
X001288Y014970D02*
X001463Y014970D01*
X001512Y015088D02*
X001238Y015088D01*
X001122Y015207D02*
X001628Y015207D01*
X001741Y015444D02*
X001009Y015444D01*
X000960Y015423D02*
X001117Y015488D01*
X001237Y015608D01*
X001302Y015765D01*
X001302Y015935D01*
X001237Y016092D01*
X001117Y016212D01*
X000960Y016277D01*
X000790Y016277D01*
X000633Y016212D01*
X000513Y016092D01*
X000448Y015935D01*
X000448Y015765D01*
X000513Y015608D01*
X000633Y015488D01*
X000790Y015423D01*
X000960Y015423D01*
X000741Y015444D02*
X000395Y015444D01*
X000395Y015562D02*
X000559Y015562D01*
X000483Y015681D02*
X000395Y015681D01*
X000395Y015799D02*
X000448Y015799D01*
X000448Y015918D02*
X000395Y015918D01*
X000395Y016036D02*
X000490Y016036D01*
X000576Y016155D02*
X000395Y016155D01*
X000395Y016273D02*
X000781Y016273D01*
X000969Y016273D02*
X001781Y016273D01*
X001576Y016155D02*
X001174Y016155D01*
X001260Y016036D02*
X001490Y016036D01*
X001448Y015918D02*
X001302Y015918D01*
X001302Y015799D02*
X001448Y015799D01*
X001483Y015681D02*
X001267Y015681D01*
X001191Y015562D02*
X001559Y015562D01*
X002174Y016155D02*
X011632Y016155D01*
X011932Y016392D02*
X018570Y016392D01*
X018570Y016510D02*
X018139Y016510D01*
X018245Y016629D02*
X018570Y016629D01*
X018570Y016747D02*
X018294Y016747D01*
X018302Y016866D02*
X018570Y016866D01*
X018570Y016984D02*
X018281Y016984D01*
X018226Y017103D02*
X018570Y017103D01*
X018570Y017221D02*
X018095Y017221D01*
X018044Y017458D02*
X018570Y017458D01*
X018570Y017340D02*
X017699Y017340D01*
X017706Y017458D02*
X017580Y017458D01*
X017633Y017488D02*
X017790Y017423D01*
X017960Y017423D01*
X018117Y017488D01*
X018237Y017608D01*
X018302Y017765D01*
X018302Y017935D01*
X018237Y018092D01*
X018117Y018212D01*
X017960Y018277D01*
X017790Y018277D01*
X017633Y018212D01*
X017513Y018092D01*
X017448Y017935D01*
X017448Y017765D01*
X017513Y017608D01*
X017633Y017488D01*
X017545Y017577D02*
X017462Y017577D01*
X017477Y017695D02*
X017343Y017695D01*
X017448Y017814D02*
X017225Y017814D01*
X017106Y017932D02*
X017448Y017932D01*
X017496Y018051D02*
X016988Y018051D01*
X016900Y018169D02*
X017590Y018169D01*
X017633Y018488D02*
X017790Y018423D01*
X017960Y018423D01*
X018117Y018488D01*
X018237Y018608D01*
X018302Y018765D01*
X018302Y018935D01*
X018237Y019092D01*
X018117Y019212D01*
X017960Y019277D01*
X017790Y019277D01*
X017633Y019212D01*
X017513Y019092D01*
X017448Y018935D01*
X017448Y018765D01*
X017513Y018608D01*
X017633Y018488D01*
X017597Y018525D02*
X016900Y018525D01*
X016900Y018643D02*
X017499Y018643D01*
X017450Y018762D02*
X016900Y018762D01*
X016900Y018880D02*
X017448Y018880D01*
X017475Y018999D02*
X016900Y018999D01*
X016900Y019117D02*
X017538Y019117D01*
X017690Y019236D02*
X016900Y019236D01*
X016900Y019354D02*
X018570Y019354D01*
X018570Y019236D02*
X018060Y019236D01*
X018212Y019117D02*
X018570Y019117D01*
X018570Y018999D02*
X018275Y018999D01*
X018302Y018880D02*
X018570Y018880D01*
X018570Y018762D02*
X018300Y018762D01*
X018251Y018643D02*
X018570Y018643D01*
X018570Y018525D02*
X018153Y018525D01*
X018160Y018169D02*
X018570Y018169D01*
X018570Y018051D02*
X018254Y018051D01*
X018302Y017932D02*
X018570Y017932D01*
X018570Y017814D02*
X018302Y017814D01*
X018273Y017695D02*
X018570Y017695D01*
X018570Y017577D02*
X018205Y017577D01*
X018570Y018288D02*
X016900Y018288D01*
X016900Y018406D02*
X018570Y018406D01*
X018570Y019473D02*
X018079Y019473D01*
X018117Y019488D02*
X017960Y019423D01*
X017790Y019423D01*
X017633Y019488D01*
X017513Y019608D01*
X017448Y019765D01*
X017448Y019935D01*
X017513Y020092D01*
X017633Y020212D01*
X017790Y020277D01*
X017960Y020277D01*
X018117Y020212D01*
X018237Y020092D01*
X018302Y019935D01*
X018302Y019765D01*
X018237Y019608D01*
X018117Y019488D01*
X018220Y019591D02*
X018570Y019591D01*
X018570Y019710D02*
X018279Y019710D01*
X018302Y019828D02*
X018570Y019828D01*
X018570Y019947D02*
X018297Y019947D01*
X018248Y020065D02*
X018570Y020065D01*
X018570Y020184D02*
X018145Y020184D01*
X017960Y020423D02*
X018117Y020488D01*
X018237Y020608D01*
X018302Y020765D01*
X018302Y020935D01*
X018237Y021092D01*
X018117Y021212D01*
X017960Y021277D01*
X017790Y021277D01*
X017633Y021212D01*
X017513Y021092D01*
X017448Y020935D01*
X017448Y020765D01*
X017513Y020608D01*
X017633Y020488D01*
X017790Y020423D01*
X017960Y020423D01*
X018168Y020539D02*
X018570Y020539D01*
X018570Y020421D02*
X016900Y020421D01*
X016900Y020539D02*
X017582Y020539D01*
X017493Y020658D02*
X016900Y020658D01*
X016900Y020776D02*
X017448Y020776D01*
X017448Y020895D02*
X016900Y020895D01*
X016900Y021013D02*
X017481Y021013D01*
X017553Y021132D02*
X016900Y021132D01*
X016900Y021250D02*
X017725Y021250D01*
X017790Y021423D02*
X017633Y021488D01*
X017513Y021608D01*
X017448Y021765D01*
X017448Y021935D01*
X017513Y022092D01*
X017633Y022212D01*
X017790Y022277D01*
X017960Y022277D01*
X018117Y022212D01*
X018237Y022092D01*
X018302Y021935D01*
X018302Y021765D01*
X018237Y021608D01*
X018117Y021488D01*
X017960Y021423D01*
X017790Y021423D01*
X017636Y021487D02*
X016900Y021487D01*
X016900Y021369D02*
X018570Y021369D01*
X018570Y021487D02*
X018114Y021487D01*
X018234Y021606D02*
X018570Y021606D01*
X018570Y021724D02*
X018285Y021724D01*
X018302Y021843D02*
X018570Y021843D01*
X018570Y021961D02*
X018291Y021961D01*
X018242Y022080D02*
X018570Y022080D01*
X018570Y022198D02*
X018131Y022198D01*
X017989Y022435D02*
X018570Y022435D01*
X018570Y022317D02*
X016900Y022317D01*
X016900Y022435D02*
X017761Y022435D01*
X017790Y022423D02*
X017960Y022423D01*
X018117Y022488D01*
X018237Y022608D01*
X018302Y022765D01*
X018302Y022935D01*
X018237Y023092D01*
X018117Y023212D01*
X017960Y023277D01*
X017790Y023277D01*
X017633Y023212D01*
X017513Y023092D01*
X017448Y022935D01*
X017448Y022765D01*
X017513Y022608D01*
X017633Y022488D01*
X017790Y022423D01*
X017568Y022554D02*
X016900Y022554D01*
X016900Y022672D02*
X017487Y022672D01*
X017448Y022791D02*
X016900Y022791D01*
X016900Y022909D02*
X017448Y022909D01*
X017487Y023028D02*
X016900Y023028D01*
X016892Y023146D02*
X017567Y023146D01*
X017760Y023265D02*
X015884Y023265D01*
X015784Y023383D02*
X018570Y023383D01*
X018570Y023265D02*
X017990Y023265D01*
X018183Y023146D02*
X018570Y023146D01*
X018570Y023028D02*
X018263Y023028D01*
X018302Y022909D02*
X018570Y022909D01*
X018570Y022791D02*
X018302Y022791D01*
X018263Y022672D02*
X018570Y022672D01*
X018570Y022554D02*
X018182Y022554D01*
X017619Y022198D02*
X016900Y022198D01*
X016900Y022080D02*
X017508Y022080D01*
X017459Y021961D02*
X016900Y021961D01*
X016900Y021843D02*
X017448Y021843D01*
X017465Y021724D02*
X016900Y021724D01*
X016900Y021606D02*
X017516Y021606D01*
X018025Y021250D02*
X018570Y021250D01*
X018570Y021132D02*
X018197Y021132D01*
X018269Y021013D02*
X018570Y021013D01*
X018570Y020895D02*
X018302Y020895D01*
X018302Y020776D02*
X018570Y020776D01*
X018570Y020658D02*
X018257Y020658D01*
X018570Y020302D02*
X016900Y020302D01*
X016900Y020184D02*
X017605Y020184D01*
X017502Y020065D02*
X016900Y020065D01*
X016900Y019947D02*
X017453Y019947D01*
X017448Y019828D02*
X016900Y019828D01*
X016900Y019710D02*
X017471Y019710D01*
X017530Y019591D02*
X016900Y019591D01*
X016900Y019473D02*
X017671Y019473D01*
X016570Y019591D02*
X015935Y019591D01*
X015940Y019710D02*
X016570Y019710D01*
X016570Y019828D02*
X015921Y019828D01*
X015872Y019947D02*
X016570Y019947D01*
X016570Y020065D02*
X015755Y020065D01*
X015750Y020184D02*
X016570Y020184D01*
X016570Y020302D02*
X016019Y020302D01*
X016006Y020290D02*
X016265Y020549D01*
X016406Y020887D01*
X016406Y021253D01*
X016265Y021592D01*
X016006Y021851D01*
X015668Y021991D01*
X015302Y021991D01*
X014964Y021851D01*
X014705Y021592D01*
X014564Y021253D01*
X014564Y020887D01*
X014705Y020549D01*
X014964Y020290D01*
X015302Y020150D01*
X015668Y020150D01*
X016006Y020290D01*
X016137Y020421D02*
X016570Y020421D01*
X016570Y020539D02*
X016256Y020539D01*
X016311Y020658D02*
X016570Y020658D01*
X016570Y020776D02*
X016360Y020776D01*
X016406Y020895D02*
X016570Y020895D01*
X016570Y021013D02*
X016406Y021013D01*
X016406Y021132D02*
X016570Y021132D01*
X016570Y021250D02*
X016406Y021250D01*
X016358Y021369D02*
X016570Y021369D01*
X016570Y021487D02*
X016309Y021487D01*
X016251Y021606D02*
X016570Y021606D01*
X016570Y021724D02*
X016133Y021724D01*
X016014Y021843D02*
X016570Y021843D01*
X016570Y021961D02*
X015739Y021961D01*
X015762Y022672D02*
X016570Y022672D01*
X016570Y022554D02*
X003520Y022554D01*
X003501Y022672D02*
X003958Y022672D01*
X003845Y022791D02*
X003417Y022791D01*
X003488Y022435D02*
X016570Y022435D01*
X016570Y022317D02*
X003368Y022317D01*
X003096Y022198D02*
X016570Y022198D01*
X016570Y022080D02*
X002978Y022080D01*
X002859Y021961D02*
X003981Y021961D01*
X003706Y021843D02*
X002741Y021843D01*
X002622Y021724D02*
X003587Y021724D01*
X003469Y021606D02*
X002504Y021606D01*
X002385Y021487D02*
X003411Y021487D01*
X003362Y021369D02*
X002267Y021369D01*
X002148Y021250D02*
X003314Y021250D01*
X003314Y021132D02*
X002197Y021132D01*
X002269Y021013D02*
X003314Y021013D01*
X003314Y020895D02*
X002302Y020895D01*
X002302Y020776D02*
X003360Y020776D01*
X003409Y020658D02*
X002257Y020658D01*
X002168Y020539D02*
X003464Y020539D01*
X004489Y021961D02*
X007731Y021961D01*
X007456Y021843D02*
X004764Y021843D01*
X004883Y021724D02*
X007337Y021724D01*
X007219Y021606D02*
X005001Y021606D01*
X005059Y021487D02*
X007161Y021487D01*
X007112Y021369D02*
X005108Y021369D01*
X005156Y021250D02*
X007064Y021250D01*
X007064Y021132D02*
X005156Y021132D01*
X005156Y021013D02*
X007064Y021013D01*
X007064Y020895D02*
X005156Y020895D01*
X005110Y020776D02*
X007110Y020776D01*
X007159Y020658D02*
X005061Y020658D01*
X005006Y020539D02*
X007214Y020539D01*
X007333Y020421D02*
X004887Y020421D01*
X004769Y020302D02*
X007451Y020302D01*
X008250Y020184D02*
X011470Y020184D01*
X011552Y020150D02*
X011214Y020290D01*
X010955Y020549D01*
X010814Y020887D01*
X010814Y021253D01*
X010955Y021592D01*
X011214Y021851D01*
X011552Y021991D01*
X011918Y021991D01*
X012256Y021851D01*
X012515Y021592D01*
X012656Y021253D01*
X012656Y020887D01*
X012515Y020549D01*
X012256Y020290D01*
X011918Y020150D01*
X011552Y020150D01*
X011465Y020065D02*
X008255Y020065D01*
X008372Y019947D02*
X011348Y019947D01*
X011299Y019828D02*
X008421Y019828D01*
X008440Y019710D02*
X011280Y019710D01*
X011285Y019591D02*
X008435Y019591D01*
X008386Y019473D02*
X011334Y019473D01*
X011192Y018880D02*
X009594Y018880D01*
X008519Y020302D02*
X011201Y020302D01*
X011083Y020421D02*
X008637Y020421D01*
X008756Y020539D02*
X010964Y020539D01*
X010909Y020658D02*
X008811Y020658D01*
X008860Y020776D02*
X010860Y020776D01*
X010814Y020895D02*
X008906Y020895D01*
X008906Y021013D02*
X010814Y021013D01*
X010814Y021132D02*
X008906Y021132D01*
X008906Y021250D02*
X010814Y021250D01*
X010862Y021369D02*
X008858Y021369D01*
X008809Y021487D02*
X010911Y021487D01*
X010969Y021606D02*
X008751Y021606D01*
X008633Y021724D02*
X011087Y021724D01*
X011206Y021843D02*
X008514Y021843D01*
X008239Y021961D02*
X011481Y021961D01*
X011458Y022672D02*
X008262Y022672D01*
X008375Y022791D02*
X011345Y022791D01*
X011296Y022909D02*
X008424Y022909D01*
X008440Y023028D02*
X011280Y023028D01*
X011287Y023146D02*
X008433Y023146D01*
X008384Y023265D02*
X011336Y023265D01*
X011436Y023383D02*
X008284Y023383D01*
X008421Y023976D02*
X008518Y023976D01*
X008518Y024094D02*
X008421Y024094D01*
X008421Y024213D02*
X008518Y024213D01*
X008518Y024331D02*
X010791Y024331D01*
X010795Y024213D02*
X008949Y024213D01*
X008907Y024094D02*
X010844Y024094D01*
X010939Y023976D02*
X008824Y023976D01*
X008958Y024363D02*
X008518Y024363D01*
X008518Y024803D01*
X008584Y024792D01*
X008657Y024768D01*
X008726Y024733D01*
X008788Y024688D01*
X008843Y024634D01*
X008888Y024571D01*
X008923Y024502D01*
X008947Y024429D01*
X008958Y024363D01*
X008940Y024450D02*
X010809Y024450D01*
X010858Y024568D02*
X008890Y024568D01*
X008790Y024687D02*
X010973Y024687D01*
X011041Y024805D02*
X006711Y024805D01*
X006678Y024924D02*
X011042Y024924D01*
X011160Y025042D02*
X006560Y025042D01*
X006441Y025161D02*
X011279Y025161D01*
X011397Y025279D02*
X006323Y025279D01*
X006204Y025398D02*
X011516Y025398D01*
X011634Y025516D02*
X006086Y025516D01*
X006318Y026389D02*
X005112Y026389D01*
X003902Y026389D01*
X003825Y026465D01*
X003825Y027675D01*
X003902Y027751D01*
X006318Y027751D01*
X006395Y027675D01*
X006395Y026465D01*
X006318Y026389D01*
X006394Y026464D02*
X008576Y026464D01*
X008575Y026465D02*
X008652Y026389D01*
X009862Y026389D01*
X011068Y026389D01*
X011145Y026465D01*
X011145Y027675D01*
X011068Y027751D01*
X008652Y027751D01*
X008575Y027675D01*
X008575Y026465D01*
X008575Y026583D02*
X006395Y026583D01*
X006395Y026701D02*
X008575Y026701D01*
X008575Y026820D02*
X006395Y026820D01*
X006395Y026938D02*
X008575Y026938D01*
X008575Y027057D02*
X006395Y027057D01*
X006395Y027175D02*
X008575Y027175D01*
X008575Y027294D02*
X006395Y027294D01*
X006395Y027412D02*
X008575Y027412D01*
X008575Y027531D02*
X006395Y027531D01*
X006395Y027649D02*
X008575Y027649D01*
X008518Y024687D02*
X008421Y024687D01*
X008421Y024568D02*
X008518Y024568D01*
X008518Y024450D02*
X008421Y024450D01*
X008421Y024331D02*
X007945Y024331D01*
X007941Y024213D02*
X007989Y024213D01*
X008031Y024094D02*
X007892Y024094D01*
X007797Y023976D02*
X008115Y023976D01*
X007998Y024450D02*
X007927Y024450D01*
X007878Y024568D02*
X008049Y024568D01*
X008149Y024687D02*
X007763Y024687D01*
X007207Y024687D02*
X006779Y024687D01*
X006893Y024568D02*
X007092Y024568D01*
X007043Y024450D02*
X006943Y024450D01*
X006961Y024331D02*
X007025Y024331D01*
X007029Y024213D02*
X006957Y024213D01*
X006908Y024094D02*
X007078Y024094D01*
X007173Y023976D02*
X006813Y023976D01*
X006189Y023976D02*
X004074Y023976D01*
X004157Y024094D02*
X006094Y024094D01*
X004781Y023383D02*
X007686Y023383D01*
X007586Y023265D02*
X004663Y023265D01*
X004683Y023146D02*
X007537Y023146D01*
X007530Y023028D02*
X004690Y023028D01*
X004674Y022909D02*
X007546Y022909D01*
X007595Y022791D02*
X004625Y022791D01*
X004512Y022672D02*
X007708Y022672D01*
X004552Y023620D02*
X000395Y023620D01*
X000395Y023502D02*
X004433Y023502D01*
X003936Y023383D02*
X000395Y023383D01*
X000395Y023265D02*
X000470Y023265D01*
X000418Y023146D02*
X000395Y023146D01*
X000395Y023028D02*
X000418Y023028D01*
X000418Y022909D02*
X000395Y022909D01*
X000395Y022791D02*
X000418Y022791D01*
X000418Y022672D02*
X000395Y022672D01*
X000395Y022554D02*
X000418Y022554D01*
X000395Y022435D02*
X000470Y022435D01*
X000395Y022317D02*
X002748Y022317D01*
X002630Y022198D02*
X002131Y022198D01*
X002242Y022080D02*
X002511Y022080D01*
X002393Y021961D02*
X002291Y021961D01*
X001800Y021369D02*
X000395Y021369D01*
X000395Y025635D02*
X021375Y025635D01*
X021375Y025753D02*
X000395Y025753D01*
X000395Y025872D02*
X021375Y025872D01*
X021375Y025990D02*
X000395Y025990D01*
X000395Y026109D02*
X021375Y026109D01*
X021375Y026227D02*
X000395Y026227D01*
X001644Y026464D02*
X003826Y026464D01*
X003825Y026583D02*
X001645Y026583D01*
X001645Y026701D02*
X003825Y026701D01*
X003825Y026820D02*
X001645Y026820D01*
X001645Y026938D02*
X003825Y026938D01*
X005665Y031797D02*
X005805Y031797D01*
X005805Y031915D02*
X005665Y031915D01*
X005665Y032034D02*
X005805Y032034D01*
X005809Y032152D02*
X005661Y032152D01*
X005543Y032271D02*
X005927Y032271D01*
X006046Y032389D02*
X005424Y032389D01*
X006424Y032389D02*
X007046Y032389D01*
X006927Y032271D02*
X006543Y032271D01*
X006661Y032152D02*
X006809Y032152D01*
X006805Y032034D02*
X006665Y032034D01*
X006665Y031915D02*
X006805Y031915D01*
X006805Y031797D02*
X006665Y031797D01*
X007424Y032389D02*
X008046Y032389D01*
X007927Y032271D02*
X007543Y032271D01*
X007661Y032152D02*
X007809Y032152D01*
X007805Y032034D02*
X007665Y032034D01*
X007665Y031915D02*
X007805Y031915D01*
X007805Y031797D02*
X007665Y031797D01*
X008424Y032389D02*
X008905Y032389D01*
X008905Y032271D02*
X008543Y032271D01*
X008661Y032152D02*
X008905Y032152D01*
X008905Y032034D02*
X008665Y032034D01*
X008665Y031915D02*
X008905Y031915D01*
X008905Y031797D02*
X008665Y031797D01*
X011145Y027649D02*
X013325Y027649D01*
X013325Y027531D02*
X011145Y027531D01*
X011145Y027412D02*
X013325Y027412D01*
X013325Y027294D02*
X011145Y027294D01*
X011145Y027175D02*
X013325Y027175D01*
X013325Y027057D02*
X011145Y027057D01*
X011145Y026938D02*
X013325Y026938D01*
X013325Y026820D02*
X011145Y026820D01*
X011145Y026701D02*
X013325Y026701D01*
X013325Y026583D02*
X011145Y026583D01*
X011144Y026464D02*
X013326Y026464D01*
X013268Y024803D02*
X013268Y024363D01*
X013708Y024363D01*
X013697Y024429D01*
X013673Y024502D01*
X013638Y024571D01*
X013593Y024634D01*
X013538Y024688D01*
X013476Y024733D01*
X013407Y024768D01*
X013334Y024792D01*
X013268Y024803D01*
X013268Y024687D02*
X013171Y024687D01*
X013171Y024568D02*
X013268Y024568D01*
X013268Y024450D02*
X013171Y024450D01*
X013171Y024331D02*
X012695Y024331D01*
X012691Y024213D02*
X012739Y024213D01*
X012781Y024094D02*
X012642Y024094D01*
X012547Y023976D02*
X012865Y023976D01*
X013171Y023976D02*
X013268Y023976D01*
X013268Y024094D02*
X013171Y024094D01*
X013171Y024213D02*
X013268Y024213D01*
X013268Y024331D02*
X015541Y024331D01*
X015545Y024213D02*
X013699Y024213D01*
X013657Y024094D02*
X015594Y024094D01*
X015689Y023976D02*
X013574Y023976D01*
X013690Y024450D02*
X015559Y024450D01*
X015450Y024568D02*
X013640Y024568D01*
X013540Y024687D02*
X015331Y024687D01*
X015213Y024805D02*
X011517Y024805D01*
X011529Y024687D02*
X011957Y024687D01*
X011842Y024568D02*
X011643Y024568D01*
X011693Y024450D02*
X011793Y024450D01*
X011775Y024331D02*
X011711Y024331D01*
X011707Y024213D02*
X011779Y024213D01*
X011828Y024094D02*
X011658Y024094D01*
X011563Y023976D02*
X011923Y023976D01*
X012034Y023383D02*
X015186Y023383D01*
X015086Y023265D02*
X012134Y023265D01*
X012183Y023146D02*
X015037Y023146D01*
X015030Y023028D02*
X012190Y023028D01*
X012174Y022909D02*
X015046Y022909D01*
X015095Y022791D02*
X012125Y022791D01*
X012012Y022672D02*
X015208Y022672D01*
X015231Y021961D02*
X011989Y021961D01*
X012264Y021843D02*
X014956Y021843D01*
X014837Y021724D02*
X012383Y021724D01*
X012501Y021606D02*
X014719Y021606D01*
X014661Y021487D02*
X012559Y021487D01*
X012608Y021369D02*
X014612Y021369D01*
X014564Y021250D02*
X012656Y021250D01*
X012656Y021132D02*
X014564Y021132D01*
X014564Y021013D02*
X012656Y021013D01*
X012656Y020895D02*
X014564Y020895D01*
X014610Y020776D02*
X012610Y020776D01*
X012561Y020658D02*
X014659Y020658D01*
X014714Y020539D02*
X012506Y020539D01*
X012387Y020421D02*
X014833Y020421D01*
X014951Y020302D02*
X012269Y020302D01*
X012000Y020184D02*
X015220Y020184D01*
X015215Y020065D02*
X012005Y020065D01*
X012122Y019947D02*
X015098Y019947D01*
X015049Y019828D02*
X012171Y019828D01*
X012190Y019710D02*
X015030Y019710D01*
X015035Y019591D02*
X012185Y019591D01*
X012136Y019473D02*
X015084Y019473D01*
X015180Y019354D02*
X012040Y019354D01*
X011614Y017458D02*
X010866Y017458D01*
X011814Y016510D02*
X017611Y016510D01*
X017969Y016273D02*
X018570Y016273D01*
X018570Y016155D02*
X018174Y016155D01*
X018260Y016036D02*
X018570Y016036D01*
X018570Y015918D02*
X018302Y015918D01*
X018302Y015799D02*
X018570Y015799D01*
X018570Y015681D02*
X018267Y015681D01*
X018191Y015562D02*
X018570Y015562D01*
X018570Y015444D02*
X018009Y015444D01*
X018122Y015207D02*
X018570Y015207D01*
X018570Y015325D02*
X017223Y015325D01*
X017342Y015444D02*
X017741Y015444D01*
X017559Y015562D02*
X017460Y015562D01*
X018238Y015088D02*
X018520Y015088D01*
X018401Y014970D02*
X018288Y014970D01*
X017626Y014496D02*
X017394Y014496D01*
X015211Y018880D02*
X015158Y018880D01*
X015040Y018999D02*
X015745Y018999D01*
X015745Y019117D02*
X014921Y019117D01*
X015875Y022791D02*
X016570Y022791D01*
X016673Y023976D02*
X016313Y023976D01*
X016408Y024094D02*
X016578Y024094D01*
X016529Y024213D02*
X016457Y024213D01*
X016461Y024331D02*
X016525Y024331D01*
X016543Y024450D02*
X016443Y024450D01*
X016393Y024568D02*
X016592Y024568D01*
X016707Y024687D02*
X016279Y024687D01*
X015094Y024924D02*
X011636Y024924D01*
X011754Y025042D02*
X014976Y025042D01*
X012899Y024687D02*
X012513Y024687D01*
X012628Y024568D02*
X012799Y024568D01*
X012748Y024450D02*
X012677Y024450D01*
X015569Y028005D02*
X021375Y028005D01*
X021375Y028123D02*
X015598Y028123D01*
X015598Y028242D02*
X021375Y028242D01*
X021375Y028360D02*
X015598Y028360D01*
X015598Y028479D02*
X021375Y028479D01*
X021375Y028597D02*
X015598Y028597D01*
X015598Y028716D02*
X021375Y028716D01*
X021375Y028834D02*
X015598Y028834D01*
X015598Y028953D02*
X021375Y028953D01*
X021375Y029071D02*
X015598Y029071D01*
X015598Y029190D02*
X021375Y029190D01*
X021375Y029308D02*
X017345Y029308D01*
X017348Y029427D02*
X021375Y029427D01*
X021375Y029545D02*
X017348Y029545D01*
X017348Y029664D02*
X021375Y029664D01*
X021375Y029782D02*
X017348Y029782D01*
X017348Y029901D02*
X021375Y029901D01*
X021375Y030019D02*
X021079Y030019D01*
X021098Y030138D02*
X021375Y030138D01*
X021375Y030256D02*
X021320Y030256D01*
X021348Y030375D02*
X021375Y030375D01*
X021375Y030493D02*
X021348Y030493D01*
X021348Y030612D02*
X021375Y030612D01*
X021375Y030730D02*
X021348Y030730D01*
X021348Y030849D02*
X021375Y030849D01*
X021375Y030967D02*
X021348Y030967D01*
X021348Y031086D02*
X021375Y031086D01*
X021375Y031204D02*
X021348Y031204D01*
X021348Y031323D02*
X021375Y031323D01*
X021375Y031441D02*
X021348Y031441D01*
X021348Y031560D02*
X021375Y031560D01*
X021375Y031678D02*
X021348Y031678D01*
X021348Y031797D02*
X021375Y031797D01*
X021375Y031915D02*
X021348Y031915D01*
X021348Y032034D02*
X021374Y032034D01*
X021372Y032152D02*
X021348Y032152D01*
X021348Y032271D02*
X021363Y032271D01*
X020435Y024094D02*
X018407Y024094D01*
X018324Y023976D02*
X020303Y023976D01*
X020171Y023857D02*
X018148Y023857D01*
X013045Y014496D02*
X011160Y014496D01*
X011502Y014851D02*
X010468Y014851D01*
X010525Y014909D02*
X010297Y014680D01*
X009973Y014680D01*
X009745Y014909D01*
X009745Y015232D01*
X009973Y015460D01*
X010297Y015460D01*
X010525Y015232D01*
X010525Y014909D01*
X010525Y014970D02*
X011395Y014970D01*
X011395Y015088D02*
X010525Y015088D01*
X010525Y015207D02*
X011395Y015207D01*
X011439Y015325D02*
X010431Y015325D01*
X010313Y015444D02*
X011557Y015444D01*
X011621Y014733D02*
X010349Y014733D01*
X010197Y014460D02*
X009873Y014460D01*
X009645Y014232D01*
X009645Y013909D01*
X009873Y013680D01*
X010197Y013680D01*
X010425Y013909D01*
X010425Y014232D01*
X010197Y014460D01*
X010279Y014377D02*
X010642Y014377D01*
X010565Y014259D02*
X010398Y014259D01*
X010425Y014140D02*
X010525Y014140D01*
X010525Y014022D02*
X010425Y014022D01*
X010420Y013903D02*
X010556Y013903D01*
X010620Y013785D02*
X010301Y013785D01*
X010758Y013666D02*
X007212Y013666D01*
X007246Y013680D02*
X007375Y013810D01*
X007445Y013979D01*
X007445Y014162D01*
X007375Y014331D01*
X007246Y014460D01*
X007077Y014530D01*
X006894Y014530D01*
X006724Y014460D01*
X006595Y014331D01*
X006525Y014162D01*
X006525Y013979D01*
X006595Y013810D01*
X006724Y013680D01*
X006894Y013610D01*
X007077Y013610D01*
X007246Y013680D01*
X007350Y013785D02*
X007769Y013785D01*
X007873Y013680D02*
X007645Y013909D01*
X007645Y014232D01*
X007873Y014460D01*
X008197Y014460D01*
X008425Y014232D01*
X008425Y013909D01*
X008197Y013680D01*
X007873Y013680D01*
X007650Y013903D02*
X007414Y013903D01*
X007445Y014022D02*
X007645Y014022D01*
X007645Y014140D02*
X007445Y014140D01*
X007405Y014259D02*
X007672Y014259D01*
X007791Y014377D02*
X007328Y014377D01*
X007160Y014496D02*
X010810Y014496D01*
X009921Y014733D02*
X008349Y014733D01*
X008297Y014680D02*
X008525Y014909D01*
X008525Y015232D01*
X008297Y015460D01*
X007973Y015460D01*
X007745Y015232D01*
X007745Y014909D01*
X007973Y014680D01*
X008297Y014680D01*
X008468Y014851D02*
X009802Y014851D01*
X009745Y014970D02*
X008525Y014970D01*
X008525Y015088D02*
X009745Y015088D01*
X009745Y015207D02*
X008525Y015207D01*
X008431Y015325D02*
X009839Y015325D01*
X009957Y015444D02*
X008313Y015444D01*
X007957Y015444D02*
X006313Y015444D01*
X006431Y015325D02*
X007839Y015325D01*
X007745Y015207D02*
X006525Y015207D01*
X006525Y015088D02*
X007745Y015088D01*
X007745Y014970D02*
X006525Y014970D01*
X006468Y014851D02*
X007802Y014851D01*
X007921Y014733D02*
X006349Y014733D01*
X006361Y014496D02*
X006810Y014496D01*
X006642Y014377D02*
X006479Y014377D01*
X006525Y014259D02*
X006565Y014259D01*
X006525Y014140D02*
X006525Y014140D01*
X006525Y014022D02*
X006525Y014022D01*
X006556Y013903D02*
X006420Y013903D01*
X006301Y013785D02*
X006620Y013785D01*
X006758Y013666D02*
X003462Y013666D01*
X003600Y013785D02*
X003969Y013785D01*
X003850Y013903D02*
X003664Y013903D01*
X003695Y014022D02*
X003745Y014022D01*
X003745Y014140D02*
X003695Y014140D01*
X003655Y014259D02*
X003745Y014259D01*
X003791Y014377D02*
X003578Y014377D01*
X002892Y014377D02*
X000395Y014377D01*
X000395Y014259D02*
X000746Y014259D01*
X000561Y014140D02*
X000395Y014140D01*
X000395Y014022D02*
X000484Y014022D01*
X000448Y013903D02*
X000395Y013903D01*
X000395Y013785D02*
X000448Y013785D01*
X000489Y013666D02*
X000395Y013666D01*
X000395Y013548D02*
X000574Y013548D01*
X000974Y013429D02*
X001776Y013429D01*
X001974Y013429D02*
X003989Y013429D01*
X003839Y015325D02*
X000395Y015325D01*
X000395Y015207D02*
X000628Y015207D01*
X000512Y015088D02*
X000395Y015088D01*
X000395Y014970D02*
X000463Y014970D01*
X000448Y014851D02*
X000395Y014851D01*
X000395Y014733D02*
X000462Y014733D01*
X000511Y014614D02*
X000395Y014614D01*
X000395Y014496D02*
X000626Y014496D01*
X001189Y014140D02*
X001561Y014140D01*
X001484Y014022D02*
X001266Y014022D01*
X001302Y013903D02*
X001448Y013903D01*
X001448Y013785D02*
X001302Y013785D01*
X001261Y013666D02*
X001489Y013666D01*
X001574Y013548D02*
X001176Y013548D01*
X001137Y013192D02*
X001613Y013192D01*
X001506Y013074D02*
X001244Y013074D01*
X001294Y012955D02*
X001456Y012955D01*
X001448Y012837D02*
X001302Y012837D01*
X001282Y012718D02*
X001468Y012718D01*
X001522Y012600D02*
X001228Y012600D01*
X001100Y012481D02*
X001650Y012481D01*
X001711Y012244D02*
X001039Y012244D01*
X001203Y012126D02*
X001547Y012126D01*
X001478Y012007D02*
X001272Y012007D01*
X001302Y011889D02*
X001448Y011889D01*
X001448Y011770D02*
X001302Y011770D01*
X001255Y011652D02*
X001495Y011652D01*
X001588Y011533D02*
X001162Y011533D01*
X002039Y012244D02*
X013295Y012244D01*
X013295Y012126D02*
X002203Y012126D01*
X002272Y012007D02*
X013295Y012007D01*
X013295Y011889D02*
X012164Y011889D01*
X012337Y011770D02*
X013295Y011770D01*
X013295Y011652D02*
X012455Y011652D01*
X012540Y011533D02*
X013295Y011533D01*
X013295Y011415D02*
X012589Y011415D01*
X012638Y011296D02*
X013295Y011296D01*
X013295Y011178D02*
X012656Y011178D01*
X012656Y011059D02*
X013295Y011059D01*
X013295Y010941D02*
X012656Y010941D01*
X012629Y010822D02*
X013295Y010822D01*
X013295Y010704D02*
X012580Y010704D01*
X012531Y010585D02*
X013295Y010585D01*
X013295Y010467D02*
X012433Y010467D01*
X012315Y010348D02*
X013295Y010348D01*
X013295Y010230D02*
X012111Y010230D01*
X011912Y010111D02*
X013295Y010111D01*
X013295Y009993D02*
X012078Y009993D01*
X012152Y009874D02*
X013412Y009874D01*
X013531Y009756D02*
X012190Y009756D01*
X012190Y009637D02*
X013649Y009637D01*
X012570Y007149D02*
X012180Y007149D01*
X012262Y007030D02*
X012488Y007030D01*
X012448Y006912D02*
X012302Y006912D01*
X012302Y006793D02*
X012448Y006793D01*
X012486Y006675D02*
X012264Y006675D01*
X012185Y006556D02*
X012565Y006556D01*
X012850Y006201D02*
X002128Y006201D01*
X002241Y006082D02*
X012968Y006082D01*
X013087Y005964D02*
X002290Y005964D01*
X002302Y005845D02*
X019375Y005845D01*
X019376Y005727D02*
X018746Y005727D01*
X018795Y005608D02*
X019376Y005608D01*
X019377Y005490D02*
X018795Y005490D01*
X018795Y005371D02*
X019377Y005371D01*
X019377Y005253D02*
X018795Y005253D01*
X018795Y005134D02*
X019378Y005134D01*
X019378Y005016D02*
X018795Y005016D01*
X018795Y004897D02*
X019379Y004897D01*
X019379Y004779D02*
X018795Y004779D01*
X018795Y004660D02*
X019380Y004660D01*
X019380Y004542D02*
X018795Y004542D01*
X018795Y004423D02*
X019380Y004423D01*
X019381Y004305D02*
X018795Y004305D01*
X018795Y004186D02*
X019381Y004186D01*
X019382Y004068D02*
X018795Y004068D01*
X018795Y003949D02*
X019382Y003949D01*
X019382Y003831D02*
X018795Y003831D01*
X018795Y003712D02*
X019383Y003712D01*
X019383Y003594D02*
X018795Y003594D01*
X018795Y003475D02*
X019384Y003475D01*
X019384Y003357D02*
X018795Y003357D01*
X018795Y003238D02*
X019385Y003238D01*
X019385Y003120D02*
X018795Y003120D01*
X018795Y003001D02*
X019385Y003001D01*
X019386Y002883D02*
X018795Y002883D01*
X018795Y002764D02*
X019386Y002764D01*
X019387Y002646D02*
X018795Y002646D01*
X018795Y002527D02*
X019387Y002527D01*
X019387Y002409D02*
X018795Y002409D01*
X018795Y002290D02*
X019388Y002290D01*
X019388Y002172D02*
X018795Y002172D01*
X018795Y002053D02*
X019389Y002053D01*
X019389Y001935D02*
X018795Y001935D01*
X018795Y001816D02*
X019389Y001816D01*
X019390Y001698D02*
X018795Y001698D01*
X018795Y001579D02*
X019390Y001579D01*
X019391Y001461D02*
X018795Y001461D01*
X018795Y001342D02*
X019391Y001342D01*
X019392Y001224D02*
X018879Y001224D01*
X018998Y001105D02*
X019392Y001105D01*
X019392Y000987D02*
X019116Y000987D01*
X019235Y000868D02*
X019393Y000868D01*
X019393Y000750D02*
X019353Y000750D01*
X016565Y006556D02*
X016185Y006556D01*
X016264Y006675D02*
X016486Y006675D01*
X016448Y006793D02*
X016302Y006793D01*
X016302Y006912D02*
X016448Y006912D01*
X016488Y007030D02*
X016262Y007030D01*
X016180Y007149D02*
X016570Y007149D01*
X015570Y007149D02*
X015180Y007149D01*
X015262Y007030D02*
X015488Y007030D01*
X015448Y006912D02*
X015302Y006912D01*
X015302Y006793D02*
X015448Y006793D01*
X015486Y006675D02*
X015264Y006675D01*
X015185Y006556D02*
X015565Y006556D01*
X013295Y012363D02*
X000395Y012363D01*
X000395Y010111D02*
X000532Y010111D01*
X000472Y009993D02*
X000395Y009993D01*
X000395Y009874D02*
X000448Y009874D01*
X000452Y009756D02*
X000395Y009756D01*
X000395Y009637D02*
X000501Y009637D01*
X000603Y009519D02*
X000395Y009519D01*
X000395Y009163D02*
X000584Y009163D01*
X000494Y009045D02*
X000395Y009045D01*
X000395Y008926D02*
X000448Y008926D01*
X000448Y008808D02*
X000395Y008808D01*
X000395Y008689D02*
X000480Y008689D01*
X000551Y008571D02*
X000395Y008571D01*
X000395Y008452D02*
X000720Y008452D01*
X000641Y008215D02*
X000395Y008215D01*
X000395Y008097D02*
X000518Y008097D01*
X000466Y007978D02*
X000395Y007978D01*
X000395Y007860D02*
X000448Y007860D01*
X000458Y007741D02*
X000395Y007741D01*
X000395Y007623D02*
X000507Y007623D01*
X000617Y007504D02*
X000395Y007504D01*
X000395Y008334D02*
X003816Y008334D01*
X002180Y007149D02*
X008570Y007149D01*
X008488Y007030D02*
X002262Y007030D01*
X002302Y006912D02*
X008448Y006912D01*
X008448Y006793D02*
X002302Y006793D01*
X002264Y006675D02*
X008486Y006675D01*
X008565Y006556D02*
X002185Y006556D01*
X001565Y006556D02*
X001185Y006556D01*
X001264Y006675D02*
X001486Y006675D01*
X001448Y006793D02*
X001302Y006793D01*
X001302Y006912D02*
X001448Y006912D01*
X001488Y007030D02*
X001262Y007030D01*
X001180Y007149D02*
X001570Y007149D01*
X002286Y005727D02*
X003024Y005727D01*
X002975Y005134D02*
X002195Y005134D01*
X002268Y005016D02*
X002975Y005016D01*
X002975Y004897D02*
X002302Y004897D01*
X002302Y004779D02*
X002975Y004779D01*
X002975Y004660D02*
X002258Y004660D01*
X002170Y004542D02*
X002975Y004542D01*
X002975Y004186D02*
X002143Y004186D01*
X002247Y004068D02*
X002975Y004068D01*
X002975Y003949D02*
X002296Y003949D01*
X002302Y003831D02*
X002975Y003831D01*
X002975Y003712D02*
X002280Y003712D01*
X002222Y003594D02*
X002975Y003594D01*
X002975Y002290D02*
X001999Y002290D01*
X001982Y002296D02*
X001913Y002307D01*
X001913Y001889D01*
X002331Y001889D01*
X002321Y001957D01*
X002298Y002026D01*
X002266Y002090D01*
X002223Y002148D01*
X002173Y002199D01*
X002114Y002241D01*
X002050Y002274D01*
X001982Y002296D01*
X001913Y002290D02*
X001837Y002290D01*
X001837Y002172D02*
X001913Y002172D01*
X001913Y002053D02*
X001837Y002053D01*
X001837Y001935D02*
X001913Y001935D01*
X001913Y001698D02*
X001837Y001698D01*
X001837Y001579D02*
X001913Y001579D01*
X001913Y001461D02*
X001837Y001461D01*
X001634Y001461D02*
X001116Y001461D01*
X001243Y001579D02*
X001507Y001579D01*
X001444Y001698D02*
X001306Y001698D01*
X001324Y001935D02*
X001426Y001935D01*
X001466Y002053D02*
X001284Y002053D01*
X001200Y002172D02*
X001550Y002172D01*
X002200Y002172D02*
X002975Y002172D01*
X002975Y002053D02*
X002284Y002053D01*
X002324Y001935D02*
X002975Y001935D01*
X000696Y003238D02*
X000395Y003238D01*
X000395Y003120D02*
X000541Y003120D01*
X000476Y003001D02*
X000395Y003001D01*
X000395Y002883D02*
X000448Y002883D01*
X000449Y002764D02*
X000395Y002764D01*
X000395Y002646D02*
X000498Y002646D01*
X000444Y001698D02*
X000395Y001698D01*
X000395Y001579D02*
X000507Y001579D01*
X000395Y001461D02*
X000634Y001461D01*
X000428Y000750D02*
X000395Y000750D01*
X000395Y000631D02*
X000474Y000631D01*
X000395Y000513D02*
X000566Y000513D01*
X007375Y009163D02*
X008595Y009163D01*
X008476Y009045D02*
X007494Y009045D01*
X007612Y008926D02*
X007799Y008926D01*
X008171Y008926D02*
X008358Y008926D01*
X009180Y007149D02*
X009570Y007149D01*
X009488Y007030D02*
X009262Y007030D01*
X009302Y006912D02*
X009448Y006912D01*
X009448Y006793D02*
X009302Y006793D01*
X009264Y006675D02*
X009486Y006675D01*
X009565Y006556D02*
X009185Y006556D01*
X010185Y006556D02*
X010565Y006556D01*
X010486Y006675D02*
X010264Y006675D01*
X010302Y006793D02*
X010448Y006793D01*
X010448Y006912D02*
X010302Y006912D01*
X010262Y007030D02*
X010488Y007030D01*
X010570Y007149D02*
X010180Y007149D01*
X011180Y007149D02*
X011570Y007149D01*
X011488Y007030D02*
X011262Y007030D01*
X011302Y006912D02*
X011448Y006912D01*
X011448Y006793D02*
X011302Y006793D01*
X011264Y006675D02*
X011486Y006675D01*
X011565Y006556D02*
X011185Y006556D01*
X013295Y012481D02*
X002100Y012481D01*
X001611Y016510D02*
X001139Y016510D01*
X001245Y016629D02*
X001505Y016629D01*
X001456Y016747D02*
X001294Y016747D01*
X001302Y016866D02*
X001448Y016866D01*
X001469Y016984D02*
X001281Y016984D01*
X001226Y017103D02*
X001524Y017103D01*
X001655Y017221D02*
X001095Y017221D01*
X008279Y014377D02*
X009791Y014377D01*
X009672Y014259D02*
X008398Y014259D01*
X008425Y014140D02*
X009645Y014140D01*
X009645Y014022D02*
X008425Y014022D01*
X008420Y013903D02*
X009650Y013903D01*
X009769Y013785D02*
X008301Y013785D01*
X012301Y013785D02*
X013045Y013785D01*
X013045Y013903D02*
X012420Y013903D01*
X012425Y014022D02*
X013045Y014022D01*
X013045Y014140D02*
X012425Y014140D01*
X012398Y014259D02*
X013045Y014259D01*
X013045Y014377D02*
X012279Y014377D01*
D21*
X011735Y017570D02*
X011235Y018070D01*
X010985Y018070D01*
X011735Y018511D02*
X011735Y018570D01*
X012235Y019070D01*
X014735Y019070D01*
X015235Y018570D01*
X015485Y018511D01*
X014785Y018070D02*
X014735Y018070D01*
X014235Y017570D01*
X011735Y017570D01*
X011735Y018570D02*
X011235Y019070D01*
X008735Y019070D01*
X008235Y018570D01*
X007985Y018511D01*
X007735Y018570D01*
X007235Y019070D01*
X004735Y019070D01*
X004235Y018570D01*
X004235Y018511D01*
X003735Y017570D02*
X006235Y017570D01*
X006735Y018070D01*
X006985Y018070D01*
X003735Y017570D02*
X003235Y018070D01*
X001875Y020850D02*
X001735Y021070D01*
X003235Y022570D01*
X004235Y023039D02*
X004235Y023070D01*
X004735Y023570D01*
X018735Y023570D01*
X018735Y015070D01*
X017735Y014070D01*
X017875Y013850D01*
X017235Y014570D02*
X015235Y014570D01*
X015235Y015070D02*
X016735Y015070D01*
X017735Y016070D01*
X017875Y015850D01*
X017735Y015070D02*
X017875Y014850D01*
X017735Y015070D02*
X017235Y014570D01*
X017875Y016850D02*
X017735Y017070D01*
X016735Y018070D01*
X016735Y023070D01*
X015735Y023070D01*
X015485Y023039D01*
X019235Y023070D02*
X019735Y023070D01*
X019875Y022850D01*
X014735Y009070D02*
X012235Y009070D01*
X011735Y008570D01*
X011735Y008511D01*
X011735Y008570D02*
X011235Y009070D01*
X008735Y009070D01*
X008235Y008570D01*
X007985Y008511D01*
X007735Y008570D01*
X007235Y009070D01*
X004735Y009070D01*
X004235Y008570D01*
X004235Y008511D01*
X013735Y007070D02*
X013875Y006850D01*
X013735Y007070D02*
X014235Y007570D01*
X018235Y007570D01*
X015485Y008511D02*
X015235Y008570D01*
X014735Y009070D01*
X006235Y030970D02*
X006235Y031070D01*
D22*
X009485Y018570D03*
X014735Y009570D03*
X018735Y006820D03*
D23*
X018735Y006320D01*
X018485Y006070D01*
X013235Y006070D01*
X012875Y006430D01*
X012875Y006850D01*
D24*
X015235Y014570D03*
X015235Y015070D03*
X018235Y007570D03*
X003235Y022570D03*
D25*
X001751Y024314D02*
X002757Y025320D01*
X005985Y025320D01*
X006501Y024804D01*
X006501Y024314D01*
X011251Y024314D02*
X011251Y024836D01*
X011735Y025320D01*
X014995Y025320D01*
X016001Y024314D01*
M02*
