%
M48
M72
T01C0.0150
T02C0.0236
T03C0.0320
T04C0.0394
T05C0.0400
T06C0.0433
T07C0.0440
T08C0.0630
T09C0.1181
%
T01
X15235Y14570
X15235Y15070
X18235Y7570
X3235Y22570
T02
X9485Y18570
X14735Y9570
X18735Y6820
T03
X4135Y14170
X4135Y15070
X6135Y15070
X6135Y14170
X8035Y14070
X8135Y15070
X10135Y15070
X10035Y14070
X11785Y15120
X12035Y14070
X13785Y15120
X14035Y14070
X16235Y13970
X16235Y15970
X16135Y16970
X16135Y18970
T04
X1875Y850
X1875Y1850
X1875Y2850
X1875Y3850
X1875Y4850
X1875Y5850
X1875Y6850
X1875Y7850
X1875Y8850
X1875Y9850
X1875Y10850
X1875Y11850
X1875Y12850
X1875Y13850
X1875Y14850
X1875Y15850
X1875Y16850
X1875Y17850
X1875Y18850
X1875Y19850
X1875Y20850
X1875Y21850
X1875Y22850
X875Y22850
X875Y21850
X875Y20850
X875Y19850
X875Y18850
X875Y17850
X875Y16850
X875Y15850
X875Y14850
X875Y13850
X875Y12850
X875Y11850
X875Y10850
X875Y9850
X875Y8850
X875Y7850
X875Y6850
X875Y5850
X875Y4850
X875Y3850
X875Y2850
X875Y1850
X875Y850
X8875Y6850
X9875Y6850
X10875Y6850
X11875Y6850
X12875Y6850
X13875Y6850
X14875Y6850
X15875Y6850
X16875Y6850
X17875Y6850
X19875Y6850
X19875Y5850
X19875Y4850
X19875Y3850
X19875Y2850
X19875Y1850
X19875Y850
X20875Y850
X20875Y1850
X20875Y2850
X20875Y3850
X20875Y4850
X20875Y5850
X20875Y6850
X20875Y7850
X20875Y8850
X20875Y9850
X20875Y10850
X20875Y11850
X20875Y12850
X20875Y13850
X20875Y14850
X20875Y15850
X20875Y16850
X20875Y17850
X20875Y18850
X20875Y19850
X20875Y20850
X20875Y21850
X20875Y22850
X19875Y22850
X19875Y21850
X19875Y20850
X19875Y19850
X19875Y18850
X19875Y17850
X19875Y16850
X19875Y15850
X19875Y14850
X19875Y13850
X19875Y12850
X19875Y11850
X19875Y10850
X19875Y9850
X19875Y8850
X19875Y7850
X17875Y13850
X17875Y14850
X17875Y15850
X17875Y16850
X17875Y17850
X17875Y18850
X17875Y19850
X17875Y20850
X17875Y21850
X17875Y22850
T05
X1235Y31970
X2235Y30970
X2235Y31970
X3235Y31970
X3235Y30970
X4235Y30970
X4235Y31970
X5235Y31970
X5235Y30970
X6235Y30970
X6235Y31970
X7235Y31970
X7235Y30970
X8235Y30970
X8235Y31970
X1235Y30970
T06
X4235Y8511
X4235Y9692
X4235Y13039
X4235Y18511
X4235Y19692
X4235Y23039
X3719Y24314
X2735Y24314
X1751Y24314
X6501Y24314
X7485Y24314
X7985Y23039
X8469Y24314
X11251Y24314
X11735Y23039
X12235Y24314
X13219Y24314
X15485Y23039
X16001Y24314
X16985Y24314
X17969Y24314
X15485Y19692
X15485Y18511
X15485Y13039
X15485Y9692
X15485Y8511
X11735Y8511
X11735Y9692
X11735Y13039
X11735Y18511
X11735Y19692
X7985Y19692
X7985Y18511
X7985Y13039
X7985Y9692
X7985Y8511
T07
X3235Y14070
X3235Y18070
X6985Y18070
X6985Y14070
X10985Y14070
X10985Y18070
X14785Y18070
X14785Y14070
T08
X963Y27070
X4507Y27070
X5713Y27070
X9257Y27070
X10463Y27070
X14007Y27070
X15213Y27070
X18757Y27070
T09
X4235Y11070
X7985Y11070
X11735Y11070
X15485Y11070
X15485Y21070
X11735Y21070
X7985Y21070
X4235Y21070
M30
